<svg fill="none" height="12" viewBox="0 0 16 12" width="16" xmlns="http://www.w3.org/2000/svg" xmlns:xlink="http://www.w3.org/1999/xlink"><clipPath id="a"><path d="m0 0h16v12h-16z"/></clipPath><g clip-path="url(#a)"><path d="m0 0h16v12h-16z" fill="#fff"/><g clip-rule="evenodd" fill-rule="evenodd"><path d="m0 0h16v12h-16z" fill="#f50100"/><path d="m7.94119 7.49086c-.04732-.00756-.09362-.01845-.13863-.03245-.68513.53286-1.34506.89461-1.98333 1.08196-.26497.07777-.54281-.07398-.62058-.33894-.07778-.26497.07397-.54281.33894-.62058.39426-.11572.81438-.3238 1.25876-.62573-.29205.04701-.59464.09853-.77615.13734-.14848.03175-.32677.12374-.49756.21187-.33274.17169-.63701.32869-.63701-.00309 0-.50208.29208-.65222.83407-.87916.39871-.16695.65031-.16183.89271-.15691h.00001c.0871.00177.17301.00352.26413-.00275.05106-.00352.10584-.00947.16212-.01707l-.01649-.09347c-.05048-.00656-.09957-.01172-.14563-.01489-.09112-.00627-.17703-.00452-.26413-.00275h-.00001c-.2424.00492-.494.01004-.89271-.15691-.54199-.22694-.83407-.37709-.83407-.87916 0-.33178.30427-.17478.63701-.00309.17079.08813.34908.18012.49756.21187.2032.04344.55813.10282.88015.15397l-.0078-.04425c-.06662-.03826-.12864-.08216-.18261-.13252-.22475-.20972-.40845-.24467-.63648-.28807-.15209-.02894-.3239-.06164-.54075-.15244-.54199-.22694-.86838-.67038-.86838-1.17246 0-.32593.281-.1145.61553.13719.18078.13602.3772.28381.55335.36489.17365.07993.35106.14424.51332.20306h.00001c.16637.0603.31682.11484.43096.17452.00219-.02207.0051-.04395.00873-.06561-.06006-.04323-.11185-.09444-.15079-.15509-.2658-.414-.62246-.56334-1.1611-.78888l-.00599-.00251c-.54199-.22694-.86837-.67038-.86837-1.17245 0-.32594.281-.11451.61552.13718.18079.13602.37721.28381.55335.36489.50208.23112.88807.43001 1.13337.89733.04776.09098.09657.15468.14423.19827.06139-.06496.13145-.12182.20841-.16862-.10338-.74774-.27823-1.12321-.4436-1.15398-.27148-.05051-.45062-.31153-.40011-.58302.05051-.27148.31154-.45062.58302-.40011.66818.12432 1.04758.74441 1.22604 1.83037.17846-1.08596.55785-1.70605 1.22603-1.83037.27149-.05051.53251.12863.58306.40011.0505.27149-.12867.53251-.40015.58302-.16494.03069-.33932.4043-.4428 1.14819.08795.03784.16894.0878.24113.14756.03896-.04173.07841-.0976.11716-.17142.24529-.46732.63126-.66621 1.13336-.89733.1761-.08108.3726-.22886.5534-.36489.3345-.25169.6155-.46312.6155-.13718 0 .50207-.3264.94551-.8684 1.17245l-.006.00251c-.5386.22554-.8953.37488-1.16108.78888-.01889.02942-.04079.05661-.0652.08175.00932.0299.01726.06035.02375.09125.09641-.04203.20915-.08289.33033-.12682.1623-.05882.3397-.12313.5134-.20306.1761-.08108.3725-.22887.5533-.36489.3345-.25169.6155-.46312.6155-.13719 0 .50208-.3264.94552-.8683 1.17246-.2169.0908-.3887.1235-.5408.15244-.228.0434-.41173.07835-.63648.28807-.01547.01444-.03161.02835-.04833.04175l-.02279.11593c.28728-.04635.5825-.09675.7609-.13488.1484-.03175.3267-.12374.4975-.21187.3328-.17169.637-.32869.637.00309 0 .50207-.2921.65222-.834.87916-.3988.16695-.6504.16183-.89275.15691h-.00001c-.0871-.00177-.17301-.00352-.26414.00275-.01369.00095-.02765.00206-.04183.00334l-.02292.11657c.02211.00221.04375.00407.06475.00552.09113.00627.17704.00452.26414.00275h.00001c.24235-.00492.49395-.01004.89275.15691.5419.22694.834.37708.834.87916 0 .33178-.3042.17478-.637.00309v-.00001c-.1708-.08812-.3491-.18011-.4975-.21186-.173-.03698-.45598-.08551-.73498-.13069.44078.29834.85758.50421 1.24898.61908.2649.07777.4167.35561.3389.62058-.0778.26496-.3556.41671-.6206.33894-.6333-.18589-1.28791-.54349-1.96733-1.06957-.02788.00731-.0562.01344-.0849.01834.12208.54442 1.07759.9936 1.07759.9936s-1.22049 2.34856-1.41413 2.34856c-.19363 0-1.49177-2.34856-1.49177-2.34856.67963-.25253 1.03327-.76375 1.16273-.99188z" fill="#1a1a1a"/></g></g></svg>