<svg fill="none" height="12" viewBox="0 0 16 12" width="16" xmlns="http://www.w3.org/2000/svg" xmlns:xlink="http://www.w3.org/1999/xlink"><clipPath id="a"><path d="m0 0h16v12h-16z"/></clipPath><mask id="b" height="12" maskUnits="userSpaceOnUse" width="16" x="0" y="0"><path clip-rule="evenodd" d="m0 0v12h16v-12z" fill="#fff" fill-rule="evenodd"/></mask><mask id="c" fill="#fff"><path clip-rule="evenodd" d="m9.88892-1h-3.77778v5h-7.097346v4h7.097346v5h3.77778v-5h7.12488v-4h-7.12488z" fill="#fff" fill-rule="evenodd"/></mask><g clip-path="url(#a)"><path d="m0 0h16v12h-16z" fill="#fff"/><path clip-rule="evenodd" d="m0 0v12h16v-12z" fill="#2e42a5" fill-rule="evenodd"/><g mask="url(#b)"><path d="m-1.78149 11.1427 3.52084 1.489 14.34065-11.01277 1.8571-2.212736-3.765-.497674-5.8492 4.74573-4.708 3.19752z" fill="#fff"/><path d="m-1.29944 12.186 1.793709.8641 16.776031-13.849491h-2.5186z" fill="#f50100"/><path d="m17.7816 11.1427-3.5208 1.489-14.3406473-11.01277-1.8571627-2.212736 3.76503-.497674 5.8492 4.74573 4.70798 3.19752z" fill="#fff"/><path d="m17.6615 11.8914-1.7937.8642-7.14341-5.92972-2.11787-.66251-8.72221-6.749601h2.51857l8.71732 6.589391 2.3155.79442z" fill="#f50100"/><path clip-rule="evenodd" d="m9.88892-1h-3.77778v5h-7.097346v4h7.097346v5h3.77778v-5h7.12488v-4h-7.12488z" fill="#f50100" fill-rule="evenodd"/><path d="m6.11114-1v-1h-1v1zm3.77778 0h.99998v-1h-.99998zm-3.77778 5v1h1v-1zm-7.097346 0v-1h-1.000004v1zm0 4h-1.000004v1h1.000004zm7.097346 0h1v-1h-1zm0 5h-1v1h1zm3.77778 0v1h.99998v-1zm0-5v-1h-1v1zm7.12488 0v1h1v-1zm0-4h1v-1h-1zm-7.12488 0h-1v1h1zm-3.77778-4h3.77778v-2h-3.77778zm1 4v-5h-2v5zm-8.097346 1h7.097346v-2h-7.097346zm.9999999 3v-4h-2.0000039v4zm6.0973461-1h-7.097346v2h7.097346zm1 6v-5h-2v5zm2.77778-1h-3.77778v2h3.77778zm-1-4v5h1.99998v-5zm8.12488-1h-7.12488v2h7.12488zm-1-3v4h2v-4zm-6.12488 1h7.12488v-2h-7.12488zm-1-6v5h1.99998v-5z" fill="#fff" mask="url(#c)"/></g></g></svg>