<svg fill="none" height="12" viewBox="0 0 16 12" width="16" xmlns="http://www.w3.org/2000/svg" xmlns:xlink="http://www.w3.org/1999/xlink"><clipPath id="a"><path d="m0 0h16v12h-16z"/></clipPath><g clip-path="url(#a)"><path d="m0 0h16v12h-16z" fill="#fff"/><path d="m0 0h16v12h-16z" fill="#f7fcff"/><g clip-rule="evenodd" fill-rule="evenodd"><path d="m0 8h16v4h-16z" fill="#c51918"/><path d="m8.22896.633331h-.94737v.847619h.46762l-.03336 2.33095h-1.38162v-1.05952h.47368v-.84762h-.94737v.42381h-.47368v-.42381h-.94737v.84762h.47368v1.05952h-.99892v.84762h.47368v2.54286h-.47368v.84762h8.99995v-.84762h-.9473v-2.54286h.9473v-.84762h-.9286l.0235-1.05952h.483v-.84762h-.9473v.42381h-.4737v-.42381h-.9474v.84762h.4643l-.0234 1.05952h-1.4277l.03337-2.33095h.47975v-.847619h-.94737v.423809h-.47369z" fill="#db000b"/><path d="m5.80792 6.84514c0-.30521.24742-.55263.55263-.55263s.55264.24742.55264.55263v.91404h-1.10527z" fill="#272727"/><path d="m9.86053 6.84514c0-.30521.24747-.55263.55267-.55263s.5526.24742.5526.55263v.91404h-1.10527z" fill="#272727"/><path d="m7.65002 6.66268c0-.40694.3299-.73684.73685-.73684.40694 0 .73684.3299.73684.73684v1.46316h-1.47369z" fill="#272727"/><path d="m8.66114 7.59863-.0904.16598-.16836-.25121-1.37943.92447 1.53794.73191 1.35637-.88696zm-.62986.76537.44374-.29738.4688.25534-.42159.27569z" fill="#e8aa00"/><path d="m7.57892 10.2667h.73684v.7333h-.73684z" fill="#e8aa00"/><path d="m8 9h.87441v2h-.87441z" fill="#e8aa00"/></g></g></svg>