<svg fill="none" height="12" viewBox="0 0 16 12" width="16" xmlns="http://www.w3.org/2000/svg" xmlns:xlink="http://www.w3.org/1999/xlink"><clipPath id="a"><path d="m0 0h16v12h-16z"/></clipPath><mask id="b" height="8" maskUnits="userSpaceOnUse" width="12" x="2" y="2"><path clip-rule="evenodd" d="m2 2h12v8h-12z" fill="#fff" fill-rule="evenodd"/><path d="m2.5 2.5h11v7h-11z" fill="none" stroke="#fff"/></mask><mask id="c" height="6" maskUnits="userSpaceOnUse" width="5" x="6" y="3"><path d="m8.6658 7.60259c-.15954.17388-.32017.32268-.45979.44137-.14202-.12315-.30608-.27758-.46899-.45719-.45828-.50526-.81201-1.10369-.81201-1.70296 0-.58691.34206-1.128.78706-1.57198.17291-.17252.34744-.3161.49436-.42594.14451.1055.31543.24346.48479.4103.43811.43159.78379.97256.78379 1.58762 0 .62697-.35689 1.22578-.80921 1.71878z" fill="#fff"/><path d="m8.6658 7.60259c-.15954.17388-.32017.32268-.45979.44137-.14202-.12315-.30608-.27758-.46899-.45719-.45828-.50526-.81201-1.10369-.81201-1.70296 0-.58691.34206-1.128.78706-1.57198.17291-.17252.34744-.3161.49436-.42594.14451.1055.31543.24346.48479.4103.43811.43159.78379.97256.78379 1.58762 0 .62697-.35689 1.22578-.80921 1.71878z" fill="none" stroke="#fff" stroke-width="1.45"/></mask><g clip-path="url(#a)"><path d="m0 0h16v12h-16z" fill="#fff"/><path clip-rule="evenodd" d="m0 0h16v12h-16z" fill="#c51918" fill-rule="evenodd"/><path clip-rule="evenodd" d="m2 2h12v8h-12z" fill="#4564f9" fill-rule="evenodd"/><path d="m2.5 2.5h11v7h-11z" stroke="#cbdaff" stroke-opacity=".1"/><g mask="url(#b)"><path clip-rule="evenodd" d="m8 1.99995s3 1.44777 3 3.85886-3 4.14114-3 4.14114-3-1.79784-3-4.14114c0-2.34331 3-3.85886 3-3.85886z" fill="#cce0e5" fill-rule="evenodd"/><path d="m8 1.99995.3151-.65294-.32244-.15561-.31957.16144zm0 0c.3151-.65294.31532-.65283.31555-.65272l.00052.00025.00125.00061.00332.00161.00988.00487.03224.01621c.02685.01368.06422.0331.11063.05816.09271.05006.22204.12294.37585.21777.3061.18872.71695.46918 1.13107.83544.80629.71313 1.74469 1.86006 1.74469 3.37666 0 1.50305-.9246 2.71664-1.7179 3.49292-.40903.40021-.81527.71577-1.11838.93117-.15221.1082-.28009.1923-.37157.2503-.04578.029-.08257.0516-.10886.0675l-.03144.0187-.0095.0056-.00313.0018-.00115.0007-.00048.0003c-.00021.0001-.0004.0002-.36259-.62785m0-8c-.32691-.64711-.32712-.647-.32734-.64689l-.0005.00025-.0012.00061-.00323.00165-.00969.00499-.03185.01672c-.02659.01412-.06369.0342-.1098.06007-.09214.05168-.22082.12681-.37394.22409-.30476.19363-.71384.47983-1.12618.84917-.79884.71555-1.74127 1.86259-1.74127 3.3482 0 1.47165.9282 2.6858 1.71497 3.46458.40743.40328.81212.72451 1.11402.94481.15158.1105.27888.1968.36983.2564.04551.0298.08205.053.1081.0693l.03108.0192.00932.0057.00305.0019.00111.0006.00046.0003c.00019.0001.00038.0002.37306-.62165m0 0 .36219.62805-.36925.2129-.36562-.2191z" stroke="#c1c9f1" stroke-opacity=".1482" stroke-width="1.45"/><path d="m8.20001 3.01839.34326-.63859-.35125-.18881-.34754.19556zm0 0c.34326-.63859.34348-.63847.34372-.63835l.0005.00027.00115.00062.00284.00155.00788.00432.02414.01352c.0197.01118.0465.0267.07939.04648.06569.03951.1562.09634.2633.16989.21291.14621.49817.36311.78588.64654.56189.55352 1.21619 1.44527 1.21619 2.62058 0 1.16342-.6431 2.10214-1.19077 2.69906-.28221.30759-.56237.55003-.77176.71576-.10524.0833-.19405.14837-.25827.19373-.03215.0227-.05824.04054-.07728.05334l-.02317.01541-.00741.00484-.00262.0017-.00104.00066-.00044.00029c-.00021.00013-.0004.00026-.39223-.60974m0-5.94047c-.35553-.63184-.35574-.63172-.35596-.6316l-.00048.00027-.00109.00062-.00275.00156-.00766.00439-.02371.01386c-.0194.01148-.04589.02746-.07846.04781-.06505.04064-.15485.09906-.2612.17432-.21142.14963-.49484.37047-.78075.65572-.55499.55372-1.21294 1.44535-1.21294 2.59847 0 1.14079.64628 2.07987 1.18799 2.67712.28067.30945.55926.55577.76733.72483.10458.08497.19277.15157.25641.19801.03186.02325.05768.04152.07645.05459l.02278.01571.00722.0049.00253.0017.00098.00066.00043.00028c.00019.00013.00038.00025.40288-.60275m0 0 .39183.61-.39946.25658-.39487-.26358z" fill="#cce0e5"/><path d="m8.20001 3.01839.34326-.63859-.35125-.18881-.34754.19556zm0 0c.34326-.63859.34348-.63847.34372-.63835l.0005.00027.00115.00062.00284.00155.00788.00432.02414.01352c.0197.01118.0465.0267.07939.04648.06569.03951.1562.09634.2633.16989.21291.14621.49817.36311.78588.64654.56189.55352 1.21619 1.44527 1.21619 2.62058 0 1.16342-.6431 2.10214-1.19077 2.69906-.28221.30759-.56237.55003-.77176.71576-.10524.0833-.19405.14837-.25827.19373-.03215.0227-.05824.04054-.07728.05334l-.02317.01541-.00741.00484-.00262.0017-.00104.00066-.00044.00029c-.00021.00013-.0004.00026-.39223-.60974m0-5.94047c-.35553-.63184-.35574-.63172-.35596-.6316l-.00048.00027-.00109.00062-.00275.00156-.00766.00439-.02371.01386c-.0194.01148-.04589.02746-.07846.04781-.06505.04064-.15485.09906-.2612.17432-.21142.14963-.49484.37047-.78075.65572-.55499.55372-1.21294 1.44535-1.21294 2.59847 0 1.14079.64628 2.07987 1.18799 2.67712.28067.30945.55926.55577.76733.72483.10458.08497.19277.15157.25641.19801.03186.02325.05768.04152.07645.05459l.02278.01571.00722.0049.00253.0017.00098.00066.00043.00028c.00019.00013.00038.00025.40288-.60275m0 0 .39183.61-.39946.25658-.39487-.26358z" stroke="#c1c9f1" stroke-opacity=".748217" stroke-width="1.45"/><path d="m8.20001 3.01839.34326-.63859-.35125-.18881-.34754.19556zm0 0c.34326-.63859.34348-.63847.34372-.63835l.0005.00027.00115.00062.00284.00155.00788.00432.02414.01352c.0197.01118.0465.0267.07939.04648.06569.03951.1562.09634.2633.16989.21291.14621.49817.36311.78588.64654.56189.55352 1.21619 1.44527 1.21619 2.62058 0 1.16342-.6431 2.10214-1.19077 2.69906-.28221.30759-.56237.55003-.77176.71576-.10524.0833-.19405.14837-.25827.19373-.03215.0227-.05824.04054-.07728.05334l-.02317.01541-.00741.00484-.00262.0017-.00104.00066-.00044.00029c-.00021.00013-.0004.00026-.39223-.60974m0-5.94047c-.35553-.63184-.35574-.63172-.35596-.6316l-.00048.00027-.00109.00062-.00275.00156-.00766.00439-.02371.01386c-.0194.01148-.04589.02746-.07846.04781-.06505.04064-.15485.09906-.2612.17432-.21142.14963-.49484.37047-.78075.65572-.55499.55372-1.21294 1.44535-1.21294 2.59847 0 1.14079.64628 2.07987 1.18799 2.67712.28067.30945.55926.55577.76733.72483.10458.08497.19277.15157.25641.19801.03186.02325.05768.04152.07645.05459l.02278.01571.00722.0049.00253.0017.00098.00066.00043.00028c.00019.00013.00038.00025.40288-.60275m0 0 .39183.61-.39946.25658-.39487-.26358z" stroke="#c51918" stroke-width="1.45"/><g mask="url(#c)"><path d="m6.46667 7h3.73333v.75h-3.73333z" fill="#91cbcb"/><path clip-rule="evenodd" d="m6.8009 7.59896s2.64703.00095 2.89031-.0904c.24329-.09134-.45673 1.75378-1.35115 1.75378s-1.53916-1.66338-1.53916-1.66338z" fill="#fdf9a1" fill-rule="evenodd"/><path d="m9.29681 7.37755-.47552.36591c-.74944-.97394-1.06381-1.98147-.92963-3.00974l.59496.07763c-.11239.86127.15318 1.71239.81019 2.5662z" fill="#a68861"/><g clip-rule="evenodd" fill="#239e46" fill-rule="evenodd"><path d="m8.19684 4.81836-.45366.53158c-.01702.01994-.04936.00356-.04335-.02196l.15605-.66278h-.70966c-.02708 0-.03484-.03703-.01004-.0479l.6064-.26585-.43041-.56744c-.01524-.0201.0055-.04757.029-.0384l.67683.26384.15451-.62171c.00629-.02531.04228-.02529.04854.00002l.1537.62169.67096-.26124c.024-.00934.04475.01932.02837.0392l-.46481.56404.64136.26565c.02527.01047.01779.0481-.00957.0481h-.63179l.09615.67807c.00351.02478-.02752.03878-.04377.01974z"/><path d="m7.79999 6.5h2.40001v.525h-2.40001z"/></g></g></g></g></svg>