<svg fill="none" height="12" viewBox="0 0 16 12" width="16" xmlns="http://www.w3.org/2000/svg" xmlns:xlink="http://www.w3.org/1999/xlink"><clipPath id="a"><path d="m0 0h16v12h-16z"/></clipPath><g clip-path="url(#a)"><path d="m0 0h16v12h-16z" fill="#fff"/><g fill="#f7fcff"><path clip-rule="evenodd" d="m0 0h16v12h-16z" fill-rule="evenodd"/><path d="m-1.35074.622384-1.02427-.6193506v1.1969666 10 1.197l1.02427-.6194 8.26889-4.99999.95524-.57761-.95524-.57762z" stroke="#e31d1c" stroke-width="1.35"/><path d="m17.4604.616293 1.014-.5888844v1.1725914 10 1.1726l-1.014-.5889-8.60937-5-1.00507-.5837 1.00507-.58371z" stroke="#e31d1c" stroke-width="1.35"/></g><path clip-rule="evenodd" d="m6.83738 2.3515s-.42932 1.89916 1.05305 2.62856c0 0 1.4231-.77566 1.10346-2.62856 0 0-.61118-.20444-1.09715-.20444s-1.05936.20444-1.05936.20444z" fill="#e31d1c" fill-rule="evenodd"/><path d="m6.71063 2.54761-.32458-.94586c.60518-.20768 1.12786-.31382 1.57433-.31382.45766 0 .93483.11129 1.43049.32894l-.40205.91561c-.37504-.16468-.7175-.24455-1.02844-.24455-.32212 0-.74081.08503-1.24975.25968z" fill="#feca00"/><path d="m7.92499 3.95c.34518 0 .625-.27983.625-.625 0-.34518-.27982-.625-.625-.625s-.625.27982-.625.625c0 .34517.27982.625.625.625z" fill="#feca00"/></g></svg>