<svg fill="none" height="12" viewBox="0 0 16 12" width="16" xmlns="http://www.w3.org/2000/svg" xmlns:xlink="http://www.w3.org/1999/xlink"><clipPath id="a"><path d="m0 0h16v12h-16z"/></clipPath><mask id="b" height="12" maskUnits="userSpaceOnUse" width="16" x="0" y="0"><path clip-rule="evenodd" d="m0 0v12h16v-12z" fill="#fff" fill-rule="evenodd"/></mask><g clip-path="url(#a)"><path d="m0 0h16v12h-16z" fill="#fff"/><g clip-rule="evenodd" fill-rule="evenodd"><path d="m0 0v12h16v-12z" fill="#e11c1b"/><g mask="url(#b)"><path d="m0 0v5h16v-5z" fill="#272727"/><path d="m0 8v4h16v-4z" fill="#5eaa22"/><path d="m2.00077 6.97294v-.00121l-.00468.0008zm.31423-1.90954h.05149l-.07892-.01208zm1.46376 0c.02618-.05032.05351-.10009.08197-.1493l-1.14473-.75775 1.35019.43921c.07551-.10559.15647-.20797.24255-.30684l-.99221-.94466 1.26442.65981c.09275-.08857.18997-.17358.29135-.25478l-.80245-1.10852 1.13327.86695c.10543-.07008.21439-.13638.32663-.19867l-.57799-1.24037.95732 1.05085c.11409-.05101.23091-.0981.35023-.14106l-.32542-1.33209.74127 1.20198c.11934-.0319.24072-.05979.36391-.08351l-.05437-1.3774.49307 1.3117c.12174-.01312.24494-.02222.3694-.02714l.22324-1.37181.2233 1.37221c.12431.00514.24735.01445.36895.02777l.49345-1.31273-.05445 1.37929c.12275.02387.24369.05189.36259.08389l.74265-1.20425-.32619 1.33536c.11861.04296.23479.09001.34819.14093l.9602-1.05399-.5801 1.24473c.1114.06206.2195.12807.3241.19781l1.1379-.87045-.8061 1.11352c.1004.08071.1967.16516.2886.25311l1.2708-.66314-.9976.94979c.0851.0981.1652.19963.2399.30431l1.3582-.44181-1.1518.76247c.0274.04767.0539.09587.0792.14458h-.9825c-.677-.9385-1.91447-1.56681-3.32884-1.56681s-2.65183.62831-3.32888 1.56681zm1.50102 0c.64145-.66159 1.64864-1.08787 2.78117-1.08787s2.13975.42628 2.78115 1.08787zm8.49452 0h.0515l.0274-.01208zm.3665 1.90845.0039.00068-.0039.00035z" fill="#e11c1b"/></g></g></g></svg>