<svg fill="none" height="12" viewBox="0 0 16 12" width="16" xmlns="http://www.w3.org/2000/svg" xmlns:xlink="http://www.w3.org/1999/xlink"><clipPath id="a"><path d="m0 0h16v12h-16z"/></clipPath><mask id="b" height="12" maskUnits="userSpaceOnUse" width="16" x="0" y="0"><path clip-rule="evenodd" d="m0 0v12h16v-12z" fill="#fff" fill-rule="evenodd"/></mask><mask id="c" height="9" maskUnits="userSpaceOnUse" width="7" x="2" y="2"><path d="m7.80202 3.0152.2486-.02645-.02379-.22355h-.22481-4.62955-.2337l-.01573.23318.24943.01682-.24943-.01678-.00001.00011-.00003.0004-.0001.00153-.0004.00597-.00152.02312-.00567.0881c-.00483.07619-.0116.18582-.01939.31979-.01559.26788-.03528.63349-.05169 1.02407-.03234.7698-.05378 1.67099.00222 2.09186.10929.82123.60936 2.6648 2.54352 3.50023l.10087.0436.10031-.0448c1.83711-.82149 2.45154-2.4758 2.59327-3.49767.07153-.51572.03518-1.41814-.01503-2.16804-.02545-.38001-.05511-.72918-.0784-.98328-.01166-.1271-.02172-.23053-.02889-.3023l-.00841-.08291-.00227-.02178-.00059-.00565-.00016-.00147-.00004-.00039-.00001-.00011z" fill="#fff" stroke="#fff" stroke-width=".5"/></mask><g clip-path="url(#a)"><path d="m0 0h16v12h-16z" fill="#fff"/><path clip-rule="evenodd" d="m0 0v12h16v-12z" fill="#3d58db" fill-rule="evenodd"/><g mask="url(#b)"><path clip-rule="evenodd" d="m0 0v4h16v-4z" fill="#f7fcff" fill-rule="evenodd"/><path clip-rule="evenodd" d="m0 8v4h16v-4z" fill="#e31d1c" fill-rule="evenodd"/><path d="m7.80202 3.0152.2486-.02645-.02379-.22355h-.22481-4.62955-.2337l-.01573.23318.24943.01682-.24943-.01678-.00001.00011-.00003.0004-.0001.00153-.0004.00597-.00152.02312-.00567.0881c-.00483.07619-.0116.18582-.01939.31979-.01559.26788-.03528.63349-.05169 1.02407-.03234.7698-.05378 1.67099.00222 2.09186.10929.82123.60936 2.6648 2.54352 3.50023l.10087.0436.10031-.0448c1.83711-.82149 2.45154-2.4758 2.59327-3.49767.07153-.51572.03518-1.41814-.01503-2.16804-.02545-.38001-.05511-.72918-.0784-.98328-.01166-.1271-.02172-.23053-.02889-.3023l-.00841-.08291-.00227-.02178-.00059-.00565-.00016-.00147-.00004-.00039-.00001-.00011z" fill="#e31d1c" stroke="#fff" stroke-width=".5"/><g clip-rule="evenodd" fill-rule="evenodd" mask="url(#c)"><path d="m4.93124 3.29492s.10324.15731.14946.39785c.04622.24055.05419.51418.05419.51418l-.78204-.12059v.89047l.80392-.12753-.02404.93377s-.10216.03106-.34785 0c-.24569-.03105-.7297-.16115-.7297-.16115v.85019s.49175-.15732.7297-.19342.34785 0 .34785 0l.00777.81526h.79736l-.00777-.81526s.25094-.03863.51602.00319c.26509.04182.51654.19023.51654.19023v-.85019s-.25475.12692-.49502.1585c-.24028.03158-.53754.00265-.53754.00265l.02405-.93377s.13917-.03443.32578-.0091c.1866.02533.42016.13663.42016.13663v-.89047s-.22764.12387-.40675.14634c-.17912.02247-.36108-.02575-.36108-.02575s.00666-.28711.04517-.49889c.03852-.21178.14758-.41314.14758-.41314z" fill="#f7fcff"/><path d="m3.44873 8.12268s.21975-.47163.57731-.56131c.35757-.08968.73251.28066.73251.28066s.22895-.74822.787-.74822c.55806 0 .75391.74822.75391.74822s.23809-.28066.58048-.28066.65961.56131.65961.56131-1.02271 1.85671-2.04541 1.85671c-1.02271 0-2.04541-1.85671-2.04541-1.85671z" fill="#2e42a5"/></g></g></g></svg>