<svg fill="none" height="12" viewBox="0 0 16 12" width="16" xmlns="http://www.w3.org/2000/svg" xmlns:xlink="http://www.w3.org/1999/xlink"><clipPath id="a"><path d="m0 0h16v12h-16z"/></clipPath><mask id="b" height="12" maskUnits="userSpaceOnUse" width="16" x="0" y="0"><path clip-rule="evenodd" d="m0 0v12h16v-12z" fill="#fff" fill-rule="evenodd"/></mask><g clip-path="url(#a)"><path d="m0 0h16v12h-16z" fill="#fff"/><path clip-rule="evenodd" d="m0 0v12h16v-12z" fill="#f7fcff" fill-rule="evenodd"/><g mask="url(#b)"><g clip-rule="evenodd" fill-rule="evenodd"><path d="m0 6v6h16v-6z" fill="#56c6f5"/><path d="m5.12709 4.51424c-.00371-.04226-.01255-.07878-.02783-.10726-.12844-.23938-.08694-.53891-.08694-.53891s-.15337.35078-.24336.68103c-.09459-.15379-.12766-.30787-.12766-.30787s-.06122.96879.12595 1.19834c.18717.22954.31196.3304.31196.3304s.01416-.40228-.04033-.71689c.0384-.13124.07304-.27502.08545-.39881.02457-.01819.08931-.0668.17033-.1329-.03414.18838-.03584.29074-.03584.29074s.70529-.5121.72322-.78316c.01792-.27107.21184-.5031.21184-.5031s-.16035.10973-.34345.25687c.04841-.22753.19829-.40687.19829-.40687s-.80111.54821-.86676.83702c-.02855.12562-.04519.22696-.05487.30137zm.0343 1.6652c-.07681-.14503-.41108-.75299-.64423-.8059-.26493-.06011-.46376-.28794-.46376-.28794s.41613.877.69112.98703c.22083.08835.36624.12363.41495.13409-.00802.11823-.00942.1999-.00942.1999s.12989-.09419.32882-.31363c.19893-.21943.18849-1.19009.18849-1.19009s-.07884.29193-.2906.4621c-.14205.11415-.19554.54389-.21537.81444zm-.6257-.09175c.30266-.00178.76826.74036.76826.74036s-.18038.00989-.4955-.0399c-.31511-.04979-.80625-.89544-.80625-.89544s.23083.19676.53349.19498zm1.47532 1.72844s.1796-.94574-.09009-1.1662c-.26968-.22047-.31726-.54994-.31726-.54994s-.23957 1.04875 0 1.32034.40735.3958.40735.3958zm-1.08815-.25533c.17611.20881.73721 0 .73721 0s.12364.11228-.32135-.29442-1.35045-.14983-1.10677-.14983.51479.23545.69091.44425zm.41586 1.11018c.32646.27649 1.03188-.38092 1.03188-.38092s-.1816-.21992-.51817-.38202c-.33656-.16209-1.57807 0-1.57807 0l.5525.24592s-.61501.24052-.45176.22712c.16325-.01341.63716.0134.96362.2899z" fill="#006923"/><path d="m9.60677 8.09817s-.28068-.47168 0-.69955c.28069-.22788.39177-.07631.39177-.3383s.02836-.18398.16636-.31405c.1379-.13007.0402-.44597.2249-.28802s.2192-.14494.2192.48429 0-.5707 0-.92412c0-.35341-.2192-.26975-.2192-.50676s-.2192-.59099 0-.59099.348.26336.348.26336.2154.36708.2154 0-.3835-.25795-.5634-.66302c-.18-.40507-.1516.04543-.39126-.47653-.23969-.52195-.52507-.68759-.26253-.68759h.42889c.2249 0 .5729-.18681.5729 0v.3944c0 .29319.2154.29319.2154.29319s.1171-.58638.2641-.29319c.1471.29319.047.76972.1546.76972.1077 0 .0186-.49245.2536-.11527.2351.37718 0 .63279 0 .77829 0 .14551-.2536.50199-.2536.50199s.0495.17436.2536 0 .3978-.34872.3978-.17436.3977.22852 0 .50676c-.3978.27824-.1441.5568-.3978.5568-.2536 0-.5524.36732-.6723.36732-.12 0-.5685.28123-.3442.28123.2242 0 .4538-.56246.6083-.28123.1546.28123.1526-.04567.2804.11778s.2557 1.0503.1278.6943c-.1278-.356-.3281-.356-.6723-.356s-1.01325.0257-.7883.19085c.2249.16515.4775-.16515.5729 0s.0677.3303.2154.16515.2929 0 .4187 0-.1258.18487 0 .34355.4062.37007.1258.37007-.4246-.22416-.5445 0c-.12.22416-.125.61347-.3442.30674-.2192-.30674-.61046-.15105-.61046-.30674s.08556-.18083-.15309-.18083c-.23868 0-.23868-.18924-.23868-.18924z" fill="#093"/><path d="m10.7581 4.72498c0 .06903-.0541.125-.1209.125s-.121-.05597-.121-.125c0-.06904.0542-.125.121-.125s.1209.05596.1209.125zm-5.58867.275c.06681 0 .12097-.05597.12097-.125 0-.06904-.05416-.125-.12097-.125s-.12097.05596-.12097.125c0 .06903.05416.125.12097.125zm.12097.525c0 .06903-.05416.125-.12097.125s-.12097-.05597-.12097-.125c0-.06904.05416-.125.12097-.125s.12097.05596.12097.125zm.07258 1.275c.06681 0 .12097-.05597.12097-.125 0-.06904-.05416-.125-.12097-.125s-.12097.05596-.12097.125c0 .06903.05416.125.12097.125zm.96774 1.25c.06681 0 .12097-.05597.12097-.125 0-.06904-.05416-.125-.12097-.125s-.12097.05596-.12097.125c0 .06903.05416.125.12097.125zm4.64518-1.9c.0668 0 .1209-.05597.1209-.125 0-.06904-.0541-.125-.1209-.125s-.121.05596-.121.125c0 .06903.0542.125.121.125zm-.2661.875c0 .06903-.0542.125-.121.125s-.121-.05597-.121-.125c0-.06904.0542-.125.121-.125s.121.05596.121.125zm-1.13714 1.225c.0668 0 .12096-.05597.12096-.125 0-.06904-.05416-.125-.12096-.125-.06681 0-.12097.05596-.12097.125 0 .06903.05416.125.12097.125zm-3.07259.025c0 .06903-.05415.125-.12096.125s-.12097-.05597-.12097-.125c0-.06904.05416-.125.12097-.125s.12096.05596.12096.125z" fill="#c51918"/><path d="m9.01896 9.90987c0-.10243-1.55027-1.17082-1.96637-1.40647-.41609-.23565-2.448-1.53266-1.89466-3.50334h-.08373s-.37448 2.42823 2.20554 3.93762c1.17475.78805 1.23322.97219 1.23322.97219s.506.10243.506 0z" fill="#feca00"/><path d="m6.96224 9.90987c0-.10243 1.55027-1.17082 1.96637-1.40647.41609-.23565 2.44799-1.53266 1.89469-3.50334h.0837s.3745 2.42823-2.20554 3.93762c-1.17474.78805-1.23321.97219-1.23321.97219s-.50601.10243-.50601 0z" fill="#feca00"/><path d="m8.02425 8.44281c1.0823 0 1.95968-1.40093 1.95968-2.76783 0-1.36691-.87738-2.075-1.95968-2.075s-1.95967.70809-1.95967 2.075c0 1.3669.87737 2.76783 1.95967 2.76783z" fill="#56c6f5"/><path d="m7.15669 4.76943s.3018-.26619.1509-.26619c-.02927 0-.0649-.00572-.10332-.01188-.15969-.02562-.36764-.05898-.36764.27807v.5792l-.00007.00136h-.04453c-.02762 0-.05.02239-.05.05 0 .02762.02238.05.05.05h.03911c-.00668.12372-.01852.34373-.03014.56363l-.05722.005c-.02958.00259-.05146.02867-.04887.05825l.0037.04231c.00259.02958.02867.05146.05825.04887l.03618-.00316c-.01343.25692-.02476.48176-.02476.50928 0 .06758.45914.04141.45914.04141s-.01428-.27104-.03001-.58607l.03076-.00269c.02958-.00259.05147-.02867.04888-.05825l-.0037-.04231c-.00259-.02958-.02867-.05146-.05825-.04887l-.02512.0022c-.00926-.18868-.01833-.38026-.02466-.5296h.05896c.02762 0 .05-.02238.05-.05 0-.02761-.02238-.05-.05-.05h-.06303c-.00287-.07462-.00456-.13071-.00456-.15897z" fill="#fff"/><path d="m6.93555 5.5h.16129v.21505h-.16129z" fill="#000"/><path d="m6.88721 6.25h.26881v.5h-.26881z" fill="#000"/><path d="m8.1728 4.76943s.30181-.26619.1509-.26619c-.02926 0-.06489-.00572-.10332-.01188-.15969-.02562-.36764-.05898-.36764.27807v.5792l-.00007.00136h-.04453c-.02761 0-.05.02239-.05.05 0 .02762.02239.05.05.05h.03912c-.00669.12372-.01853.34373-.03015.56363l-.05721.005c-.02958.00259-.05146.02867-.04888.05825l.00371.04231c.00258.02958.02866.05146.05824.04887l.03619-.00316c-.01344.25692-.02477.48176-.02477.50928 0 .06758.45915.04141.45915.04141s-.01429-.27104-.03002-.58607l.03077-.00269c.02958-.00259.05146-.02867.04887-.05825l-.0037-.04231c-.00259-.02958-.02867-.05146-.05825-.04887l-.02512.0022c-.00926-.18868-.01833-.38026-.02466-.5296h.05897c.02761 0 .05-.02238.05-.05 0-.02761-.02239-.05-.05-.05h-.06303c-.00287-.07462-.00457-.13071-.00457-.15897z" fill="#fff"/><path d="m9.14057 4.76943s.30181-.26619.15091-.26619c-.02927 0-.0649-.00572-.10332-.01188-.1597-.02562-.36764-.05898-.36764.27807v.5792l-.00008.00136h-.04453c-.02761 0-.05.02239-.05.05 0 .02762.02239.05.05.05h.03912c-.00669.12372-.01853.34373-.03015.56363l-.05721.005c-.02958.00259-.05146.02867-.04887.05825l.0037.04231c.00259.02958.02866.05146.05824.04887l.03619-.00316c-.01343.25692-.02476.48176-.02476.50928 0 .06758.45914.04141.45914.04141s-.01429-.27104-.03002-.58607l.03077-.00269c.02958-.00259.05146-.02867.04887-.05825l-.0037-.04231c-.00259-.02958-.02866-.05146-.05824-.04887l-.02512.0022c-.00926-.18868-.01834-.38026-.02467-.5296h.05897c.02762 0 .05-.02238.05-.05 0-.02761-.02238-.05-.05-.05h-.06303c-.00287-.07462-.00457-.13071-.00457-.15897z" fill="#fff"/><path d="m8.91943 5.5h.16129v.21505h-.16129z" fill="#000"/><path d="m8.87109 6.25h.26882v.5h-.26882z" fill="#000"/><path d="m9.25813 3.19995h-2.56451v.38282l-.01721.00154s-1.25644.97636-.90774 2.43896 1.73378 2.54725 1.73378 2.54725l.06983-.25241s-1.31982-1.79458-1.31982-2.51168c0-.71709.24901-1.39014.51266-1.49479.15858-.06295.18594-.05017.22915-.02999.02863.01337.06423.02999.14957.02999.21415 0 .42844-.15329.42844-.15329s.14898.15329.28738.15329.14034-.15329.14034-.15329v-.5084h.0155v.5084s.00194.15329.14033.15329c.1384 0 .28739-.15329.28739-.15329s.21429.15329.42843.15329c.08535 0 .12094-.01662.14957-.02999.04322-.02018.07057-.03296.22915.02999.26365.10465.51266.7777.51266 1.49479 0 .7171-1.31981 2.51168-1.31981 2.51168l.06982.25241s1.38508-1.08465 1.73376-2.54725c.3487-1.4626-.90772-2.43896-.90772-2.43896l-.08095-.00724z" fill="#e8aa00"/></g><path d="m6.69362 3.19995v-.25h-.25v.25zm2.56451 0h.25v-.25h-.25zm-2.56451.38282.02226.24901.22774-.02036v-.22865zm-.01721.00154-.02226-.24901-.07315.00654-.05799.04506zm-.90774 2.43896-.24319.05798zm1.73378 2.54725-.15414.19683.29514.23112.09995-.3613zm.06983-.25241.24095.06665.03236-.11699-.07191-.09778zm-.80716-4.00647-.09223-.23237zm.22915-.02999-.10578.22651zm.57801-.1233.17927-.17424-.14985-.15418-.17487.12509zm.42772 0 .25.00316v-.00316zm0-.5084v-.25h-.25v.25zm.0155 0h.25v-.25h-.25zm0 .5084h-.25002l.00004.00316zm.42772 0 .14544-.20333-.17486-.12509-.14986.15418zm.578.1233.10578.22651zm.22915.02999-.09223.23236zm-.80715 4.00647-.2014-.14812-.07192.09778.03237.11699zm.06982.25241-.24095.06665.09995.3613.29514-.23112zm.82604-4.98621.1534-.19741-.05799-.04506-.07315-.00654zm-.08095-.00724h-.25v.22865l.22774.02036zm-2.56451-.12712h2.56451v-.5h-2.56451zm.25.13282v-.38282h-.5v.38282zm-.24494.25054.0172-.00153-.04453-.49802-.0172.00154zm-.68683 2.13198c-.15389-.64548.04382-1.18593.2911-1.57616.12369-.1952.25785-.34925.36096-.45424.05137-.05231.09454-.09193.1241-.11787.01477-.01296.0261-.02247.0333-.0284.0036-.00297.00617-.00504.00762-.0062.00072-.00057.00116-.00092.00131-.00104.00008-.00006.00008-.00006.00001-.00001-.00003.00003-.00009.00007-.00016.00013-.00004.00003-.00011.00008-.00012.00009-.00008.00006-.00016.00012-.15356-.19728-.1534-.19741-.15348-.19734-.15358-.19727-.00003.00003-.00013.00011-.00021.00017-.00014.00011-.00031.00024-.0005.00039-.00038.0003-.00083.00065-.00135.00107-.00106.00083-.00241.0019-.00406.00321-.00328.00263-.00773.00622-.01324.01076-.01103.00909-.02636.02198-.04527.03858-.03778.03316-.09005.08125-.15102.14332-.12158.12379-.27974.30524-.42657.53696-.29377.4636-.54994 1.14263-.35513 1.95975zm1.4906 2.60523c.15414-.19683.15418-.1968.15422-.19677.00001.00001.00005.00004.00006.00005.00003.00002.00003.00002.00002.00001-.00003-.00002-.00015-.00011-.00034-.00027-.00039-.0003-.00111-.00087-.00214-.00169-.00207-.00165-.0054-.00432-.00993-.008-.00906-.00735-.02289-.01871-.04091-.03391-.03605-.0304-.08879-.07609-.15354-.13569-.12966-.11936-.30659-.29363-.4939-.51176-.37768-.4398-.78291-1.04096-.94414-1.7172l-.48637.11596c.18748.78636.64914 1.45882 1.05118 1.92699.20254.23586.39368.42416.53461.55389.07055.06494.12875.11541.16981.15003.02054.01732.0368.03069.0482.03994.0057.00463.01019.00823.01338.01077.0016.00128.00288.00229.00382.00303.00048.00038.00087.00068.00117.00092.00015.00012.00029.00023.0004.00032.00005.00004.00012.00009.00015.00011.00006.00005.00011.0001.15425-.19673zm-.17112-.31907-.06983.25241.4819.13331.06983-.25241zm-1.32887-2.44502c0 .23805.10416.52774.22909.79942.12956.28177.30019.58274.46768.85598.168.27409.33561.52472.46101.70658.06278.09105.11516.16512.15197.21659.0184.02575.03293.04585.04292.05962.00499.00689.00886.01219.01151.01582.00133.00181.00235.00321.00306.00418.00035.00048.00063.00086.00083.00112.0001.00014.00017.00025.00023.00033.00003.00004.00006.00008.00008.0001.00002.00003.00004.00005.20144-.14806.2014-.14812.2014-.14811.20141-.1481-.00001-.00001-.00001-.00001-.00002-.00003-.00002-.00003-.00006-.00008-.00012-.00017-.00013-.00016-.00033-.00044-.00061-.00082-.00056-.00076-.00143-.00195-.0026-.00355-.00234-.00321-.00589-.00807-.01056-.01451-.00934-.01287-.02317-.03202-.04085-.05675-.03537-.04946-.0861-.12119-.14706-.2096-.12207-.17703-.28441-.41986-.44636-.68405-.16246-.26505-.32179-.54717-.43969-.80357-.12254-.26648-.18336-.47002-.18336-.59053zm.67043-1.72716c-.13338.05295-.23346.16204-.30595.26884-.07588.11179-.14042.24907-.19288.39839-.10507.29905-.1716.67473-.1716 1.05993h.5c0-.33188.05798-.65127.14333-.89419.04274-.12165.08989-.21709.13486-.28333.04835-.07124.07827-.08553.07671-.08491zm.42716-.02414c-.02986-.01395-.09579-.04568-.19384-.0391-.07372.00495-.15118.03064-.23332.06324l.18447.46473c.03533-.01402.05854-.02188.07343-.02616.01521-.00437.01642-.00344.00891-.00293-.00428.00029-.01086.0004-.01912-.0004-.00846-.00081-.01667-.00239-.02421-.00446-.00724-.00199-.01223-.00398-.01376-.00462-.00065-.00027-.00044-.00022.00588.00273zm.04379.00651c-.01326 0-.02212-.00065-.02754-.00126-.00525-.00059-.00747-.00116-.00748-.00116-.00007-.00002.0001.00003.00043.00013.00032.00011.00049.00018.00039.00013-.00076-.00029-.00196-.00079-.00959-.00435l-.21156.45303c.01623.00758.0505.02391.09827.03593.04676.01177.09799.01755.15708.01755zm.42844.09671c-.14545-.20333-.1454-.20337-.14536-.2034.00001-.00001.00006-.00004.00009-.00006.00005-.00004.00011-.00008.00016-.00011.0001-.00008.00019-.00014.00026-.00019.00016-.00011.00026-.00018.00032-.00022.00011-.00008.00003-.00003-.00023.00015-.00052.00036-.00176.00122-.00369.0025-.00385.00258-.01034.00681-.01907.01216-.01763.01081-.04333.02553-.07403.04017-.06622.03159-.13389.05229-.18689.05229v.5c.16114 0 .3077-.05595.40215-.101.04965-.02368.0909-.04729.12014-.06521.01472-.00903.02664-.01677.03534-.02257.00436-.00291.00792-.00535.01064-.00723.00137-.00095.00252-.00175.00346-.00241.00046-.00033.00088-.00063.00124-.00088.00018-.00013.00035-.00025.0005-.00036.00008-.00005.00015-.0001.00022-.00015.00003-.00003.00008-.00006.0001-.00008.00005-.00003.0001-.00006-.14535-.2034zm.28738-.09671c.01009 0 .00936.00235-.00456-.00363-.01298-.00558-.0293-.01493-.04731-.02758-.01751-.01229-.03284-.02506-.04377-.03479-.00532-.00475-.00925-.00846-.01149-.01061-.0011-.00107-.00177-.00173-.00195-.00192-.00009-.00009-.00006-.00005.0001.00011.00008.00008.00019.00019.00034.00034.00007.00007.00015.00016.00024.00025.00004.00004.00009.00009.00014.00014.00002.00002.00006.00006.00007.00008.00004.00004.00008.00008-.17919.17432-.17927.17425-.17923.17429-.17919.17433.00001.00001.00005.00006.00008.00009.00006.00006.00012.00012.00018.00018.00013.00013.00026.00027.0004.00041.00029.0003.00062.00063.00099.001.00073.00075.00161.00164.00265.00267.00207.00206.00474.0047.00797.00782.00646.00623.01525.01449.02606.02412.02133.019.05189.04456.08894.07059.06364.04471.18934.12208.3393.12208zm.14034.09671c-.24998-.00316-.24998-.00327-.24998-.00338 0-.00004 0-.00014 0-.00022.00001-.00014.00001-.00028.00001-.00042 0-.00028.00001-.00055.00001-.00082.00001-.00053.00003-.00104.00004-.00152.00003-.00096.00006-.00182.00009-.00259.00007-.00154.00014-.00275.00021-.00369.00014-.0018.00029-.00291.00041-.00366.00005-.00027.00063-.00467.00417-.0123.00369-.00795.01415-.02682.03741-.04384.0261-.01909.05254-.02427.06729-.02427v.5c.08395 0 .16253-.02434.22792-.07218.06255-.04576.09944-.10295.12092-.14923.02132-.04595.03104-.08867.03577-.11768.00247-.01512.00385-.0282.00463-.03838.0004-.00513.00065-.00964.00081-.01342.00008-.0019.00014-.00362.00018-.00516.00003-.00077.00004-.0015.00006-.00218 0-.00034.00001-.00066.00001-.00098.00001-.00016.00001-.00031.00001-.00047 0-.00007 0-.00019 0-.00022.00001-.00012.00001-.00023-.24997-.00339zm-.25-.5084v.5084h.5v-.5084zm.2655-.25h-.0155v.5h.0155zm-.25.25v.5084h.5v-.5084zm.25.5084c-.24998.00316-.24998.00327-.24998.00339v.00022c0 .00016.00001.00031.00001.00047 0 .00032.00001.00064.00002.00098.00001.00068.00003.00141.00005.00218.00004.00154.0001.00326.00018.00516.00016.00378.00041.00829.00081.01342.00079.01018.00217.02326.00463.03838.00474.02901.01445.07173.03578.11768.02147.04628.05837.10347.12091.14923.06539.04784.14398.07218.22792.07218v-.5c.01475 0 .04119.00518.0673.02427.02325.01702.03372.03589.03741.04384.00354.00763.00412.01203.00416.0123.00012.00075.00027.00186.00041.00366.00007.00094.00015.00215.00021.00369.00004.00077.00007.00163.00009.00259.00002.00048.00003.00099.00004.00152 0 .00027.00001.00054.00001.00082.00001.00014.00001.00028.00001.00042v.00022c.00001.00011.00001.00022-.24997.00338zm.14033.40329c.14996 0 .27567-.07737.33931-.12208.03704-.02603.06761-.05159.08894-.07059.0108-.00963.01959-.01789.02605-.02412.00323-.00312.00591-.00576.00797-.00782.00104-.00103.00192-.00192.00266-.00267.00036-.00037.00069-.0007.00098-.001.00014-.00014.00028-.00028.0004-.00041.00007-.00006.00013-.00012.00018-.00018.00003-.00003.00007-.00008.00009-.00009.00004-.00004.00008-.00008-.17919-.17433-.17928-.17424-.17924-.17428-.1792-.17432.00001-.00002.00005-.00006.00008-.00008.00004-.00005.00009-.0001.00014-.00014.00008-.00009.00016-.00018.00024-.00025.00014-.00015.00025-.00026.00033-.00034.00016-.00016.00019-.0002.0001-.00011-.00018.00019-.00084.00085-.00195.00192-.00223.00215-.00616.00586-.01149.01061-.01093.00973-.02626.0225-.04376.03479-.01801.01265-.03434.022-.04732.02758-.01391.00598-.01465.00363-.00456.00363zm.28739-.40329c-.14545.20334-.1454.20337-.14536.2034.00002.00002.00007.00005.00011.00008.00007.00005.00014.0001.00021.00015.00016.00011.00032.00023.0005.00036.00036.00025.00078.00055.00125.00088.00093.00066.00209.00146.00345.00241.00272.00188.00629.00432.01064.00722.0087.00581.02063.01355.03534.02258.02924.01792.07049.04153.12014.06521.09446.04505.24101.101.40215.101v-.5c-.053 0-.12066-.0207-.18689-.05229-.03069-.01464-.0564-.02936-.07403-.04017-.00872-.00535-.01521-.00958-.01907-.01216-.00192-.00128-.00317-.00214-.00369-.0025-.00026-.00018-.00034-.00023-.00022-.00015.00005.00004.00016.00011.00031.00022.00008.00005.00017.00011.00027.00019.00005.00003.0001.00007.00016.00011.00002.00002.00007.00005.00008.00006.00005.00003.00009.00007-.14535.2034zm.42843.40329c.05909 0 .11032-.00578.15709-.01755.04776-.01202.08204-.02835.09826-.03593l-.21155-.45303c-.00763.00356-.00884.00406-.00959.00435-.00011.00005.00006-.00002.00039-.00013.00032-.0001.00049-.00015.00043-.00013-.00002 0-.00223.00057-.00749.00116-.00542.00061-.01428.00126-.02754.00126zm.25535-.05348c.00632-.00295.00654-.003.00589-.00273-.00154.00064-.00652.00263-.01376.00462-.00755.00207-.01576.00365-.02421.00446-.00827.0008-.01484.00069-.01913.0004-.00751-.00051-.00629-.00144.00891.00293.0149.00428.03811.01214.07344.02616l.18446-.46473c-.08214-.0326-.1596-.05829-.23332-.06324-.09805-.00658-.16398.02515-.19383.0391zm.03114.03584c-.00156-.00062.02836.01367.07671.08491.04496.06624.09211.16168.13485.28333.08535.24292.14333.56231.14333.89419h.49997c0-.3852-.0665-.76088-.17157-1.05993-.05246-.14932-.117-.2866-.19287-.39839-.0725-.1068-.17257-.21589-.30596-.26884zm.35489 1.26243c0 .12051-.06082.32405-.18336.59053-.1179.2564-.27722.53852-.43969.80357-.16195.26419-.32429.50702-.44636.68405-.06096.08841-.11168.16014-.14705.2096-.01769.02473-.03152.04388-.04086.05675-.00467.00644-.00822.0113-.01056.01451-.00117.0016-.00204.00279-.0026.00355-.00028.00038-.00048.00066-.0006.00082-.00006.00009-.00011.00014-.00013.00017-.00001.00002-.00001.00002-.00001.00003 0-.00001.00001-.00002.20141.1481.20139.14811.20141.14809.20144.14806.00001-.00002.00004-.00006.00007-.0001.00006-.00008.00014-.00019.00024-.00033.00019-.00026.00047-.00064.00082-.00112.00071-.00097.00174-.00237.00306-.00418.00266-.00363.00652-.00893.01152-.01582.00999-.01377.02451-.03387.04292-.05962.0368-.05147.08919-.12554.15196-.21659.1254-.18186.29301-.43249.46102-.70658.16748-.27324.33811-.57421.46768-.85598.12492-.27168.22905-.56137.22905-.79942zm-1.31076 2.57833.06982.25241.4819-.13331-.06982-.25241zm.31077.18576c.15414.19683.1542.19678.15426.19673.00003-.00002.00009-.00007.00015-.00011.00011-.00009.00024-.0002.00039-.00032.00031-.00024.0007-.00054.00117-.00092.00095-.00074.00222-.00175.00382-.00303.0032-.00254.00768-.00614.01338-.01077.0114-.00925.02767-.02262.0482-.03994.04106-.03462.09926-.08509.16981-.15003.14093-.12973.33207-.31803.53462-.55389.40203-.46817.86366-1.14063 1.05116-1.92699l-.4864-.11596c-.16118.67624-.56642 1.2774-.94409 1.7172-.18732.21813-.36424.3924-.49391.51176-.06475.0596-.11748.10529-.15353.13569-.01802.0152-.03186.02656-.04092.03391-.00453.00368-.00786.00635-.00993.008-.00103.00082-.00174.00139-.00213.00169-.0002.00016-.00031.00025-.00034.00027-.00002.00001-.00001.00001.00001-.00001.00002-.00001.00005-.00004.00006-.00005.00004-.00003.00009-.00006.15422.19677zm1.97696-2.48927c.1948-.81712-.0613-1.49615-.3551-1.95975-.14684-.23172-.30501-.41317-.42659-.53696-.06096-.06207-.11323-.11016-.15102-.14332-.01891-.0166-.03423-.02949-.04526-.03858-.00552-.00454-.00996-.00813-.01325-.01076-.00164-.00131-.003-.00238-.00405-.00321-.00053-.00042-.00098-.00077-.00136-.00107-.00018-.00015-.00035-.00028-.0005-.00039-.00008-.00006-.00017-.00014-.00021-.00017-.00009-.00007-.00018-.00014-.15358.19727-.1534.1974-.15348.19734-.15355.19728-.00002-.00001-.00009-.00006-.00012-.00009-.00008-.00006-.00013-.0001-.00017-.00013-.00007-.00005-.00007-.00005.00001.00001.00015.00012.00059.00047.00132.00104.00144.00116.00401.00323.00761.0062.00721.00593.01853.01544.0333.0284.02957.02594.07273.06556.12411.11787.10311.10499.23726.25904.36095.45424.24729.39023.44496.93068.29106 1.57616zm-1.12866-2.74595-.08094-.00724-.04453.49802.08095.00723zm-.35321-.13535v.37712h.5v-.37712z" fill="#ffd018"/><path clip-rule="evenodd" d="m6.55176 6.8924s.15724-.42221.43221-.28147c.27497.14073.25096.63068.50113.45608.25018-.17461.10835-.45608.47907-.45608.37073 0 .31612.45608.53845.45608s.24157-.45608.4901-.45608.50059.28147.50059.28147l-1.47078 2.00126z" fill="#8fc753" fill-rule="evenodd"/><path clip-rule="evenodd" d="m7.94724 1.01471h.1v.10718h.12283v.1h-.12283v.18202c.13789.0233.24312.14698.24312.29606 0 .16569-.12998.3-.29032.3s-.29032-.13431-.29032-.3c0-.14705.10239-.26939.23752-.29505v-.18303h-.11288v-.1h.11288z" fill="#ffd018" fill-rule="evenodd"/><path clip-rule="evenodd" d="m6.87351 2.58303c-.13998 0-.43516.18236-.43516.18236l.22952.62009 1.38432-.06328 1.38433.06328.22951-.62009s-.29517-.18236-.43515-.18236c-.06146 0-.06927-.04407-.07802-.09349-.01118-.06314-.02391-.13502-.15199-.13502-.09062 0-.15465.01831-.20649.03314-.0788.02254-.12942.03703-.20242-.03314-.00304-.00293-.00609-.00587-.00914-.0088-.11817-.11372-.2409-.23183-.43944-.23183-.03961 0-.06921.04563-.09119.11914-.02197-.07351-.05157-.11914-.09118-.11914-.19854 0-.32127.11811-.43944.23183-.00305.00293-.0061.00587-.00914.0088-.073.07017-.12362.05568-.20242.03314-.05184-.01483-.11587-.03314-.20649-.03314-.12808 0-.14081.07188-.15199.13502-.00876.04942-.01656.09349-.07802.09349z" fill="#e31d1c" fill-rule="evenodd"/><path clip-rule="evenodd" d="m7.5 1.99995s.33332-.24128.5-.24128.5.24128.5.24128v2h-1z" fill="#ffd018" fill-rule="evenodd"/><path clip-rule="evenodd" d="m7.80405 1.78418-.09717.03371c-.25678.08908-.47914.11846-.66697.08951-.38672-.05959-.89131.14162-.82808.43628.0277.12913.10858.37301.19269.57971.1167.28681.19839.43149.29393.43149.01237 0 .14209.00708.18533.00944.00778.00043.01276.0007.01375.00075.14052.00711.26439.01087.38354.01032.34456-.00161.55813-.03544.6344-.13881l.02245-.03042-.01066-.03664c-.09048-.31114-.13236-.73797-.12471-1.27943zm-1.4505.52703c-.03101-.14449.36368-.30187.66495-.25545.18767.02893.40032.00716.63803-.06437-.00125.48129.038.87223.11841 1.17357-.06889.03605-.24993.05929-.49452.06043-.11615.00054-.23763-.00315-.37579-.01014.00123.00006-.14232-.00789-.19147-.00991-.00164-.00166-.00356-.00374-.0057-.00624-.01296-.0151-.02916-.03951-.04741-.07184-.03598-.06372-.07799-.15455-.12172-.26201-.08101-.19909-.15924-.43499-.18478-.55404z" fill="#ffd018" fill-rule="evenodd"/><path clip-rule="evenodd" d="m8.22744 1.78418.09717.03371c.25678.08908.47915.11846.66698.08951.38671-.05959.8913.14162.82808.43628-.02771.12913-.10859.37301-.19269.57971-.11671.28681-.19839.43149-.29394.43149-.01236 0-.14209.00708-.18532.00944-.00779.00043-.01277.0007-.01376.00075-.14052.00711-.26439.01087-.38354.01032-.34455-.00161-.55812-.03544-.6344-.13881l-.02244-.03042.01065-.03664c.09048-.31114.13236-.73797.12471-1.27943zm1.45051.52703c.031-.14449-.36369-.30187-.66495-.25545-.18767.02893-.40032.00716-.63804-.06437.00126.48129-.03799.87223-.11841 1.17357.0689.03605.24994.05929.49453.06043.11614.00054.23762-.00315.37578-.01014-.00123.00006.14232-.00789.19148-.00991.00163-.00166.00355-.00374.0057-.00624.01296-.0151.02915-.03951.0474-.07184.03598-.06372.078-.15455.12172-.26201.08102-.19909.15924-.43499.18479-.55404z" fill="#ffd018" fill-rule="evenodd"/><path d="m3.97866 10.1603-.37038-.92891c1.53049-.61028 2.99484-.91718 4.39177-.91718 1.37953 0 2.68185.18886 3.90535.56725l-.2955.95536c-1.1258-.34818-2.32857-.52261-3.60985-.52261-1.26388 0-2.60392.28085-4.02139.84609z" fill="#fff"/><path d="m6.88708 8.94248.03038-.24814c.53728.06576.89603.09865 1.07679.09877.2726.01226.5975-.00748.9742-.05953l.03421.24765c-.39077.05399-.73048.07463-1.01403.06176-.18869 0-.55418-.03351-1.10155-.10051z" fill="#272727"/><path clip-rule="evenodd" d="m5.16188 4s-1.39119 1.25531-1.11662 2.48285c.31191 1.86874 2.18408 2.52129 2.18408 2.52129l.9918-.35147s-1.9002-1.08889-1.9002-2.16982.2846-2.48285.2846-2.48285z" fill="#006923" fill-rule="evenodd"/><path clip-rule="evenodd" d="m11.0593 4s1.3912 1.25531 1.1166 2.48285c-.3119 1.86874-2.18405 2.52129-2.18405 2.52129l-.9918-.35147s1.90025-1.08889 1.90025-2.16982-.2846-2.48285-.2846-2.48285z" fill="#093" fill-rule="evenodd"/></g></g></svg>