<svg fill="none" height="12" viewBox="0 0 16 12" width="16" xmlns="http://www.w3.org/2000/svg" xmlns:xlink="http://www.w3.org/1999/xlink"><clipPath id="a"><path d="m0 0h16v12h-16z"/></clipPath><mask id="b" height="12" maskUnits="userSpaceOnUse" width="16" x="0" y="0"><path clip-rule="evenodd" d="m0 0v12h16v-12z" fill="#fff" fill-rule="evenodd"/></mask><mask id="c" height="14" maskUnits="userSpaceOnUse" width="10" x="0" y="-1"><path clip-rule="evenodd" d="m0-1v14l10-7z" fill="#fff" fill-rule="evenodd"/></mask><g clip-path="url(#a)"><path d="m0 0h16v12h-16z" fill="#fff"/><path clip-rule="evenodd" d="m0 0v12h16v-12z" fill="#e31d1c" fill-rule="evenodd"/><g mask="url(#b)"><path clip-rule="evenodd" d="m0 6v6h16v-6z" fill="#2e42a5" fill-rule="evenodd"/></g><path clip-rule="evenodd" d="m0-1v14l10-7z" fill="#f7fcff" fill-rule="evenodd"/><g mask="url(#c)"><path clip-rule="evenodd" d="m4.06291 4.59441c.71835 0 1.3007-.35692 1.3007-.79721 0-.44028-.58235-.7972-1.3007-.7972-.71836 0-1.3007.35692-1.3007.7972 0 .44029.58234.79721 1.3007.79721z" fill="#fbcd17" fill-rule="evenodd"/><path clip-rule="evenodd" d="m4.17671 3.19269c-.10619 0-.18164.06841-.18164.17137l.0001.01136c-.0057.01716-.00891.03628-.00948.05769-.00148.05478.01892.10047.06173.14238.00264.0121.00401.02213.00362.02781-.0026-.00893-.01293-.01642-.03261-.03069-.02798-.02028-.07484-.05426-.14521-.12554-.10136-.10266-.17785-.14285-.27293-.12688-.02883.00484-.05705.01499-.09092.02856-.05402.01945-.10374.02397-.19554.00645-.2551-.0487-.5349-.00092-.83782.13945l.10511.22683c.25853-.1198.48661-.15875.68584-.12072.13686.02613.23189.0175.32711-.01679.04103-.01544.04462-.01673.04763-.01723-.00302.0005-.00109.00236.01159.01455.00854.00821.02196.0211.04202.04142.02857.02894.05845.05515.08895.07898-.05864.01575-.0556.02657-.04484.06495.00439.01564.01005.03585.01336.06284.00729.05958-.00482.09032.00562.10503.01166.01642.05139.0129.17748.00728.03394-.00151.07983-.00501.13279-.01002.10387-.00983.22141-.02414.29364-.03598.07016-.0115.08881-.0157.11823-.03711l.00001-.00001c.01017-.01248.01888-.02315.02609-.03266.23991-.03524.45325-.06029.64309-.07756.06806-.0062.12276-.01045.17572-.01433.00626-.00006.00626-.00006.03704-.0065.01346-.00572.01902-.00808.0209-.00887l-.00002.00005c.00085-.00038.00135-.00061.00002-.00005l.06128-.14514-.06331-.07656c-.03772-.01185-.04188-.01316-.0461-.01335-.00052-.00002-.00105-.00002-.00164-.00003-.00494-.00029-.00674-.0004-.00855-.00046-.00103-.00003-.00206-.00004-.00368-.00007l-.05733-.00008c-.04153 0-.07433-.00351-.12172-.01194l-.04407-.0081c-.19491-.03576-.37568-.03576-.75907.02141l-.02143-.01637c.06175-.01073.13694-.01802.21641-.02225h.00001c.04803-.00224.04803-.00224.07485-.00295l.01174-.00028-.00147-.24987-.01897-.00002zm-.20709.72376.02391-.00496.02354-.00503z" fill="#da610a" fill-rule="evenodd"/><path d="m3.9625 4.29035.04045.00663.04045-.00663c.49651-.0814.82345-.0719 1.01288-.00836.21822.0732.45944.05248.7131-.03295-.08051.35889-.12173.69808-.12173 1.01687 0 .36341.0703.65698.13409.91455.00171.00691.00341.01379.00511.02064.06251.25221.11431.46123.11431.70109 0 .21531-.07141.3284-.17122.39907-.11558.08182-.30832.13395-.59416.13395-.403 0-.78002.10853-1.12716.32088l-.00567-.00407-.00567.00407c-.34714-.21235-.72415-.32088-1.12716-.32088-.28584 0-.47858-.05213-.59416-.13395-.09981-.07067-.17122-.18376-.17122-.39907 0-.23986.0518-.44888.11431-.70109.0017-.00685.0034-.01373.00511-.02064.0638-.25757.13409-.55114.13409-.91455 0-.31879-.04121-.65798-.12173-1.01687.25366.08543.49488.10615.7131.03295.18943-.06354.51637-.07304 1.01288.00836z" fill="#56c6f5" stroke="#e31d1c" stroke-width=".5"/><path clip-rule="evenodd" d="m4.39242 5.11208-.38571-.34285-.38571.34285h.11428v.19766l-.6.37377v.91429h-.11428v.17143h.11428 1.74286.14286v-.17143h-.14286v-.91429l-.62857-.39157v-.17986z" fill="#f7fcff" fill-rule="evenodd"/><path d="m3.97595 8.51022c.53052 0 .89575-.05792 1.08382-.15665.0493-.08384.13577-.13117.22778-.12776.41323.01529.73327-.15879.98486-.5414.27185-.41341.32647-1.00065.14929-1.77145l.44981-.10339c.20301.88317.13671 1.59589-.21346 2.12842-.31379.47718-.74162.73206-1.26376.74934-.26667.19746-.73401.28443-1.41834.28443-.66202 0-1.15288-.12855-1.4677-.40167-.71494-.1689-1.16927-.45406-1.34792-.87673-.190428-.45056-.190428-1.07604-.01279-1.88178l.45071.09937c-.15894.72093-.15894 1.25695-.01279 1.60273.10198.24129.3983.4382.90032.57472l.46641.09973-.02239.11778c.22753.13299.57527.20431 1.04615.20431z" fill="#fbcd17"/><path d="m2.35699 4.41199.25568.10286-.12784.26577.35759-.18432-.02777.13646-.07667.37663.14652-.42888v.37883l.08952-.37883.26585.08018-.26585-.16439.26585-.08145" stroke="#73be4a" stroke-linecap="round" stroke-linejoin="round" stroke-width=".5"/><g clip-rule="evenodd" fill-rule="evenodd"><path d="m2.84442 4.96851c.13807 0 .25-.11193.25-.25 0-.13808-.11193-.25-.25-.25s-.25.11192-.25.25c0 .13807.11193.25.25.25z" fill="#fbcd17"/><path d="m5.32054 4.93669c-.00409-.16814-.02277-.55205-.10808-.55205-.08581 0-.09886.38841-.10051.55498-.14772.04828-.25892.17539-.25892.17539h.73577s-.11591-.13249-.26826-.17832z" fill="#f7fcff"/></g></g></g></svg>