<svg fill="none" height="12" viewBox="0 0 16 12" width="16" xmlns="http://www.w3.org/2000/svg" xmlns:xlink="http://www.w3.org/1999/xlink"><clipPath id="a"><path d="m0 0h16v12h-16z"/></clipPath><mask id="b" height="12" maskUnits="userSpaceOnUse" width="16" x="0" y="0"><path clip-rule="evenodd" d="m0 0v12h16v-12z" fill="#fff" fill-rule="evenodd"/></mask><mask id="c" height="14" maskUnits="userSpaceOnUse" width="5" x="1" y="-1"><path d="m1-.161438h5v13.1615h-5z" fill="#fff"/></mask><mask id="d" height="3" maskUnits="userSpaceOnUse" width="3" x="2" y="8"><path clip-rule="evenodd" d="m3.10856 8.62549-.88578.49945v.82781l.88578.51965h.9594l.90685-.51965v-.82781l-.90685-.49945z" fill="#fff" fill-rule="evenodd"/></mask><g clip-path="url(#a)"><path d="m0 0h16v12h-16z" fill="#fff"/><path clip-rule="evenodd" d="m0 0v12h16v-12z" fill="#29c470" fill-rule="evenodd"/><g mask="url(#b)"><path d="m1-.161438h5v13.1615h-5z" fill="#c51918"/><g mask="url(#c)"><path clip-rule="evenodd" d="m1.29768.452813-.27305.350859-.02463-.024355.26491-.340407v-.068333l.001-.006348.0308-.094841-.01885-.033039-.15623.156207.30115-.469005v.1602618l.05779.0521642.13804-.241431-.13851-.232358-.09996.076819.04054.081433-.02787.019355-.22566-.37751.14376.098299.02533-.036721-.13776-.140325.06093-.067105-.20134-.293858.02593-.022575.21917.319877-.05685.062612.13446.136965-.06191.08977-.04123-.028192.07866.131597.1326-.101904.16893.283398-.16939.296272-.09843-.088842v-.0639778l-.09881.1538818.04188.07339-.0354.109004zm-.27305 2.862307.27305-.35086v-.07896l.0354-.10901-.04188-.07339.09881-.15388v.06398l.09843.08884.16939-.29627-.16893-.2834-.1326.10191-.07866-.1316.04123.02819.06191-.08977-.13446-.13696.05685-.06262-.21917-.31987-.02593.02257.20134.29386-.06093.06711.13776.14032-.02533.03672-.14376-.0983.22566.37751.02787-.01935-.04054-.08144.09996-.07681.13851.23235-.13804.24143-.05779-.05216v-.16026l-.30115.469.15623-.1562.01885.03303-.0308.09485-.001.00634v.06834l-.26491.3404zm.27305 1.93899-.27305.35086-.02463-.02436.26491-.3404v-.06834l.001-.00634.0308-.09485-.01885-.03304-.15623.15621.30115-.469v.16026l.05779.05216.13804-.24143-.13851-.23236-.09996.07682.04054.08144-.02787.01935-.22566-.37751.14376.0983.02533-.03672-.13776-.14033.06093-.0671-.20134-.29386.02593-.02257.21917.31987-.05685.06261.13446.13697-.06191.08977-.04123-.02819.07866.13159.1326-.1019.16893.2834-.16939.29627-.09843-.08884v-.06398l-.09881.15388.04188.07339-.0354.10901zm-.27305 2.67764.27305-.35086v-.07896l.0354-.109-.04188-.07339.09881-.15389v.06398l.09843.08884.16939-.29627-.16893-.2834-.1326.10191-.07866-.1316.04123.02819.06191-.08977-.13446-.13696.05685-.06262-.21917-.31987-.02593.02257.20134.29386-.06093.06711.13776.14032-.02533.03672-.14376-.0983.22566.37751.02787-.01935-.04054-.08144.09996-.07681.13851.23235-.13804.24144-.05779-.05217v-.16026l-.30115.469.15623-.1562.01885.03303-.0308.09485-.001.00635v.06833l-.26491.3404zm0 2.06825.27305-.35086v-.07896l.0354-.109-.04188-.07339.09881-.15389v.06398l.09843.08884.16939-.29627-.16893-.2834-.1326.10191-.07866-.1316.04123.02819.06191-.08977-.13446-.13696.05685-.06262-.21917-.31987-.02593.02257.20134.29386-.06093.06711.13776.14032-.02533.03672-.14376-.0983.22566.37751.02787-.01935-.04054-.08143.09996-.07682.13851.23235-.13804.24144-.05779-.05217v-.16026l-.30115.469.15623-.1562.01885.03304-.0308.09484-.001.00635v.06833l-.26491.34041zm4.95074 0-.27305-.35086v-.07896l-.0354-.109.04188-.07339-.09881-.15389v.06398l-.09843.08884-.16939-.29627.16893-.2834.1326.10191.07866-.1316-.04123.02819-.06191-.08977.13446-.13696-.05685-.06262.21917-.31987.02593.02257-.20134.29386.06093.06711-.13776.14032.02533.03672.14376-.0983-.22566.37751-.02787-.01935.04054-.08143-.09996-.07682-.13851.23235.13804.24144.05779-.05217v-.16026l.30115.469-.15623-.1562-.01885.03304.0308.09484.001.00635v.06833l.26491.34041zm-.27305-2.41911.27305.35086.02463-.02436-.26491-.3404v-.06833l-.001-.00635-.0308-.09485.01885-.03303.15623.1562-.30115-.469v.16026l-.05779.05217-.13804-.24144.13851-.23235.09996.07681-.04054.08144.02787.01935.22566-.37751-.14376.0983-.02533-.03672.13776-.14032-.06093-.06711.20134-.29386-.02593-.02257-.21917.31987.05685.06262-.13446.13696.06191.08977.04123-.02819-.07866.1316-.1326-.10191-.16893.2834.16939.29627.09843-.08884v-.06398l.09881.15389-.04188.07339.0354.109zm.27305-1.97592-.27305-.35086v-.07896l-.0354-.10901.04188-.07339-.09881-.15388v.06398l-.09843.08884-.16939-.29627.16893-.2834.1326.1019.07866-.13159-.04123.02819-.06191-.08977.13446-.13697-.05685-.06261.21917-.31987.02593.02257-.20134.29386.06093.0671-.13776.14033.02533.03672.14376-.0983-.22566.37751-.02787-.01935.04054-.08144-.09996-.07682-.13851.23236.13804.24143.05779-.05216v-.16026l.30115.469-.15623-.15621-.01885.03304.0308.09485.001.00634v.06834l.26491.3404zm-.27305-2.64071.27305.35086.02463-.02436-.26491-.3404v-.06834l-.001-.00634-.0308-.09485.01885-.03303.15623.1562-.30115-.469v.16026l-.05779.05216-.13804-.24143.13851-.23235.09996.07681-.04054.08144.02787.01935.22566-.37751-.14376.0983-.02533-.03672.13776-.14032-.06093-.06711.20134-.29386-.02593-.02257-.21917.31987.05685.06262-.13446.13696.06191.08977.04123-.02819-.07866.1316-.1326-.10191-.16893.2834.16939.29627.09843-.08884v-.06398l.09881.15388-.04188.07339.0354.10901zm.27305-2.160588-.27305-.350859v-.078962l-.0354-.109004.04188-.07339-.09881-.1538818v.0639778l-.09843.088842-.16939-.296272.16893-.283398.1326.101904.07866-.131597-.04123.028192-.06191-.08977.13446-.136965-.05685-.062612.21917-.319877.02593.022575-.20134.293858.06093.067105-.13776.140325.02533.036721.14376-.098299-.22566.37751-.02787-.019355.04054-.081433-.09996-.076819-.13851.232358.13804.241431.05779-.0521642v-.1602618l.30115.469005-.15623-.156207-.01885.033039.0308.094841.001.006348v.068333l.26491.340407z" fill="#e8aa00" fill-rule="evenodd"/><path clip-rule="evenodd" d="m3.65329 7.28234h.77675v.18229h.17699v.14583h.21239v.47396h-.21239v.14583h-.17699v.14584h-.75603l-.20916.18588-.21015-.18588h-.70077v-.14584h-.17699v-.14583h-.17699v-.47396h.17699v-.14583h.17699v-.18229h.72159l.18933-.16747z" fill="#389f5d" fill-rule="evenodd"/><path d="m4.43004 7.28234h.075v-.075h-.075zm-.77675 0-.04982.05606.02131.01894h.02851zm.77675.18229h-.075v.075h.075zm.17699 0h.075v-.075h-.075zm0 .14583h-.075v.075h.075zm.21239 0h.075v-.075h-.075zm0 .47396v.075h.075v-.075zm-.21239 0v-.075h-.075v.075zm0 .14583v.075h.075v-.075zm-.17699 0v-.075h-.075v.075zm0 .14584v.075h.075v-.075zm-.75603 0v-.075h-.02851l-.02131.01894zm-.20916.18588-.04969.05618.04981.04406.04971-.04418zm-.21015-.18588.04969-.05618-.02128-.01882h-.02841zm-.70077 0h-.075v.075h.075zm0-.14584h.075v-.075h-.075zm-.17699 0h-.075v.075h.075zm0-.14583h.075v-.075h-.075zm-.17699 0h-.075v.075h.075zm0-.47396v-.075h-.075v.075zm.17699 0v.075h.075v-.075zm0-.14583v-.075h-.075v.075zm.17699 0v.075h.075v-.075zm0-.18229v-.075h-.075v.075zm.72159 0v.075h.02841l.02128-.01883zm.18933-.16747.04983-.05606-.04971-.04418-.04981.04406zm.96519.09247h-.77675v.15h.77675zm.075.25729v-.18229h-.15v.18229zm.10199-.075h-.17699v.15h.17699zm.075.22083v-.14583h-.15v.14583zm.13739-.075h-.21239v.15h.21239zm.075.54896v-.47396h-.15v.47396zm-.28739.075h.21239v-.15h-.21239zm.075.07083v-.14583h-.15v.14583zm-.25199.075h.17699v-.15h-.17699zm.075.07084v-.14584h-.15v.14584zm-.83103.075h.75603v-.15h-.75603zm-.15933.16694.20916-.18588-.09965-.11212-.20916.18588zm-.30967-.18577.21015.18589.09938-.11235-.21015-.18589zm-.65108.01883h.70077v-.15h-.70077zm-.075-.22084v.14584h.15v-.14584zm-.10199.075h.17699v-.15h-.17699zm-.075-.22083v.14583h.15v-.14583zm-.10199.075h.17699v-.15h-.17699zm-.075-.54896v.47396h.15v-.47396zm.25199-.075h-.17699v.15h.17699zm-.075-.07083v.14583h.15v-.14583zm.25199-.075h-.17699v.15h.17699zm-.075-.10729v.18229h.15v-.18229zm.79659-.075h-.72159v.15h.72159zm.04969.13117.18933-.16746-.09938-.11236-.18933.16747zm.08982-.16758.18844.16747.09964-.11212-.18843-.16747z" fill="#e8aa00"/><path clip-rule="evenodd" d="m2.65759 7.70373v-.32208h.37529zm1.57883 0v-.32208h-.37529zm-1.57883.58333v-.32207l.37529.32207zm1.57883-.32207v.32207h-.37529z" fill="#c51918" fill-rule="evenodd"/><path clip-rule="evenodd" d="m3.32251 7.40933.12954-.16964.12792.16964zm0 .15848.12954.16964.12792-.16964zm.12954.40104-.12954.16965h.25746zm-.12954.32813.12954.16964.12792-.16964z" fill="#e8aa00" fill-rule="evenodd"/><path clip-rule="evenodd" d="m3.32523 7.38922v.07292h-.07438v.1h.07438v.07291h.25954v-.07291h.07438v-.1h-.07438v-.07292zm.25954.80208v-.07291h-.25954v.07291h-.07438v.1h.07438v.07292h.25954v-.07292h.07438v-.1z" fill="#af0100" fill-rule="evenodd"/><path clip-rule="evenodd" d="m2.8269 7.77471.12331-.1704.12176.1704zm0 .15919.12331.17041.12176-.17041zm1.14986-.32959-.12331.1704h.24507zm-.12331.32959.12331.17041.12176-.17041z" fill="#af0100" fill-rule="evenodd"/><path clip-rule="evenodd" d="m2.82605 7.75385v.07437h-.0708v.102h.0708v.07438h.24705v-.07438h.0708v-.102h-.0708v-.07437zm1.2736.07437v-.07437h-.24706v.07437h-.07079v.102h.07079v.07438h.24706v-.07438h.07079v-.102z" fill="#e8aa00" fill-rule="evenodd"/><g mask="url(#d)"><path d="m2.23547 9.54797h1.38053v.91143h-1.38053z" fill="#e8aa00"/><path d="m2.09387 8.63647h1.52212v.911458h-1.52212z" fill="#f9e8e7"/><path d="m2.44788 9.16762.45825-.27596v.27596z" fill="#e8aa00"/><path d="m0 0h1.52212v.911458h-1.52212z" fill="#e8aa00" transform="matrix(-1 0 0 1 5.13806 8.63647)"/><path d="m4.67786 9.16762-.45826-.27596v.27596z" fill="#f9e8e7"/><path d="m4.99646 10.4594h1.38053v.911458h-1.38053z" fill="#f9e8e7" transform="matrix(-1 0 -0 -1 9.99292 20.9188)"/><path d="m4.64246 9.92827-.45826.27593v-.27593z" fill="#e8aa00"/><path d="m2.44788 9.87065.45825.27595v-.27595z" fill="#fcfcfc"/></g><g clip-rule="evenodd" fill-rule="evenodd"><path d="m3.12036 9.18339h.23009l.23009-.07292.23009.07292h.23009v.69271h-.23009l-.23009.10937-.23009-.10937h-.23009z" fill="#c51918"/><path d="m3.89921 8.76886h.125v.14106h.05122v.1h-.05122v.05382h-.125zm-1.25553.4375h-.125v.29488h.125v-.05382h.05122v-.1h-.05122zm.17699 0h-.125v.29488h.125zm-.17699.36458h-.125v.29488h.125v-.05381h.05122v-.1h-.05122zm.05199 0h.125v.29488h-.125zm1.76991-.36458h.125v.14106h.05122v.1h-.05122v.05382h-.125zm.30199 0h-.125v.29488h.125zm-.17699.36458h-.125v.29488h.125v-.05381h.05122v-.1h-.05122zm.05199 0h.125v.29488h-.125zm-.44137-.80208h-.125v.29488h.125zm-1.02655 0h-.125v.29488h.125v-.05382h.05122v-.1h-.05122zm.05199 0h.125v.29488h-.125zm.67257 1.23954h.125v.1411h.05122v.1h-.05122v.0538h-.125zm.30199 0h-.125v.2949h.125zm-1.02655 0h-.125v.2949h.125v-.0538h.05122v-.1h-.05122zm.05199 0h.125v.2949h-.125z" fill="#c9343f"/><path d="m3.51255 9.3332h.0354v-.09913h-.17686v.11334h-.14575v.16245h.13553v-.03646h-.10013v-.08953h.12021l.18093.15657-.18093.15657h-.12021v-.08952h.10013v-.03646h-.13553v.16244h.14575v.11334h.17686v-.09913h-.0354v.06268h-.10606v-.08783l.184-.15922.18399.15922v.08783h-.10606v-.06268h-.0354v.09913h.17686v-.11334h.14575v-.16244h-.13552v.03646h.10012v.08952h-.12021l-.18093-.15657.18093-.15657h.12021v.08953h-.10012v.03646h.13552v-.16245h-.14575v-.11334h-.17686v.09913h.0354v-.06267h.10606v.08782l-.18399.15923-.184-.15923v-.08782h.10606z" fill="#fff"/><path d="m3.79225 2.40002h-.62338v2h.62338zm-1.4026.42308h.38961v1.07692h-.38961zm1.83117 0h.38961v1.07692h-.38961z" fill="#e8aa00"/><path d="m3.16883 2.55389h-.38961v1.53847h.38961zm-.77922.42308h-.38961v.73077h.38961zm2.22078 0h.38961v.73077h-.38961zm-.42857-.42308h-.38961v1.53847h.38961z" fill="#389f5d"/><path d="m3.09087 2.74618c0 .06373-.05233.11539-.11689.11539-.06455 0-.11688-.05166-.11688-.11539 0-.06372.05233-.11538.11688-.11538.06456 0 .11689.05166.11689.11538zm-.77922.38462c0 .06372-.05233.11538-.11689.11538-.06455 0-.11688-.05166-.11688-.11538 0-.06373.05233-.11539.11688-.11539.06456 0 .11689.05166.11689.11539zm0 .42308c0 .06372-.05233.11538-.11689.11538-.06455 0-.11688-.05166-.11688-.11538 0-.06373.05233-.11539.11688-.11539.06456 0 .11689.05166.11689.11539zm.66233.46153c.06456 0 .11689-.05166.11689-.11538 0-.06373-.05233-.11539-.11689-.11539-.06455 0-.11688.05166-.11688.11539 0 .06372.05233.11538.11688.11538zm1.83117-.76923c.06456 0 .11689-.05166.11689-.11538 0-.06373-.05233-.11539-.11689-.11539-.06455 0-.11688.05166-.11688.11539 0 .06372.05233.11538.11688.11538zm.11689.3077c0 .06372-.05233.11538-.11689.11538-.06455 0-.11688-.05166-.11688-.11538 0-.06373.05233-.11539.11688-.11539.06456 0 .11689.05166.11689.11539zm-.93507.46153c.06455 0 .11688-.05166.11688-.11538 0-.06373-.05233-.11539-.11688-.11539s-.11688.05166-.11688.11539c0 .06372.05233.11538.11688.11538zm.11688-1.26923c0 .06373-.05233.11539-.11688.11539s-.11688-.05166-.11688-.11539c0-.06372.05233-.11538.11688-.11538s.11688.05166.11688.11538z" fill="#e1e5e8"/><path d="m3.5974 2.59231c0 .06373-.05233.11539-.11688.11539-.06456 0-.11689-.05166-.11689-.11539 0-.06372.05233-.11538.11689-.11538.06455 0 .11688.05166.11688.11538zm-.8961.42308c0 .06373-.05233.11538-.11689.11538-.06455 0-.11688-.05165-.11688-.11538 0-.06372.05233-.11538.11688-.11538.06456 0 .11689.05166.11689.11538zm.77922 1.34615c.06455 0 .11688-.05166.11688-.11538 0-.06373-.05233-.11539-.11688-.11539-.06456 0-.11689.05166-.11689.11539 0 .06372.05233.11538.11689.11538zm1.05194-1.34615c0 .06373-.05233.11538-.11688.11538s-.11688-.05165-.11688-.11538c0-.06372.05233-.11538.11688-.11538s.11688.05166.11688.11538zm-1.94805.80769c.06456 0 .11689-.05166.11689-.11538 0-.06373-.05233-.11539-.11689-.11539-.06455 0-.11688.05166-.11688.11539 0 .06372.05233.11538.11688.11538zm1.94805-.11538c0 .06372-.05233.11538-.11688.11538s-.11688-.05166-.11688-.11538c0-.06373.05233-.11539.11688-.11539s.11688.05166.11688.11539z" fill="#c51918"/><path d="m2.8033 3.19575.37929-.34254h.61584l.43222.39298h.57458v.15385h-.55901v.00803l-.44779.45543h-.61584l-.37929-.41104v-.05242h-.64742v-.15385h.64742z" fill="#c51918"/><path d="m3.50546 3.13827.18419.18666-.19336.18316-.19336-.18316.18418-.18666.00918-.00846zm.03354.45069.02157-.01997-.02208-.02092.19194-.18181.20019.20288-.09009.09502h-.05342l-.09937.06251zm-.04271.03954-.18459.1709-.12327-.07755h-.06173l-.14555-.1535.23883-.24204-.24037-.22768.15772-.15305.05717.0449.0827-.08354-.02486-.02519.04186-.04026.20209.2048.20208-.2048.04186.04026-.02486.02519.08271.08354.05716-.0449.15772.15305-.24036.22768.23882.24204-.14555.1535h-.06172l-.12328.07755zm.103-.47782.00243-.00256-.05535-.05107-.00695-.00704.14396-.13284.10979.1109.05799-.04555.07792.07561-.19726.18686zm-.12363.41783-.17083.15816-.09936-.06251h-.05342l-.09009-.09502.20019-.20288zm-.41216-.47038.19726.18686.19239-.19498-.14396-.13284-.10979.1109-.05798-.04555z" fill="#e8aa00"/><path d="m2.22418 10.7208c-.10451-.1326-.17505-.2221-.19363-.2208-.05833.0043-.11304.6219.64517 1.0918 0 0 .11192.0622.17711 0 .06518-.0622 0-.1538 0-.1538-.2451-.2303-.47405-.5209-.62865-.7172zm2.55164 0h.00001c.10451-.1326.17504-.2221.19362-.2208.05833.0043.11304.6219-.64517 1.0918 0 0-.11192.0622-.17711 0-.06518-.0622 0-.1538 0-.1538.2451-.2303.47405-.5209.62865-.7172zm-.05547.831c-.24914.0737-.5377.0891-.64804.0415-.0352-.0152-.07257-.0271-.11183-.036-.10976-.0249-.21676-.0252-.34372-.0113l-.05012.0058c-.01195.0014-.01886.002-.02017.002-.00745 0-.0156.0011-.02455.0032-.00894-.0021-.0171-.0032-.02454-.0032-.00132 0-.00822-.0006-.02018-.002l-.05011-.0058c-.12697-.0139-.23396-.0136-.34373.0113-.03926.0089-.07663.0208-.11182.036-.11034.0476-.3989.0322-.64805-.0415 0 0 .45338.1821.72265.1014.02611-.0112.05365-.02.08263-.0266.07665-.0174.15516-.019.2496-.0101-.03972.0185-.0859.0396-.13961.0614v.0221c.10604-.043.2303-.0634.28316-.0697.05286.0063.17713.0267.28317.0697v-.0221c-.05372-.0218-.0999-.0429-.13962-.0614.09444-.0089.17295-.0073.2496.0101.02898.0066.05652.0154.08263.0266.26927.0807.72265-.1014.72265-.1014z" fill="#e8aa00"/><path d="m2.88195 4.98877-.62597.55163v.52539l.54724.5499h1.11739l.61608-.58675v-.44729l-.61608-.59288z" fill="#389f5d"/><path d="m3.09728 5.04712h-.14159v.10937h.14159zm0 1.43001h-.14159v.10938h.14159zm.21239 0h.14159v.10938h-.14159zm.14159-1.43001h-.14159v.10937h.14159zm.21239 1.43001h.1416v.10938h-.1416zm.1416-1.43001h-.1416v.10937h.1416z" fill="#c51918"/><path d="m3.27682 5.0188h-.14413v.10937h.14413zm0 1.45833h-.14413v.10938h.14413zm.2162-1.45833h.14413v.10937h-.14413zm.14413 1.45833h-.14413v.10938h.14413z" fill="#e8aa00"/><path d="m2.45683 4.92102h1.89002v.29206h.27062v1.20741h-.27062v.24959h-1.89002v-.24959h-.29387v-1.20741h.29387zm.1062.40144h-.29387v.98865h.29387v.24959h1.67762v-.24959h.27063v-.98865h-.27063v-.29206h-1.67762z" fill="#750100"/><path d="m3.2035 4.80005h-.17699v.18229h.17699zm.28319 0h-.17699v.18229h.17699zm.1062 0h.17699v.18229h-.17699zm-.38939 1.82292h-.17699v.18229h.17699zm.1062 0h.17699v.18229h-.17699zm.46018 0h-.17699v.18229h.17699zm-1.77257-.4037v-.17699h.1823v.17699zm0-.46865v.17699h.1823v-.17699zm0-.11468v-.17699h.1823v.17699zm2.54868.40634v.17699h.18229v-.17699zm0-.11467v-.17699h.18229v.17699zm0-.46866v.17699h.18229v-.17699z" fill="#389f5d"/><path d="m2.88913 5.14233-.30527.26551v.85914l.25334.17927h1.09832l.25297-.17927v-.85914l-.2855-.26551z" fill="#c51918"/><path d="m3.40155 5.49847-.36835.31472h.36835z" fill="#e1e5e8"/></g><path d="m3.40155 6.09869-.36835-.31471h.36835z" fill="#e8aa00"/><path clip-rule="evenodd" d="m3.36957 5.49847.36835.31472h-.36835z" fill="#e8aa00" fill-rule="evenodd"/><path clip-rule="evenodd" d="m3.38585 5.89817c.06162 0 .11157-.04994.11157-.11156 0-.06161-.04995-.11156-.11157-.11156-.06161 0-.11156.04995-.11156.11156 0 .06162.04995.11156.11156.11156z" fill="#29ae66" fill-rule="evenodd"/><path d="m3.36957 6.09869.36835-.31471h-.36835z" fill="#e1e5e8"/><path clip-rule="evenodd" d="m2.60179 5.67505h-.31859v.102h.31859zm0 .18594h-.31859v.102h.31859zm1.59292-.18594h.31858v.102h-.31858zm.31858.18594h-.31858v.102h.31858z" fill="#c51918" fill-rule="evenodd"/><path clip-rule="evenodd" d="m2.56639 5.56567h-.28319v.11157h.28319zm0 .18594h-.28319v.11156h.28319zm-.28319.18594h.28319v.11156h-.28319zm2.19469-.37188h-.28318v.11157h.28318zm-.28318.18594h.28318v.11156h-.28318zm.28318.18594h-.28318v.11156h.28318z" fill="#e8aa00" fill-rule="evenodd"/><path clip-rule="evenodd" d="m4.99254.795207-.00107.202588h-1.47947l-.00105.920005h-.4639c-.08098 0-.30301-.1555-.30301-.1555h-.37668l-.17389-.17765v-.17851l-.18663-.2216.00107-.202589h1.47946l.00106-.9200003h.4639c.08098 0 .30301.1554973.30301.1554973h.37668l.17389.177652v.178504z" fill="#e8aa00" fill-rule="evenodd"/><path clip-rule="evenodd" d="m2.00685.795207.00107.202588h1.47946l.00106.920005h.4639c.08098 0 .30301-.1555.30301-.1555h.37668l.17389-.17765v-.17851l.18663-.2216-.00107-.202589h-1.47946l-.00106-.9200003h-.4639c-.08098 0-.30301.1554973-.30301.1554973h-.37668l-.17389.177652v.178504z" fill="#e1e5e8" fill-rule="evenodd"/><path clip-rule="evenodd" d="m3.00118.342713-.0162-.078247.31913-.073386c.03831-.0185.1048-.071201.19638-.1568393l.0429.0482876.00736-.0082876c.09158.0856383.15807.1383393.19638.1568393l.31913.073386-.0162.078247-.17698-.036559.01693.01514c-.01216.007286-.02539.017908-.03957.031801l-.07471-.011003.00694-.025268-.01876-.003055c-.01374.025925-.02946.063016-.04625.110611l-.07473-.022002.03026-.144943-.16889-.15841-.11833.110981c.01472.013345.0294.028663.0441.045994-.01256.004776-.02456.008991-.03601.012648l-.00507.001208.01931.092522-.07473.022002c-.00975-.027653-.01914-.051761-.028-.072192l-.00616.000907c-.01417-.013893-.0274-.024515-.03956-.031801l.02115-.018912c-.00347-.005934-.00679-.011077-.00995-.015416zm.01313.286498.04261-.066981-.22041-.147781.02451-.034276-.06281-.047345-.02704.037811-.08747-.058647-.0426.066981.08389.056249-.01728.024162.06281.047345.01981-.027698zm-.27273.08.04261-.066981-.22041-.147781.02452-.034276-.06281-.047345-.02704.037811-.08747-.058647-.04261.066981.08389.056249-.01728.024162.06281.047345.01981-.027698zm-.11688.24.04261-.066981-.22041-.147781.02451-.034276-.06281-.047345-.02704.037811-.08747-.058647-.0426.066981.08389.056249-.01728.024162.06281.047345.01981-.027698zm.00365.192009-.04261-.06698-.22398.15018-.01981-.0277-.06281.04735.01728.02416-.0839.05625.04261.06698.08747-.05865.02704.03781.06281-.04734-.02451-.03428zm.07427.17302.04261.06698-.22041.14778.02452.03428-.06282.04734-.02704-.03781-.08746.05865-.04261-.06698.08389-.05625-.01728-.02416.06281-.04735.01981.0277zm.27273.08.04261.06698-.22041.14778.02451.03428-.06281.04734-.02704-.03781-.08747.05865-.04261-.06698.0839-.05625-.01728-.02416.06281-.04735.01981.0277zm.41576.38232c-.01256-.00477-.02456-.00899-.03602-.01264l-.01483-.00354.02908-.13931-.07473-.022c-.02387.06768-.04558.11412-.06252.13742l-.26987-.05575-.0162.07825.30759.07073-.00008.00029.04448.02955.00585-.00365c.03878.02704.09171.07163.15766.1333l.02514-.02829.02513.02829c.09158-.08564.15807-.13834.19638-.15684l.01035-.00238c.01345.01148.02695.02133.04055.02957l.04449-.02955-.0045-.01525.00497-.00443.22327-.05134-.0162-.07825-.26987.05575c-.01695-.0233-.03866-.06974-.06253-.13742l-.07473.022.03026.14495-.14757.13841-.11412-.10704c.00619-.00658.01238-.01353.01857-.02083zm.95386-.63534.04261-.06698.22398.15018.01981-.0277.06281.04735-.01728.02416.08389.05625-.04261.06698-.08747-.05865-.02704.03781-.06281-.04734.02452-.03428zm-.11688.24.0426-.06698.22399.15018.0198-.0277.06282.04735-.01728.02416.08389.05625-.04261.06698-.08747-.05865-.02704.03781-.06281-.04734.02451-.03428zm-.27273.08.04261-.06698.22398.15018.01981-.0277.06281.04735-.01728.02416.08389.05625-.04261.06698-.08747-.05865-.02704.03781-.06281-.04734.02452-.03428zm.42857-.53899.04261.066981.22398-.15018.01981.027698.06281-.047345-.01728-.024162.08389-.056249-.04261-.066981-.08746.058647-.02704-.037811-.06282.047345.02452.034276zm-.11688-.24.0426.066981.22399-.15018.01981.027698.06281-.047345-.01728-.024162.08389-.056249-.04261-.066981-.08747.058647-.02704-.037811-.06281.047345.02451.034276zm-.27273-.08.04261.066981.22398-.15018.01981.027698.06281-.047345-.01728-.024162.08389-.056249-.04261-.066981-.08746.058647-.02704-.037811-.06282.047345.02452.034276z" fill="#c51918" fill-rule="evenodd"/><path clip-rule="evenodd" d="m3.10386.576534.44126-.234005v.64h1.09091l-.25994.187211v.24495h-.41142l-.44127.234v-.64h-1.0909l.25994-.187215v-.244941z" fill="#c51918" fill-rule="evenodd"/><path clip-rule="evenodd" d="m3.96463.576534-.44127-.234005v.64h-1.09091l.25994.187211v.24495h.41142l.44127.234v-.64h1.09091l-.25995-.187215v-.244941z" fill="#29ae66" fill-rule="evenodd"/><path clip-rule="evenodd" d="m2.88953.742362.072-.141898.18317.097969.05046-.075081.12827.090873-.03945.058702.54215.289973.03342-.04973.12827.09088-.02241.03335.05856.03132-.072.1419-.07576-.04052-.06149.09149-.12827-.09087.05048-.07511-.54215-.289979-.04445.066137-.12827-.090873.03344-.049758z" fill="#29ae66" fill-rule="evenodd"/><path clip-rule="evenodd" d="m4.04481.703382-.08173-.136531-.17589.110508-.05557-.071378-.12162.099599.04345.055807-.5206.327083-.03681-.04727-.12162.0996.02469.0317-.05624.03533.08173.13653.07274-.0457.06773.08698.12161-.0996-.0556-.07141.52061-.327084.04896.062875.12161-.099599-.03683-.047304z" fill="#c51918" fill-rule="evenodd"/></g><g clip-rule="evenodd" fill="#f7fcff" fill-rule="evenodd"><path d="m9.53669 1s1.16511 2.7608.12996 3.93326c-1.03513 1.17246-3.66665.94641-3.66665.94641s3.3782 1.52583 4.8501-.57514c1.4718-2.10097-1.31341-4.30453-1.31341-4.30453z"/><path d="m7.4221 2.62424-.30828.21698.10876-.36361-.29928-.22951.37549-.00774.12331-.35883.12331.35883.37548.00774-.29927.22951.10875.36361zm.05963 1.00267-.30827.21698.10875-.36361-.29928-.22951.37549-.00774.12331-.35883.12331.35883.37549.00774-.29928.22951.10875.36361zm-1.24543.29442.30827-.21698.30828.21698-.10876-.36361.29928-.22951-.37549-.00774-.12331-.35883-.12331.35883-.37548.00774.29927.22951zm1.24543.75731-.30827.21699.10875-.36362-.29928-.22951.37549-.00774.12331-.35883.12331.35883.37549.00774-.29928.22951.10875.36362zm.71053-1.14119.30827-.21698.30828.21698-.10876-.36361.29928-.22951-.37549-.00774-.12331-.35883-.12331.35883-.37549.00774.29928.22951z"/></g></g></g></svg>