<svg width="22" height="17" viewBox="0 0 22 17" fill="none" xmlns="http://www.w3.org/2000/svg">
<path fill-rule="evenodd" clip-rule="evenodd" d="M20.9137 0.00126204H20.884L20.8826 0L20.6702 0.0390987C18.0201 0.612961 15.4999 1.49835 13.326 2.57419C11.3554 3.33765 7.41751 4.91882 1.51218 7.3177C0.553516 7.67337 0.0511841 8.02104 0.00518965 8.36074C-0.0709272 8.93512 0.698866 9.16148 1.74829 9.47006C1.86111 9.50323 1.97716 9.53735 2.09573 9.57296C3.10611 9.91971 4.17059 10.1631 5.34325 10.2955H5.35137C6.17927 10.2627 6.93953 9.98269 7.54151 9.54C13.059 6.06823 15.9071 4.31343 16.0857 4.27559L16.083 4.27685C16.1371 4.25794 16.1952 4.24659 16.2561 4.24659C16.3481 4.24659 16.436 4.27055 16.5064 4.31343C16.57 4.38154 16.6092 4.47108 16.6092 4.56946C16.6092 4.59721 16.6065 4.62369 16.6011 4.64766C16.5239 4.95067 13.5098 7.564 11.9378 8.92698C11.4421 9.35672 11.0898 9.66217 11.0182 9.7317C10.8598 9.88494 10.6984 10.03 10.5432 10.1694C9.58216 11.033 8.85993 11.6819 10.5826 12.7385C11.4153 13.2502 12.0807 13.6728 12.7457 14.0952C13.4624 14.5504 14.1787 15.0053 15.1035 15.5712C15.3407 15.7162 15.5673 15.8668 15.7879 16.0135C16.6267 16.5713 17.3802 17.0723 18.311 16.9914C18.8521 16.946 19.4108 16.4718 19.6949 15.0554C20.3658 11.7106 21.6862 4.46478 21.9905 1.47691V1.48826C21.9973 1.40754 22 1.32682 22 1.24484C22 1.06448 21.9851 0.887912 21.9581 0.734041V0.730257C21.9324 0.528459 21.8268 0.349364 21.6699 0.221979L21.674 0.224501C21.4589 0.083242 21.1965 0.00126204 20.9137 0.00126204ZM2.10669 9.57625C2.10304 9.57516 2.09939 9.57406 2.09573 9.57296L2.10669 9.57625ZM2.19534 9.60306C2.16564 9.59403 2.13609 9.58509 2.10669 9.57625L2.19534 9.60306Z" fill="white"/>
</svg>
