<svg width="22" height="24" viewBox="0 0 22 24" fill="none" xmlns="http://www.w3.org/2000/svg">
<path d="M17.4492 3.76134C16.5237 2.75277 15.9673 1.43768 15.9673 0H14.8075C15.1062 1.57142 16.0903 2.91996 17.4492 3.76134Z" fill="white"/>
<path d="M6.71856 11.8854C4.7095 11.8854 3.07533 13.4402 3.07533 15.3514C3.07533 16.6833 3.87192 17.8423 5.03165 18.4218C4.59822 17.8535 4.34049 17.157 4.34049 16.3991C4.34049 14.4878 5.97467 12.933 7.98377 12.933C8.35862 12.933 8.72174 12.9942 9.06151 13.0946V8.88193C8.71001 8.8373 8.35275 8.80941 7.98377 8.80941C7.91931 8.80941 7.86073 8.81499 7.7963 8.81499V12.0469C7.45072 11.9466 7.09341 11.8854 6.71856 11.8854Z" fill="white"/>
<path d="M20.7348 5.61102V8.81514C18.4856 8.81514 16.4005 8.12978 14.7018 6.97068V15.3571C14.7018 19.5421 11.123 22.9524 6.7183 22.9524C5.01969 22.9524 3.43823 22.4397 2.14376 21.576C3.60222 23.0637 5.68156 24 7.98351 24C12.3823 24 15.967 20.5952 15.967 16.4047V8.01829C17.6656 9.17739 19.7507 9.86271 22 9.86271V5.73924C21.5607 5.73924 21.1389 5.69461 20.7348 5.61102Z" fill="white"/>
<path d="M14.7018 15.3571V6.97068C16.4005 8.12978 18.4856 8.81514 20.7348 8.81514V5.61102C19.4345 5.34918 18.2926 4.68083 17.4492 3.76134C16.0903 2.91996 15.1118 1.57142 14.8014 0H11.6267L11.6208 16.5332C11.5506 18.3833 9.94568 19.8712 7.98352 19.8712C6.76516 19.8712 5.69327 19.2972 5.02555 18.428C3.8658 17.8428 3.06922 16.6894 3.06922 15.3575C3.06922 13.4462 4.7034 11.8915 6.71244 11.8915C7.08731 11.8915 7.45046 11.9528 7.79019 12.0531V8.82108C3.47923 8.91024 0 12.2759 0 16.4051C0 18.4 0.814167 20.2163 2.14376 21.576C3.43823 22.4397 5.01969 22.9524 6.7183 22.9524C11.1171 22.9524 14.7018 19.5421 14.7018 15.3571Z" fill="white"/>
</svg>
