<svg width="25" height="20" viewBox="0 0 25 20" fill="none" xmlns="http://www.w3.org/2000/svg">
<path d="M22.452 5.17753C22.4504 5.11122 22.4483 5.04568 22.4453 4.98092C23.4497 4.26118 24.3175 3.37818 25 2.36083C24.0834 2.76407 23.089 3.03277 22.0553 3.15748C23.1084 2.53373 23.9275 1.5451 24.3078 0.364688C23.3131 0.95027 22.2211 1.36276 21.0511 1.5931C20.1151 0.614302 18.7792 0 17.3069 0C14.4793 0 12.1783 2.26503 12.1783 5.048C12.1783 5.45104 12.227 5.835 12.3148 6.19969C8.05377 5.98843 4.28045 3.98284 1.74536 0.921357C1.30659 1.67001 1.05312 2.54318 1.05312 3.46453C1.05312 5.21126 1.95979 6.76581 3.33455 7.66789C2.49606 7.63917 1.70632 7.40883 1.01408 7.0345V7.09214C1.01408 9.53932 2.77886 11.5835 5.12866 12.0441C4.6996 12.1689 4.24141 12.2265 3.77332 12.2265C3.44196 12.2265 3.12012 12.1978 2.80818 12.1401C3.45167 14.1459 5.35299 15.6047 7.59558 15.643C5.84051 16.9961 3.62706 17.8022 1.22851 17.8022C0.809357 17.8022 0.399727 17.7832 0 17.7352C2.26201 19.165 4.96298 20 7.85876 20C17.2972 20 22.4552 12.3032 22.4552 5.63338C22.4552 5.48034 22.4552 5.32729 22.452 5.17753Z" fill="white"/>
</svg>
