<svg width="25" height="24" viewBox="0 0 25 24" fill="none" xmlns="http://www.w3.org/2000/svg">
<path d="M20.4707 18C20.4707 21 19.4707 22 16.4707 22H8.4707C5.4707 22 4.4707 21 4.4707 18V10H20.4707V18Z" fill="white"/>
<path d="M22 8C22 9.1 21.47 10 20 10H5C3.47 10 3 9.1 3 8V7C3 5.9 3.47 5 5 5H20C21.47 5 22 5.9 22 7V8Z" fill="#8F8F8F"/>
<path d="M6.62076 4.99994C6.28076 4.62994 6.29076 4.05994 6.65076 3.69994L8.07076 2.27994C8.44076 1.90994 9.05076 1.90994 9.42076 2.27994L12.1408 4.99994H6.62076Z" fill="white"/>
<path d="M12.8496 4.99994L15.5696 2.27994C15.9396 1.90994 16.5496 1.90994 16.9196 2.27994L18.3396 3.69994C18.6996 4.05994 18.7096 4.62994 18.3696 4.99994H12.8496Z" fill="white"/>
<path opacity="0.6" d="M9.43945 15.14C9.43945 15.94 10.3195 16.41 10.9895 15.98L11.9295 15.36C12.2695 15.14 12.6995 15.14 13.0295 15.36L13.9195 15.96C14.5795 16.4 15.4695 15.93 15.4695 15.13V10H9.43945V15.14Z" fill="#8F8F8F"/>
</svg>
