<svg fill="none" height="12" viewBox="0 0 16 12" width="16" xmlns="http://www.w3.org/2000/svg" xmlns:xlink="http://www.w3.org/1999/xlink"><clipPath id="a"><path d="m0 0h16v12h-16z"/></clipPath><g clip-path="url(#a)"><path d="m0 0h16v12h-16z" fill="#fff"/><g clip-rule="evenodd" fill-rule="evenodd"><path d="m4 0h8v12h-8z" fill="#ffd018"/><path d="m0 0h4v12h-4z" fill="#2e42a5"/><path d="m12 0h4v12h-4z" fill="#e31d1c"/><path d="m4.90002 3.60712c0-.55506.45206-1.00392 1.0071-.99998l4.39458.03118c.5495.0039.993.45046.993.99998v4.00707s-.4442 2-3.14571 2c-2.70156 0-3.24897-2.04537-3.24897-2.04537z" fill="#bf9937"/><path d="m5.15002 4.20001c.41422 0 .75-.33578.75-.75 0-.41421-.33578-.75-.75-.75-.41421 0-.75.33579-.75.75 0 .41422.33579.75.75.75z" fill="#bf9937"/><path d="m5.15002 6.40002c.41422 0 .75-.33578.75-.75 0-.41421-.33578-.75-.75-.75-.41421 0-.75.33579-.75.75 0 .41422.33579.75.75.75z" fill="#bf9937"/><path d="m5.15002 8.20001c.41422 0 .75-.33578.75-.75 0-.41421-.33578-.75-.75-.75-.41421 0-.75.33579-.75.75 0 .41422.33579.75.75.75z" fill="#bf9937"/><path d="m10.85 4.20001c.4142 0 .75-.33578.75-.75 0-.41421-.3358-.75-.75-.75s-.75.33579-.75.75c0 .41422.3358.75.75.75z" fill="#bf9937"/><path d="m10.85 6.40002c.4142 0 .75-.33578.75-.75 0-.41421-.3358-.75-.75-.75s-.75.33579-.75.75c0 .41422.3358.75.75.75z" fill="#bf9937"/><path d="m10.85 8.20001c.4142 0 .75-.33578.75-.75 0-.41421-.3358-.75-.75-.75s-.75.33579-.75.75c0 .41422.3358.75.75.75z" fill="#bf9937"/></g><path d="m5.91187 8.33519.05254-.12706c.60385.25884 1.29102.38844 2.06195.38844.77054 0 1.43922-.12947 2.00644-.38783l.0553.12584c-.58564.26675-1.27305.39984-2.06174.39984-.7883 0-1.49328-.13295-2.11449-.39923z" fill="#805440"/></g></svg>