<svg fill="none" height="12" viewBox="0 0 16 12" width="16" xmlns="http://www.w3.org/2000/svg" xmlns:xlink="http://www.w3.org/1999/xlink"><clipPath id="a"><path d="m0 0h16v12h-16z"/></clipPath><clipPath id="b"><path d="m0 0h9v7h-9z"/></clipPath><g clip-path="url(#a)"><path d="m0 0h16v12h-16z" fill="#fff"/><path clip-rule="evenodd" d="m0 0v12h16v-12z" fill="#2e42a5" fill-rule="evenodd"/><g clip-path="url(#b)"><path d="m0 0h9v7h-9z" fill="#2e42a5"/><path d="m-1.00208 6.49993 1.98048.8686 8.0666-6.424139 1.0447-1.290766-2.11788-.290311-3.29017 2.768346-2.64825 1.86522z" fill="#f7fcff"/><path d="m-.730957 7.10849 1.008961.50406 9.436506-8.078859h-1.41669z" fill="#f50100"/><path d="m10.0022 6.49993-1.98048.8686-8.0665961-6.424139-1.0446539-1.290766 2.11783-.290311 3.29017 2.768346 2.64826 1.86522z" fill="#f7fcff"/><path d="m9.93457 6.93667-1.00896.50406-4.01816-3.45897-1.1913-.38647-4.90625-3.937263h1.416697l4.903493 3.843813 1.30247.46341z" fill="#f50100"/><g clip-rule="evenodd" fill-rule="evenodd"><path d="m4.99226 0h-1v3h-3.99226v1h3.99226v3h1v-3h4.00774v-1h-4.00774z" fill="#f50100"/><path d="m3.24226-.75h2.5v3h4.00774v2.5h-4.00774v3h-2.5v-3h-3.99226v-2.5h3.99226zm.75 3.75h-3.99226v1h3.99226v3h1v-3h4.00774v-1h-4.00774v-3h-1z" fill="#f7fcff"/></g></g><path d="m12.3702 10.5623c-.603 0-1.0085-.1383-1.2913-.3668-.2842-.22957-.4767-.57602-.602-1.05532-.1257-.48123-.1783-1.075-.1979-1.77426-.0138-.49108-.0113-1.02316-.0085-1.59588.0008-.16368.0015-.33068.002-.501h4.2554c.0751 1.37072.0944 2.68272-.1766 3.66647-.142.51524-.3579.91792-.6673 1.19179-.3047.2697-.7232.435-1.3138.435z" fill="#fff" stroke="#e6e617" stroke-width=".5"/><g clip-rule="evenodd" fill-rule="evenodd"><path d="m10.2418 8.96726c0 1.03106.8534 2.04914 2.1163 2.04914 1.2628 0 2.2318-.9384 2.3472-2.08421z" fill="#82e5ff"/><path d="m10.8671 7.09995c0 .77413.6483 1.4 1.446 1.4.7976 0 1.446-.62587 1.446-1.4s-.6484-1.4-1.446-1.4c-.7977 0-1.446.62587-1.446 1.4zm2.292 0c0 .45103-.3788.81667-.846.81667-.4673 0-.846-.36564-.846-.81667s.3787-.81667.846-.81667c.4672 0 .846.36564.846.81667z" fill="#e18600"/><path d="m12.069 5.50494s-.5262.23205-.412.66828c.1142.43624.2432.49839.2432.49839s.1859-.9444.9364-.9444z" fill="#e18600"/><path d="m11.1265 7.86197s.4327.37886.7798.09099.3488-.4311.3488-.4311-.9344.23066-1.2516-.44952z" fill="#e18600"/><path d="m13.7294 7.8044s.0221-.5747-.42-.66328c-.4422-.08858-.5546.00017-.5546.00017s.7673.58106.4383 1.2556z" fill="#e18600"/></g></g></svg>