<svg fill="none" height="12" viewBox="0 0 16 12" width="16" xmlns="http://www.w3.org/2000/svg" xmlns:xlink="http://www.w3.org/1999/xlink"><clipPath id="a"><path d="m0 0h16v12h-16z"/></clipPath><mask id="b" height="12" maskUnits="userSpaceOnUse" width="16" x="0" y="0"><path clip-rule="evenodd" d="m0 0v12h16v-12z" fill="#fff" fill-rule="evenodd"/></mask><g clip-path="url(#a)"><path d="m0 0h16v12h-16z" fill="#fff"/><g clip-rule="evenodd" fill-rule="evenodd"><path d="m0 0v12h16v-12z" fill="#5ba3da"/><g mask="url(#b)"><path d="m2.78037 4.28987-2.53806-.75423 2.59441-.73912.63337-2.360058.73122 2.432158 2.39929.64186-2.40638.7231-.71817 2.32431z" fill="#ef2929"/><path d="m2.78037 4.28987-2.53806-.75423 2.59441-.73912.63337-2.360058.73122 2.432158 2.39929.64186-2.40638.7231-.71817 2.32431z" fill="#f00"/><path d="m16.0002 7h-16.00007793v1.00006h16.00007793zm0 2.00004h-16.00007793v1.00006h16.00007793z" fill="#fad615"/></g></g></g></svg>