<svg fill="none" height="12" viewBox="0 0 16 12" width="16" xmlns="http://www.w3.org/2000/svg" xmlns:xlink="http://www.w3.org/1999/xlink"><clipPath id="a"><path d="m0 0h16v12h-16z"/></clipPath><g clip-path="url(#a)"><path d="m0 0h16v12h-16z" fill="#fff"/><g clip-rule="evenodd" fill-rule="evenodd"><path d="m0 0h16v12h-16z" fill="#2e42a5"/><path d="m5 0h10v12z" fill="#feca00"/><path d="m3.55402 1.39691-.58778.30902.11225-.65451-.47552-.463525.65716-.095492.29389-.595491.2939.595491.65716.095492-.47553.463525.11226.65451z" fill="#f7fcff"/><path d="m5.29737 3.53699-.58779.30901.11226-.6545-.47553-.46353.65717-.09549.29389-.59549.29389.59549.65717.09549-.47553.46353.11226.6545z" fill="#f7fcff"/><path d="m6.93171 5.61926-.58779.30902.11226-.65451-.47553-.46352.65717-.0955.29389-.59549.29389.59549.65716.0955-.47552.46352.11225.65451z" fill="#f7fcff"/><path d="m8.53266 7.61462-.58778.30902.11225-.65451-.47553-.46352.65717-.09549.29389-.5955.29389.5955.65717.09549-.47553.46352.11226.65451z" fill="#f7fcff"/><path d="m10.2572 9.6684-.58778.30901.11226-.65451-.47553-.46352.65717-.09549.29388-.59549.2939.59549.6572.09549-.4756.46352.1123.65451z" fill="#f7fcff"/><path d="m12.1635 11.6555-.5878.309.1122-.6545-.4755-.4635.6572-.0955.2939-.5955.2939.5955.6571.0955-.4755.4635.1122.6545z" fill="#f7fcff"/></g></g></svg>