<svg fill="none" height="12" viewBox="0 0 16 12" width="16" xmlns="http://www.w3.org/2000/svg" xmlns:xlink="http://www.w3.org/1999/xlink"><clipPath id="a"><path d="m0 0h16v12h-16z"/></clipPath><clipPath id="b"><path d="m0 0h9v7h-9z"/></clipPath><mask id="c" height="12" maskUnits="userSpaceOnUse" width="16" x="0" y="0"><path clip-rule="evenodd" d="m0 0v12h16v-12z" fill="#fff" fill-rule="evenodd"/></mask><g clip-path="url(#a)"><path d="m0 0h16v12h-16z" fill="#fff"/><path clip-rule="evenodd" d="m0 0v12h16v-12z" fill="#af0100" fill-rule="evenodd"/><g mask="url(#c)"><path clip-rule="evenodd" d="m11.0038 6c0 2.94339.2786 3.96565 1.9561 3.96565 1.6776 0 2.1366-1.48283 1.9949-3.96565z" fill="#f7fcff" fill-rule="evenodd"/><path clip-rule="evenodd" d="m13.05 7.70001c.4695 0 .85-.44771.85-1 0-.55228-.3805-1-.85-1-.4694 0-.85.44772-.85 1 0 .55229.3806 1 .85 1z" fill="#af0100" fill-rule="evenodd"/><path clip-rule="evenodd" d="m11.3967 9.15698c.2988.66667.8216 1.00002 1.5684 1.00002.7417 0 1.2662-.3289 1.5734-.98666z" fill="#5eaa22" fill-rule="evenodd"/><path d="m11.8096 7.51535-.2791-.69614c.5123-.20537 1.0061-.30938 1.4806-.30938s.9684.10401 1.4806.30938l-.2791.69614c-.4271-.17124-.8273-.25552-1.2015-.25552s-.7744.08428-1.2015.25552z" fill="#82b2cb"/><g clip-rule="evenodd" fill-rule="evenodd"><path d="m12.5 8c.2761 0 .5-.22386.5-.5s-.2239-.5-.5-.5-.5.22386-.5.5.2239.5.5.5z" fill="#feca00"/><path d="m12.8 8.80005c.2761 0 .5-.22386.5-.5s-.2239-.5-.5-.5c-.2762 0-.5.22386-.5.5s.2238.5.5.5z" fill="#8a4e22"/><path d="m12 8.40002c.2761 0 .5-.22385.5-.5 0-.27614-.2239-.5-.5-.5s-.5.22386-.5.5c0 .27615.2239.5.5.5z" fill="#af0100"/><path d="m13.7 8.40002c.2762 0 .5-.22385.5-.5 0-.27614-.2238-.5-.5-.5-.2761 0-.5.22386-.5.5 0 .27615.2239.5.5.5z" fill="#af0100"/><path d="m13.35 9.5c.1933 0 .35-.22386.35-.5s-.1567-.5-.35-.5-.35.22386-.35.5.1567.5.35.5z" fill="#af0100"/><path d="m12.15 9.5c.1933 0 .35-.22386.35-.5s-.1567-.5-.35-.5-.35.22386-.35.5.1567.5.35.5z" fill="#af0100"/></g></g><g clip-path="url(#b)"><path d="m0 0h9v7h-9z" fill="#2e42a5"/><path d="m-1.00214 6.49993 1.980479.8686 8.066601-6.424139 1.04466-1.290766-2.11784-.290311-3.29017 2.768346-2.64825 1.86522z" fill="#f7fcff"/><path d="m-.731018 7.10849 1.008961.50406 9.436507-8.078859h-1.4167z" fill="#f50100"/><path d="m10.0021 6.49993-1.98044.8686-8.0665971-6.424139-1.0446529-1.290766 2.11783-.290311 3.29017 2.768346 2.64825 1.86522z" fill="#f7fcff"/><path d="m9.93457 6.93667-1.00896.50406-4.01816-3.45897-1.1913-.38647-4.90625-3.937263h1.416697l4.903493 3.843813 1.30247.46341z" fill="#f50100"/><g clip-rule="evenodd" fill-rule="evenodd"><path d="m4.99226 0h-1v3h-3.99226v1h3.99226v3h1v-3h4.00774v-1h-4.00774z" fill="#f50100"/><path d="m3.24226-.75h2.5v3h4.00774v2.5h-4.00774v3h-2.5v-3h-3.99226v-2.5h3.99226zm.75 3.75h-3.99226v1h3.99226v3h1v-3h4.00774v-1h-4.00774v-3h-1z" fill="#f7fcff"/></g></g></g></svg>