<svg fill="none" height="12" viewBox="0 0 16 12" width="16" xmlns="http://www.w3.org/2000/svg" xmlns:xlink="http://www.w3.org/1999/xlink"><clipPath id="a"><path d="m0 0h16v12h-16z"/></clipPath><mask id="b" height="12" maskUnits="userSpaceOnUse" width="16" x="0" y="0"><path clip-rule="evenodd" d="m0 0v12h16v-12z" fill="#fff" fill-rule="evenodd"/></mask><g clip-path="url(#a)"><path d="m0 0h16v12h-16z" fill="#fff"/><path clip-rule="evenodd" d="m0 0v12h16v-12z" fill="#ffd221" fill-rule="evenodd"/><g mask="url(#b)"><path d="m-1.53351 5.30761 1.003997-2.28954 17.413313 7.63603-1.004 2.2895z" fill="#313131"/><path d="m-1.50861 2.78478 1.003578-2.289724 18.279332 8.011714-1.0036 2.28973z" fill="#faf9f9"/><path clip-rule="evenodd" d="m8.00003 1.44366c-.27615 0-.5.22386-.5.5v1.81434c-.1705-.08329-.39114-.15801-.63407-.15801-.54884 0-1.16593.76798-1.16593.76798s1.01965.02773 1.8.80191v2.77368c-.86306-.22818-1.23376-1.10692-1.13636-2.90295l-1.4978-.08123c-.15638 2.88359.90864 4.54572 3.15501 4.54572 2.23482 0 3.33672-1.647 3.26222-4.52453l-1.49953.03885c.04753 1.83408-.37101 2.72375-1.28354 2.93519v-2.87883c.7646-.68237 1.69997-.70781 1.69997-.70781s-.61707-.76798-1.16591-.76798c-.19781 0-.38085.04954-.53406.11291v-1.76924c0-.27614-.22386-.5-.5-.5zm-5.08999 4.04817c-.27164-.0497-.45155-.31019-.40185-.58183.0497-.27163.31019-.45154.58183-.40184.99897.18278 1.54203.87774 1.54203 1.9405v2.02534c0 .27615-.22386.5-.5.5s-.5-.22385-.5-.5v-2.02534c0-.59263-.21162-.86344-.72201-.95683zm10.61376-.58183c.0497.27164-.1302.53213-.4018.58183-.5104.09339-.7221.3642-.7221.95683v2.02534c0 .27615-.2238.5-.5.5-.2761 0-.5-.22385-.5-.5v-2.02534c0-1.06276.5431-1.75772 1.5421-1.9405.2716-.0497.5321.13021.5818.40184zm-8.65317 4.30974.82641-.56307c.463.67954 1.21092 1.02078 2.30299 1.02078 1.0992 0 1.79282-.26566 2.13317-.75866l.8229.56809c-.5567.80652-1.55948 1.19062-2.95607 1.19062-1.40374 0-2.46661-.485-3.1294-1.45776z" fill="#cf1225" fill-rule="evenodd"/></g></g></svg>