<svg fill="none" height="12" viewBox="0 0 16 12" width="16" xmlns="http://www.w3.org/2000/svg" xmlns:xlink="http://www.w3.org/1999/xlink"><clipPath id="a"><path d="m0 0h16v12h-16z"/></clipPath><g clip-path="url(#a)"><path d="m0 0h16v12h-16z" fill="#fff"/><path clip-rule="evenodd" d="m0 0h16v12h-16z" fill="#00268d" fill-rule="evenodd"/><path d="m.5.5h15v11h-15z" fill="#00268d" stroke="#e31d1c"/><path d="m7.5 0h1v12h-1z" fill="#e31d1c"/><path d="m0 6.5h1v16h-1z" fill="#e31d1c" transform="matrix(0 -1 1 0 -6.5 6.5)"/><path d="m4.82256 7.79999h8.92744l-.9439-.95711s-1.8876-1.8925-2.009-1.97924c-.1215-.08673-.3222-.12416-.5505.1515-.2284.27566-.35935-.1515-.54947-.1515s-.27051 0-.54637.35369c-.27586.35368-1.26923 1.62555-1.26923 1.62555h-1.45985s-.24626-.20893-.38661-.13438c-.14035.07454-.93092-.82458-1.21251-.89176-.2816-.06717-.46688.24373-.46688.49113s-.13251-.2267-.40194-.08754c-.26943.13917-.18256.48817-.18256.48817s.87204 1.09149 1.05138 1.09149z" fill="#059334"/><path clip-rule="evenodd" d="m7.00318 5.53415-.61754.46585.2266-.76952-.61224-.47105h.76276l.24042-.75943.25483.75943h.74199l-.60691.47105.23069.76952z" fill="#feda00" fill-rule="evenodd"/></g></svg>