<svg fill="none" height="12" viewBox="0 0 16 12" width="16" xmlns="http://www.w3.org/2000/svg" xmlns:xlink="http://www.w3.org/1999/xlink"><clipPath id="a"><path d="m0 0h16v12h-16z"/></clipPath><g clip-path="url(#a)"><path d="m0 0h16v12h-16z" fill="#fff"/><g clip-rule="evenodd" fill-rule="evenodd"><path d="m0 0h16v12h-16z" fill="#e31d1c"/><path d="m3.55698 4.87762-1.94665 1.52572.74333-2.30731-1.29818-1.19976 1.7578-.06488.7437-1.857208.74369 1.857208h1.75481l-1.29518 1.26464.59001 2.30731z" fill="#feca00"/><path d="m7.50817 3.08591-.81686.49314.18632-.96231-.68024-.7202.92109-.03894.38969-.898555.3897.898555h.91952l-.67868.75914.20432.96231z" fill="#feca00"/><path d="m8.50817 5.08591-.81686.49314.18632-.96231-.68024-.7202.92109-.03894.38969-.89855.3897.89855h.91952l-.67868.75914.20432.96231z" fill="#feca00"/><path d="m7.50817 7.08591-.81686.49314.18632-.96231-.68024-.7202.92109-.03894.38969-.89855.3897.89855h.91952l-.67868.75914.20432.96231z" fill="#feca00"/><path d="m5.50817 8.08591-.81686.49314.18632-.96231-.68024-.7202.92109-.03894.38969-.89855.3897.89855h.91952l-.67868.75914.20432.96231z" fill="#feca00"/></g></g></svg>