<svg fill="none" height="12" viewBox="0 0 16 12" width="16" xmlns="http://www.w3.org/2000/svg" xmlns:xlink="http://www.w3.org/1999/xlink"><clipPath id="a"><path d="m0 0h16v12h-16z"/></clipPath><mask id="b" height="12" maskUnits="userSpaceOnUse" width="16" x="0" y="0"><path clip-rule="evenodd" d="m0 0v12h16v-12z" fill="#fff" fill-rule="evenodd"/></mask><g clip-path="url(#a)"><path d="m0 0h16v12h-16z" fill="#fff"/><g clip-rule="evenodd" fill-rule="evenodd"><path d="m0 0v12h16v-12z" fill="#279e19"/><g mask="url(#b)"><path d="m8 0h1v7h7v1h-7v4h-1v-4h-8v-1h8z" fill="#f7fcff"/><path d="m7 0h1v6h8v1h-8v5h-1v-5h-7v-1h7z" fill="#272727"/><path d="m6 0h1v5h9v1h-9v6h-1v-6h-6v-1h6z" fill="#feca00"/><path d="m8 10c2.2091 0 4-1.79086 4-4s-1.7909-4-4-4c-2.20914 0-4 1.79086-4 4s1.79086 4 4 4z" fill="#c51918"/><path d="m7.36296 4.20646s.18997-.61646.63128-.29799c.69203.34085.92029.73244 1.18746 1.17589.26717.44346-.65505.11868-.82709-.1309-.17205-.24959-1.12637-.33052-.99165-.53876s0-.20824 0-.20824z" fill="#804bff"/><path d="m7.2066 7.3627s-.46984.64275 0 .64275c.46985 0 2.3747-.13828 2.14638-.32138-.22831-.18309-1.92062 0-1.92062 0z" fill="#a95601"/><path d="m7.9091 7.34247c-.04872-.05495-.9048-1.99756-.50677-2.40131s.63128-.16651.63128.43891.02393 2.112-.12451 1.9624z" fill="#804bff"/><path d="m7.85874 7.02721s-.0494.4722.19343 1.02343c.24284.55123.73333.54061.73333.08943 0-.45117.35799-.02776.49543.27335s-.2185-2.67385-.72363-3.33941-.9925-.70829-.84553-.2782c.14697.4301.14697 2.2314.14697 2.2314z" fill="#279e19"/><g fill="#feca00"><path d="m7.56366 3.79999s-.21368.13702-.21368.51442c0 .37741.50592-.11685.50592-.11685z"/><path d="m7.60918 3.65675.44084-.23176.44084.23176-.08419-.49088.35665-.34764-.49288-.07162-.22042-.44662-.22042.44662-.49287.07162.35665.34764zm0 5.89999.44084-.23176.44084.23176-.08419-.49088.35665-.34764-.49288-.07162-.22042-.44662-.22042.44662-.49287.07162.35665.34764zm2.80002-2.8.0842-.49088-.3567-.34764.4929-.07162.2204-.44662.2204.44662.4929.07162-.3566.34764.0842.49088-.4409-.23176zm-5.69998 0 .44084-.23176.44084.23176-.08419-.49088.35664-.34764-.49287-.07162-.22042-.44662-.22042.44662-.49287.07162.35664.34764zm1.52476-2.40576-.13952.47811-.29462-.40156-.49782.01506.29086-.4043-.16816-.4688.47439.15169.3939-.30479.00232.49804.4116.28043zm4.10462 4.37902.1395-.47811.4729-.15611-.4116-.28043-.0023-.49805-.3939.3048-.47438-.1517.16816.46881-.29086.40429.49778-.01505zm.0704-4.43729-.1396.47811-.29458-.40156-.49782.01505.29086-.40429-.16816-.4688.4744.15169.3939-.3048.0023.49805.4116.28043zm-4.19821 4.57831.13952-.47811.47294-.15612-.41159-.28043-.00233-.49804-.39389.30479-.47439-.15169.16815.4688-.29086.4043.49782-.01506z"/></g></g></g></g></svg>