<svg fill="none" height="12" viewBox="0 0 16 12" width="16" xmlns="http://www.w3.org/2000/svg" xmlns:xlink="http://www.w3.org/1999/xlink"><clipPath id="a"><path d="m0 0h16v12h-16z"/></clipPath><mask id="b" height="12" maskUnits="userSpaceOnUse" width="16" x="0" y="0"><path clip-rule="evenodd" d="m0 0v12h16v-12z" fill="#fff" fill-rule="evenodd"/></mask><g clip-path="url(#a)"><path d="m0 0h16v12h-16z" fill="#fff"/><path clip-rule="evenodd" d="m0 0v12h16v-12z" fill="#c51918" fill-rule="evenodd"/><g mask="url(#b)"><path clip-rule="evenodd" d="m7 0h2v5h7v2h-7v5h-2v-5h-7v-2h7z" fill="#f7fcff" fill-rule="evenodd"/><path d="m0 0h7v5h-7z" fill="#4257bf"/><path d="m9 7h7v5h-7z" fill="#4257bf"/><path d="m6.81841 5.55536.49772.04764c-.08519.89006.02552 1.26509.20542 1.26509v.5c-.6222 0-.81434-.65091-.70314-1.81273z" fill="#309404"/><path d="m9.21333 5.55536-.49773.04764c.08519.89006-.02551 1.26509-.20541 1.26509v.5c.6222 0 .81434-.65091.70314-1.81273z" fill="#309404"/><path d="m7.36365 5.34616h.472727v.738462h-.472727z" fill="#003994"/><path d="m8.09082 6.22308h.47273v.37483c0 .20083-.16281.36364-.36364.36364h-.10909z" fill="#003994"/><path d="m8.05444 5.30002h.472727v.738462h-.472727z" fill="#de2110"/><path d="m7.36365 6.22308h.47272v.73847h-.10909c-.20083 0-.36363-.16281-.36363-.36364z" fill="#de2110"/><path d="m7.1672 5.30469-.33444-.37168c.35318-.31778.72125-.483 1.10033-.483s.74716.16522 1.10033.483l-.33444.37168c-.26747-.24067-.52147-.35468-.76589-.35468-.24441 0-.49841.11401-.76589.35468z" fill="#00319c"/><path d="m7.20358 7.797-.33444-.37168c.35317-.31778.72125-.483 1.10033-.483s.74715.16522 1.10033.483l-.33444.37168c-.26748-.24067-.52147-.35468-.76589-.35468s-.49841.11401-.76589.35468z" fill="#de2110"/></g></g></svg>