<svg fill="none" height="12" viewBox="0 0 16 12" width="16" xmlns="http://www.w3.org/2000/svg" xmlns:xlink="http://www.w3.org/1999/xlink"><clipPath id="a"><path d="m0 0h16v12h-16z"/></clipPath><g clip-path="url(#a)"><path d="m0 0h16v12h-16z" fill="#fff"/><g clip-rule="evenodd" fill-rule="evenodd"><path d="m8 0h8v12h-8z" fill="#f7fcff"/><path d="m0 0h8v12h-8z" fill="#36a400"/><path d="m9.31349 2.81594c.77501 0 1.48931.2594 2.06101.6961-.7815-.99243-1.99394-1.62965-3.35519-1.62965-2.35734 0-4.26833 1.91099-4.26833 4.26833 0 2.35733 1.91099 4.26838 4.26833 4.26838 1.20978 0 2.30199-.50336 3.07869-1.312-.5186.32064-1.12996.50569-1.78451.50569-1.8769 0-3.39843-1.52153-3.39843-3.39842 0-1.8769 1.52153-3.39843 3.39843-3.39843zm1.43131 1.25226-1.06996 1.21262-1.53676-.42343.85198 1.33262-.85198 1.41859 1.61204-.58033.88128 1.37561v-1.59658l1.4401-.61729-1.4401-.51585z" fill="#f00"/></g></g></svg>