<svg fill="none" height="12" viewBox="0 0 16 12" width="16" xmlns="http://www.w3.org/2000/svg" xmlns:xlink="http://www.w3.org/1999/xlink"><clipPath id="a"><path d="m0 0h16v12h-16z"/></clipPath><mask id="b" height="12" maskUnits="userSpaceOnUse" width="16" x="0" y="0"><path clip-rule="evenodd" d="m0 0v12h16v-12z" fill="#fff" fill-rule="evenodd"/></mask><g clip-path="url(#a)"><path d="m0 0h16v12h-16z" fill="#fff"/><path clip-rule="evenodd" d="m0 0v12h16v-12z" fill="#f7fcff" fill-rule="evenodd"/><g mask="url(#b)"><path clip-rule="evenodd" d="m0 0v4h16v-4z" fill="#bf2714" fill-rule="evenodd"/><path clip-rule="evenodd" d="m0 8v4h16v-4z" fill="#272727" fill-rule="evenodd"/><g fill="#c09302"><path d="m6.13014 5.11011.49947.02289-.12537 2.73491-.49948-.0229z"/><path d="m6.65199 5.27985.4992.02822-.12538 2.21766-.4992-.02822z"/><path d="m7.1742 5.44595.49833.04089-.12538 1.52801-.49832-.04089z"/><path d="m9.8698 5.11011-.49947.02289.12537 2.73491.49948-.0229z"/><path d="m9.34795 5.27985-.4992.02822.12537 2.21766.49921-.02822z"/><path d="m8.82573 5.44595-.49832.04089.12538 1.52801.49832-.04089z"/><path d="m7.98664 7.66336-.48737-.11167.20628-.90035.48738.11166z"/><path d="m8.35974 7.66336.48737-.11167-.20629-.90035-.48737.11166z"/><path d="m8.23608 7.65511h-.5v-.88396h.5z"/><path d="m7.31735 5.45663.49985.01227-.0292 1.19045-.49985-.01227z"/><path d="m8.18692 5.45663.49985.01227-.02921 1.19045-.49985-.01227z"/><path d="m6.66895 7.96142.12985-.48284c.53052.14267.93788.21323 1.21565.21323.27778 0 .68513-.07056 1.21566-.21323l.12985.48284c-.56919.15307-1.01556.23039-1.34551.23039s-.77631-.07732-1.3455-.23039z"/><path d="m6.1411 5.11136c-.03333-.3303.15999-.55389.48762-.52538.10773.00938.22873.04125.38989.09593.04708.01615.04708.01615.09284.03235.22155.0788.2817.09905.29419.10172-.04909-.01112.0955-.2725.12866-.31656.00392.02798-.01272.024-.05269.016l-.45102-.09027.32106-.32937c.11222-.11513.26167-.17223.43221-.17223.01768 0 .03418-.00082.08836-.00415.04007-.00244.04007-.00244.08512-.0043.31198-.01011.53571.07811.53571.39894 0 .11478.0145.29935.03843.43938.00805.0471.02359.09119-.02226.11055.00189-.01671.11116-.05983.28109-.13089l.0204-.00853c.49371-.20607.5514-.22519.71055-.12847.10605.06446.20704.1804.32019.35325l-.41834.27385c-.07298-.11149-.1311-.17914-.15878-.19804.0629.0437-.14895.11405-.26103.16083l-.02008.00839c-.38439.16076-.43507.17994-.54498.17994-.29909 0-.40649-.30638-.43589-.74516-.09228.30379-.36762.68717-.5945.68717-.09933 0-.05158.01571-.46395-.13096-.04321-.01529-.04321-.01529-.08594-.02995-.12493-.04239-.21505-.06616-.27191-.07124.00235-.00268.01072-.01169.02011-.01973z"/></g></g></g></svg>