<svg fill="none" height="12" viewBox="0 0 16 12" width="16" xmlns="http://www.w3.org/2000/svg" xmlns:xlink="http://www.w3.org/1999/xlink"><clipPath id="a"><path d="m0 0h16v12h-16z"/></clipPath><g clip-path="url(#a)"><path d="m0 0h16v12h-16z" fill="#fff"/><g clip-rule="evenodd" fill-rule="evenodd"><path d="m0 0v6h16v-6z" fill="#43b764"/><path d="m0 6v6h16v-6z" fill="#b4d7f4"/><path d="m0 0 16.5 6-16.5 6z" fill="#be0027"/><path d="m4.5566 8.68384-.47709.01099c-.03427-.04473-.06594-.08744-.09521-.12844-.23674-.46208-.35512-.94835-.35512-1.45882 0 .04497-.00012.08803-.00024.1294-.00167.58166-.00238.8283.35536 1.32942.10135.19782.2244.3912.36914.58015l.61646-.47222z" fill="#f3e294"/><path d="m1 6.25c0 1.79493 1.45507 3.25 3.25 3.25s3.25-1.45507 3.25-3.25-1.45507-3.25-3.25-3.25-3.25 1.45507-3.25 3.25zm5.5 0c0 1.24264-1.00736 2.25-2.25 2.25s-2.25-1.00736-2.25-2.25 1.00736-2.25 2.25-2.25 2.25 1.00736 2.25 2.25z" fill="#f3e294"/></g></g></svg>