<svg fill="none" height="12" viewBox="0 0 16 12" width="16" xmlns="http://www.w3.org/2000/svg" xmlns:xlink="http://www.w3.org/1999/xlink"><clipPath id="a"><path d="m0 0h16v12h-16z"/></clipPath><mask id="b" height="12" maskUnits="userSpaceOnUse" width="16" x="0" y="0"><path clip-rule="evenodd" d="m0 0v12h16v-12z" fill="#fff" fill-rule="evenodd"/></mask><g clip-path="url(#a)"><path d="m0 0h16v12h-16z" fill="#fff"/><path clip-rule="evenodd" d="m0 0v12h16v-12z" fill="#feca00" fill-rule="evenodd"/><g mask="url(#b)"><g clip-rule="evenodd" fill-rule="evenodd"><path d="m0 0v4h16v-4z" fill="#5eaa22"/><path d="m0 8v4h16v-4z" fill="#e31d1c"/><path d="m8 9c1.65685 0 3-1.34315 3-3s-1.34315-3-3-3-3 1.34315-3 3 1.34315 3 3 3z" fill="#2b77b8"/><path d="m7.99997 7-1.38102.46326.42996-1.15424-.93673-1.11804h1.3l.58779-1.19098.58778 1.19098h1.32866l-.96539 1.11804.34267 1.15424z" stroke="#feca00" stroke-width=".75"/></g><path d="m7.84799 6.01724-1.04233 2.18007" stroke="#2b77b8" stroke-width=".5"/><path d="m7.68408 5.73972h-2" stroke="#2b77b8" stroke-width=".5"/><path d="m8.06079 6.41879 1.95451.90207" stroke="#2b77b8" stroke-width=".5"/><path d="m8.4834 5.93684 1.41479-1.5486" stroke="#2b77b8" stroke-width=".5"/></g></g></svg>