<svg fill="none" height="12" viewBox="0 0 16 12" width="16" xmlns="http://www.w3.org/2000/svg" xmlns:xlink="http://www.w3.org/1999/xlink"><clipPath id="a"><path d="m0 0h16v12h-16z"/></clipPath><clipPath id="b"><path d="m0 0h9v7h-9z"/></clipPath><mask id="c" height="6" maskUnits="userSpaceOnUse" width="5" x="10" y="5"><path clip-rule="evenodd" d="m10 5h4.8276v4.16667s-.4048 1.83333-2.4138 1.83333-2.4138-1.83333-2.4138-1.83333z" fill="#fff" fill-rule="evenodd"/></mask><g clip-path="url(#a)"><path d="m0 0h16v12h-16z" fill="#fff"/><path clip-rule="evenodd" d="m0 0v12h16v-12z" fill="#67bfe5" fill-rule="evenodd"/><g clip-path="url(#b)"><path d="m0 0h9v7h-9z" fill="#2e42a5"/><path d="m-1.00208 6.4999 1.98048.8686 8.0666-6.424139 1.0447-1.290766-2.11788-.290312-3.29017 2.768347-2.64825 1.86522z" fill="#f7fcff"/><path d="m-.730957 7.10849 1.008961.50406 9.436506-8.078859h-1.41669z" fill="#f50100"/><path d="m10.0022 6.4999-1.98048.8686-8.0665961-6.424139-1.0446539-1.290766 2.11783-.290312 3.29017 2.768347 2.64826 1.86522z" fill="#f7fcff"/><path d="m9.93457 6.93667-1.00896.50406-4.01816-3.45897-1.1913-.38647-4.90625-3.937263h1.416697l4.903493 3.843813 1.30247.46341z" fill="#f50100"/><g clip-rule="evenodd" fill-rule="evenodd"><path d="m4.99226 0h-1v3h-3.99226v1h3.99226v3h1v-3h4.00774v-1h-4.00774z" fill="#f50100"/><path d="m3.24226-.75h2.5v3h4.00774v2.5h-4.00774v3h-2.5v-3h-3.99226v-2.5h3.99226zm.75 3.75h-3.99226v1h3.99226v3h1v-3h4.00774v-1h-4.00774v-3h-1z" fill="#f7fcff"/></g></g><path clip-rule="evenodd" d="m10 5h4.8276v4.16667s-.4048 1.83333-2.4138 1.83333-2.4138-1.83333-2.4138-1.83333z" fill="#f7fcff" fill-rule="evenodd"/><g mask="url(#c)"><path d="m10 5h4.82759v1.5h-4.82759z" fill="#c3352c"/><path d="m12.069 6.33334h.689655v4.66667h-.689655z" fill="#c3352c"/><path clip-rule="evenodd" d="m10 8.16666h4.8276v.66666h-4.8276z" fill="#c3352c" fill-rule="evenodd"/><path clip-rule="evenodd" d="m11.2702 10.3685c.2903.4104.5269.5705.6941.3287.1175-.1699.1296-.3399-.0378-.3731-.0971-.1235-.1657-.2197-.2048-.2869l.0056-.0053c.047-.04561.0487-.10648.0395-.12918-.0035-.03106.0197-.07325.1706-.18859.1366-.10446.1972-.20282.1077-.31115-.0471-.05694-.0894-.06835-.2228-.08896l-.041-.00637c-.0395-.00634-.0682-.01263-.0863-.01807l-.0928-.17781c-.1938-.00592-.3452.02824-.5109.09818-.0714.03013-.1195.05061-.1515.06428-.0489.0208-.0607.02582-.061.02507-.0002-.00024.0009-.00105.0022-.00213.0038-.00303.0103-.00812.001-.00812-.035 0-.0728-.00393-.1778-.01726l-.0206-.0026c-.3017-.03791-.3773-.03673-.4262.10377-.0744.21374.3661.60553.5999.65264.1172.0235.2574.1357.4129.3429zm.3282-.2942c.0283 0 .0502-.0012.0695-.0064l.0058-.0128c-.0157.0107-.0393.0192-.0753.0192zm-1.1014-.59023c-.0061-.00724-.0078-.0166-.0035-.02893-.0009.00254.0019.00803.0078.01582.0058.00766.0145.01756.0256.0291-.0134-.00384-.0238-.00891-.0299-.01599zm.4097.29641c-.0839-.01687-.297-.19423-.3798-.28042.0217.00622.0513.00925.0831.0125.0139.00142.0282.00288.0425.00468l.0202.00256c.118.01498.1591.01925.2093.01925.0289 0 .0229.00998.0193.01603-.0011.00187-.002.00336-.0016.00407.0017.00285.0245-.00681.1384-.05518l.1504-.06371c.0886-.03737.1694-.06158.2581-.07247.0098.04187.0341.07973.0738.11052.0533.0413.1134.05866.2168.07547-.1285.10578-.1931.19429-.2134.2806-.1157.03657-.1051.16692-.0358.29712.0484.0908.1398.2195.2758.3897l.0977.047c-.0289 0-.045-.0132-.0572-.0232-.0154-.0127-.0247-.0203-.0457.01-.0014.0021-.0923-.0595-.2863-.3337-.1911-.25454-.3763-.40271-.5656-.44082zm.6097.14981c.0017-.00146.0015-.0034.0013-.00535v-.00006zm.0799-.10598-.0075.00011.0035.00026c.0014-.00022.0027-.00032.004-.00037zm.0021-.00003c-.0007 0-.0014.00001-.0021.00003z" fill="#979797" fill-rule="evenodd"/><g stroke-width=".5"><path d="m10.8275 8.05511s-.2385-.33001-.2385-.44766" stroke="#964c36"/><path d="m10.6794 7.77143s-.305-.13026-.305 0" stroke="#2a8e51"/><path d="m10.6744 7.63445s-.2145-.27291-.3758-.27291c-.1612 0-.1574.13646-.1574.13646" stroke="#2a8e51"/><path d="m10.552 7.36099s-.0957-.44638-.249-.44638-.1533.22319-.1533.22319" stroke="#2a8e51"/><path d="m10.5907 7.36012s-.0427-.38255.1547-.38255" stroke="#2a8e51"/><path d="m11.1306 7.99056s-.1113-.3917-.071-.50225" stroke="#964c36"/><path d="m11.0884 7.67333s-.242-.22672-.2866-.10432" stroke="#2a8e51"/><path d="m11.1306 7.54292s-.1082-.32982-.2598-.38498-.1946.07438-.1946.07438" stroke="#2a8e51"/><path d="m11.1091 7.24409s.0627-.45221-.0814-.50464c-.144-.05244-.2204.15729-.2204.15729" stroke="#2a8e51"/><path d="m11.1457 7.25652s.0907-.37409.2762-.30657" stroke="#2a8e51"/></g><path d="m11.3761 8.13007s.1582-.37521.1317-.48984" stroke="#964c36" stroke-width=".35"/><path d="m11.4566 7.82033s.2679-.19553.2972-.06861" stroke="#2a8e51" stroke-width=".35"/><path d="m11.4306 7.68575s.1477-.31417.3048-.35045c.1572-.03628.1841.09754.1841.09754" stroke="#2a8e51" stroke-width=".35"/><path d="m11.4884 7.39175s-.0071-.45647.1422-.49096c.1494-.03449.1996.18298.1996.18298" stroke="#2a8e51" stroke-width=".35"/><path d="m11.4505 7.3996s-.0445-.38235-.2368-.33794" stroke="#2a8e51" stroke-width=".35"/><path d="m13.349 7.90094s.121-.55673.4653-.55673.4984.5882.4984.5882" stroke="#2a8e51" stroke-width=".35"/><path d="m13.0647 7.52085s.1854-.32885.7973-.30196c.612.02689.7235.30196.7235.30196" stroke="#2a8e51" stroke-width=".35"/><path d="m12.941 7.10268s.3362-.41636.8073-.06344l.1596.06344s.16-.47184.9331 0" stroke="#2a8e51" stroke-width=".35"/><path d="m13.8692 8.01848s.0246-.51964.107-.66237" stroke="#964c36" stroke-width=".5"/><path d="m14.5494 9.15694s-.3091-.14536-.4016 0c-.0924.14535-1.2064 1.48086-1.2064 1.48086" stroke="#964c36" stroke-width=".5"/><path clip-rule="evenodd" d="m13.4822 9.2976.6904.48262s.3177-.22667.1589-.35465c-.1589-.12797-.5918-.35361-.5918-.35361z" fill="#fff203" fill-rule="evenodd"/><path clip-rule="evenodd" d="m13.4583 9.32227s-.1599.16744-.1599.29541c0 .12798-.1489.47102-.1489.47102s.4162.2562.5027.093c.0864-.1632.6477-.0655.5487-.31474-.099-.24928-.7426-.54469-.7426-.54469z" fill="#00a651" fill-rule="evenodd"/><path clip-rule="evenodd" d="m10.5281 5.59113s.3687-.18916.5511 0c.1825.18917.332-.01567.332-.12978s.2898-.50585.2898-.18803c0 .31781-.0902.49726.1645.49726s1.4016-.43901 1.6766-.30923.4854.09751.4155-.08871-.2496-.30261-.5955-.20097c-.346.10165-.2644.20097-.5634.20097s-.6318-.09932-.6318-.09932.0935-.167.4349-.04821c.3413.11879.8122-.14711.9403-.14711.128 0 .4805-.00797.5154.09367.035.10165.2478.19492.0855.28968-.1622.09476-.4297.15411-.2456.27552.184.12141.6073.09801.6277.22429.0203.12629.2209.31487.1404.31487s-.226.17785-.3614.1237c-.1355-.05415-.1515-.1017-.0215-.14557.1299-.04387.1286-.22836.0215-.22836-.1072 0-.0549.06464-.2989 0-.2439-.06464-.5668-.13649-.5474 0s.1783.34601-.1148.37393c-.293.02792-.4302.14003-.4872.04975-.0571-.09028-.261-.21058-.1006-.24915.1603-.03858.3135.13112.3712.10341.0578-.02771.1886-.04313.079-.16054-.1096-.1174-.2903-.18652-.1228-.2744.1676-.08787.0353-.08968-.2839.09236s-.4968.33674-.777.31487c-.2803-.02187-.3852.00764-.4753-.02187s-.5288.32604-.6551.2358c-.1264-.09023-.5342-.12485-.4608-.2358.0734-.11096.172-.16808.2818-.11096.1098.05713.2189.11425.2929.05713.074-.05713.2878-.25314.2341-.29233-.0538-.0392-.0018-.17113-.3063-.17113s-.4115.14704-.4838.05439c-.0723-.09264.0789-.20013.0789-.20013z" fill="#ffd100" fill-rule="evenodd"/></g></g></svg>