<svg fill="none" height="12" viewBox="0 0 16 12" width="16" xmlns="http://www.w3.org/2000/svg" xmlns:xlink="http://www.w3.org/1999/xlink"><clipPath id="a"><path d="m0 0h16v12h-16z"/></clipPath><clipPath id="b"><path d="m0 0h9v7h-9z"/></clipPath><g clip-path="url(#a)"><path d="m0 0h16v12h-16z" fill="#fff"/><path clip-rule="evenodd" d="m0 0v12h16v-12z" fill="#2e42a5" fill-rule="evenodd"/><g clip-path="url(#b)"><path d="m0 0h9v7h-9z" fill="#2e42a5"/><path d="m-1.00208 6.4999 1.98048.8686 8.0666-6.424139 1.0447-1.290766-2.11788-.290312-3.29017 2.768347-2.64825 1.86522z" fill="#f7fcff"/><path d="m-.730957 7.10849 1.008961.50406 9.436506-8.078859h-1.41669z" fill="#f50100"/><path d="m10.0022 6.4999-1.98048.8686-8.0665961-6.424139-1.0446539-1.290766 2.11783-.290312 3.29017 2.768347 2.64826 1.86522z" fill="#f7fcff"/><path d="m9.93457 6.93667-1.00896.50406-4.01816-3.45897-1.1913-.38647-4.90625-3.937263h1.416697l4.903493 3.843813 1.30247.46341z" fill="#f50100"/><g clip-rule="evenodd" fill-rule="evenodd"><path d="m4.99226 0h-1v3h-3.99226v1h3.99226v3h1v-3h4.00774v-1h-4.00774z" fill="#f50100"/><path d="m3.24226-.75h2.5v3h4.00774v2.5h-4.00774v3h-2.5v-3h-3.99226v-2.5h3.99226zm.75 3.75h-3.99226v1h3.99226v3h1v-3h4.00774v-1h-4.00774v-3h-1z" fill="#f7fcff"/></g></g><g stroke-width=".5"><path d="m11.4816 9.19684s.492.47123.1949.79052c-.2971.31924-.5694.13384-.5694.13384" stroke="#b85f3c"/><path d="m14.525 9.19684s-.492.47123-.1949.79052c.297.31924.5694.13384.5694.13384" stroke="#b85f3c"/><path d="m11.1603 9.57657s.8476.80993 1.8896.80993c1.0419 0 1.8804-.61875 1.8804-.61875" stroke="#cb8b73"/></g></g></svg>