<svg fill="none" height="12" viewBox="0 0 16 12" width="16" xmlns="http://www.w3.org/2000/svg" xmlns:xlink="http://www.w3.org/1999/xlink"><clipPath id="a"><path d="m0 0h16v12h-16z"/></clipPath><mask id="b" height="12" maskUnits="userSpaceOnUse" width="16" x="0" y="0"><path clip-rule="evenodd" d="m0 0v12h16v-12z" fill="#fff" fill-rule="evenodd"/></mask><g clip-path="url(#a)"><path d="m0 0h16v12h-16z" fill="#fff"/><g clip-rule="evenodd" fill-rule="evenodd"><path d="m0 0v12h16v-12z" fill="#63b3e1"/><g fill="#f7fcff" mask="url(#b)"><path d="m8 3.64999-.88168.46353.16839-.98176-.71329-.69529.98574-.14324.44084-.89324.44084.89324.98574.14324-.71329.69529.16839.98176z"/><path d="m7.99995 9.64999-.88168.46351.16839-.98174-.7133-.69529.98575-.14324.44084-.89324.44084.89324.98574.14324-.71329.69529.16839.98174z"/><path d="m4.90002 6.75-.88167.46353.16838-.98177-.71329-.69529.98575-.14323.44083-.89324.44084.89324.98575.14323-.71329.69529.16838.98177z"/><path d="m11 6.75-.8817.46353.1684-.98177-.71328-.69529.98578-.14323.4408-.89324.4408.89324.9858.14323-.7133.69529.1684.98177z"/></g></g></g></svg>