<svg fill="none" height="12" viewBox="0 0 16 12" width="16" xmlns="http://www.w3.org/2000/svg" xmlns:xlink="http://www.w3.org/1999/xlink"><clipPath id="a"><path d="m0 0h16v12h-16z"/></clipPath><mask id="b" height="6" maskUnits="userSpaceOnUse" width="10" x="3" y="3"><path clip-rule="evenodd" d="m3 3h10v6h-10z" fill="#fff" fill-rule="evenodd"/></mask><mask height="6" maskUnits="userSpaceOnUse" width="5" x="8" y="3"><path clip-rule="evenodd" d="m13 3-5 3 5 3z" fill="#fff" fill-rule="evenodd"/></mask><g clip-path="url(#a)"><path d="m0 0h16v12h-16z" fill="#fff"/><g clip-rule="evenodd" fill-rule="evenodd"><path d="m0 0h16v11c0 .5523-.4477 1-1 1h-14c-.552285 0-1-.4477-1-1z" fill="#c51918"/><path d="m3 3h10v6h-10z" fill="#feca00"/><g mask="url(#b)"><path d="m3 3 5 3-5 3z" fill="#23875f"/><path d="m13 3-5 3 5 3z" fill="#23875f"/><path d="m8 8c1.10457 0 2-.89543 2-2s-.89543-2-2-2-2 .89543-2 2 .89543 2 2 2z" fill="#c51918"/><path d="m7.96473 6.65664-1.03546.71822.33087-1.23014-.76014-.78581 1.02927-.04249.43546-1.21641.43546 1.21641h1.02752l-.75839.8283.37981 1.15753z" fill="#feca00"/></g><path d="m4.38839 2.221.56589-.3509.59263.31543-.20757-.56554.41446-.40468h-.56154l-.23798-.594308-.23798.594308-.5625.02076.41542.38392zm3 0 .56589-.3509.59263.31543-.20757-.56554.41446-.40468h-.56154l-.23798-.594308-.23798.594308-.5625.02076.41542.38392zm3.56591-.3509-.5659.3509.1808-.60101-.4154-.38392.5625-.02076.238-.594308.238.594308h.5615l-.4145.40468.2076.56554zm-6.56638 9.2135.56588-.3509.59263.3154-.20757-.5655.41446-.4047h-.56154l-.23798-.59433-.23798.59433-.5625.0207.41542.384zm3.56588-.3509-.56588.3509.18082-.601-.41542-.384.5625-.0207.23798-.59433.23798.59433h.56154l-.41446.4047.20757.5655zm2.4341.3509.5659-.3509.5926.3154-.2075-.5655.4144-.4047h-.5615l-.238-.59433-.238.59433-.5625.0207.4154.384z" fill="#feca00"/><path d="m4.31743 6.386s.26928.23972.41594.32134c.05057-.19166-.06226-.62588-.06226-.62588-.03166-.1038-.3789-.2899-.3789-.2899s-.09754.32768.02522.59444z" fill="#c51918"/><path d="m4.5979 6.96509s-.69162-.32303-.7619-.77993.07877-1.18528.07877-1.18528 1.1231.25558 1.19951.80318c.07641.54761-.17726.89162-.17726.89162s-.25977-.66754-.50491-.74159c0 0 0 .66158.16579 1.012z" fill="#feca00"/></g></g></svg>