<svg fill="none" height="12" viewBox="0 0 16 12" width="16" xmlns="http://www.w3.org/2000/svg" xmlns:xlink="http://www.w3.org/1999/xlink"><clipPath id="a"><path d="m0 0h16v12h-16z"/></clipPath><mask id="b" height="13" maskUnits="userSpaceOnUse" width="17" x="0" y="0"><path clip-rule="evenodd" d="m0 0v12.288h16.384v-12.288z" fill="#fff" fill-rule="evenodd"/></mask><mask height="13" maskUnits="userSpaceOnUse" width="5" x="0" y="0"><path clip-rule="evenodd" d="m0 0v12.288l4.096-6.0662z" fill="#fff" fill-rule="evenodd"/></mask><g clip-path="url(#a)"><path d="m0 0h16v12h-16z" fill="#fff"/><path clip-rule="evenodd" d="m0 0v12.288h16.384v-12.288z" fill="#f7fcff" fill-rule="evenodd"/><g clip-rule="evenodd" fill-rule="evenodd" mask="url(#b)"><path d="m0 0v4.096h16.384v-4.096z" fill="#009d00"/><path d="m0 4.09599v4.096h16.384v-4.096z" fill="#fff"/><path d="m0 8.192v4.096h16.384v-4.096z" fill="#f80000"/></g><path clip-rule="evenodd" d="m0 0v12.288l4.096-6.0662z" fill="#0075d5" fill-rule="evenodd"/><g fill="#ffd500" stroke="#000" stroke-width=".03"><path d="m7.46044 4.5502.00253.01118-.01601-.01479-.10255-.09474-.01281.13902.01141.00105-.01902.01066-.12178.06825.12825.05515.00453-.01053.00425.02138.02728.13691.09208-.10493-.00861-.00756.02165.00256.13864.01636-.07134-.12-.00985.00586.00912-.0198.05841-.1268z"/><path d="m7.97241 4.5502.00252.01118-.01601-.01479-.10254-.09474-.01282.13902.01141.00105-.01902.01066-.12178.06825.12825.05515.00453-.01053.00426.02138.02728.13691.09208-.10493-.00862-.00756.02165.00256.13865.01636-.07135-.12-.00985.00586.00912-.0198.05841-.1268z"/><path d="m8.48449 4.5502.00253.01118-.01601-.01479-.10255-.09474-.01282.13902.01141.00105-.01901.01066-.12179.06825.12826.05515.00452-.01053.00426.02138.02728.13691.09208-.10493-.00861-.00756.02165.00256.13864.01636-.07134-.12-.00985.00586.00912-.0198.05841-.1268z"/><path d="m8.99645 4.5502.00253.01118-.01601-.01479-.10255-.09474-.01281.13902.01141.00105-.01902.01066-.12178.06825.12825.05515.00453-.01053.00426.02138.02727.13691.09209-.10493-.00862-.00756.02165.00256.13864.01636-.07134-.12-.00985.00586.00912-.0198.05841-.1268z"/><path d="m9.50842 4.5502.00252.01118-.01601-.01479-.10254-.09474-.01282.13902.01141.00105-.01901.01066-.12179.06825.12825.05515.00453-.01053.00426.02138.02728.13691.09208-.10493-.00861-.00756.02164.00256.13865.01636-.07135-.12-.00985.00586.00912-.0198.05841-.1268z"/><path d="m10.0205 4.5502.0025.01118-.016-.01479-.10253-.09474-.01282.13902.01141.00105-.01901.01066-.12179.06825.12826.05515.00452-.01053.00426.02138.02728.13691.09212-.10493-.0086-.00756.0216.00256.1386.01636-.0713-.12-.0099.00586.0092-.0198.0584-.1268z"/></g><path d="m7.71005 5.15h1.988v1.50599c0 .54898-.44503.994-.994.994s-.994-.44502-.994-.994z" stroke="#373737" stroke-width=".06"/><path clip-rule="evenodd" d="m8.56389 6.12343s-.10328 1.21102-.20637 1.28441c-.1031.0734.49404.11005.5511.05502.05706-.05502-.26041-1.04185-.1512-1.33943s.28511-.3217.28511-.3217-.22174-.04687-.28511.04243c-.06336.08929-.25235-.04243-.25235-.04243z" fill="#6f3e1d" fill-rule="evenodd"/><path clip-rule="evenodd" d="m8.54131 6.055h-.07946s-.0538.2103-.17719.10515-.29748-.06808-.29748-.06808.01561-.12585.20507-.17588c.18945-.05002.2696-.45626.2696-.45626s.2681-.0998.4312.10471.39287.11726.39287.11726.16794.09549.08397.23429c-.08397.13881-.22721.24035-.35203.13881-.12481-.10154-.47655 0-.47655 0z" fill="#009d29" fill-rule="evenodd"/></g></svg>