<svg fill="none" height="12" viewBox="0 0 16 12" width="16" xmlns="http://www.w3.org/2000/svg" xmlns:xlink="http://www.w3.org/1999/xlink"><filter id="a" color-interpolation-filters="sRGB" filterUnits="userSpaceOnUse" height=".786575" width="1.29877" x="11.831" y="4.81552"><feFlood flood-opacity="0" result="BackgroundImageFix"/><feColorMatrix in="SourceAlpha" result="hardAlpha" type="matrix" values="0 0 0 0 0 0 0 0 0 0 0 0 0 0 0 0 0 0 127 0"/><feOffset dy=".25"/><feColorMatrix type="matrix" values="0 0 0 0 1 0 0 0 0 1 0 0 0 0 1 0 0 0 1 0"/><feBlend in2="BackgroundImageFix" mode="normal" result="effect1_dropShadow_270_55012"/><feBlend in="SourceGraphic" in2="effect1_dropShadow_270_55012" mode="normal" result="shape"/></filter><linearGradient id="b" gradientUnits="userSpaceOnUse" x1="14.1774" x2="14.7495" y1="7.80354" y2="7.79392"><stop offset="0" stop-color="#d5dfff"/><stop offset="1" stop-color="#fff"/></linearGradient><clipPath id="c"><path d="m0 0h16v12h-16z"/></clipPath><clipPath id="d"><path d="m0 0h9v7h-9z"/></clipPath><g clip-path="url(#c)"><path d="m0 0h16v12h-16z" fill="#fff"/><path clip-rule="evenodd" d="m0 0h16v12h-16z" fill="#2b409a" fill-rule="evenodd"/><path d="m11.7518 3.4121s-.2213-.29101-.2213-.35743" stroke="#cdad56" stroke-linecap="round" stroke-width=".25"/><path d="m11.9305 3.4121s.2213-.29101.2213-.35743" stroke="#cdad56" stroke-linecap="round" stroke-width=".25"/><path d="m12.159 9.27571c-.0308 0-.1422-.06006-.1422-.06006s-.0808.12782-.1231.13521c-.0423.00754-.2614-.07877-.2614-.07877s-.1538.12012-.1884.11257c-.0346-.00739-.3883-.08254-.3883-.08254l-.1923-.12027s-.1076.17278-.1115.16901c-.0038-.00378-.3229-.06383-.3229-.06383s.0961-.13143.0961-.13521c0-.00377-.0461-.01886-.0461-.01886l-.0692.05644-.2845.02625.0692-.19542.1115-.16523 1.3648-1.29624.6728 1.21355-.0999.36442s-.0539.13898-.0846.13898z" fill="#6a4c2d"/><path d="m10.8552 9.03043c.0476.05748.6738.69762.7753 1.00047.1015.3029-.8235-.08399-.8235-.08399s1.1648-.75657 1.7467-.75657c.5818 0 1.7254.75657 1.7254.75657s-.7674.54039-.7595.19969c.0079-.34079.3602-1.01207.7807-1.11617" stroke="#fb0" stroke-linecap="round" stroke-linejoin="round" stroke-width=".5"/><path d="m14.8902 9.05835v-.38046l-1.1814.05497-.6395-.17451-.2697.17985.1452.18961.3548.13054z" fill="#f7fcff"/><g filter="url(#a)"><path d="m11.9694 4.93305c.0065.01638.1496-.01267.18.07302.1539-.22734.3346-.01054.3346-.01054l.152-.18001.1717.16256.1575-.01226.1646.38628-1.2988-.02437s.1319-.41106.1384-.39468z" fill="#656263"/></g><path d="m13.3157 6.57696c-.0105-.12231-.1189-.13662-.1794-.13253-.0606.00409-.1148.05503-.1148.05503l-.2003-.12436s.1002-.61786.2065-.65653c.1011-.07122.1189-.10203.1189-.11823 0-.01635-.0375-.08254-.0375-.08254l-.6531-.07546-.6177.07137s-.0479.09669-.0416.12531c.0062.02845.0083.05911.1189.14275.1224.09197.2065.6199.2065.6199s-.1731.08348-.1835.07326c-.0105-.01006-.0626-.02028-.0898-.01619-.027.00409-.1168.04889-.1168.16507 0 .11634.0898.18363.0898.18363s.5904.43271.6781.59166c.0856-.19165.6467-.62436.7135-.65706.0272-.01619.1128-.04276.1023-.16508z" fill="#656263"/><path d="m13.905 6.00077c.0491-.03192.3759-.04796.4544 0 .0783.04795.281.12498.2842.18567.0033.06068.1371.17092.1371.17092s.2306.48565.2338.78578c.0295.20438.0229.75039-.0587.95791-.0034.25878-.335.44802-.335.44802s.0261.04465.0228.0926-.0294.0926-.0294.0926l-.245.10533-.2713-.04465-.3073-.89738.072-1.51682.0196-.07656-.0327-.20438s.0066-.06713.0555-.09904z" fill="#000"/><path d="m12.131 6.79706s.3306 0 .3663.10486c.0626-.13976.3485-.13096.3485-.13096.1728-.00582.3456-.01163.5182-.01745.003.4075.0059.815.009 1.2225-.1012.47432-.4527.80919-.84.95179-.4617-.14559-.7535-.52683-.8488-.96059-.018-.38706-.0358-.77428-.0537-1.16135.1668-.00298.3337-.00581.5005-.0088z" fill="#f7fcff"/><path d="m11.8088 6.80131.7289 1.89822.6585-1.93957c-.2043.0129-.6425-.03144-.6969.15062-.0843-.16288-.5454-.09716-.6905-.10927z" fill="#006b00"/><path clip-rule="evenodd" d="m12.6537 6.93898s.0663.17297 0 .25858c-.0663.08562.0055.15577.0455.15577s.1773.13595.0659.13595-.1743-.04232-.1743.07718c0 .11949.1395.57815.1395.43785 0-.14029.0348-.29644.0348-.29644s.0585.04387.0169.20404c-.0416.16016-.2328.39253-.2806.40164s-.1212.08363-.131-.05386-.0491-.20185-.0175-.22861c.0317-.02677.0738-.12242.0873-.0472.0136.07521-.0459.14709-.0362.17418s.0151.0885.0563.03707c.0411-.05143.0653-.13622.0961-.05762.0308.07861.0314.01658-.0323-.1332-.0638-.14977-.118-.23308-.1104-.36457.0077-.13149-.0027-.18074.0077-.223.0103-.04226-.1143-.24809-.0827-.30737.0317-.05927.0438-.25062.0827-.21617s.0589.08069.0389.1322c-.0201.05151-.0401.1027-.0201.13743.0201.03473.0888.13505.1025.10982.0137-.02524.06-.00083.06-.14369 0-.14287-.0516-.19309-.0191-.227.0325-.03392.0701.03702.0701.03702z" fill="#ffd100" fill-rule="evenodd"/><path d="m13.2004 6.76028.0983-.00236-.1755.21727.2106.24023-.4143.51.3909.4597c-.0429.10297-.0928.19668-.1592.28141l-.2246-.24258.4072-.49617-.3347-.37056z" fill="#1e5aa6"/><path d="m11.6907 6.80602.1966.208-.2082.2539.4329.45986-.3581.46881c.043.10298.1046.21727.1709.30185l.213-.26302-.4376-.47573.3206-.39791-.2247-.55811z" fill="#1e5aa6"/><path d="m14.1927 6.42556c0 .03191.0348 1.91604.073 1.89806.0947-.04481.1165.05298.1165.05298s.0327.30987-.049.35138c-.1471.07656-.2114.09344-.2114.09344l-.1414-.10303s-.1439-.20124-.1765-.2907c-.0327-.08929-.0719-.48846-.0589-.57477.013-.08616.0228-.59082.0164-.61629-.0066-.02562-.0327-.44712-.0164-.51095.0164-.06383.1176-.34493.1144-.34493 0 0 .3333.01289.3333.04481z" fill="url(#b)"/><path d="m13.8659 6.10295c.0686 0 .1209.05754.1373.10864.0032.02232-.0066.03836-.0034.07986.0034.04151-.4966.00943-.4999.00629 0 0 .232-.22026.366-.19479z" fill="#ff7000"/><path d="m14.2045 6.25517c0 .02761-.0224.05-.05.05s-.05-.02239-.05-.05.0224-.05.05-.05.05.02239.05.05z" fill="#000"/><g fill="#f7fcff"><path d="m12.9103 5.95439s.2603.27529.4287.2723c.0306.08081-.0765.15596-.1193.1918-.0858-.02688-.1633.00487-.3623-.23441.0123-.15265.0559-.22371.0529-.22969z"/><path d="m13.9452 4.569c.0245.17655.4393.3932.5586.24651-.0122.06588.0102.27128-.6207.26829.239.22152-.2379.46072-.3727.4068.248-.18552-.0703-.2962-.2479-.17656.0336-.10172.2817-.61329.6827-.74504z"/><path clip-rule="evenodd" d="m13.5251 5.80832c-.0473-.19444-.0702-.41783.0344-.50324-.1379-.09275-.2879.00299-.2879.00299-.001.00232-.0038.00623-.0078.01177-.0321.04429-.1392.19237.0078.45833-.3919-.10172-.2279.25403-.199.28092.0153-.05692.2235-.11068.2756.17954.0175.0588-.088.14362-.1219.17084-.0075.00603-.0115.00924-.0098.0087 0 0 .3316.06732.3745-.37085.0568-.03378.3319-.21721.3235-.59556-.2528.0052-.3645.28369-.3894.35656z" fill-rule="evenodd"/><path d="m12.0438 6.03221s-.254.21539-.398.14653c-.1071.06288-.2327-.0478-.2327-.0478s.147.5295.6737.14653c-.0092-.11666-.0369-.2363-.043-.24526z"/><path d="m11.6427 6.16978c.0214-.11068.1102-.16461.1807-.0599.0949.01808.1898-.36191-.1471-.29918.095-.49665-.1897-.68216-.1897-.68216s-.101.55057-.0551.65229c.0459.10171-.0674-.18851-.4317-.26931-.0062.41599.4072.61046.4072.61046s.1163.10471.2357.0478z"/><path d="m11.2983 5.56942c-.1072.03286-.3678-.12425-.2025-.32784-.5419-.01195-.8369-.46981-.6563-.3825.1806.0873.3097-.09873.4444 0-.1654-.14951.0577-.26916.0577-.26916s.4623.13473.545.53563c-.0276.07782-.0398.21539-.0459.20941 0-.00298-.2863-.00498-.1424.23446z"/></g><path d="m12.3481 3.4343c-.0685.22527-.3155.1398-.3155.1398s.0082.11274-.0164.16683c.0203.01679.1663.14327.3196.17589.2205.04692.672-.08144.8236.10822.1516.18965.1436.34272.1436.34272s-.1973.02537-.1424.10359c.0356.05079.1337.08853.1424.14103.0277.16709-.0925.46773-.0493.58067-.0683.00687-.0736.08554-.0736.08554-.0039.08933-.2009.03625-.2009.03625s.1229-.34736.1311-.4284c.0082-.08127-.0861-.22558-.1598-.22558-.0738 0-.127.25709-.127.25709s-.0368.19383-.0246.21184c.0123.018-.0493-.06303-.0493-.06303s-.0193.07873-.051.12629c-.0357.0535-.0842.07654-.0842.07654s-.0368-.11729-.0245-.16231c.0122-.04502.2009-.22084.1845-.34713-.0073-.05574-.0138-.15303-.0758-.18531-.0785-.04086-.2224-.01106-.3094-.03122-.0478.09165-.0698.59517-.0371.62692.033.03152-.0818.09905-.0818.09905l-.1352.0045c-.0022-.06824.0797-.25472.0797-.41253s.0103-.32694.0103-.32694-.0909.02576-.1393.12624c-.0406.08426-.0406.24351-.0368.2661.0082.04952.0491.18932.0368.23007-.0123.04052-.2252.09455-.2252.09455l-.0084-.1308s.0902-.06303.0902-.22083c0-.15781.0082-.38339.0041-.39689-.0025-.00812-.0738-.35346-.1677-.58624-.0626-.15525-.1592-.22638-.1641-.23901-.0123-.03156-.0123-.06765-.0123-.06765s-.1354.10824-.2952-.12174c.1464-.1375.3034-.03609.3034-.03609s.0409-.12627.2293-.11724c.1886.00902.2254.12627.2173.11274 0 0 .1393-.1353.2909-.01353z" fill="#923f00"/><path d="m11.8139 5.68177.6442.4119.5801-.38124s.121-.06525.1105-.1121c-.0103-.04701-.0521-.02861-.073-.02044-.0208.00818-.6072.41395-.6072.41395l-.6239-.38549s-.0458-.01415-.0542.01431c-.0083.02861.0172.0448.0235.05911z" fill="#b4b6b9"/><path d="m13.9734 8.71367s-.2397-.01608-.2031.05333c.0204.03852.3378.03408.3378.03408z" fill="#ff7000"/><path d="m14.0875 8.80673-.25.00708s-.0629.05581-.0669.06917c-.0039.01352.0413.0173.0413.0173s.2579.06556.453.02311c.0985-.03365.1157-.07405.0467-.09858-.0689-.02452-.2222-.01713-.2241-.01808z" fill="#ff7000"/><path d="m11.1953 6.49489s-.0325.09998 0 .14998c.0326.04999.2372.45451.2372.45451s.1396-.16822.1908-.17278c.0511-.0044.0278.43643.0278.43643s-.0837.07719-.1348.07263c-.0512-.00456.1255.17278.1208.32276-.0047.14999-.2325.89535-.3162.90887-.0837.01367-.156-.14035-.156-.27348 0-.13312.0862-.34454.0816-.40365s-.416.63348-.4409.74162c-.0047.0205.0223.09461.0223.09461s-.1612.0132-.1255.21821c-.4744-.16366-1.23352-.25987-1.22887-.54616.00179-.10975.18249-.81431.28535-1.09935.16559-.45893.74612-.73077.74892-.7812.0047-.08191.0372-.11822.0419-.16366.0046-.04543.0503-.26843.0968-.3093.0466-.04088.2884-.14087.3488-.13631.0605.00456.1117.04543.1117.04543s.2279 0 .2418.08632c.014.08646-.0465.11822-.0465.11822s.0326.12279-.107.2363z" fill="#8a9396"/><path d="m11.331 9.07276c.0769.05314.2543.08458.2543.08458s-.4359.11744-.8789-.11052c-.0405-.1775.095-.21712.1286-.21853.0782-.02044.4192.19117.496.24447z" fill="#2b2b2b"/><g clip-path="url(#d)"><path d="m0 0h9v7h-9z" fill="#2e42a5"/><path d="m-1.00214 6.49991 1.980479.86861 8.066601-6.424144 1.04466-1.290766-2.11784-.290312-3.29017 2.768342-2.64825 1.86522z" fill="#f7fcff"/><path d="m-.731018 7.10847 1.008961.50406 9.436507-8.078854h-1.4167z" fill="#f50100"/><path d="m10.0021 6.49991-1.98044.86861-8.0665971-6.424144-1.0446529-1.290766 2.11783-.290312 3.29017 2.768342 2.64825 1.86522z" fill="#f7fcff"/><path d="m9.93457 6.93667-1.00896.50406-4.01816-3.45897-1.1913-.38647-4.90625-3.937263h1.416697l4.903493 3.843813 1.30247.46341z" fill="#f50100"/><g clip-rule="evenodd" fill-rule="evenodd"><path d="m4.99226 0h-1v3h-3.99226v1h3.99226v3h1v-3h4.00774v-1h-4.00774z" fill="#f50100"/><path d="m3.24226-.75h2.5v3h4.00774v2.5h-4.00774v3h-2.5v-3h-3.99226v-2.5h3.99226zm.75 3.75h-3.99226v1h3.99226v3h1v-3h4.00774v-1h-4.00774v-3h-1z" fill="#f7fcff"/></g></g></g></svg>