<svg fill="none" height="12" viewBox="0 0 16 12" width="16" xmlns="http://www.w3.org/2000/svg" xmlns:xlink="http://www.w3.org/1999/xlink"><clipPath id="a"><path d="m0 0h16v12h-16z"/></clipPath><g clip-path="url(#a)"><path d="m0 0h16v12h-16z" fill="#fff"/><g clip-rule="evenodd" fill-rule="evenodd"><path d="m11 0h5v12h-5z" fill="#58a5ff"/><path d="m0 0h6v12h-6z" fill="#58a5ff"/><path d="m5 0h6v12h-6z" fill="#fff"/></g><path d="m6.38231 8.51869-.36327-.34357 3.84373-4.06405.36323.34357z" fill="#c6c6c6"/><path clip-rule="evenodd" d="m6.49241 4.0527s-1.23045.74259-1.23045 2.60418 2.99565 2.11344 2.99565 2.11344-1.79269-1.09344-2.02732-1.87624c-.23463-.78279.26212-2.84138.26212-2.84138z" fill="#5ab92d" fill-rule="evenodd"/><path clip-rule="evenodd" d="m9.52718 4.0527s1.23042.74259 1.23042 2.60418-2.99562 2.11344-2.99562 2.11344 1.8839-1.08041 2.14793-2.11344c.26399-1.03303-.38273-2.60418-.38273-2.60418z" fill="#5ab92d" fill-rule="evenodd"/><path d="m7.40387 3.79977.49796.0452c-.01638.18042.08218.36405.32586.56114.78433.63437 1.2059 1.42568.87553 2.32491-.23973.65251-.56534 1.20345-.97734 1.65094l-.36784-.33867c.36584-.39734.65795-.89161.87585-1.4847.23729-.64586-.08389-1.24873-.72063-1.76372-.3628-.29343-.54266-.62855-.50939-.9951z" fill="#5ab92d"/><path clip-rule="evenodd" d="m7.08691 4.90446.52464 1.48309h-.38565s-.13899.46803.12333.46803h1.61412s.17574-.11736.08787-.46803c-.08787-.35068-.53186-1.31875-.53186-1.31875s.18972-.16066.18972-.27975-.18972-.1322-.18972-.1322h-1.19756c-.15286.02642-.23489.24761-.23489.24761z" fill="#efe298" fill-rule="evenodd"/></g></svg>