<svg fill="none" height="12" viewBox="0 0 16 12" width="16" xmlns="http://www.w3.org/2000/svg" xmlns:xlink="http://www.w3.org/1999/xlink"><clipPath id="a"><path d="m0 0h16v12h-16z"/></clipPath><mask id="b" height="12" maskUnits="userSpaceOnUse" width="16" x="0" y="0"><path clip-rule="evenodd" d="m0 0v12h16v-12z" fill="#fff" fill-rule="evenodd"/></mask><g clip-path="url(#a)"><path d="m0 0h16v12h-16z" fill="#fff"/><path clip-rule="evenodd" d="m0 0v12h16v-12z" fill="#ea1a1a" fill-rule="evenodd"/><g mask="url(#b)"><path clip-rule="evenodd" d="m7.93474 5.78739s-2.89485-2.58163.55958-4.08582c0 0 1.00461 1.10831.25096 2.35254-.24726.40808-.4558.69949-.61251.91848-.32108.44867-.42464.59338-.19803.8148zm-4.27239-1.85363c-.19881 3.76242 3.40466 2.32728 3.40466 2.32728-.29924.10365-.38239-.05367-.6401-.54127v-.00001c-.12584-.23809-.2933-.55494-.54787-.9586-.77597-1.23048-2.21669-.8274-2.21669-.8274zm5.4567 1.97977s3.71595 1.11246 1.22395 3.93828c0 0-1.37967-.57859-1.22395-2.02481.05111-.47421.11653-.82643.16571-1.09116.10079-.5426.13331-.71766-.16571-.82231zm-.9767.86733s.66617 3.82114-2.97553 2.85549c0 0-.09915-1.49269 1.26409-1.99993.44716-.16641.79153-.26539 1.05032-.33978h.00001l.00003-.00001c.5302-.1524.70121-.20155.66108-.51577zm4.59695-1.6432c-2.2777-3.00109-4.10241.42158-4.10241.42158.16162-.27241.32669-.20598.83823-.00012.24987.10055.58238.23437 1.03758.37822 1.387.43835 2.2266-.79968 2.2266-.79968z" fill="#fff" fill-rule="evenodd"/><g stroke="#ea1a1a" stroke-width=".5"><path d="m5.08057 5.10403s.7279 1.14558 1.91995 1.14558"/><path d="m7.93018 3.52512s-.65324 1.20512-.09361 2.25763"/><path d="m11.0549 4.88078s-1.52506-.2312-2.3227.65466"/><path d="m10.1642 7.67247s-.30437-1.5122-1.40961-1.95874"/><path d="m6.96667 8.49333s1.31691-.8032 1.35851-1.99452"/></g></g></g></svg>