<svg fill="none" height="12" viewBox="0 0 16 12" width="16" xmlns="http://www.w3.org/2000/svg" xmlns:xlink="http://www.w3.org/1999/xlink"><clipPath id="a"><path d="m0 0h16v12h-16z"/></clipPath><clipPath id="b"><path d="m0 0h9v7h-9z"/></clipPath><clipPath id="c"><path d="m3 1h12v10h-12z"/></clipPath><g clip-path="url(#a)"><path d="m0 0h16v12h-16z" fill="#fff"/><path clip-rule="evenodd" d="m0 0h16v12h-16z" fill="#2e42a5" fill-rule="evenodd"/><g clip-path="url(#b)"><path d="m0 0h9v7h-9z" fill="#2e42a5"/><path d="m-1.00208 6.49991 1.98048.86861 8.0666-6.424144 1.0447-1.290766-2.11788-.290312-3.29017 2.768342-2.64825 1.86522z" fill="#f7fcff"/><path d="m-.730957 7.10847 1.008961.50406 9.436506-8.078854h-1.41669z" fill="#f50100"/><path d="m10.0022 6.49991-1.98048.86861-8.0665961-6.424144-1.0446539-1.290766 2.11783-.290312 3.29017 2.768342 2.64826 1.86522z" fill="#f7fcff"/><path d="m9.93457 6.93667-1.00896.50406-4.01816-3.45897-1.1913-.38647-4.90625-3.937263h1.416697l4.903493 3.843813 1.30247.46341z" fill="#f50100"/><g clip-rule="evenodd" fill-rule="evenodd"><path d="m4.99226 0h-1v3h-3.99226v1h3.99226v3h1v-3h4.00774v-1h-4.00774z" fill="#f50100"/><path d="m3.24226-.75h2.5v3h4.00774v2.5h-4.00774v3h-2.5v-3h-3.99226v-2.5h3.99226zm.75 3.75h-3.99226v1h3.99226v3h1v-3h4.00774v-1h-4.00774v-3h-1z" fill="#f7fcff"/></g></g><g clip-path="url(#c)" fill="#f7fcff"><path d="m4.40804 9.83424-.59043.54566.05847-.80183-.79472-.12142.66334-.45421-.40058-.69704.76871.23543.29521-.74778.29522.74778.7687-.23543-.40058.69704.66334.45421-.79472.12142.05847.80183z"/><path d="m10.776 6.06899-.3936.36376.0389-.53454-.52978-.08095.44218-.3028-.267-.4647.5125.15695.1968-.49852.1968.49852.5125-.15695-.2671.4647.4422.3028-.5298.08095.039.53454z"/><path d="m11.7147 2.37668-.3936.36376.039-.53454-.5299-.08094.4423-.30281-.2671-.4647.5125.15695.1968-.49852.1968.49852.5125-.15695-.2671.4647.4422.30281-.5298.08094.039.53454z"/><path d="m14.0614 4.22283-.3936.36376.0389-.53455-.5298-.08094.4422-.30281-.267-.46469.5125.15695.1968-.49852.1968.49852.5125-.15695-.2671.46469.4422.30281-.5298.08094.039.53455z"/><path d="m12.1841 9.53052-.3937.36376.039-.53454-.5298-.08095.4422-.3028-.267-.4647.5124.15695.1969-.49852.1968.49852.5124-.15695-.267.4647.4422.3028-.5298.08095.039.53454z"/><path d="m13.8266 6.64789-.3999.21025.0764-.44532-.3236-.31539.4472-.06497.1999-.40517.2.40517.4471.06497-.3235.31539.0764.44532z"/></g></g></svg>