<svg fill="none" height="12" viewBox="0 0 16 12" width="16" xmlns="http://www.w3.org/2000/svg" xmlns:xlink="http://www.w3.org/1999/xlink"><clipPath id="a"><path d="m0 0h16v12h-16z"/></clipPath><mask id="b" height="12" maskUnits="userSpaceOnUse" width="16" x="0" y="0"><path clip-rule="evenodd" d="m0 0v12h16v-12z" fill="#fff" fill-rule="evenodd"/></mask><g clip-path="url(#a)"><path d="m0 0h16v12h-16z" fill="#fff"/><g clip-rule="evenodd" fill-rule="evenodd"><path d="m0 0v12h16v-12z" fill="#f7fcff"/><g fill="#4564f9" mask="url(#b)"><path d="m0 0v4h16v-4z"/><path d="m0 8v4h16v-4z"/><path d="m8.40906 6.56595-.58778.30902.11226-.65451-.47553-.51127h.65716l.29389-.64324.2939.64324h.65716l-.47553.51127.11226.65451z"/><path d="m5.40906 5.56595-.58778.30902.11226-.65451-.47553-.51127h.65716l.29389-.64324.2939.64324h.65716l-.47553.51127.11226.65451z"/><path d="m5.40906 7.56595-.58778.30902.11226-.65451-.47553-.51127h.65716l.29389-.64324.2939.64324h.65716l-.47553.51127.11226.65451z"/><path d="m11.4091 5.56595-.5878.30902.1122-.65451-.4755-.51127h.6572l.2939-.64324.2939.64324h.6571l-.4755.51127.1122.65451z"/><path d="m11.4091 7.56595-.5878.30902.1122-.65451-.4755-.51127h.6572l.2939-.64324.2939.64324h.6571l-.4755.51127.1122.65451z"/></g></g></g></svg>