<svg fill="none" height="12" viewBox="0 0 16 12" width="16" xmlns="http://www.w3.org/2000/svg" xmlns:xlink="http://www.w3.org/1999/xlink"><clipPath id="a"><path d="m0 0h16v12h-16z"/></clipPath><mask id="b" height="12" maskUnits="userSpaceOnUse" width="16" x="0" y="0"><path clip-rule="evenodd" d="m0 0v12h16v-12z" fill="#fff" fill-rule="evenodd"/></mask><mask id="c" height="7" maskUnits="userSpaceOnUse" width="6" x="5" y="4"><path d="m5.32616 4.4799h5.06424c.0086.38448.0112 1.05518.0111 1.70085 0 .41696-.0011.81838-.0022 1.11561l-.0015.35648-.0005.09877-.0001.01422-.0002.00164c-.0023.01331-.006.03425-.0118.06174-.0115.05504-.0309.13584-.0617.23376-.0619.19666-.1684.4574-.34585.71649-.34722.50694-.97768 1.02817-2.15272 1.02817-1.17346 0-1.7734-.52053-2.09274-1.02261-.16397-.25781-.25761-.51767-.31002-.71417-.02608-.09778-.04158-.17849-.05044-.23349-.00443-.02745-.00718-.04837-.00876-.06165l-.00095-.00861-.00027-.02203-.00119-.09815-.00425-.35428c-.00351-.29544-.00819-.69475-.01288-1.11028-.00716-.6349-.01429-1.30569-.01727-1.70246zm.03503 3.27937c-.00002-.00014-.00002-.00015-.00001-.00002z" fill="#fff" stroke="#fff" stroke-width=".5625"/></mask><mask height="3" maskUnits="userSpaceOnUse" width="3" x="5" y="1"><path d="m6.23426 3.66595.02161.07341.07295-.02308h.00001l.00003-.00001.00015-.00005.00064-.0002.00262-.00082.01033-.00321.03864-.01176c.03289-.00988.07875-.02332.13056-.03758.10469-.02882.22993-.05994.32189-.07272.09444-.01312.21135-.02263.30567-.02887.04694-.00311.08787-.00538.11705-.00687l.03418-.00166.0091-.00041.00232-.0001.00057-.00002.00013-.00001h.00003l.07839-.00322-.00674-.07816-.12614-1.46221-.00299-.03459-.02831-.02011-.68136-.4839-.05261-.03737-.0448.04645-.61923.64195-.03029.0314.01232.04185z" fill="#fff" stroke="#fff" stroke-width=".15"/></mask><mask height="3" maskUnits="userSpaceOnUse" width="2" x="8" y="1"><path d="m9.47005 3.66431-.02039.07558-.07463-.02361h-.00001l-.00003-.00001-.00015-.00005-.00064-.0002-.00262-.00082-.01033-.00321-.03864-.01176c-.03289-.00988-.07875-.02332-.13056-.03758-.1047-.02882-.22993-.05994-.32189-.07272-.09444-.01312-.21136-.02263-.30567-.02887-.04694-.00311-.08787-.00538-.11705-.00687l-.03418-.00166-.0091-.00041-.00232-.0001-.00057-.00002-.00013-.00001h-.00003l-.07839-.00322.00674-.07816.12614-1.46221.00299-.03459.02831-.02011.68136-.4839.05409-.03842.04472.049.58385.63953.02774.03039-.01072.03972z" fill="#fff" stroke="#fff" stroke-width=".15"/></mask><mask height="4" maskUnits="userSpaceOnUse" width="3" x="9" y="1"><path d="m10.6304 4.07306-.0323.07462-.0718-.03832v-.00002l-.0002-.00007-.0006-.00034-.0026-.00139-.0105-.00551c-.0093-.00483-.0228-.01186-.04-.02059-.0344-.01747-.0832-.04172-.1406-.06874-.1153-.05427-.263-.11872-.39765-.16217-.13749-.04437-.26064-.0787-.34938-.10192-.04435-.01161-.08004-.02043-.10457-.02633l-.02809-.00663-.00716-.00165-.00176-.00039-.00041-.0001-.00008-.00002h-.00001-.00001l-.07752-.01729.02172-.07642.423-1.48794.01037-.03648.03552-.01327.82913-.30979.0582-.02173.0322.05309.4696.77405.0201.03317-.0154.03559z" fill="#fff" stroke="#fff" stroke-width=".15"/></mask><g clip-path="url(#a)"><path d="m0 0h16v12h-16z" fill="#fff"/><path clip-rule="evenodd" d="m0 0v12h16v-12z" fill="#f7fcff" fill-rule="evenodd"/><g mask="url(#b)"><path clip-rule="evenodd" d="m0 0v4h16v-4z" fill="#e31d1c" fill-rule="evenodd"/><path clip-rule="evenodd" d="m0 8v4h16v-4z" fill="#3d58db" fill-rule="evenodd"/><path d="m5.03833 3.19865h5.7v2h-5.7z" fill="#e31d1c"/><path d="m5.32616 4.4799h5.06424c.0086.38448.0112 1.05518.0111 1.70085 0 .41696-.0011.81838-.0022 1.11561l-.0015.35648-.0005.09877-.0001.01422-.0002.00164c-.0023.01331-.006.03425-.0118.06174-.0115.05504-.0309.13584-.0617.23376-.0619.19666-.1684.4574-.34585.71649-.34722.50694-.97768 1.02817-2.15272 1.02817-1.17346 0-1.7734-.52053-2.09274-1.02261-.16397-.25781-.25761-.51767-.31002-.71417-.02608-.09778-.04158-.17849-.05044-.23349-.00443-.02745-.00718-.04837-.00876-.06165l-.00095-.00861-.00027-.02203-.00119-.09815-.00425-.35428c-.00351-.29544-.00819-.69475-.01288-1.11028-.00716-.6349-.01429-1.30569-.01727-1.70246zm.03503 3.27937c-.00002-.00014-.00002-.00015-.00001-.00002z" fill="#f7fcff" stroke="#e31d1c" stroke-width=".5625"/><g mask="url(#c)"><path clip-rule="evenodd" d="m5.24927 4.51994h1.05469v1.07095h-1.05469zm2.10937 1.07095h-1.05468v1.07095h-1.05469v1.07095h1.05469v1.07096h-1.05469v1.07095h1.05469v-1.07095h1.05468v1.07095h1.05469v-1.07095h1.05469v1.07095h1.05468v-1.07095h-1.05468v-1.07096h1.05468v-1.07095h-1.05468v-1.07095h1.05468v-1.07095h-1.05468v1.07095h-1.05469v-1.07095h-1.05469zm0 1.07095v-1.07095h1.05469v1.07095zm0 1.07095v-1.07095h-1.05468v1.07095zm1.05469 0v1.07096h-1.05469v-1.07096zm0 0v-1.07095h1.05469v1.07095z" fill="#f50100" fill-rule="evenodd"/></g><g stroke="#fff" stroke-width=".15"><path clip-rule="evenodd" d="m5.22657 4.0813s.32622-.17424.60446-.26404.49816-.13886.49816-.13886l-.41397-1.52605-.82916-.30979-.4696.77405z" fill="#56c6f5" fill-rule="evenodd"/><path clip-rule="evenodd" d="m7.27041 3.53789s.2782-.02483.57051-.01915c.29232.00568.53961.00776.53961.00776l.14278-1.50474-.62616-.56569-.69603.57899z" fill="#56c6f5" fill-rule="evenodd"/><path d="m6.23426 3.66595.02161.07341.07295-.02308h.00001l.00003-.00001.00015-.00005.00064-.0002.00262-.00082.01033-.00321.03864-.01176c.03289-.00988.07875-.02332.13056-.03758.10469-.02882.22993-.05994.32189-.07272.09444-.01312.21135-.02263.30567-.02887.04694-.00311.08787-.00538.11705-.00687l.03418-.00166.0091-.00041.00232-.0001.00057-.00002.00013-.00001h.00003l.07839-.00322-.00674-.07816-.12614-1.46221-.00299-.03459-.02831-.02011-.68136-.4839-.05261-.03737-.0448.04645-.61923.64195-.03029.0314.01232.04185z" fill="#2e42a5"/><path d="m9.47005 3.66431-.02039.07558-.07463-.02361h-.00001l-.00003-.00001-.00015-.00005-.00064-.0002-.00262-.00082-.01033-.00321-.03864-.01176c-.03289-.00988-.07875-.02332-.13056-.03758-.1047-.02882-.22993-.05994-.32189-.07272-.09444-.01312-.21136-.02263-.30567-.02887-.04694-.00311-.08787-.00538-.11705-.00687l-.03418-.00166-.0091-.00041-.00232-.0001-.00057-.00002-.00013-.00001h-.00003l-.07839-.00322.00674-.07816.12614-1.46221.00299-.03459.02831-.02011.68136-.4839.05409-.03842.04472.049.58385.63953.02774.03039-.01072.03972z" fill="#2e42a5"/><path d="m10.6304 4.07306-.0323.07462-.0718-.03832v-.00002l-.0002-.00007-.0006-.00034-.0026-.00139-.0105-.00551c-.0093-.00483-.0228-.01186-.04-.02059-.0344-.01747-.0832-.04172-.1406-.06874-.1153-.05427-.263-.11872-.39765-.16217-.13749-.04437-.26064-.0787-.34938-.10192-.04435-.01161-.08004-.02043-.10457-.02633l-.02809-.00663-.00716-.00165-.00176-.00039-.00041-.0001-.00008-.00002h-.00001-.00001l-.07752-.01729.02172-.07642.423-1.48794.01037-.03648.03552-.01327.82913-.30979.0582-.02173.0322.05309.4696.77405.0201.03317-.0154.03559z" fill="#56c6f5"/></g></g></g></svg>