<svg fill="none" height="12" viewBox="0 0 16 12" width="16" xmlns="http://www.w3.org/2000/svg" xmlns:xlink="http://www.w3.org/1999/xlink"><clipPath id="a"><path d="m0 0h16v12h-16z"/></clipPath><mask id="b" height="12" maskUnits="userSpaceOnUse" width="16" x="0" y="0"><path clip-rule="evenodd" d="m0 0v12h16v-12z" fill="#fff" fill-rule="evenodd"/></mask><mask id="c" height="8" maskUnits="userSpaceOnUse" width="10" x="3" y="2"><path d="m3 2h10v8h-10z" fill="#fff"/></mask><g clip-path="url(#a)"><path d="m0 0h16v12h-16z" fill="#fff"/><path clip-rule="evenodd" d="m0 0v12h16v-12z" fill="#2e42a5" fill-rule="evenodd"/><g mask="url(#b)"><path clip-rule="evenodd" d="m0 6v6h16v-6z" fill="#e31d1c" fill-rule="evenodd"/><path d="m3 2h10v8h-10z" fill="#fff"/><g mask="url(#c)"><g clip-rule="evenodd" fill-rule="evenodd"><path d="m3 8.3849s2.40028-1.06366 5-.99875c2.5997.06491 5 1.24844 5 1.24844v1.36541h-10z" fill="#279e19"/><path d="m5.71992 3.50933c-.02701.032-.02807.0765-.00572.11192.16029.25397.86566 1.2568 2.01046 1.2568 1.10235 0 1.92347-.92985 2.15673-1.22556.03861-.04895.0271-.11793-.02614-.15038-.16995-.10355-.5534-.30211-.99501-.30211-.59738 0-1.13558.25514-1.13558.25514s-.80077-.25514-1.31078-.25514c-.38598 0-.60854.20811-.69396.30933z" fill="#026a16"/><path d="m7.89467 7.407-.89611-.56674c-.52358.24226-.78536.72199-.78536 1.43917l.69395 1.13932h1.41732.69934l.5009-1.13932s.19507-1.47322-.5009-1.71089z" fill="#c51918"/><path d="m5.93407 5.81601s-1.35265.46959-1.35265 2.20191l1.80416.35682s-.02113-.99251.51816-1.45807z" fill="#0a328c"/></g><path d="m5.26801 5.26381.21534-.21758 2.51669 2.4771-.21534.21758z" fill="#ffd018"/><path d="m4.48126 5.84545.17697-.25234 3.23637 2.46279-.17697.25234z" fill="#ffd018"/><path d="m3.94312 6.81096.13905-.2769 3.67688 2.0036-.13906.2769z" fill="#ffd018"/><path clip-rule="evenodd" d="m4.59076 8.00436 2.42052.31715-.13627.39587h-.38375l.26136.22367.58937.16163v-.3853h.51615v.81859h-1.10552l-.42401-.59492s-.35612.41138-.70368.41138-.69021-.13361-.69021-.58227c0-.44865 0-.31213 0-.31213l-.34396-.13652z" fill="#feca00" fill-rule="evenodd"/><path clip-rule="evenodd" d="m9.80826 5.7227s1.58614.56291 1.58614 2.29523l-1.82016.35638s-.08276-1.28094-.64452-1.7465z" fill="#0a328c" fill-rule="evenodd"/><path d="m10.6792 5.26381-.2243-.21758-2.71155 2.27648.22431.21758z" fill="#ffd018"/><path d="m11.4987 5.84545-.1843-.25234-3.37124 2.46279v.46168z" fill="#ffd018"/><path d="m12.0583 6.81145-.1429-.27788-4.05835 1.97175.14297.27788z" fill="#ffd018"/><path clip-rule="evenodd" d="m11.3846 8.00436-2.52134.31715.14195.39587h.39974l-.27225.22367-.61392.16163v-.3853h-.53766v.81859h1.15158l.44169-.59492s.37095.41138.73301.41138c.362 0 .7189-.13361.7189-.58227 0-.44865 0-.31213 0-.31213l.3583-.13652z" fill="#feca00" fill-rule="evenodd"/><path clip-rule="evenodd" d="m7.69154 4.67871s-.1634 1.20367-.1634 1.69354.1634 3.09381.1634 3.09381h.42025s0-2.68486 0-3.09381-.24659-1.69354-.24659-1.69354z" fill="#feca00" fill-rule="evenodd"/></g></g></g></svg>