<svg fill="none" height="12" viewBox="0 0 16 12" width="16" xmlns="http://www.w3.org/2000/svg" xmlns:xlink="http://www.w3.org/1999/xlink"><clipPath id="a"><path d="m0 0h16v12h-16z"/></clipPath><mask id="b" height="12" maskUnits="userSpaceOnUse" width="16" x="0" y="0"><path clip-rule="evenodd" d="m0 0v12h16v-12z" fill="#fff" fill-rule="evenodd"/></mask><g clip-path="url(#a)"><path d="m0 0h16v12h-16z" fill="#fff"/><path clip-rule="evenodd" d="m0 0v12h16v-12z" fill="#e31d1c" fill-rule="evenodd"/><g mask="url(#b)"><g clip-rule="evenodd" fill-rule="evenodd"><path d="m3.04676 2.0705c-.00385-.04626.05151-.0687.08282-.03442.22456.24582.81809.85781 1.16133.85781.4295 0 2.1163-1.42132 2.61487-1.18978.49858.23153 1.50803 2.65235 1.50803 2.65235l-.65782.82513-.85021-.46381-.2353-1.54622s-1.56191.78265-2.37957.47712l-.45964.16765s-.44265-.8765-.61696-1.14459c-.11533-.17738-.15435-.44229-.16755-.60124z" fill="#f7fcff"/><path d="m4.00001 4.13763-.58779.30901.11226-.6545-.47553-.46353.65716-.09549.2939-.59549.29389.59549.65716.09549-.47553.46353.11226.6545z" fill="#feca00"/><path d="m6.56575 1.76836c.00752-.09395.08596-.16636.18021-.16636.10552 0 .18862.09.1802.19519l-.11058 1.38207c-.00751.09395-.08595.16636-.1802.16636-.10552 0-.18862-.09001-.1802-.1952z" fill="#feca00"/><path d="m12.6101 2.55172c.0412.02125.0309.08008-.0147.08847-.3275.06018-1.161.23921-1.3429.5303-.2276.36424.0839 2.54791-.3767 2.84803-.4605.30012-3.04844-.12666-3.04844-.12666l-.35116-.99511.84388-.47524 1.48095.59003s.13919-1.67867.83157-2.21017l.0812-.5095s.9779.08909 1.2976.08333c.2115-.0038.4569.10348.5987.17652z" fill="#f7fcff"/><path d="m10.2525 2.4282.0494-.66223.4956.44204.6451-.15764-.2673.60791.3493.5648-.6608-.06633-.4292.5067-.1411-.6489-.61453-.25164z" fill="#feca00"/><path d="m10.9766 5.59919c.0805.05866.1039.16853.0542.25486-.059.10262-.1951.12941-.2886.05684l-.96191-.74651c-.061-.04734-.08418-.12881-.05724-.20116.04081-.10964.17501-.15003.26956-.08113z" fill="#feca00"/><path d="m7.43119 10.4918c-.03904.0251-.08483-.0132-.06927-.0569.11163-.3137.37334-1.12509.21219-1.42816-.20164-.37923-2.24849-1.20131-2.27812-1.75022-.02964-.54892 1.63391-2.57672 1.63391-2.57672l1.03737.19345-.01037.96843-1.34561.98592s1.51597.9512 1.63007 1.81659l.36301.33533s-.5661.80233-.72097 1.08208c-.10248.1851-.31806.3439-.45221.4302z" fill="#f7fcff"/><path d="m8.94604 8.4571.5488.37391-.6306.20815-.18602.63748-.39284-.53541-.66376.02007.38781-.53905-.2242-.62508.63251.20226.5252-.40639z" fill="#feca00"/><path d="m5.55174 7.47817c-.11153.04278-.23571-.01945-.26821-.1344-.02844-.1006.02412-.20635.12148-.24443l1.00904-.39466c.09277-.03629.19822-.00124.25082.08335.06855.11025.0197.25565-.10151.30214z" fill="#feca00"/></g><path d="m6.83126 4.88247c-.06223-.02175-.09547-.09105-.07424-.15479.02122-.06375.12092-.17023.18314-.14848l.8679.30327c.04478.01564.07626.05697.0802.10527l.07761.95193c.00547.06711-.09229.12141-.15781.12701-.06552.00561-.12307-.04426-.12854-.11137l-.07187-.81863z" fill="#feca00"/><path d="m8.34032 4.38377c.05187-.04137.1445.00659.1849.05973.04039.05314.03108.12976-.02079.17114l-.60121.61621c-.05188.04138-.16855-.03933-.20894-.09248-.04039-.05314-.05188-.1979 0-.23928z" fill="#feca00"/></g></g></svg>