<svg fill="none" height="12" viewBox="0 0 16 12" width="16" xmlns="http://www.w3.org/2000/svg" xmlns:xlink="http://www.w3.org/1999/xlink"><clipPath id="a"><path d="m0 0h16v12h-16z"/></clipPath><clipPath id="b"><path d="m0 0h9v7h-9z"/></clipPath><g clip-path="url(#a)"><path d="m0 0h16v12h-16z" fill="#fff"/><path clip-rule="evenodd" d="m0 0v12h16v-12z" fill="#f7fcff" fill-rule="evenodd"/><path clip-rule="evenodd" d="m-.752808 1.64574.74357274.70852c.61401326-.58043 1.19337526-.85426 1.74395526-.85426.26601 0 .3793.06425.68608.35426.48662.45999.81412.64574 1.42966.64574.61555 0 .94304-.18575 1.42966-.64574.30678-.29001.42007-.35426.68608-.35426s.3793.06425.68609.35426c.48661.45999.81411.64574 1.42965.64574.61555 0 .94304-.18575 1.42966-.64574.30679-.29001.42007-.35426.6861-.35426.266 0 .3793.06425.6861.35426.4866.45999.8141.64574 1.4296.64574.6156 0 .9431-.18575 1.4297-.64574.3068-.29001.4201-.35426.6861-.35426.5505 0 1.1299.27383 1.7439.85426l.7436-.70852c-.7965-.752906-1.6276-1.14574-2.4875-1.14574-.6156 0-.9431.185748-1.4297.64574-.3068.29001-.4201.35426-.6861.35426s-.3793-.06425-.6861-.35426c-.4866-.459992-.8141-.64574-1.4296-.64574-.61556 0-.94306.185748-1.42967.64574-.30679.29001-.42007.35426-.68609.35426-.26601 0-.3793-.06425-.68608-.35426-.48662-.459992-.81411-.64574-1.42966-.64574-.61554 0-.94304.185748-1.42966.64574-.30678.29001-.42007.35426-.68608.35426s-.3793-.06425-.68608-.35426c-.48662-.459992-.81412-.64574-1.42966-.64574-.859911 0-1.6910468.392834-2.487528 1.14574zm.74357274 2.70852-.74357274-.70852c.7964812-.75291 1.627617-1.14574 2.487528-1.14574.61554 0 .94304.18575 1.42966.64574.30678.29001.42007.35426.68608.35426s.3793-.06425.68608-.35426c.48662-.45999.81412-.64574 1.42966-.64574.61555 0 .94304.18575 1.42966.64574.30678.29001.42007.35426.68608.35426.26602 0 .3793-.06425.68609-.35426.48661-.45999.81411-.64574 1.42967-.64574.6155 0 .943.18575 1.4296.64574.3068.29001.4201.35426.6861.35426s.3793-.06425.6861-.35426c.4866-.45999.8141-.64574 1.4297-.64574.8599 0 1.691.39283 2.4875 1.14574l-.7436.70852c-.614-.58043-1.1934-.85426-1.7439-.85426-.266 0-.3793.06425-.6861.35426-.4866.45999-.8141.64574-1.4297.64574-.6155 0-.943-.18575-1.4296-.64574-.3068-.29001-.4201-.35426-.6861-.35426-.26603 0-.37931.06425-.6861.35426-.48662.45999-.81411.64574-1.42966.64574-.61554 0-.94304-.18575-1.42965-.64574-.30679-.29001-.42008-.35426-.68609-.35426s-.3793.06425-.68608.35426c-.48662.45999-.81411.64574-1.42966.64574-.61554 0-.94304-.18575-1.42966-.64574-.30678-.29001-.42007-.35426-.68608-.35426-.55058 0-1.129942.27383-1.74395526.85426zm0 2-.74357274-.70852c.7964812-.75291 1.627617-1.14574 2.487528-1.14574.61554 0 .94304.18575 1.42966.64574.30678.29001.42007.35426.68608.35426s.3793-.06425.68608-.35426c.48662-.45999.81412-.64574 1.42966-.64574.61555 0 .94304.18575 1.42966.64574.30678.29001.42007.35426.68608.35426.26602 0 .3793-.06425.68609-.35426.48661-.45999.81411-.64574 1.42967-.64574.6155 0 .943.18575 1.4296.64574.3068.29001.4201.35426.6861.35426s.3793-.06425.6861-.35426c.4866-.45999.8141-.64574 1.4297-.64574.8599 0 1.691.39283 2.4875 1.14574l-.7436.70852c-.614-.58043-1.1934-.85426-1.7439-.85426-.266 0-.3793.06425-.6861.35426-.4866.45999-.8141.64574-1.4297.64574-.6155 0-.943-.18575-1.4296-.64574-.3068-.29001-.4201-.35426-.6861-.35426-.26603 0-.37931.06425-.6861.35426-.48662.45999-.81411.64574-1.42966.64574-.61554 0-.94304-.18575-1.42965-.64574-.30679-.29001-.42008-.35426-.68609-.35426s-.3793.06425-.68608.35426c-.48662.45999-.81411.64574-1.42966.64574-.61554 0-.94304-.18575-1.42966-.64574-.30678-.29001-.42007-.35426-.68608-.35426-.55058 0-1.129942.27383-1.74395526.85426zm0 2-.74357274-.70852c.7964812-.75291 1.627617-1.14574 2.487528-1.14574.61554 0 .94304.18575 1.42966.64574.30678.29001.42007.35426.68608.35426s.3793-.06425.68608-.35426c.48662-.45999.81412-.64574 1.42966-.64574.61555 0 .94304.18575 1.42966.64574.30678.29001.42007.35426.68608.35426.26602 0 .3793-.06425.68609-.35426.48661-.45999.81411-.64574 1.42967-.64574.6155 0 .943.18575 1.4296.64574.3068.29001.4201.35426.6861.35426s.3793-.06425.6861-.35426c.4866-.45999.8141-.64574 1.4297-.64574.8599 0 1.691.39283 2.4875 1.14574l-.7436.70852c-.614-.58043-1.1934-.85426-1.7439-.85426-.266 0-.3793.06425-.6861.35426-.4866.45999-.8141.64574-1.4297.64574-.6155 0-.943-.18575-1.4296-.64574-.3068-.29001-.4201-.35426-.6861-.35426-.26603 0-.37931.06425-.6861.35426-.48662.45999-.81411.64574-1.42966.64574-.61554 0-.94304-.18575-1.42965-.64574-.30679-.29001-.42008-.35426-.68609-.35426s-.3793.06425-.68608.35426c-.48662.45999-.81411.64574-1.42966.64574-.61554 0-.94304-.18575-1.42966-.64574-.30678-.29001-.42007-.35426-.68608-.35426-.55058 0-1.129942.27383-1.74395526.85426zm0 2.00004-.74357274-.70856c.7964812-.75291 1.627617-1.14574 2.487528-1.14574.61554 0 .94304.18575 1.42966.64574.30678.29001.42007.35426.68608.35426s.3793-.06425.68608-.35426c.48662-.45999.81412-.64574 1.42966-.64574.61555 0 .94304.18575 1.42966.64574.30678.29001.42007.35426.68608.35426.26602 0 .3793-.06425.68609-.35426.48661-.45999.81411-.64574 1.42967-.64574.6155 0 .943.18575 1.4296.64574.3068.29001.4201.35426.6861.35426s.3793-.06425.6861-.35426c.4866-.45999.8141-.64574 1.4297-.64574.8599 0 1.691.39283 2.4875 1.14574l-.7436.70856c-.614-.58047-1.1934-.8543-1.7439-.8543-.266 0-.3793.06425-.6861.35426-.4866.46004-.8141.64574-1.4297.64574-.6155 0-.943-.1857-1.4296-.64574-.3068-.29001-.4201-.35426-.6861-.35426-.26603 0-.37931.06425-.6861.35426-.48662.46004-.81411.64574-1.42966.64574-.61554 0-.94304-.1857-1.42965-.64574-.30679-.29001-.42008-.35426-.68609-.35426s-.3793.06425-.68608.35426c-.48662.46004-.81411.64574-1.42966.64574-.61554 0-.94304-.1857-1.42966-.64574-.30678-.29001-.42007-.35426-.68608-.35426-.55058 0-1.129942.27383-1.74395526.8543zm0 2-.74357274-.7086c.7964812-.7529 1.627617-1.1457 2.487528-1.1457.61554 0 .94304.1857 1.42966.6457.30678.29.42007.3543.68608.3543s.3793-.0643.68608-.3543c.48662-.46.81412-.6457 1.42966-.6457.61555 0 .94304.1857 1.42966.6457.30678.29.42007.3543.68608.3543.26602 0 .3793-.0643.68609-.3543.48661-.46.81411-.6457 1.42967-.6457.6155 0 .943.1857 1.4296.6457.3068.29.4201.3543.6861.3543s.3793-.0643.6861-.3543c.4866-.46.8141-.6457 1.4297-.6457.8599 0 1.691.3928 2.4875 1.1457l-.7436.7086c-.614-.5805-1.1934-.8543-1.7439-.8543-.266 0-.3793.0643-.6861.3543-.4866.46-.8141.6457-1.4297.6457-.6155 0-.943-.1857-1.4296-.6457-.3068-.29-.4201-.3543-.6861-.3543-.26603 0-.37931.0643-.6861.3543-.48662.46-.81411.6457-1.42966.6457-.61554 0-.94304-.1857-1.42965-.6457-.30679-.29-.42008-.3543-.68609-.3543s-.3793.0643-.68608.3543c-.48662.46-.81411.6457-1.42966.6457-.61554 0-.94304-.1857-1.42966-.6457-.30678-.29-.42007-.3543-.68608-.3543-.55058 0-1.129942.2738-1.74395526.8543z" fill="#2e42a5" fill-rule="evenodd"/><g clip-path="url(#b)"><path d="m0 0h9v7h-9z" fill="#2e42a5"/><path d="m-1.00208 6.49991 1.98048.8686 8.0666-6.424142 1.0447-1.290765-2.11788-.290312-3.29017 2.768349-2.64825 1.86521z" fill="#f7fcff"/><path d="m-.730957 7.10847 1.008961.50406 9.436506-8.078854h-1.41669z" fill="#f50100"/><path d="m10.0022 6.49991-1.98048.8686-8.0665961-6.424142-1.0446539-1.290765 2.11783-.290312 3.29017 2.768349 2.64826 1.86521z" fill="#f7fcff"/><path d="m9.93457 6.93667-1.00896.50406-4.01816-3.45897-1.1913-.38647-4.90625-3.937263h1.416697l4.903493 3.843813 1.30247.46341z" fill="#f50100"/><g clip-rule="evenodd" fill-rule="evenodd"><path d="m4.99226 0h-1v3h-3.99226v1h3.99226v3h1v-3h4.00774v-1h-4.00774z" fill="#f50100"/><path d="m3.24226-.75h2.5v3h4.00774v2.5h-4.00774v3h-2.5v-3h-3.99226v-2.5h3.99226zm.75 3.75h-3.99226v1h3.99226v3h1v-3h4.00774v-1h-4.00774v-3h-1z" fill="#f7fcff"/></g></g><rect fill="#d86d00" height="6.31068" rx=".25" width=".5" x="10.2" y="4.68932"/><g fill="#449a01"><path d="m10.2021 1.02876c.5109.70061.5757 1.64141.5109 2.48428l-.3989-.02888c.0618-.80405-.112-2.4554-.112-2.4554z"/><path d="m10.8535 3.69206-.3679-.15237c.3547-1.12226 2.1241-2.07782 2.1241-2.07782-.7926.3787-1.062 1.40551-1.7562 2.23019z"/><path d="m10.6882 3.92521-.1932-.34003c.9458-.65764 2.474-.79954 2.474-.79954-.7884.22371-1.5846.76661-2.2808 1.13957z"/><path d="m10.4421 4.09063.1667-.35304c1.8502.57432 2.1214 1.53465 2.1214 1.53465-.2428-.2143-1.0144-.6149-2.2881-1.18161z"/><path d="m10.2476 4.06487.3928-.07305c.136.68945.4866 1.1072.6721 1.54976 0 0-1.0383-.46377-1.0649-1.47671z"/><path d="m10.2177 3.74155.4237.10652c-.69504.84967-1.72779 1.296-2.13615 1.44191 0 0 .89731-.80932 1.71245-1.54843z"/><path d="m10.4058 3.55764-.0644.39479c-.82757-.25241-2.31723-.14666-2.31723-.14666.62533-.14809 1.48966-.39345 2.38163-.24813z"/><path d="m10.4773 3.35563-.1627.35476c-1.22195-.52833-1.87502-1.51586-1.87502-1.51586.04146.18165.95874.69457 2.03772 1.1611z"/><path clip-rule="evenodd" d="m10.5 4c.2761 0 .5-.22386.5-.5s-.2239-.5-.5-.5-.5.22386-.5.5.2239.5.5.5z" fill-rule="evenodd"/></g><path clip-rule="evenodd" d="m11.956 7.65377v-.07218c-.2305-.18197-.4718-.27295-.724-.27295-.2417-.11772-.4865-.16342-.7341-.13709 0-.00084.0001-.00127.0001-.00127-.3724-.04009-.7477.13836-.7477.13836-.37828 0-.72393.27295-.72393.27295v.07218l.45185.49934s.12719.48062 1.01788.36766v.00122s.5898-.01771.6312-.03288c.0165-.00602.0335-.01149.0509-.01709.1156-.03711.2474-.07947.3259-.31891zm-1.4599-.46014c-.0128.16625-.0862 1.16839 0 1.32376z" fill="#f50100" fill-rule="evenodd"/><path clip-rule="evenodd" d="m10.0973 6.87593c-.20487 0-.289.0549-.33706.217-.03063.10329-.00092.19146.09539.27376l-.05495.07786c-.11972-.10229-.16503-.22666-.13036-.3649-.23191-.00875-.40511.01825-.51871.07926-.0985.05291-.11652.18714-.04198.42065l-.08454.03267c-.08771-.27479-.06266-.46141.08722-.54191.13206-.07094.32454-.09981.57837-.08849l-.00138.0377c.06502-.17469.1846-.24219.408-.24219.1344 0 .2436.03311.3259.10033v-.04341h.1792v.02504c.0772-.04977.1743-.07434.2901-.07434.228 0 .3479.07034.412.25325l-.0003-.00708c.2538-.01132.4463.01755.5784.08848.1499.0805.1749.26712.0872.54192l-.0845-.03267c.0745-.23351.0565-.36775-.042-.42065-.1131-.06076-.2853-.08779-.5158-.07937.0167.12163-.0308.2314-.1384.32333l-.055-.07787c.0963-.08229.1261-.17046.0954-.27376-.048-.16209-.1322-.21699-.337-.21699-.1272 0-.2233.03261-.2901.0965v.43319.06184h-.1792v-.06946h-.0358v-.43319c-.0669-.06389-.1629-.0965-.2901-.0965zm-1.01314.82664-.0307.0359.41092.42539c.01333.02702.02519.05199.03557.07485.01106.0489.02769.10311.05134.13624.00216.00962.00324.0176.00324.0239 0 .05082.12015.08098.35466.11196.18371.02427.40051.04056.57791.043v.00031l.0224-.00008.0225.00008v-.00031c.1774-.00244.3942-.01873.5779-.043.2345-.03098.3547-.06114.3547-.11196 0-.03331.0302-.1135.0901-.23499l.4109-.42539-.0307-.0359-.4135.4281-.0043.00616c-.0175.03527-.0326.06722-.0453.09597.012-.05493.017-.10164.017-.10164s-.4625-.1448-.9856-.15127v-.00022l-.018.00005-.018-.00005v.00022c-.47215.00584-.89488.12437-.97276.1474zm2.33904.66634c-.0199.03094-.045.04707-.0764.0309-.0979-.05038-.7451-.09767-.8616-.10583-.1165.00816-.76369.05545-.86156.10583l-.00482.00226c.01446.00583.03427.01194.05884.01811.05763.01446.13965.02884.23687.04169.18987.02508.41557.04158.59497.04288.1795-.0013.4052-.0178.5951-.04288.0972-.01285.1792-.02723.2368-.04169.0293-.00736.0519-.01463.0666-.02146.0053-.00245.0094-.00472.012-.00662.0004-.00692.0015-.01465.0032-.02319zm.0529.02274.0008-.00087-.0003.00024z" fill="#feca00" fill-rule="evenodd"/><path d="m9.70178 6.94158-.00079.04928c-.39724-.00763-.6251.05616-.68294.18329-.0598.13143-.04868.29121.03511.48101l-.04029.02154c-.08941-.20251-.10161-.37794-.03488-.52462.06869-.15098.30974-.21846.72379-.2105z" fill="#fff"/><path d="m9.77863 7.37869-.02297.04232c-.08651-.05683-.12981-.15383-.12981-.28749 0-.19211.08994-.30477.28888-.38186.12697-.0492.30037-.02903.52087.0589l-.0153.04634c-.2116-.08441-.3753-.10345-.49068-.05874-.18248.07071-.25897.16651-.25897.33536 0 .1173.03597.19786.10798.24517z" fill="#fff"/><path d="m11.2651 6.99087.0008.04929c.3973-.00763.6251.05615.683.18328.0598.13144.0486.29121-.0351.48101l.0403.02154c.0894-.2025.1016-.37793.0348-.52461-.0687-.15099-.3097-.21846-.7238-.21051z" fill="#fff"/><path d="m11.1248 7.38893.023.04233c.0865-.05684.1298-.15383.1298-.2875 0-.19211-.0899-.30476-.2889-.38185-.127-.0492-.3004-.02903-.5208.0589l.0153.04634c.2115-.08441.3753-.10345.4906-.05875.1825.07071.259.16652.259.33536 0 .1173-.036.19786-.108.24517z" fill="#fff"/></g></svg>