<svg fill="none" height="12" viewBox="0 0 16 12" width="16" xmlns="http://www.w3.org/2000/svg" xmlns:xlink="http://www.w3.org/1999/xlink"><clipPath id="a"><path d="m0 0h16v12h-16z"/></clipPath><mask id="b" height="12" maskUnits="userSpaceOnUse" width="16" x="0" y="0"><path clip-rule="evenodd" d="m0 0v12h16v-12z" fill="#fff" fill-rule="evenodd"/></mask><g clip-path="url(#a)"><path d="m0 0h16v12h-16z" fill="#fff"/><path clip-rule="evenodd" d="m0 0v12h16v-12z" fill="#f7fcff" fill-rule="evenodd"/><g mask="url(#b)"><path clip-rule="evenodd" d="m0 0v4h16v-4z" fill="#5eaa22" fill-rule="evenodd"/><path clip-rule="evenodd" d="m0 8v4h16v-4z" fill="#e31d1c" fill-rule="evenodd"/><g stroke="#f7fcff" stroke-width=".5"><path d="m.186342 8.68347h-1.137026"/><path d="m-.962402 9.13364v-.261h.370133v.25224h.374014v-.25196h-.194044"/><path d="m.169059 9.12305h-.1884682v-.24491h.3968152v-.20063.44554h.179568v-.44554"/><path d="m.759024 8.704v.42092h-.186392"/><path d="m2.13751 8.68347h-1.13702"/><path d="m.98877 9.13364v-.261h.37013v.25224h.37402v-.25196h-.19405"/><path d="m2.15514 9.12305h-.18847v-.24491h.39682v-.20063.44554h.17957v-.44554"/><path d="m2.74511 8.704v.42092h-.18639"/><path d="m4.1236 8.68347h-1.13703"/><path d="m2.97485 9.13364v-.261h.37014v.25224h.37401v-.25196h-.19404"/><path d="m4.10644 9.12305h-.18847v-.24491h.39681v-.20063.44554h.17957v-.44554"/><path d="m4.6964 8.704v.42092h-.18639"/><path d="m6.07489 8.68347h-1.13702"/><path d="m4.92615 9.13364v-.261h.37013v.25224h.37401v-.25196h-.19404"/><path d="m6.05761 9.12305h-.18847v-.24491h.39682v-.20063.44554h.17956v-.44554"/><path d="m6.64757 8.704v.42092h-.18639"/><path d="m8.02606 8.68347h-1.13702"/><path d="m6.87732 9.13364v-.261h.37013v.25224h.37402v-.25196h-.19405"/><path d="m8.04369 9.12305h-.18847v-.24491h.39682v-.20063.44554h.17957v-.44554"/><path d="m8.63366 8.704v.42092h-.18639"/><path d="m10.0121 8.68347h-1.13698"/><path d="m8.8634 9.13364v-.261h.37014v.25224h.37401v-.25196h-.19404"/><path d="m10.0298 9.12305h-.18849v-.24491h.39679v-.20063.44554h.1796v-.44554"/><path d="m10.6197 8.704v.42092h-.1864"/><path d="m11.9982 8.68347h-1.137"/><path d="m10.8495 9.13364v-.261h.3701v.25224h.374v-.25196h-.194"/><path d="m12.0157 9.12305h-.1884v-.24491h.3968v-.20063.44554h.1796v-.44554"/><path d="m12.6057 8.704v.42092h-.1864"/><path d="m13.9842 8.68347h-1.137"/><path d="m12.8354 9.13364v-.261h.3702v.25224h.374v-.25196h-.194"/><path d="m13.967 9.12305h-.1884v-.24491h.3968v-.20063.44554h.1795v-.44554"/><path d="m14.557 8.704v.42092h-.1864"/><path d="m15.9355 8.68347h-1.137"/><path d="m14.7867 9.13364v-.261h.3702v.25224h.374v-.25196h-.1941"/><path d="m16.0228 9.12305h-.1884v-.24491h.3968v-.20063.44554h.1795v-.44554"/><path d="m.186342 2.58346h-1.137026"/><path d="m-.962402 3.03364v-.261h.370133v.25224h.374014v-.25196h-.194044"/><path d="m.169059 3.02304h-.1884682v-.24491h.3968152v-.20063.44554h.179568v-.44554"/><path d="m.759024 2.604v.42092h-.186392"/><path d="m2.13751 2.58346h-1.13702"/><path d="m.98877 3.03364v-.261h.37013v.25224h.37402v-.25196h-.19405"/><path d="m2.15514 3.02304h-.18847v-.24491h.39682v-.20063.44554h.17957v-.44554"/><path d="m2.74511 2.604v.42092h-.18639"/><path d="m4.1236 2.58346h-1.13703"/><path d="m2.97485 3.03364v-.261h.37014v.25224h.37401v-.25196h-.19404"/><path d="m4.10644 3.02304h-.18847v-.24491h.39681v-.20063.44554h.17957v-.44554"/><path d="m4.6964 2.604v.42092h-.18639"/><path d="m6.07489 2.58346h-1.13702"/><path d="m4.92615 3.03364v-.261h.37013v.25224h.37401v-.25196h-.19404"/><path d="m6.05761 3.02304h-.18847v-.24491h.39682v-.20063.44554h.17956v-.44554"/><path d="m6.64757 2.604v.42092h-.18639"/><path d="m8.02606 2.58346h-1.13702"/><path d="m6.87732 3.03364v-.261h.37013v.25224h.37402v-.25196h-.19405"/><path d="m8.04369 3.02304h-.18847v-.24491h.39682v-.20063.44554h.17957v-.44554"/><path d="m8.63366 2.604v.42092h-.18639"/><path d="m10.0121 2.58346h-1.13698"/><path d="m8.8634 3.03364v-.261h.37014v.25224h.37401v-.25196h-.19404"/><path d="m10.0298 3.02304h-.18849v-.24491h.39679v-.20063.44554h.1796v-.44554"/><path d="m10.6197 2.604v.42092h-.1864"/><path d="m11.9982 2.58346h-1.137"/><path d="m10.8495 3.03364v-.261h.3701v.25224h.374v-.25196h-.194"/><path d="m12.0157 3.02304h-.1884v-.24491h.3968v-.20063.44554h.1796v-.44554"/><path d="m12.6057 2.604v.42092h-.1864"/><path d="m13.9842 2.58346h-1.137"/><path d="m12.8354 3.03364v-.261h.3702v.25224h.374v-.25196h-.194"/><path d="m13.967 3.02304h-.1884v-.24491h.3968v-.20063.44554h.1795v-.44554"/><path d="m14.557 2.604v.42092h-.1864"/><path d="m15.9355 2.58346h-1.137"/><path d="m14.7867 3.03364v-.261h.3702v.25224h.374v-.25196h-.1941"/><path d="m16.0228 3.02304h-.1884v-.24491h.3968v-.20063.44554h.1795v-.44554"/></g><path clip-rule="evenodd" d="m7.30309 4.125s.21367.1125.43236.1125.43872-.1125.43872-.1125v.15s-.24021.1125-.45296.1125-.41812-.1125-.41812-.1125zm-1.57494 1.7703c0-.889 1.22099-1.4703 1.22099-1.4703s-.70571.3781-.70571 1.43304c0 1.05495.36635 1.51179.36635 1.51179s-.88163-.58553-.88163-1.47453zm4.11884-.04906c0-.889-1.21985-1.42124-1.21985-1.42124s.70571.3781.70571 1.43304c0 1.05495-.36635 1.51179-.36635 1.51179s.88049-.63459.88049-1.52359zm-3.28529.24255c-.04652-.88778.69201-1.68353.69201-1.68353s-.2688.36566-.21359 1.41916c.01895.36172.16143.89989.34094 1.21717v-2.57909h.75v2.60146c.17974-.29638.31824-.80168.33747-1.16866.05521-1.0535-.2007-1.49004-.2007-1.49004s.73853.79575.69201 1.68353c-.02771.52874-.43456 1.08792-.75911 1.45374.1577.03517.36908.07804.65965.1354.0062.03215-.05855.03066-.18721.0277-.14205-.00327-.36201-.00833-.6504.02812-.13259.13589-.22487.21644-.22487.21644s-.01459-.01971-.03713-.04698c-.02254.02727-.03713.04698-.03713.04698s-.09228-.08055-.22487-.21644c-.28839-.03645-.50835-.03139-.6504-.02812-.12866.00296-.19341.00445-.18721-.0277.29057-.05736.50195-.10023.65965-.1354-.32455-.36582-.7314-.925-.75911-1.45374z" fill="#e31d1c" fill-rule="evenodd"/></g></g></svg>