<svg fill="none" height="12" viewBox="0 0 16 12" width="16" xmlns="http://www.w3.org/2000/svg" xmlns:xlink="http://www.w3.org/1999/xlink"><clipPath id="a"><path d="m0 0h16v12h-16z"/></clipPath><g clip-path="url(#a)"><path d="m0 0h16v12h-16z" fill="#fff"/><g clip-rule="evenodd" fill-rule="evenodd"><path d="m0 0h16v12h-16z" fill="#0067c3"/><path d="m0 0v4h16v-4z" fill="#272727"/><path d="m0 8v4h16v-4z" fill="#4e8b1d"/></g><path d="m0 3.5h-.5v.5 4 .5h.5 16 .5v-.5-4-.5h-.5z" fill="#e31d1c" stroke="#f7fcff"/><ellipse cx="8" cy="6" fill="#ac2317" rx="2" ry="4"/><path d="m9.81177 2.01525c.11418-.20537.42113-.42962.92093-.67278.0172-.00835.0379-.00883.0556-.00128.0299.01278.0423.04439.0275.07052l-5.17873 9.31409-.26964-.1154 4.56505-8.21026c-.20672-.02954-.24696-.15784-.12071-.38489z" fill="#fff"/><path d="m6.18277 2.01525c.12624.22705.086.35535-.12072.38489l4.56505 8.21026-.2696.1154-5.17881-9.31409c-.01473-.02613-.00232-.05774.02755-.07052.01765-.00755.03839-.00707.05557.00128.49978.24316.80677.46741.92096.67278z" fill="#fff"/><path clip-rule="evenodd" d="m9.69231 8.13273c.1949-.61731.30769-1.34868.30769-2.13273s-.11279-1.51541-.30769-2.13273c-.43853.61732-.69231 1.34868-.69231 2.13273s.25378 1.51542.69231 2.13273z" fill="#000" fill-rule="evenodd"/><path clip-rule="evenodd" d="m6.30769 8.13273c.43853-.61731.69231-1.34868.69231-2.13273s-.25378-1.51541-.69231-2.13273c-.1949.61732-.30769 1.34868-.30769 2.13273s.11279 1.51542.30769 2.13273z" fill="#000" fill-rule="evenodd"/><path clip-rule="evenodd" d="m8.12002 5.69999c.27387-.17067.48-.91406.48-1.80525 0-.8912-.20613-1.63458-.48-1.80526zm-.3-.04748c-.24342-.23473-.42-.93294-.42-1.75777s.17658-1.52304.42-1.75778zm0 .74764v3.5155c-.24341-.23476-.41997-.93295-.41997-1.75775 0-.82481.17656-1.523.41997-1.75775zm.17941 3.59985h.00062.00061zm.12059-.03683v-3.61054c.27388.17065.48003.91405.48003 1.80527s-.20615 1.63462-.48003 1.80527z" fill="#f7fcff" fill-rule="evenodd"/><path d="m8.00002 5.73684c.33138 0 .6.23564.6.52632 0 .29067-.26862.52631-.6.52631-.33137 0-.6-.23564-.6-.52631 0-.29068.26863-.52632.6-.52632z" fill="#f7fcff"/></g></svg>