<svg fill="none" height="12" viewBox="0 0 16 12" width="16" xmlns="http://www.w3.org/2000/svg" xmlns:xlink="http://www.w3.org/1999/xlink"><clipPath id="a"><path d="m0 0h16v12h-16z"/></clipPath><g clip-path="url(#a)"><path d="m0 0h16v12h-16z" fill="#fff"/><path d="m0 0h16v12h-16z" fill="#032ea1"/><path d="m0 3h16v6h-16z" fill="#e00025"/><g fill="#fff"><path clip-rule="evenodd" d="m5.16705 5.52v.03h.945v-.03h1.323v.06h.888v-.06h1.326v.03h.94495v-.03h.11v1.306h-5.69995v-1.306zm-.163 1.306h-.302v.249h.69v.005h-.996v.4257h.996v.0043h-1.191v.375h7.35905v-.375h-1.1941v-.0043h1.002v-.4257h-1.002v-.005h.696v-.249h-.358v.008h-5.69995zm5.58995-1.306v-.84c-.0142 0-.0237.02019-.0353.0446-.0176.03728-.0399.0844-.0907.0844-.045 0-.042-.054-.015-.096.021-.039.048-.09.012-.189-.027.075-.093.099-.081.054.0067-.02557.0175-.04456.0277-.06245.0221-.03878.0412-.07238.0083-.15655-.015.102-.081.099-.066.039.0044-.01676.01-.03122.0153-.04489.0166-.04258.0301-.07743-.0063-.15011-.027.111-.06.105-.06.036 0-.102 0-.21-.126-.249 0 0-.009-.09-.057-.09-.045 0-.054.09-.054.09-.12609.03814-.12602.14511-.12595.2424v.0066c0 .069-.033.075-.06-.036-.03634.07268-.02281.10753-.00629.15011.00531.01367.01092.02813.01529.04489.015.06-.051.063-.066-.039-.03285.08417-.01372.11777.00837.15655.01018.01789.021.03688.02763.06245.012.045-.054.021-.081-.054-.036.099-.009.15.012.189.024.042.03.096-.015.096-.05077 0-.07304-.04602-.09067-.08244-.01154-.02384-.02109-.04356-.03533-.04356v.837zm-2.27095 0h-.888v-.105c0-.04552-.02467-.06814-.04727-.08885-.01911-.01751-.03673-.03367-.03673-.06115 0 0-.012-.09.012-.132.033.12.09.099.09.048 0-.03875-.02554-.0775-.08367-.16572l-.01533-.02328c-.024-.033-.009-.138.021-.177.012.09.027.135.066.135.024 0 .042-.015.042-.06 0-.03823-.01583-.06428-.03276-.09212-.00963-.01585-.01962-.03229-.02724-.05188-.02112-.05488-.00822-.11705.033-.159.00263.01578.00471.02989.00655.04245v.00002c.00869.05905.01229.08353.04445.08353.07477-.02492.0115-.12653-.01283-.16561l-.00517-.00839c-.018-.033.03-.102.03-.102.024.081.03.087.06.078.036-.009.03-.06-.012-.102-.027-.03-.024-.069.006-.099.03.057.066.054.069.018l-.024-.132h.033l-.012-.1h.477l-.012.1h.036l-.027.129c-.006.036.042.045.072-.015.03.03.033.072.006.099-.042.042-.048.093-.012.102.03.009.036 0 .06-.078 0 0 .045.045.03.102l-.00446.00729c-.02378.03855-.08905.14434-.01354.16671.03216 0 .03576-.02448.04444-.08353l.00001-.00002.00001-.00006c.00184-.01254.00391-.02664.00654-.04239.04018.0426.05189.10469.03.159-.00703.0211-.01773.03853-.02815.05552-.01625.0265-.03185.05192-.03185.08848 0 .045.021.06.045.06.039 0 .054-.042.066-.135.03.039.045.144.021.18l-.02526.03712c-.05182.07588-.07674.11238-.07674.14888 0 .051.06.072.09-.048.027.042.015.132.015.132 0 .02774-.01731.04393-.03622.06163-.022.02059-.04617.0432-.04778.08837zm-3.156 0v-.84c.01424 0 .02379.02019.03533.0446.01763.03728.0399.0844.09067.0844.045 0 .042-.054.015-.096-.021-.039-.048-.09-.012-.189.027.075.093.099.081.054-.00663-.02557-.01745-.04456-.02763-.06245-.02209-.03878-.04122-.07238-.00837-.15655.015.102.081.099.066.039-.00437-.01676-.00998-.03122-.01529-.04489-.01652-.04258-.03005-.07743.00629-.15011.027.111.06.105.06.036 0-.102 0-.21.126-.249 0 0 .009-.09.057-.09.045 0 .054.09.054.09.12614.03814.12607.14511.126.2424v.0066c0 .069.033.075.06-.036.03634.07268.02281.10753.00629.15011-.00531.01367-.01092.02813-.01529.04489-.015.06.051.063.066-.039.03285.08417.01372.11777-.00837.15655-.01018.01789-.021.03688-.02763.06245-.012.045.054.021.081-.054.036.099.009.15-.012.189-.024.042-.03.096.015.096.05077 0 .07304-.04602.09067-.08244.01154-.02384.02109-.04356.03533-.04356v.837zm2.643-1.427s-.003-.123.069-.126c.069 0 .066.126.066.126z" fill-rule="evenodd"/><path d="m5.16705 5.55h-.015l.015.015zm.945 0v.015l.015-.015zm1.323.03h-.015l.015.015zm.888 0v.015l.015-.015zm1.326-.03h-.015l.015.015zm.94495 0v.015l.015-.015zm.11-.03h.015l-.015-.015zm-5.69995 0v-.015l-.015.015zm-.302 1.306v-.015l-.015.015zm0 .249h-.015l.015.015zm.69 0h.015l-.015-.015zm0 .005v.015l.015-.015zm-.996 0v-.015l-.015.015zm0 .4257h-.015l.015.015zm.996 0h.015l-.015-.015zm0 .0043v.015l.015-.015zm-1.191 0v-.015l-.015.015zm0 .375h-.015l.015.015zm7.35905 0v.015l.0149-.015zm0-.375h.0149l-.0149-.015zm-1.1941 0h-.015l.015.015zm0-.0043v-.015l-.015.015zm1.002 0v.015l.015-.015zm0-.4257h.015l-.015-.015zm-1.002 0h-.015l.015.015zm0-.005v-.015l-.015.015zm.696 0v.015l.015-.015zm0-.249h.015l-.015-.015zm-.358.008v.015l.015-.015zm-5.69995 0h-.015l.015.015zm5.58995-2.154h.015l-.015-.015zm-.0353.0446.0136.00641zm-.1057-.0116.0127.00814.0006-.00103zm.012-.189.0141-.00512-.0282.00004zm-.081.054.0145.00387.0001-.0001zm.0277-.06245-.0131-.00743zm.0083-.15655.014-.00545-.0288.00327zm-.066.039-.0145-.00378v.00014zm.0153-.04489-.0139-.00542zm-.0063-.15011.0135-.00671-.028.00317zm-.186-.213-.0149.00149.0105.01284zm-.111 0 .0044.01436.0106-.01287zm-.12595.2424.015-.00001zm-.06-.0294.01457-.00354-.02799-.00317zm-.00629.15011.01399-.00542zm.01529.04489.01455-.00364-.00004-.00014zm-.066-.039.01484-.00218-.02881-.00327zm.00837.15655.01303-.00743zm.02763.06245-.01452.00377.00003.0001zm-.081-.054.01411-.00508-.02821-.00004zm.012.189-.01321.00712.00019.00032zm-.10567.01356-.0135.00654zm-.03533-.04356v-.015l-.015.015zm-2.26127.64315-.01014.01105zm-.03673-.06115h.01513l-.00026-.00198zm.012-.132.01446-.00398-.02748-.00346zm.00633-.11772-.01253.00825zm-.01533-.02328.01254-.00826-.00041-.00056zm.021-.177.01487-.00198-.02676-.00716zm.07524-.01712.01282-.00779zm-.02724-.05188-.014.00539.00002.00005zm.033-.159.0148-.00246-.0255-.00805zm.00655.04245-.01484.00218.00003.00021zm0 .00002.01485-.00219-.00004-.00021zm.04445.08353v.01581l.00474-.00158zm-.01283-.16561-.01277.00787.00004.00006zm-.00517-.00839-.01319.00719.00042.00068zm.03-.102.01438-.00426-.02669-.0043zm.06.078-.00364-.01457-.00067.0002zm-.012-.102-.01116.01005.00055.00056zm.006-.099.01327-.00698-.02388-.00363zm.069.018.01548.00129-.00072-.00397zm-.024-.132v-.015l-.01476.01768zm.033 0v.015l.01489-.01679zm-.012-.1v-.015l-.01489.01679zm.477 0 .01489.00179-.01489-.01679zm-.012.1-.01489-.00179.01489.01679zm.036 0 .01468.00307-.01468-.01807zm-.027.129-.01469-.00307-.00011.00061zm.072-.015.01061-.01061-.02403.0039zm.006.099-.01061-.01061zm-.012.102.00431-.01438-.00067-.00017zm.06-.078.01061-.01061-.02495.0062zm.03.102.01336.00818.00115-.00436zm-.00446.00729.01276.00788.00003-.00005zm-.01354.16671-.00444.015h.00444zm.04444-.08353.01485.00218.00003-.00022zm.00001-.00002-.01482-.00238-.00005.00041zm.00001-.00006.01481.00238.00003-.00019zm.00654-.04239.01091-.01029-.02571.00783zm.03.159-.01394-.00562-.00029.00088zm-.02815.05552.01279.00784zm.07915.01348.01189-.00914-.02677.00722zm.021.18.0124.00844.00008-.00012zm-.02526.03712.01239.00845.00001-.00002zm.01326.10088.01262-.00811-.02717.00447zm.015.132-.015-.002v.002zm-.03622.06163-.01025-.01095zm-.04778.08837-.015-.00053v.00053zm-3.156-.735v-.015l-.015.015zm.03533.0446.01356-.00641zm.10567-.0116-.01325.00713.00063.00098zm-.012-.189.01411-.00508-.02821-.00004zm.081.054-.01452.00377.00003.0001zm-.02763-.06245.01303-.00743zm-.00837-.15655.01484-.00218-.02881-.00327zm.066.039.01455-.00364-.00004-.00014zm-.01529-.04489-.01398.00543zm.00629-.15011.01457-.00354-.02799-.00317zm.186-.213.00444.01433.01049-.01284zm.111 0-.01493.00149.01059.01287zm.126.2424-.015-.00001zm0 .0066h-.015zm.06-.036.01342-.00671-.028.00317zm.00629.15011.01398.00543zm-.01529.04489-.01452-.00379-.00003.00015zm.066-.039.01397-.00545-.02881.00327zm-.00837.15655-.01303-.00743zm-.02763.06245.01449.00387.00003-.0001zm.081-.054.0141-.00512-.02821.00004zm-.012.189.01303.00745.00018-.00034zm.10567.01356-.0135-.00653zm.03533-.04356h.015l-.015-.015zm1.767-.716v-.01501l-.00062.00002zm-.069.126-.015.00037.015.01463zm.135 0v.015l.015-.01464zm-2.763 1.457v-.03h-.03v.03zm.93-.015h-.945v.03h.945zm-.015-.015v.03h.03v-.03zm1.338-.015h-1.323v.03h1.323zm.015.075v-.06h-.03v.06zm.873-.015h-.888v.03h.888zm-.015-.045v.06h.03v-.06zm1.341-.015h-1.326v.03h1.326zm.015.045v-.03h-.03v.03zm.92995-.015h-.94495v.03h.94495zm-.015-.015v.03h.03v-.03zm.125-.015h-.11v.03h.11zm.015 1.321v-1.306h-.03v1.306zm-.015-.015h-5.69995v.03h5.69995zm-5.71495-1.291v1.306h.03v-1.306zm.178-.015h-.163v.03h.163zm-.163 1.306h-.302v.03h.302zm-.317.015v.249h.03v-.249zm.015.264h.69v-.03h-.69zm.675-.015v.005h.03v-.005zm.015-.01h-.996v.03h.996zm-1.011.015v.4257h.03v-.4257zm.015.4407h.996v-.03h-.996zm.981-.015v.0043h.03v-.0043zm.015-.0107h-1.191v.03h1.191zm-1.206.015v.375h.03v-.375zm.015.39h7.35905v-.03h-7.35905zm7.37395-.015v-.375h-.0299v.375zm-.0149-.39h-1.1941v.03h1.1941zm-1.1791.015v-.0043h-.03v.0043zm-.015.0107h1.002v-.03h-1.002zm1.017-.015v-.4257h-.03v.4257zm-.015-.4407h-1.002v.03h1.002zm-.987.015v-.005h-.03v.005zm-.015.01h.696v-.03h-.696zm.711-.015v-.249h-.03v.249zm-.015-.264h-.358v.03h.358zm-.343.023v-.008h-.03v.008zm-5.71495.015h5.69995v-.03h-5.69995zm-.015-.023v.008h.03v-.008zm5.58995-2.146v.84h.03v-.84zm-.0067.05101c.0059-.0126.0107-.02246.0154-.02932.0023-.00334.0041-.00517.0054-.00609.0005-.00042.0009-.00055.0009-.00059.0001-.00002.0001-.00002.0001-.00001h-.0001v-.03c-.0149 0-.0248.01073-.031.01961-.0064.00934-.0123.02177-.0178.03358zm-.1043.09299c.0309 0 .053-.01464.0692-.03344.0157-.01825.0264-.04127.0351-.05955l-.0271-.01282c-.009.01901-.0182.03818-.0308.05282-.0121.01407-.0265.02299-.0464.02299zm-.0276-.11911c-.0146.02275-.0236.05001-.0218.07306.0009.01172.0048.02353.0136.03248.009.00916.0215.01357.0358.01357v-.03c-.0081 0-.0121-.00234-.0144-.00461-.0024-.00249-.0045-.00681-.0051-.01383-.0012-.01446.0048-.0352.0172-.05445zm.0106-.17576c.0172.04749.019.08238.0146.10947-.0044.02727-.0153.04782-.0258.06729l.0265.01422c.0105-.01952.0236-.04398.0289-.0767.0054-.03292.0027-.07302-.0161-.12453zm-.0814.04501c-.0034.01263-.0036.02945.0106.03787.0063.00372.0133.00414.0192.00331.0059-.00084.0119-.00307.0176-.00607.0222-.01182.0477-.03986.0622-.08017l-.0283-.01016c-.0125.03469-.0335.05615-.048.06383-.0035.00188-.0061.00264-.0077.00286-.0016.00023-.0011-.00025.0003.00057.0044.00261.0004.00555.003-.00431zm.029-.06602c-.0101.01787-.0219.03841-.0291.06612l.0291.00753c.006-.02344.0159-.04089.0261-.0588zm.0075-.14367c.0158.04058.0185.06731.0155.0877-.003.02058-.0118.03636-.023.05597l.0261.01485c.0109-.01916.0227-.03957.0266-.06653.0039-.02715-.0003-.0593-.0173-.10289zm-.0666.02991c-.0043.01707-.0036.0331.0036.04497.0037.0061.0091.01096.0159.01359.0068.00261.014.00265.0207.0008.0133-.00361.0252-.01432.0344-.0293.0094-.01526.0168-.03625.0208-.06324l-.0297-.00436c-.0035.02401-.0099.0409-.0167.05189-.0069.01127-.0134.01518-.0166.01607-.0015.0004-.0021.00016-.0021.00015-.0001-.00002-.0001-.00006-.0003-.00018-.0001-.00013-.0004-.00041-.0007-.00095-.0015-.00238-.0034-.00922-.0002-.02216zm.0159-.04667c-.0053.01361-.0112.02882-.0159.04653l.0291.00757c.0041-.01582.0094-.02953.0147-.04325zm-.0058-.13798c.0174.03479.0222.05914.0214.07905-.0008.02024-.0073.03735-.0156.05893l.0279.01085c.0082-.021.0167-.04262.0177-.06861.001-.02633-.0056-.05574-.0245-.09364zm-.0616.02929c0 .01805.0022.03363.0068.04481.0022.00554.0057.01143.0112.01548.0063.00458.014.00592.0215.00349.0067-.00216.012-.00683.0162-.01174.0043-.00509.0083-.01159.012-.01925.0076-.01532.015-.03692.0219-.06524l-.0291-.00709c-.0066.02717-.0134.04645-.0197.05906-.0031.00632-.0058.01055-.0081.01317-.0023.0028-.0032.00281-.0024.00254.0018-.00057.0041-.00016.0055.00088.0007.00052-.0001.00026-.0013-.00273-.0024-.00589-.0045-.01692-.0045-.03338zm-.1154-.23467c.0584.01807.0863.05128.1006.09154.0147.04174.0148.09149.0148.14313h.03c0-.05036.0002-.10561-.0166-.15312-.0172-.04899-.0523-.08927-.1199-.11021zm-.0526-.08933c.0067 0 .0125.00294.0181.0091.0057.00643.0106.01568.0144.02607.0037.01022.0062.02061.0077.02855.0007.00394.0012.00721.0015.00947.0002.00112.0003.00199.0003.00256.0001.00028.0001.00049.0001.00061v.00013.00002c0-.00001 0-.00001 0-.00001s0-.00001.0149-.0015c.015-.00149.015-.0015.015-.0015v-.00001c0-.00001 0-.00002 0-.00003 0-.00002 0-.00005 0-.00008 0-.00006-.0001-.00015-.0001-.00026 0-.00021 0-.00051-.0001-.00088-.0001-.00076-.0002-.00182-.0004-.00316-.0003-.00267-.0009-.00643-.0018-.01093-.0017-.00893-.0045-.02104-.009-.03331-.0044-.01212-.0108-.02537-.0202-.03581-.0097-.01071-.023-.01903-.0404-.01903zm-.054.075c.015.00149.015.0015.015.0015v.00001s0-.00001 0-.00002c0-.00003 0-.00007 0-.00014 0-.00012 0-.00033.0001-.00062 0-.00057.0001-.00145.0003-.00258.0003-.00226.0008-.00555.0015-.00951.0015-.00797.0038-.01841.0074-.02868.0037-.01045.0083-.01975.0138-.02618.0052-.0062.0104-.00878.0159-.00878v-.03c-.0169 0-.0297.00868-.0388.01935-.0089.01044-.015.02364-.0192.0357-.0043.01222-.007.02428-.0086.03318-.0008.00448-.0014.00823-.0017.01089-.0002.00133-.0004.00239-.0004.00313-.0001.00038-.0001.00067-.0001.00088 0 .00011-.0001.00019-.0001.00026v.00007.00003.00001c0 .00001 0 .00001.0149.0015zm-.11095.24239c-.00004-.04927.0001-.09754.01478-.13828.01416-.03927.04207-.07207.10057-.08975l-.0087-.02872c-.06766.02046-.10276.06021-.12009.10829-.0168.04661-.0166.10047-.01656.14848zm0 .00661c0-.0022 0-.00441 0-.00661l-.03.00002v.00659zm-.08958-.03245c.00689.02832.01433.04992.02189.06524.00378.00766.00779.01416.01207.01925.00415.00491.00947.00958.01614.01174.00756.00243.01526.00109.0215-.00349.00551-.00405.00899-.00994.01127-.01548.00461-.01118.00671-.02676.00671-.04481h-.03c0 .01646-.00202.02749-.00445.03338-.00123.00299-.002.00325-.0013.00273.00142-.00104.00374-.00145.00548-.00088.00086.00027-.00005.00026-.00241-.00254-.00222-.00262-.00499-.00685-.0081-.01317-.00622-.01261-.01304-.03189-.01965-.05906zm.02228.14114c-.00838-.02158-.01489-.03869-.01568-.05893-.00078-.01991.004-.04426.0214-.07905l-.02684-.01342c-.01894.0379-.02557.06731-.02454.09364.00102.02599.00954.04761.01769.06861zm.01581.04653c-.00462-.01771-.01053-.03292-.01581-.04653l-.02797.01085c.00532.01372.01063.02743.01476.04325zm-.09535-.03304c.00397.02699.01144.04798.02081.06324.0092.01498.02108.02569.03433.0293.00679.00185.01399.00181.02077-.0008.0068-.00263.01219-.00749.01589-.01359.00718-.01187.00786-.0279.00359-.04497l-.0291.00728c.00323.01294.00128.01978-.00016.02216-.00033.00054-.0006.00082-.00075.00095-.00014.00012-.00023.00016-.00028.00018-.00002.00001-.0006.00025-.00206-.00015-.00325-.00089-.00975-.0048-.01667-.01607-.00675-.01099-.01316-.02788-.01669-.05189zm.03624.14694c-.01117-.01961-.01999-.03539-.02297-.05597-.00295-.02039-.00029-.04712.01554-.0877l-.02794-.0109c-.01702.04359-.02122.07574-.01729.10289.0039.02696.01568.04737.02659.06653zm.02912.06612c-.00718-.02771-.01894-.04825-.02912-.06612l-.02607.01485c.0102.01791.02007.03536.02615.0588zm-.10963-.04516c.01451.04031.03993.06835.0622.08017.00566.003.01163.00523.01759.00607.00589.00083.01285.00041.01915-.00331.01426-.00842.01403-.02524.01066-.03787l-.02898.00773c.00263.00986-.00136.00692.00307.00431.00138-.00082.00189-.00034.00027-.00057-.00156-.00022-.00416-.00098-.00769-.00286-.01448-.00768-.03556-.02914-.04805-.06383zm.03932.17681c-.01049-.01947-.02135-.04002-.02578-.06729-.0044-.02709-.0026-.06198.01467-.10947l-.0282-.01025c-.01873.05151-.02143.09161-.01608.12453.00532.03272.01846.05718.02897.0767zm-.02821.11811c.01438 0 .02677-.00442.03562-.0138.00858-.00911.01203-.021.01273-.03255.00136-.02274-.00753-.04969-.02033-.07209l-.02604.01488c.0112.01961.01731.04065.01642.05541-.00043.0072-.00241.01143-.00461.01377-.00194.00205-.00567.00438-.01379.00438zm-.10417-.0909c.00864.01785.01944.04039.03514.05824.01621.01843.0383.03266.06903.03266v-.03c-.02004 0-.03446-.00878-.0465-.02247-.01253-.01425-.02168-.03293-.03067-.0515zm-.02183-.0351c.00001 0 .00001 0 .00011.00003.00011.00004.00045.00018.00102.00059.00123.00089.00302.00266.00531.0059.00473.00667.00943.01626.01539.02858l.027-.01307c-.00558-.01153-.01142-.02371-.01792-.03286-.00622-.00878-.01608-.01917-.03091-.01917zm.015.822v-.837h-.03v.837zm.92995-.015h-.94495v.03h.94495zm-3.15895.03h.888v-.03h-.888zm-.015-.12v.105h.03v-.105zm-.04241-.0778c.02251.02063.04241.03931.04241.0778h.03c0-.05256-.02944-.07911-.05214-.09991zm-.04159-.0722c0 .03502.02328.05542.04159.0722l.02027-.02211c-.01989-.01824-.03186-.03014-.03186-.05009zm.01398-.13944c-.00729.01274-.01142.02827-.0138.04346-.00241.01536-.00318.03138-.00318.04573 0 .01439.00078.02738.00155.03677.00039.0047.00078.00852.00107.01118.00015.00133.00027.00238.00036.00311.00005.00036.00008.00064.00011.00084.00001.0001.00002.00017.00003.00023 0 .00003 0 .00005.00001.00007v.00002.00001s0 0 .01487-.00198.01487-.00198.01487-.00198 0-.00001-.00001-.00003c0-.00003-.00001-.00008-.00002-.00015-.00001-.00015-.00004-.00038-.00008-.00068-.00008-.00062-.00019-.00155-.00032-.00276-.00027-.00242-.00063-.00596-.00099-.01035-.00073-.0088-.00145-.02094-.00145-.0343 0-.0134.00073-.02776.00282-.04108.00212-.01349.00549-.02497.0102-.03323zm.08802.05544c0 .01017-.00287.01747-.0061.02148-.00293.00363-.00581.00445-.00882.00389-.00384-.0007-.01107-.00433-.01985-.01674-.00865-.01222-.0178-.03163-.02577-.06061l-.02892.00796c.00853.03103.01888.05399.0302.06998.01119.01581.0244.02625.03893.02892.01537.00282.02879-.00367.03758-.01457.00849-.01053.01275-.02498.01275-.04031zm-.0812-.15747c.02924.04437.04969.07543.06293.10023.01315.02462.01827.04143.01827.05724h.03c0-.02293-.00765-.04487-.0218-.07137-.01406-.02632-.03545-.05875-.06435-.1026zm-.01533-.02328.01533.02328.02505-.0165-.01532-.02328zm.02164-.19439c-.0174.02262-.02911.06176-.03374.09799-.00236.01846-.003.03706-.00136.05354.00159.01604.00552.03197.01386.04343l.02426-.01764c-.00366-.00504-.00686-.01461-.00827-.02876-.00136-.0137-.00087-.02997.00127-.04677.00437-.03427.01516-.06713.02776-.0835zm.07789.12914c-.00658 0-.01149-.0018-.01575-.00518-.00456-.00362-.00921-.00976-.0137-.01972-.00912-.02028-.01567-.05203-.02168-.09708l-.02974.00396c.00599.04495.01294.0807.02407.10543.00564.01253.01279.02327.02239.0309.0099.00786.02149.01169.03441.01169zm.027-.045c0 .0209-.00425.03192-.00871.03751-.00396.00494-.0096.00749-.01829.00749v.03c.01531 0 .03067-.00495.04171-.01875.01053-.01317.01529-.03215.01529-.05625zm-.03058-.08433c.01702.028.03058.05077.03058.08433h.03c0-.0429-.01811-.07223-.03494-.09991zm-.0284-.05423c.00816.02099.01883.03848.0284.05423l.02564-.01558c-.0097-.01596-.01901-.03133-.02608-.04953zm.03628-.17495c-.04534.04614-.05953.11452-.0363.1749l.028-.01078c-.01901-.04939-.0074-.10534.0297-.1431zm.03209.05078c-.00184-.01255-.00394-.0268-.00659-.04273l-.0296.00493c.00261.01561.00466.0296.00651.04216zm-.00003-.0002v-.00001l-.02962.00478.00001.00002zm.02964.07093c-.00617 0-.00932-.00117-.01117-.00236-.00181-.00117-.00393-.00336-.00615-.00836-.00496-.01114-.00779-.02943-.01229-.06l-.02968.00437c.00419.02849.0075.05196.01456.06783.00378.0085.00914.01612.01732.02138.00814.00525.0175.00714.02741.00714zm-.02556-.14268c.01237.01987.03305.05327.04188.08429.00443.01554.00526.02847.00231.03808-.00262.0085-.00874.0162-.02337.02108l.00948.02846c.02276-.00758.03677-.02193.04256-.04071.00544-.01768.00296-.03726-.00213-.05512-.01018-.03578-.03331-.07274-.04527-.09194zm-.00521-.00845.00517.00839.02554-.01574-.00517-.00839zm.04277-.10987c-.01231-.00856-.01232-.00856-.01232-.00856v.00001c-.00001 0-.00001.00001-.00002.00002s-.00002.00003-.00004.00005c-.00003.00005-.00007.00011-.00013.00019-.0001.00016-.00026.00039-.00045.00067-.00039.00057-.00094.00139-.00162.00243-.00136.00209-.00326.00507-.00548.00873-.00441.00731-.01015.01749-.01534.02886-.00514.01127-.01.02428-.01228.03712-.00223.01259-.00234.02709.00451.03966l.02634-.01436c-.00215-.00393-.00301-.01042-.00131-.02006.00166-.00937.00543-.0198.01004-.02991.00456-.01.00969-.01913.01372-.0258.002-.00331.00371-.00598.0049-.0078.0006-.00091.00106-.00161.00137-.00206.00016-.00023.00027-.0004.00034-.0005.00004-.00006.00006-.00009.00008-.00011 0-.00001.00001-.00002.00001-.00002-.00001.00001-.00001.00001-.01232-.00856zm.05569.06363c-.0075.00225-.01088.00266-.01272.00246-.00049-.00005-.00136.00003-.00343-.00261-.00262-.00334-.00591-.00957-.0102-.0211-.00421-.01128-.00896-.0264-.01496-.04664l-.02876.00852c.006.02027.011.03627.01561.04861.00451.0121.0091.02199.01473.02915.00618.00787.01394.01282.02376.01389.00847.00093.01709-.00129.02459-.00354zm-.0183-.07702c.01939.01938.02922.03968.03096.05452.00086.00732-.00032.0124-.00214.01558-.00164.00286-.00445.00539-.00985.00674l.00728.0291c.0126-.00315.02254-.01037.02859-.02091.00586-.01023.00731-.02221.00592-.03402-.00276-.02341-.01693-.04961-.03954-.07223zm.006-.12022c-.01711.01712-.02733.03765-.02873.05914-.00141.02163.00623.04277.02219.06051l.0223-.02007c-.01104-.01227-.0154-.02562-.01456-.03849.00085-.01302.00713-.02699.02002-.03987zm.06466.02737c-.00056.00676-.00253.01003-.00371.01126-.00078.0008-.0016.00129-.00359.00101-.00569-.00082-.01906-.00863-.03348-.03601l-.02654.01397c.01558.02961.03521.0488.05577.05174.01114.00159.02175-.00186.0295-.00996.00736-.00768.01101-.01828.01195-.02952zm-.02381-.12808.024.132.02952-.00536-.024-.132zm.04776-.01768h-.033v.03h.033zm-.02689-.08321.012.1.02978-.00358-.012-.1zm.49189-.01679h-.477v.03h.477zm.00289.11679.012-.1-.02978-.00358-.012.1zm.02111-.01679h-.036v.03h.036zm-.01232.14707.027-.129-.02936-.00614-.027.129zm.0439-.02478c-.01376.02754-.02945.03486-.03683.03523-.00347.00017-.00502-.00099-.00571-.00182-.00075-.0009-.0022-.00352-.00124-.00923l-.0296-.00493c-.00204.01228.00026.02429.00776.03332.00756.00911.01876.0132.03029.01262.02262-.00113.04593-.01931.06217-.05177zm.03003.11632c.03409-.03409.02854-.08567-.006-.12022l-.02122.02122c.02546.02545.02591.05788.006.07778zm-.01897.07684c-.0054-.00135-.00821-.00388-.00985-.00674-.00182-.00318-.003-.00826-.00214-.01558.00174-.01484.01157-.03514.03096-.05452l-.02122-.02122c-.02261.02262-.03678.04882-.03954.07223-.00139.01181.00006.02379.00592.03402.00605.01054.01599.01776.02859.02091zm.04202-.06786c-.006.01951-.01075.03429-.01497.04547-.00431.0114-.00763.01786-.01039.0215-.00232.00306-.00344.00312-.00393.0032-.00162.00025-.00485.00004-.01206-.00213l-.00862.02874c.00779.00234.01656.00438.02526.00303.00981-.00151.01732-.00689.02325-.01471.00549-.00724.01004-.01708.01455-.02903.00459-.01216.00959-.02776.01559-.04725zm.05885.11023c.00875-.03327-.00014-.06266-.01052-.08301-.00522-.01022-.01094-.01843-.01536-.02411-.00223-.00285-.00415-.00509-.00555-.00666-.0007-.00078-.00128-.0014-.0017-.00184-.00021-.00023-.00038-.0004-.00051-.00054-.00006-.00006-.00012-.00012-.00016-.00016-.00003-.00003-.00005-.00005-.00006-.00006s-.00002-.00002-.00002-.00003c-.00001 0-.00001 0-.00001-.00001-.00001 0-.00001-.00001-.01062.0106s-.01061.0106-.01061.0106c-.00001 0-.00001 0-.00001-.00001-.00001 0-.00001 0-.00001-.00001-.00001 0-.00001-.00001-.00001-.00001s.00001.00001.00003.00003c.00004.00004.00011.00012.00023.00025.00023.00024.00061.00064.00111.0012.001.00112.00248.00284.00424.0051.00354.00454.00813.01114.01229.01929.00837.01641.01448.03801.00823.06174zm-.00618.0113.00446-.00729-.02558-.01566-.00447.00729zm-.02207.1445c-.01458-.00432-.02047-.01171-.02298-.02002-.0029-.00958-.00195-.02277.00267-.03872.00918-.03176.03027-.06612.04235-.08571l-.02553-.01575c-.01169.01895-.03513.05676-.04564.09313-.00524.0181-.00793.03797-.00257.05572.00574.01903.02001.03325.04318.04011zm.02534-.07133c-.00449.03056-.00732.04885-.01228.05999-.00222.005-.00434.00719-.00615.00836-.00185.00119-.005.00236-.01117.00236v.03c.00991 0 .01927-.00189.02741-.00714.00818-.00526.01354-.01288.01732-.02138.00706-.01587.01037-.03934.01456-.06783zm-.00002.00019-.00001.00002.02975.00393v-.00002zm.00007-.00046-.00001.00005.02962.00475.00001-.00005zm.00655-.04248c-.00265.01591-.00474.03014-.00658.04267l.02968.00437c.00184-.01255.0039-.02652.0065-.04211zm.05871.16707c.02408-.05974.0112-.12804-.033-.1749l-.02182.02058c.03616.03834.0467.09422.027.1431zm-.02927.05775c.01033-.01684.02194-.03565.02959-.05862l-.02846-.00948c-.00641.01923-.01619.03527-.0267.05241zm-.02964.08064c0-.03184.01326-.05394.02964-.08064l-.02557-.01569c-.01614.0263-.03407.05505-.03407.09633zm.03.045c-.00881 0-.0155-.00265-.02024-.00803-.00498-.00567-.00976-.01657-.00976-.03697h-.03c0 .0246.00572.0437.01724.05679.01176.01336.02757.01821.04276.01821zm.05112-.12192c-.00601.04657-.01256.07823-.02163.09805-.00444.00971-.00903.01552-.0135.01892-.0042.0032-.00917.00495-.01599.00495v.03c.01268 0 .02421-.0035.03417-.01108.00968-.00738.01691-.01788.02259-.0303.01118-.02443.01813-.06027.02412-.1067zm.04836.19024c.00801-.01201.01192-.0282.01351-.0447.00163-.01686.001-.03572-.00136-.05437-.00462-.03661-.01633-.07576-.03374-.09839l-.02378.01829c.01259.01636.02338.04921.02776.08386.00214.01697.00263.03355.00126.04772-.0014.01453-.00462.02496-.00861.03095zm-.02534.03723.02526-.03711-.0248-.01688-.02526.03712zm-.07414.14045c0-.01461.00491-.03025.01709-.05246.01227-.02238.03096-.04977.05704-.08797l-.02478-.01691c-.02573.03768-.04542.06649-.05856.09045-.01324.02414-.02079.045-.02079.06689zm.06045-.05164c-.00723.02891-.01601.04823-.02447.06036-.00856.01226-.01584.01592-.01989.01664-.00337.00061-.00663-.00038-.00975-.00411-.00339-.00403-.00634-.01126-.00634-.02125h-.03c0 .01551.00454.03003.01335.04053.00906.01081.02268.01713.03806.01436.0147-.00265.02805-.01306.03917-.02901.01123-.01609.0212-.03915.02897-.07024zm.02955.13564c.01487.00198.01487.00198.01487.00198v-.00001c0-.00001 0-.00001 0-.00002.00001-.00002.00001-.00004.00001-.00007.00001-.00006.00002-.00014.00003-.00024.00003-.0002.00006-.00049.00011-.00085.00009-.00073.00021-.00178.00036-.00312.00029-.00268.00066-.00651.00103-.01123.00073-.00942.00141-.02245.00121-.03689-.00037-.02789-.004-.06477-.02-.08966l-.02524.01622c.011.01711.01487.04623.01525.07384.00018.01331-.00045.0254-.00113.03418-.00034.00437-.00069.0079-.00095.01031-.00013.0012-.00024.00212-.00031.00273-.00004.00031-.00007.00053-.00009.00067 0 .00008-.00001.00013-.00002.00016v.00002.00001-.00001s0 0 .01487.00198zm-.02597.07258c.0182-.01703.04097-.03744.04097-.07258h-.03c0 .02034-.01185.03232-.03147.05068zm-.04304.07796c.00138-.03859.02119-.05751.04304-.07796l-.0205-.0219c-.02214.02072-.05067.04704-.05252.09879zm.00001.10446v-.105h-.03v.105zm-3.186-.84v.84h.03v-.84zm.06389.03819c-.00558-.01181-.01141-.02424-.01788-.03358-.00615-.00888-.01602-.01961-.03101-.01961v.03s0 0-.00001 0-.00002 0-.00003 0c-.00002-.00001-.00001-.00001.00004.00001.0001.00004.00042.00017.00099.00059.00125.00092.00304.00275.00536.00609.00475.00686.00946.01672.01542.02932zm.07711.07581c-.0199 0-.0343-.00892-.04638-.02299-.01257-.01464-.02174-.03381-.03073-.05282l-.02712.01282c.00864.01828.01942.0413.03509.05955.01615.0188.03827.03344.06914.03344zm.00238-.07289c.01237.01925.01832.03999.01717.05445-.00056.00702-.00267.01134-.00512.01383-.00223.00227-.00631.00461-.01443.00461v.03c.01438 0 .0268-.00441.03582-.01357.0088-.00895.01269-.02076.01363-.03248.00185-.02305-.00721-.05031-.02183-.07306zm-.01348-.20223c-.01873.05151-.02143.09161-.01608.12453.00532.03272.01846.05718.02897.0767l.02642-.01422c-.01049-.01947-.02135-.04002-.02578-.06729-.0044-.02709-.0026-.06198.01467-.10947zm.08061.06299c.00263.00987-.00136.00692.00307.00431.00138-.00082.00189-.00034.00027-.00057-.00156-.00022-.00416-.00098-.00769-.00286-.01448-.00768-.03556-.02914-.04805-.06383l-.02822.01016c.01451.04031.03993.06835.0622.08017.00566.003.01163.00523.01759.00607.00589.00083.01285.00041.01915-.00331.01426-.00842.01403-.02524.01066-.03787zm-.02618-.0589c.0102.01791.02007.03536.02615.0588l.02904-.00753c-.00718-.02771-.01894-.04825-.02912-.06612zm-.0093-.16942c-.01702.04359-.02122.07574-.01729.10289.0039.02696.01568.04737.02659.06653l.02607-.01485c-.01117-.01961-.01999-.03539-.02297-.05597-.00295-.02039-.00029-.04712.01554-.0877zm.06542.04809c.00323.01294.00128.01978-.00016.02216-.00033.00054-.0006.00082-.00075.00095-.00014.00012-.00023.00016-.00028.00018-.00002.00001-.0006.00025-.00206-.00015-.00325-.00089-.00975-.0048-.01667-.01607-.00675-.01099-.01316-.02788-.01669-.05189l-.02968.00436c.00397.02699.01144.04798.02081.06324.0092.01498.02108.02569.03433.0293.00679.00185.01399.00181.02077-.0008.0068-.00263.01219-.00749.01589-.01359.00718-.01187.00786-.0279.00359-.04497zm-.01472-.0431c.00532.01372.01063.02743.01476.04325l.02902-.00757c-.00462-.01771-.01053-.03292-.01581-.04653zm.00685-.16225c-.01894.0379-.02557.06731-.02454.09364.00102.02599.00954.04761.01769.06861l.02797-.01085c-.00838-.02158-.01489-.03869-.01568-.05893-.00078-.01991.004-.04427.0214-.07905zm.05842.04271c0 .01646-.00202.02749-.00445.03338-.00123.00299-.00199.00325-.0013.00273.00142-.00104.00374-.00145.00548-.00088.00086.00027-.00005.00026-.00241-.00254-.00222-.00262-.00499-.00685-.0081-.01317-.00622-.01261-.01304-.03189-.01965-.05906l-.02915.00709c.0069.02832.01433.04992.02189.06524.00378.00766.00779.01416.01207.01925.00415.00491.00947.00958.01614.01174.00756.00243.01526.00109.0215-.00349.00551-.00405.00899-.00994.01127-.01548.00461-.01118.00671-.02676.00671-.04481zm.13656-.26333c-.06763.02094-.10266.06122-.11996.11021-.01676.04751-.0166.10276-.0166.15312h.03c0-.05164.00016-.10139.01489-.14313.01421-.04026.04218-.07347.10055-.09154zm.06144-.09067c-.01731 0-.03066.00832-.04031.01903-.0094.01044-.01583.02369-.02027.03581-.0045.01227-.00732.02438-.009.03331-.00085.0045-.00143.00826-.0018.01093-.00018.00134-.00032.0024-.0004.00316-.00005.00037-.00008.00067-.00011.00088-.00001.00011-.00002.0002-.00002.00026-.00001.00003-.00001.00006-.00001.00008v.00003.00001c-.00001 0-.00001.00001.01492.0015s.01493.0015.01492.0015v.00001s0-.00001.00001-.00002c0-.00002 0-.00006.00001-.00013.00001-.00012.00004-.00033.00007-.00061.00007-.00057.00017-.00144.00033-.00256.00031-.00226.00081-.00553.00156-.00947.0015-.00794.00393-.01833.00768-.02855.00381-.01039.00863-.01964.01441-.02607.00555-.00616.01132-.0091.01801-.0091zm.054.105c.01493-.00149.01492-.00149.01492-.0015v-.00001c0-.00001 0-.00002 0-.00003 0-.00002 0-.00004-.00001-.00007 0-.00007-.00001-.00015-.00002-.00026-.00003-.00021-.00006-.0005-.0001-.00088-.00009-.00074-.00022-.0018-.0004-.00313-.00036-.00266-.00092-.00641-.00175-.01089-.00163-.0089-.00433-.02096-.00861-.03318-.00422-.01206-.01031-.02526-.01918-.0357-.00907-.01067-.02192-.01935-.03885-.01935v.03c.00557 0 .01072.00258.01599.00878.00547.00643.01007.01573.01373.02618.00359.01027.00595.02071.00742.02868.00072.00396.00121.00725.00152.00951.00016.00113.00026.00201.00033.00258.00003.00029.00006.0005.00007.00062.00001.00007.00001.00011.00001.00014 0 .00001.00001.00002.00001.00002s0 0 0-.00001h-.00001s0-.00001.01493-.0015zm.141.24241c.00003-.04801.00024-.10187-.01656-.14848-.01733-.04808-.05244-.08783-.1201-.10829l-.00868.02872c.05847.01768.0864.05048.10056.08975.01468.04074.01482.08901.01478.13828zm0 .0066v-.0066l-.03-.00002v.00661zm.03042-.03955c-.0066.02717-.01342.04645-.01964.05906-.00311.00632-.00588.01055-.0081.01317-.00236.0028-.00327.00281-.00241.00254.00174-.00057.00406-.00016.00548.00088.00069.00052-.00007.00026-.0013-.00273-.00243-.00589-.00445-.01692-.00445-.03338h-.03c0 .01805.0021.03363.00671.04481.00228.00554.00576.01143.01127.01548.00624.00458.01394.00592.0215.00349.00667-.00216.01199-.00683.01614-.01174.00428-.00509.00829-.01159.01207-.01925.00756-.01532.01499-.03692.02188-.06524zm.03485.15908c.00815-.021.01667-.04262.01769-.06861.00103-.02633-.0056-.05574-.02454-.09364l-.02684.01342c.0174.03478.02218.05914.0214.07905-.00079.02024-.0073.03735-.01568.05893zm-.01476.04325c.00413-.01582.00944-.02953.01476-.04325l-.02797-.01085c-.00528.01361-.0112.02882-.01581.04653zm.03665-.04497c-.00353.02401-.00994.0409-.01669.05189-.00692.01127-.01342.01518-.01667.01607-.00146.0004-.00204.00016-.00206.00015-.00005-.00002-.00014-.00006-.00028-.00018-.00015-.00013-.00042-.00041-.00075-.00095-.00144-.00238-.00339-.00922-.00016-.02216l-.0291-.00728c-.00427.01707-.00359.0331.00359.04497.0037.0061.00909.01096.01589.01359.00678.00261.01398.00265.02077.0008.01325-.00361.02513-.01432.03433-.0293.00937-.01526.01684-.03625.02081-.06324zm.01951.16615c.01091-.01916.02269-.03957.02659-.06653.00393-.02715-.00028-.0593-.01729-.10289l-.02794.0109c.01583.04058.01849.06731.01554.0877-.00298.02058-.0118.03636-.02297.05597zm-.02615.0588c.00608-.02344.01595-.04089.02615-.0588l-.02607-.01485c-.01018.01787-.02194.03841-.02912.06612zm.05237-.06285c-.01249.03469-.03357.05615-.04805.06383-.00353.00188-.00613.00264-.00769.00286-.00162.00023-.00111-.00025.00027.00057.00442.00261.00044.00556.00307-.00431l-.02898-.00773c-.00337.01263-.00361.02945.01066.03787.0063.00372.01326.00414.01915.00331.00596-.00084.01193-.00307.01759-.00607.02227-.01182.04769-.03986.0622-.08017zm.01532.20119c.01051-.01952.02365-.04398.02897-.0767.00535-.03292.00265-.07302-.01608-.12453l-.0282.01025c.01727.04749.01907.08238.01467.10947-.00443.02727-.01529.04782-.02578.06729zm.00179.07389c-.00812 0-.01185-.00233-.01379-.00438-.0022-.00234-.00418-.00657-.00461-.01377-.00089-.01476.00522-.0358.01642-.05541l-.02604-.01488c-.0128.0224-.02169.04935-.02033.07209.00069.01155.00415.02344.01273.03255.00885.00938.02124.0138.03562.0138zm.07717-.07397c-.00899.01857-.01814.03725-.03067.0515-.01204.01369-.02647.02247-.0465.02247v.03c.03073 0 .05282-.01423.06903-.03266.0157-.01785.0265-.04039.03514-.05824zm.04883-.05203c-.01483 0-.02469.01039-.03091.01917-.0065.00915-.01234.02133-.01792.03286l.027.01307c.00596-.01232.01066-.02191.01539-.02858.00229-.00324.00408-.00501.00531-.0059.00057-.00041.00091-.00055.00102-.00059.0001-.00003.0001-.00003.00011-.00003zm.015.852v-.837h-.03v.837zm-.96.015h.945v-.03h-.945zm2.71138-1.58299c-.02291.00096-.04.0117-.05212.02641-.01176.01429-.01886.03226-.02326.04886-.00444.01677-.00642.03323-.0073.04537-.00045.0061-.00062.0112-.00069.0148-.00003.0018-.00003.00324-.00003.00424.00001.00051.00001.0009.00002.00118v.00034.0001.00003.00002s0 .00001.015-.00036c.015-.00036.015-.00036.015-.00036v.00001c0-.00001 0-.00002 0-.00003-.00001-.00004-.00001-.0001-.00001-.0002 0-.00018 0-.00047-.00001-.00087 0-.0008 0-.00201.00003-.00358.00005-.00313.00021-.00767.00061-.01314.0008-.01102.00257-.0255.00638-.03986.00385-.01452.0095-.02786.01742-.03748.00757-.00919.01711-.01496.0302-.0155zm.06662.14099c.015.00036.015.00035.015.00035v-.00001c0-.00001 0-.00002 0-.00004s0-.00006 0-.0001c0-.00008 0-.00019 0-.00034.00001-.00028.00001-.00068.00002-.00119 0-.00102 0-.00248-.00003-.00431-.00005-.00367-.00022-.00885-.00063-.01506-.00084-.01233-.00271-.02903-.00693-.04594-.00418-.0167-.01095-.03481-.02228-.04902-.01173-.01471-.02854-.02534-.05115-.02534v.03c.01189 0 .02058.00513.02769.01404.00751.00942.01293.02281.01663.0376.00365.01459.00534.02939.0061.04068.00038.00561.00053.01027.00058.0135.00002.00161.00002.00286.00002.00368-.00001.00042-.00001.00072-.00001.00092 0 .00009 0 .00016-.00001.0002v.00003c0 .00001 0 .00001 0 0s0-.00001.015.00035zm-.135.015h.135v-.03h-.135z"/></g></g></svg>