<svg fill="none" height="12" viewBox="0 0 16 12" width="16" xmlns="http://www.w3.org/2000/svg" xmlns:xlink="http://www.w3.org/1999/xlink"><clipPath id="a"><path d="m0 0h16v12h-16z"/></clipPath><mask id="b" height="12" maskUnits="userSpaceOnUse" width="16" x="0" y="0"><path clip-rule="evenodd" d="m0 0v12h16v-12z" fill="#fff" fill-rule="evenodd"/></mask><mask id="c" height="6" maskUnits="userSpaceOnUse" width="18" x="-1" y="6"><path clip-rule="evenodd" d="m-.396066 6.96005 1.307423-.53059c.190573-.07735.403963-.0764.593843.00262l1.81538.75547c.2054.08548.4375.07931.63807-.01694l1.4643-.70273c.21002-.10079.45407-.10258.66555-.00488l1.53372.70853c.20662.09546.4446.09604.65169.0016l1.56937-.71568c.20702-.09441.44492-.09386.65152.00151l1.5494.7153c.2034.09387.4372.09594.6422.00568l1.693-.74549c.1833-.08071.3906-.08793.5791-.02016l1.5179.54576v5.00685h-16.916952z" fill="#fff" fill-rule="evenodd"/></mask><g clip-path="url(#a)"><path d="m0 0h16v12h-16z" fill="#fff"/><path clip-rule="evenodd" d="m0 0v12h16v-12z" fill="#e31d1c" fill-rule="evenodd"/><g mask="url(#b)"><path clip-rule="evenodd" d="m7.66165 8.58849.2289-.49639.22891.49639.13587-.52895.31459.44787.03846-.54451.39016.38495-.06017-.54257.45318.30966-.15688-.52319.50165.22443-.24855-.487.53403.13197-.33226-.43515.54916.03528-.40521-.36933.54671-.06254-.46522-.29162.52662-.15836-.51018-.20455.48968-.24909-.53885-.1109.43695-.33181-.55013-.01368.37023-.40387-.54378.08397.29156-.46295-.51991.17893.20353-.50714-.47935.26812.10897-.53503-.42338.34871.0109-.54574-.35379.4181-.08752-.5389-.27285.47403-.18313-.51474-.18312.51474-.27285-.47403-.08752.5389-.35379-.4181.0109.54574-.42338-.34871.10897.53503-.47935-.26812.20353.50714-.51991-.17893.29156.46295-.54377-.08397.37021.40387-.55014.01368.43697.33181-.53884.1109.48967.24909-.51021.20455.52664.15836-.46519.29162.54669.06254-.40522.36933.54917-.03528-.33222.43515.53399-.13197-.24855.487.50165-.22443-.15688.52319.45318-.30966-.06017.54257.39015-.38495.03847.54451.31459-.44787z" fill="#ffc84a" fill-rule="evenodd"/><path clip-rule="evenodd" d="m-.396066 6.96005 1.307423-.53059c.190573-.07735.403963-.0764.593843.00262l1.81538.75547c.2054.08548.4375.07931.63807-.01694l1.4643-.70273c.21002-.10079.45407-.10258.66555-.00488l1.53372.70853c.20662.09546.4446.09604.65169.0016l1.56937-.71568c.20702-.09441.44492-.09386.65152.00151l1.5494.7153c.2034.09387.4372.09594.6422.00568l1.693-.74549c.1833-.08071.3906-.08793.5791-.02016l1.5179.54576v5.00685h-16.916952z" fill="#f7fcff" fill-rule="evenodd"/><g mask="url(#c)"><path d="m-.396118 8.12287 1.307423-.5306c.190575-.07734.403965-.0764.593845.00262l1.81538.75548c.2054.08547.4375.07931.63807-.01695l1.4643-.70272c.21002-.10079.45407-.10258.66555-.00489l1.53372.70854c.20662.09545.4446.09604.65169.0016l1.56937-.71569c.20707-.0944.44487-.09385.65147.00152l1.5495.71529c.2033.09388.4372.09595.6421.00569l1.6931-.74549c.1833-.08071.3906-.08793.5791-.02017l1.5179.54577" stroke="#015989"/><path d="m-.396118 9.78734 1.307423-.53059c.190575-.07735.403965-.0764.593845.00262l1.81538.75543c.2054.0855.4375.0794.63807-.0169l1.4643-.70273c.21002-.10079.45407-.10258.66555-.00488l1.53372.70853c.20662.09548.4446.09608.65169.00158l1.56937-.71566c.20707-.09441.44487-.09386.65147.00151l1.5495.71525c.2033.0939.4372.096.6421.0057l1.6931-.74546c.1833-.08071.3906-.08793.5791-.02016l1.5179.54576" stroke="#015989"/><path clip-rule="evenodd" d="m-.396118 11.1137.545832-.2216c.678502-.2753 1.438226-.272 2.114276.0094l1.05654.4396c.2054.0855.4375.0794.63807-.0169l.61525-.2953c.74774-.3588 1.61661-.3652 2.36953-.0173l.67879.3135c.20662.0955.4446.0961.65169.0016l.73446-.3349c.73706-.3361 1.58408-.3342 2.31958.0054l.7163.3307c.2033.0938.4372.0959.6421.0056l.9621-.4236c.6526-.2873 1.3907-.313 2.0617-.0718l.7663.2756v1.6574h-16.78071z" fill="#015989" fill-rule="evenodd"/></g><path clip-rule="evenodd" d="m4.80066 1.19903s.71235.14248.94666.14248c.2343 0 .7629-.358259 1.06864-.23884.30574.11942.8938.68416.8938.68416s.83291-.62473 1.33974-.62473c.50684 0 1.4374.06789 1.4374.06789s-.2145.55674-.81773.65104c-.60328.09431-1.32505.55617-1.32505.55617h.98051c.14948 0 .64413.27647.64413.27647s-.702.22235-.90287.22235c-.20086 0-.42275 0-.42275 0s-.42708.36648-.95468.28851c-.5276-.07798-.89669-.41644-.89669-.41644s-.7447-.0489-.7447-.12852c0 0-.28444-.14578-.37006 0s.37006-.19522.37006-.19522.41156-.33413.55101-.33413c.13946 0 .60516.28698.60516.28698l.1112-.11561-.5769-.44056c-1.17671.12329-1.93688-.682-1.93688-.682z" fill="#ffc84a" fill-rule="evenodd"/></g></g></svg>