<svg fill="none" height="12" viewBox="0 0 16 12" width="16" xmlns="http://www.w3.org/2000/svg" xmlns:xlink="http://www.w3.org/1999/xlink"><clipPath id="a"><path d="m0 0h16v12h-16z"/></clipPath><mask id="b" height="12" maskUnits="userSpaceOnUse" width="16" x="0" y="0"><path clip-rule="evenodd" d="m0 0v12h16v-12z" fill="#fff" fill-rule="evenodd"/></mask><g clip-path="url(#a)"><path d="m0 0h16v12h-16z" fill="#fff"/><g clip-rule="evenodd" fill-rule="evenodd"><path d="m0 0v12h16v-12z" fill="#5196ed"/><g mask="url(#b)"><path d="m0 6v3h16v-3z" fill="#af0100"/><path d="m0 3v3h16v-3z" fill="#f7fcff"/><path d="m0 0v3h16v-3z" fill="#fbcd17"/><path d="m0 0 8 6-8 6z" fill="#5eaa22"/><path d="m3.15236 8.7279s-1.79168-.66716-1.7283-2.7556c.06337-2.08844 1.88771-2.49766 1.88771-2.49766-.63891-.50334-2.92508.08649-2.998244 2.49766s2.157594 2.94685 2.838834 2.7556zm.09502-3.58519.06736-.39271-.28532-.27811.3943-.0573.17633-.35729.17634.35729.3943.0573-.28532.27811.06736.39271-.35268-.18541zm.06736.60729-.06736.39271.35267-.18541.35268.18541-.06736-.39271.28532-.27811-.3943-.0573-.17634-.35729-.17633.35729-.3943.0573zm-.06736 1.39271.06736-.39271-.28532-.27811.3943-.0573.17633-.35729.17634.35729.3943.0573-.28532.27811.06736.39271-.35268-.18541zm0 1 .06736-.39271-.28532-.27811.3943-.0573.17633-.35729.17634.35729.3943.0573-.28532.27811.06736.39271-.35268-.18541z" fill="#f7fcff"/></g></g></g></svg>