<svg fill="none" height="12" viewBox="0 0 16 12" width="16" xmlns="http://www.w3.org/2000/svg" xmlns:xlink="http://www.w3.org/1999/xlink"><clipPath id="a"><path d="m0 0h16v12h-16z"/></clipPath><mask id="b" height="12" maskUnits="userSpaceOnUse" width="16" x="0" y="0"><path clip-rule="evenodd" d="m0 0v12h16v-12z" fill="#fff" fill-rule="evenodd"/></mask><g clip-path="url(#a)"><path d="m0 0h16v12h-16z" fill="#fff"/><path clip-rule="evenodd" d="m0 0v12h16v-12z" fill="#3d58db" fill-rule="evenodd"/><g mask="url(#b)"><path d="m0 2.5h-.5v.5 6 .5h.5 16 .5v-.5-6-.5h-.5z" fill="#c51918" stroke="#f7fcff"/><g clip-rule="evenodd" fill-rule="evenodd"><path d="m5 8.5c1.38071 0 2.5-1.11929 2.5-2.5s-1.11929-2.5-2.5-2.5-2.5 1.11929-2.5 2.5 1.11929 2.5 2.5 2.5z" fill="#f7fcff"/><path d="m4.99754 6.9349-1.35816.9451.47914-1.58374-1.31853-.99965 1.65429-.03371.54326-1.5629.54327 1.5629 1.65429.03371-1.31853.99965.47914 1.58374z" fill="#c51918"/></g></g></g></svg>