<svg fill="none" height="12" viewBox="0 0 16 12" width="16" xmlns="http://www.w3.org/2000/svg" xmlns:xlink="http://www.w3.org/1999/xlink"><clipPath id="a"><path d="m0 0h16v12h-16z"/></clipPath><mask id="b" height="12" maskUnits="userSpaceOnUse" width="16" x="0" y="0"><path clip-rule="evenodd" d="m0 0v12h16v-12z" fill="#fff" fill-rule="evenodd"/></mask><mask id="c" height="8" maskUnits="userSpaceOnUse" width="7" x="4" y="2"><path clip-rule="evenodd" d="m7.8933 9.28571c1.70812 0 3.0928-1.41802 3.0928-3.16725 0-1.74922-1.38468-3.16724-3.0928-3.16724s-3.09282 1.41802-3.09282 3.16724c0 1.74923 1.3847 3.16725 3.09282 3.16725z" fill="#fff" fill-rule="evenodd"/></mask><g clip-path="url(#a)"><path d="m0 0h16v12h-16z" fill="#fff"/><path clip-rule="evenodd" d="m0 0v12h16v-12z" fill="#f7fcff" fill-rule="evenodd"/><g mask="url(#b)"><path clip-rule="evenodd" d="m7.8933 9.28571c1.70812 0 3.0928-1.41802 3.0928-3.16725 0-1.74922-1.38468-3.16724-3.0928-3.16724s-3.09282 1.41802-3.09282 3.16724c0 1.74923 1.3847 3.16725 3.09282 3.16725z" fill="#3d58db" fill-rule="evenodd"/><g mask="url(#c)"><path clip-rule="evenodd" d="m11.0943 6.36108s-.1736-1.49346-1.45928-1.57453c-1.28569-.08107-1.63236 1.09522-1.70655 1.40686s-.26197 1.14299-1.61565 1.14299-1.47578-2.11394-1.47578-2.11394v-2.49266h6.25726z" fill="#e31d1c" fill-rule="evenodd"/></g><g fill="#272727"><path clip-rule="evenodd" d="m3.64967 1.02608.45748.41377-2.12013 2.47595-.45748-.41376zm.75449.66958.45749.41377-2.04414 2.44008-.45748-.41376zm1.20852 1.0916-.45748-.41377-2.04981 2.4586.45748.41377z" fill-rule="evenodd"/><path d="m4.10715 1.43985.05697.04878.04747-.05544-.05413-.04897zm-.45748-.41377.05031-.055619-.05716-.051692-.05012.058535zm-1.66265 2.88972-.05031.05562.05716.0517.05012-.05854zm-.45748-.41376-.05697-.04878-.04747.05544.05413.04896zm3.33211-1.39261.05749.04816.04637-.05535-.05356-.04844zm-.45749-.41377.05031-.05562-.05777-.05225-.05003.05971zm-1.58665 2.85385-.0503.05562.05777.05226.05003-.05972zm-.45748-.41376-.05749-.04817-.04637.05536.05356.04843zm2.79517-1.76226.05031-.05562-.05791-.05238-.05.05998zm.45748.41377.05761.04802.04613-.05533-.05343-.04832zm-2.50729 2.04483-.0576-.04802-.04613.05533.05342.04832zm.45748.41377-.05031.05562.05792.05238.05-.05998zm.59459-3.86164-.45748-.413759-.10062.111249.45748.41376zm-2.11347 2.58036 2.12013-2.47595-.11394-.09756-2.12013 2.47595zm-.56476-.40692.45748.41376.10062-.11124-.45748-.41377zm2.11347-2.580356-2.12013 2.475956.11394.09756 2.12013-2.47595zm1.31925 1.076496-.45748-.41376-.10061.11125.45748.41376zm-2.03694 2.54387 2.04413-2.44008-.11499-.09633-2.04413 2.44009zm-.56528-.4063.45748.41376.10061-.11124-.45748-.41377zm2.03694-2.54387-2.04413 2.44008.11499.09633 2.04413-2.44008zm.75823.78162.45748.41376.10061-.11125-.45748-.41376zm-1.9419 2.451 2.04981-2.4586-.11521-.09605-2.04981 2.4586zm.45018.31011-.45748-.41376-.10062.11125.45748.41376zm1.9419-2.451-2.04981 2.4586.11521.09605 2.04981-2.4586z"/><path clip-rule="evenodd" d="m12.2925 1.02608-.4575.41377 2.1202 2.47595.4575-.41376zm-.7545.66958-.4574.41377 2.0441 2.44008.4575-.41376zm-1.2085 1.0916.4575-.41377 2.0498 2.4586-.4575.41377z" fill-rule="evenodd"/><path d="m11.835 1.43985-.0569.04878-.0475-.05544.0541-.04897zm.4575-.41377-.0503-.055619.0572-.051692.0501.058535zm1.6627 2.88972.0503.05562-.0572.0517-.0501-.05854zm.4575-.41376.0569-.04878.0475.05544-.0541.04896zm-3.3321-1.39261-.0575.04816-.0464-.05535.0535-.04844zm.4574-.41377-.0503-.05562.0578-.05225.05.05971zm1.5867 2.85385.0503.05562-.0578.05226-.05-.05972zm.4575-.41376.0575-.04817.0463.05536-.0535.04843zm-2.7952-1.76226-.0503-.05562.0579-.05238.05.05998zm-.4575.41377-.0576.04802-.0461-.05533.0534-.04832zm2.5073 2.04483.0576-.04802.0461.05533-.0534.04832zm-.4575.41377.0503.05562-.0579.05238-.05-.05998zm-.5946-3.86164.4575-.413759.1006.111249-.4574.41376zm2.1135 2.58036-2.1201-2.47595.1139-.09756 2.1201 2.47595zm.5648-.40692-.4575.41376-.1006-.11124.4575-.41377zm-2.1135-2.580356 2.1201 2.475956-.1139.09756-2.1201-2.47595zm-1.3193 1.076496.4575-.41376.1006.11125-.4574.41376zm2.037 2.54387-2.0441-2.44008.1149-.09633 2.0442 2.44009zm.5653-.4063-.4575.41376-.1006-.11124.4575-.41377zm-2.037-2.54387 2.0442 2.44008-.115.09633-2.0442-2.44008zm-.7582.78162-.4575.41376-.1006-.11125.4575-.41376zm1.9419 2.451-2.0498-2.4586.1152-.09605 2.0498 2.4586zm-.4502.31011.4575-.41376.1006.11125-.4575.41376zm-1.9419-2.451 2.0498 2.4586-.1152.09605-2.0498-2.4586z"/><path clip-rule="evenodd" d="m3.64967 11.2459.45748-.4138-2.12013-2.47596-.45748.41377zm.75449-.6696.45749-.4138-2.04414-2.44007-.45748.41377zm1.20852-1.09161-.45748.41376-2.04981-2.4586.45748-.41376z" fill-rule="evenodd"/><path d="m4.10715 10.8321.05697-.0488.04747.0555-.05413.0489zm-.45748.4138.05031.0556-.05716.0517-.05012-.0586zm-1.66265-2.88976-.05031-.05562.05716-.05169.05012.05853zm-.45748.41377-.05697.04878-.04747-.05545.05413-.04896zm3.33211 1.39259.05749-.0481.04637.0553-.05356.0484zm-.45749.4138.05031.0556-.05777.0523-.05003-.0598zm-1.58665-2.85387-.0503-.05562.05777-.05226.05003.05972zm-.45748.41377-.05749.04816-.04637-.05535.05356-.04844zm2.79517 1.76225.05031.05562-.05791.05243-.05-.06002zm.45748-.41376.05761-.04803.04613.05533-.05343.04832zm-2.50729-2.04484-.0576.04803-.04613-.05533.05342-.04832zm.45748-.41376-.05031-.05563.05792-.05238.05.05998zm.59459 3.86161-.45748.4138-.10062-.1113.45748-.4137zm-2.11347-2.58034 2.12013 2.47594-.11394.0976-2.12013-2.47598zm-.56476.40692.45748-.41376.10062.11125-.45748.41376zm2.11347 2.58032-2.12013-2.47591.11394-.09757 2.12013 2.47598zm1.31925-1.0765-.45748.4138-.10061-.1112.45748-.4138zm-2.03694-2.54383 2.04413 2.44013-.11499.0963-2.04413-2.4401zm-.56528.4063.45748-.41376.10061.11125-.45748.41376zm2.03694 2.54383-2.04413-2.44004.11499-.09633 2.04413 2.44007zm.75823-.78157.45748-.41377.10061.11125-.45748.41376zm-1.9419-2.45101 2.04981 2.4586-.11521.09606-2.04981-2.4586zm.45018-.31011-.45748.41376-.10062-.11124.45748-.41377zm1.9419 2.451-2.04981-2.4586.11521-.09605 2.04981 2.4586z"/><path clip-rule="evenodd" d="m12.2925 11.2459-.4575-.4138 2.1202-2.47596.4575.41377zm-.7545-.6696-.4574-.4138 2.0441-2.44007.4575.41377zm-1.2085-1.09161.4575.41376 2.0498-2.4586-.4575-.41376z" fill-rule="evenodd"/><path d="m11.835 10.8321-.0569-.0488-.0475.0555.0541.0489zm.4575.4138-.0503.0556.0572.0517.0501-.0586zm1.6627-2.88976.0503-.05562-.0572-.05169-.0501.05853zm.4575.41377.0569.04878.0475-.05545-.0541-.04896zm-3.3321 1.39259-.0575-.0481-.0464.0553.0535.0484zm.4574.4138-.0503.0556.0578.0523.05-.0598zm1.5867-2.85387.0503-.05562-.0578-.05226-.05.05972zm.4575.41377.0575.04816.0463-.05535-.0535-.04844zm-2.7952 1.76225-.0503.05562.0579.05243.05-.06002zm-.4575-.41376-.0576-.04803-.0461.05533.0534.04832zm2.5073-2.04484.0576.04803.0461-.05533-.0534-.04832zm-.4575-.41376.0503-.05563-.0579-.05238-.05.05998zm-.5946 3.86161.4575.4138.1006-.1113-.4574-.4137zm2.1135-2.58034-2.1201 2.47594.1139.0976 2.1201-2.47598zm.5648.40692-.4575-.41376-.1006.11125.4575.41376zm-2.1135 2.58032 2.1201-2.47591-.1139-.09757-2.1201 2.47598zm-1.3193-1.0765.4575.4138.1006-.1112-.4574-.4138zm2.037-2.54383-2.0441 2.44013.1149.0963 2.0442-2.4401zm.5653.4063-.4575-.41376-.1006.11125.4575.41376zm-2.037 2.54383 2.0442-2.44004-.115-.09633-2.0442 2.44007zm-.7582-.78157-.4575-.41377-.1006.11125.4575.41376zm1.9419-2.45101-2.0498 2.4586.1152.09606 2.0498-2.4586zm-.4502-.31011.4575.41376.1006-.11124-.4575-.41377zm-1.9419 2.451 2.0498-2.4586-.1152-.09605-2.0498 2.4586z"/></g></g></g></svg>