<svg fill="none" height="12" viewBox="0 0 16 12" width="16" xmlns="http://www.w3.org/2000/svg" xmlns:xlink="http://www.w3.org/1999/xlink"><clipPath id="a"><path d="m0 0h16v12h-16z"/></clipPath><clipPath id="b"><path d="m0 0h16v12h-16z"/></clipPath><clipPath id="c"><path d="m11.2843 6.35638h4v4h-4z"/></clipPath><clipPath id="d"><path d="m0 0h9v7h-9z"/></clipPath><mask id="e" height="5" maskUnits="userSpaceOnUse" width="4" x="11" y="6"><path d="m11.2874 6.23138h-.125v.125 1.48878c0 .98573.4129 1.64449.8351 2.0551.2102.20444.4222.34714.5861.43894.0819.046.1524.0796.2054.102.0264.0112.0492.0199.0674.0261.009.0031.018.0059.0264.0081l.0005.0001c.0047.0013.0219.0059.041.0059.0197 0 .0368-.0047.042-.0061l.0004-.0001c.0086-.0024.0177-.0053.0266-.0085.0179-.0064.0399-.0153.065-.0266.0505-.0227.1169-.0566.1938-.1027.1537-.0924.3514-.2356.547-.44042.3929-.41152.7741-1.06934.7741-2.05182v-.00206-.00207-.00208-.00209-.0021-.0021-.00211-.00212-.00213-.00214-.00214-.00215-.00216-.00217-.00218-.00218-.00219-.0022-.00221-.00221-.00222-.00223-.00224-.00224-.00226-.00226-.00226-.00228-.00228-.00229-.0023-.0023-.00231-.00232-.00233-.00233-.00234-.00235-.00236-.00236-.00237-.00237-.00239-.00239-.0024-.0024-.00241-.00242-.00243-.00243-.00244-.00244-.00245-.00246-.00247-.00247-.00248-.00249-.00249-.0025-.0025-.00251-.00252-.00253-.00253-.00253-.00255-.00255-.00255-.00257-.00257-.00257-.00258-.00259-.00259-.0026-.00261-.00261-.00262-.00262-.00263-.00264-.00264-.00264-.00266-.00266-.00266-.00267-.00268-.00268-.00268-.0027-.0027-.0027-.00271-.00271-.00273-.00272-.00273-.00274-.00274-.00275-.00275-.00276-.00276-.00277-.00278-.00277-.00279-.00279-.00279-.0028-.00281-.0028-.00282-.00282-.00282-.00283-.00283-.00284-.00285-.00284-.00286-.00285-.00287-.00286-.00287-.00288-.00288-.00289-.00289-.00289-.0029-.0029-.00291-.00291-.00292-.00292-.00292-.00293-.00293-.00294-.00294-.00295-.00294-.00296-.00296-.00296-.00296-.00297-.00298-.00297-.00298-.00299-.00299-.00299-.003-.003-.003-.00301-.00301-.00301-.00302-.00302-.00303-.00302-.00304-.00303-.00304-.00304-.00305-.00305-.00305-.00305-.00306-.00306-.00307-.00307-.00307-.00307-.00308-.00308-.00308-.00309-.00309-.00309-.0031-.00309-.0031-.00311-.0031-.00311-.00311-.00312-.00312-.00312-.00312-.00312-.00313-.00313-.00313-.00314-.00313-.00314-.00314-.00315-.00314-.00315-.00315-.00316-.00315-.00316-.00316-.00316-.00316-.00317-.00317-.00317-.00317-.00317-.00318-.00317-.00318-.00318-.00319-.00318-.00319-.00318-.00319-.0032-.00319-.00319-.0032-.0032-.00319-.0032-.00321-.0032-.0032-.00321-.00321-.0032-.00321-.00322-.00321-.00321-.00321-.00322-.00322-.00321-.00322-.00322-.00322-.00322-.00323-.00322-.00322-.00323-.00323-.00322-.00323-.00323-.00323-.00322-.00323-.00324-.00323-.00323-.00323-.00323-.00324-.00323-.00323-.00324-.00323-.00324-.00323-.00324-.00323-.00324-.00323-.00324-.00323-.00324-.00324-.00323-.00324-.00324-.00323-.00324-.00323-.00324-.00323-.00324-.00323-.00324-.00323-.00324-.00323-.00323-.00324-.00323-.00323-.00323-.00323-.00323-.00323-.00323-.00323-.00323-.00322-.00323-.00323-.00322-.00322-.00323-.00322-.00322-.00322-.00322-.00322-.00322-.00321-.00322-.00321-.00321-.00322-.00321-.0032-.00321-.00321-.0032-.00321-.0032-.0032-.0032-.0032-.0032-.00319-.0032-.00319-.00319-.00319-.00318-.00319-.00318-.00319-.00318-.00317-.00318-.00318-.00317-.00317-.00317-.00316-.00317-.00316-.00316-.00316-.00316-.00315-.00316-.00315-.00314-.00315-.00314-.00314-.00314-.00314-.00313-.00313-.00313-.00313-.00312-.00312-.00312-.00312-.00311-.00311-.00311-.0031-.0031-.0031-.0031-.00309-.0031-.00308-.00309-.00308-.00308-.00308-.00307-.00307-.00307-.00306-.00306-.00306-.00305-.00305-.00305-.00304-.00305-.00303-.00304-.00303-.00303-.00302-.00302-.00302-.00301-.00301-.003-.00301-.00299-.003-.00299-.00299-.00298-.00298-.00298-.00297-.00297-.00296-.00296-.00296-.00295-.00295-.00294-.00294-.00293-.00294-.00292-.00293-.00291-.00292-.00291-.0029-.00291-.00289-.00289-.00289-.00289-.00287-.00288-.00287-.00286-.00286-.00286-.00285-.00285-.00284-.00283-.00284-.00282-.00283-.00281-.00282-.0028-.00281-.00279-.00279-.00279-.00278-.00278-.00277-.00277-.00276-.00276-.00275-.00274-.00274-.00274-.00273-.00272-.00272-.00271-.00271-.0027-.0027-.00269-.00268-.00268-.00268-.00267-.00266-.00265-.00266-.00264-.00264-.00263-.00263-.00262-.00262-.00261-.0026-.0026-.00259-.00258-.00258-.00257-.00257-.00256-.00255-.00255-.00254-.00254-.00253-.00252-.00252-.0025-.00251-.00249-.125h-.125z" fill="#fff" stroke="#fff" stroke-width=".25"/></mask><mask id="f" fill="#fff"><path clip-rule="evenodd" d="m12.9007 10.1488-.2861.1696.0817-.34465-.2741-.25325h.358l.1201-.32612.1408.32612h.3051l-.2397.25325.1153.34465z" fill="#fff" fill-rule="evenodd"/></mask><mask id="g" fill="#fff"><path clip-rule="evenodd" d="m12.1008 9.14881-.2861.16957.0817-.34463-.2741-.25325h.358l.1201-.32612.1407.32612h.3052l-.2398.25325.1153.34463z" fill="#fff" fill-rule="evenodd"/></mask><mask id="h" fill="#fff"><path clip-rule="evenodd" d="m13.7008 9.14881-.2861.16957.0817-.34463-.2741-.25325h.358l.12-.32612.1408.32612h.3052l-.2398.25325.1153.34463z" fill="#fff" fill-rule="evenodd"/></mask><g clip-path="url(#a)"><path d="m0 0h16v12h-16z" fill="#fff"/><g clip-path="url(#b)"><path clip-rule="evenodd" d="m0 0h16v12h-16z" fill="#2e42a5" fill-rule="evenodd"/><g clip-path="url(#c)"><path d="m11.2874 6.23138h-.125v.125 1.48878c0 .98573.4129 1.64449.8351 2.0551.2102.20444.4222.34714.5861.43894.0819.046.1524.0796.2054.102.0264.0112.0492.0199.0674.0261.009.0031.018.0059.0264.0081l.0005.0001c.0047.0013.0219.0059.041.0059.0197 0 .0368-.0047.042-.0061l.0004-.0001c.0086-.0024.0177-.0053.0266-.0085.0179-.0064.0399-.0153.065-.0266.0505-.0227.1169-.0566.1938-.1027.1537-.0924.3514-.2356.547-.44042.3929-.41152.7741-1.06934.7741-2.05182v-.00206-.00207-.00208-.00209-.0021-.0021-.00211-.00212-.00213-.00214-.00214-.00215-.00216-.00217-.00218-.00218-.00219-.0022-.00221-.00221-.00222-.00223-.00224-.00224-.00226-.00226-.00226-.00228-.00228-.00229-.0023-.0023-.00231-.00232-.00233-.00233-.00234-.00235-.00236-.00236-.00237-.00237-.00239-.00239-.0024-.0024-.00241-.00242-.00243-.00243-.00244-.00244-.00245-.00246-.00247-.00247-.00248-.00249-.00249-.0025-.0025-.00251-.00252-.00253-.00253-.00253-.00255-.00255-.00255-.00257-.00257-.00257-.00258-.00259-.00259-.0026-.00261-.00261-.00262-.00262-.00263-.00264-.00264-.00264-.00266-.00266-.00266-.00267-.00268-.00268-.00268-.0027-.0027-.0027-.00271-.00271-.00273-.00272-.00273-.00274-.00274-.00275-.00275-.00276-.00276-.00277-.00278-.00277-.00279-.00279-.00279-.0028-.00281-.0028-.00282-.00282-.00282-.00283-.00283-.00284-.00285-.00284-.00286-.00285-.00287-.00286-.00287-.00288-.00288-.00289-.00289-.00289-.0029-.0029-.00291-.00291-.00292-.00292-.00292-.00293-.00293-.00294-.00294-.00295-.00294-.00296-.00296-.00296-.00296-.00297-.00298-.00297-.00298-.00299-.00299-.00299-.003-.003-.003-.00301-.00301-.00301-.00302-.00302-.00303-.00302-.00304-.00303-.00304-.00304-.00305-.00305-.00305-.00305-.00306-.00306-.00307-.00307-.00307-.00307-.00308-.00308-.00308-.00309-.00309-.00309-.0031-.00309-.0031-.00311-.0031-.00311-.00311-.00312-.00312-.00312-.00312-.00312-.00313-.00313-.00313-.00314-.00313-.00314-.00314-.00315-.00314-.00315-.00315-.00316-.00315-.00316-.00316-.00316-.00316-.00317-.00317-.00317-.00317-.00317-.00318-.00317-.00318-.00318-.00319-.00318-.00319-.00318-.00319-.0032-.00319-.00319-.0032-.0032-.00319-.0032-.00321-.0032-.0032-.00321-.00321-.0032-.00321-.00322-.00321-.00321-.00321-.00322-.00322-.00321-.00322-.00322-.00322-.00322-.00323-.00322-.00322-.00323-.00323-.00322-.00323-.00323-.00323-.00322-.00323-.00324-.00323-.00323-.00323-.00323-.00324-.00323-.00323-.00324-.00323-.00324-.00323-.00324-.00323-.00324-.00323-.00324-.00323-.00324-.00324-.00323-.00324-.00324-.00323-.00324-.00323-.00324-.00323-.00324-.00323-.00324-.00323-.00324-.00323-.00323-.00324-.00323-.00323-.00323-.00323-.00323-.00323-.00323-.00323-.00323-.00322-.00323-.00323-.00322-.00322-.00323-.00322-.00322-.00322-.00322-.00322-.00322-.00321-.00322-.00321-.00321-.00322-.00321-.0032-.00321-.00321-.0032-.00321-.0032-.0032-.0032-.0032-.0032-.00319-.0032-.00319-.00319-.00319-.00318-.00319-.00318-.00319-.00318-.00317-.00318-.00318-.00317-.00317-.00317-.00316-.00317-.00316-.00316-.00316-.00316-.00315-.00316-.00315-.00314-.00315-.00314-.00314-.00314-.00314-.00313-.00313-.00313-.00313-.00312-.00312-.00312-.00312-.00311-.00311-.00311-.0031-.0031-.0031-.0031-.00309-.0031-.00308-.00309-.00308-.00308-.00308-.00307-.00307-.00307-.00306-.00306-.00306-.00305-.00305-.00305-.00304-.00305-.00303-.00304-.00303-.00303-.00302-.00302-.00302-.00301-.00301-.003-.00301-.00299-.003-.00299-.00299-.00298-.00298-.00298-.00297-.00297-.00296-.00296-.00296-.00295-.00295-.00294-.00294-.00293-.00294-.00292-.00293-.00291-.00292-.00291-.0029-.00291-.00289-.00289-.00289-.00289-.00287-.00288-.00287-.00286-.00286-.00286-.00285-.00285-.00284-.00283-.00284-.00282-.00283-.00281-.00282-.0028-.00281-.00279-.00279-.00279-.00278-.00278-.00277-.00277-.00276-.00276-.00275-.00274-.00274-.00274-.00273-.00272-.00272-.00271-.00271-.0027-.0027-.00269-.00268-.00268-.00268-.00267-.00266-.00265-.00266-.00264-.00264-.00263-.00263-.00262-.00262-.00261-.0026-.0026-.00259-.00258-.00258-.00257-.00257-.00256-.00255-.00255-.00254-.00254-.00253-.00252-.00252-.0025-.00251-.00249-.125h-.125z" fill="#fff" stroke="#f7fcff" stroke-width=".25"/><g mask="url(#e)"><path d="m11.0844 6.10638h3.6v1.7h-3.6z" fill="#f50100"/><path d="m12.6891 8.15638c.1152 0 .3456-.15673.4032-.1929.2112-.15673.3648-.01206.4896.06028.1344.07234.384.15673.5376 0s.24-.14467.3456-.14467c.0192-.18085.0192-.36169.0192-.56664v-.14468c-.1344-.03616-.2016.01206-.3456.16879s-.3072.12056-.5184.02411c-.2016-.1085-.4032-.3014-.6048 0-.0576.08439-.192.20496-.3264.20496-.144 0-.2688-.12057-.3264-.20496-.2112-.3014-.4032-.1085-.6048 0-.2112.09645-.384.13262-.528-.02411-.1344-.15673-.2016-.20495-.3456-.16879v.14468c0 .20495.0096.38579.0288.56664.1056 0 .1824-.01206.336.14467s.4128.07234.5376 0c.1344-.07234.288-.21701.4992-.06028.0576.03617.2784.1929.4032.1929z" fill="#f50100"/><path clip-rule="evenodd" d="m11.7178 6.88081s.0868.00503.1895.13761.4808.04819.4808-.03178c0-.07998-.2294-.12776-.1413-.26451.0882-.13675.2375-.13699.3575-.06575.0344 0 .0306.46778.1092.4421.2487-.08132.6499-.24246.7676-.17333.1548.09097.2733.06834.234-.06217-.0394-.13051-.1405-.21208-.3353-.14085-.1948.07124-.1489.14085-.3172.14085-.1684 0-.4572.11385-.3289-.14085.1149-.22823.252-.23269.3044-.13675.0267.04909-.1917.15748-.1917.20799 0 .06961.5626-.13689.6347-.13689s.2705-.00558.2902.06565c.0197.07124.1395.13661.0482.20302-.0914.06642-.242.10802-.1383.1931.1036.08509.3662.12379.3776.21229.0115.08851.1244.22068.0791.22068s-.1272.12465-.2035.0867c-.0763-.03796-.0852-.07128-.0121-.10203s.0724-.16004.0121-.16004-.0552-.0098-.1925-.0551c-.1374-.0453-.3192-.09566-.3082 0 .0109.09566.1039.30098-.0611.32055s-.2422.09814-.2743.03487-.1469-.14758-.0567-.17462c.0903-.02704.1765.0919.2091.07248.0325-.01942.1026-.08871.0409-.17099-.0618-.08229-.1816-.08508-.0873-.14666.0943-.06159.038-.10851-.1417.01907-.1797.12759-.2797.23601-.4375.22068s-.2286.05482-.2793.03414-.2977.22851-.3688.16527c-.0712-.06324-.3008-.0875-.2594-.16527.0413-.07776.0968-.1178.1586-.07776s.1232.08007.1649.04004c.0417-.04004.1738-.22689.1435-.25436s-.137-.0745-.3084-.0745-.1754-.14238-.2161-.20731.0577-.07557.0577-.07557z" fill="#ffd100" fill-rule="evenodd"/><path d="m12.6891 9.35638c.1152 0 .3456-.15673.4032-.1929.2112-.15673.3648-.01206.4896.06028.1344.07234.384.15673.5376 0s.24-.14467.3456-.14467c.0192-.18085.0192-.36169.0192-.56664v-.14467c-.1344-.03617-.2016.01205-.3456.16878s-.3072.12056-.5184.02411c-.2016-.1085-.4032-.3014-.6048 0-.0576.0844-.192.20496-.3264.20496-.144 0-.2688-.12056-.3264-.20496-.2112-.3014-.4032-.1085-.6048 0-.2112.09645-.384.13262-.528-.02411-.1344-.15673-.2016-.20495-.3456-.16878v.14467c0 .20495.0096.38579.0288.56664.1056 0 .1824-.01206.336.14467s.4128.07234.5376 0c.1344-.07234.288-.21701.4992-.06028.0576.03617.2784.1929.4032.1929z" fill="#0b50a0"/><path d="m12.6891 10.5064c.1152 0 .3456-.1568.4032-.1929.2112-.1567.3648-.0121.4896.0603.1344.0723.384.1567.5376 0 .1536-.1568.24-.1447.3456-.1447.0192-.1809.0192-.3617.0192-.56665v-.14467c-.1344-.03617-.2016.01205-.3456.16878s-.3072.12056-.5184.02411c-.2016-.1085-.4032-.3014-.6048 0-.0576.0844-.192.20496-.3264.20496-.144 0-.2688-.12056-.3264-.20496-.2112-.3014-.4032-.1085-.6048 0-.2112.09645-.384.13262-.528-.02411-.1344-.15673-.2016-.20495-.3456-.16878v.14467c0 .20495.0096.38575.0288.56665.1056 0 .1824-.0121.336.1447.1536.1567.4128.0723.5376 0 .1344-.0724.288-.217.4992-.0603.0576.0361.2784.1929.4032.1929z" fill="#0b50a0"/><path clip-rule="evenodd" d="m12.9007 10.1488-.2861.1696.0817-.34465-.2741-.25325h.358l.1201-.32612.1408.32612h.3051l-.2397.25325.1153.34465z" fill="#059334" fill-rule="evenodd"/><path d="m12.9007 10.1488.2569-.48632-.2723-.14384-.265.15702zm-.2861.1696-.5352-.1269-.2989 1.2605 1.1145-.6605zm.0817-.34465.5352.12685.0741-.31269-.236-.21811zm-.2741-.25325v-.55h-1.4056l1.0324.954zm.358 0v.55h.3836l.1326-.35998zm.1201-.32612.5049-.21799-.5455-1.26374-.4755 1.29171zm.1408.32612-.505.21799.1433.33201h.3617zm.3051 0 .3994.3781.8788-.9281h-1.2782zm-.2397.25325-.3994-.37814-.2269.23965.1047.31294zm.1153.34465-.2569.4863 1.214.6413-.4356-1.3021zm-.6015-.64274-.2861.16957.5608.94627.2861-.1695zm.5295.76964.0817-.3447-1.0703-.25374-.0818.34464zm-.0802-.8755-.2741-.25325-.7465.80795.2741.2532zm-.6474.7007h.358v-1.1h-.358zm.8742-.35998.12-.32612-1.0322-.38004-.1201.32613zm-.9011-.29816.1408.32613 1.0099-.43597-.1408-.32613zm.6458.65814h.3051v-1.1h-.3051zm-.0942-.92814-.2398.25325.7987.75629.2398-.2533zm-.362.80584.1153.3447 1.0431-.349-.1153-.34464zm.8937-.31615-.321-.16957-.5138.97262.3211.1696z" fill="#ffd100" mask="url(#f)"/><path clip-rule="evenodd" d="m12.1008 9.14881-.2861.16957.0817-.34463-.2741-.25325h.358l.1201-.32612.1407.32612h.3052l-.2398.25325.1153.34463z" fill="#059334" fill-rule="evenodd"/><path d="m12.1008 9.14881.2569-.48633-.2724-.14384-.2649.15702zm-.2861.16957-.5352-.1269-.2989 1.26052 1.1145-.66047zm.0817-.34463.5352.1269.0741-.31274-.2361-.21811zm-.2741-.25325v-.55h-1.4057l1.0325.95396zm.358 0v.55h.3836l.1325-.35998zm.1201-.32612.5049-.21799-.5455-1.26374-.4756 1.29171zm.1407.32612-.5049.21799.1433.33201h.3616zm.3052 0 .3994.37815.8788-.92815h-1.2782zm-.2398.25325-.3993-.37814-.227.23965.1047.31298zm.1153.34463-.2568.48633 1.214.64129-.4356-1.30211zm-.6014-.64272-.2861.16957.5608.9463.2861-.16957zm.5294.76961.0818-.34462-1.0704-.25379-.0817.34462zm-.0802-.87547-.274-.25325-.7465.80791.274.25325zm-.6473.7007h.358v-1.1h-.358zm.8741-.35998.1201-.32612-1.0323-.38004-.12.32613zm-.901-.29816.1408.32613 1.0099-.43597-.1408-.32613zm.6457.65814h.3052v-1.1h-.3052zm-.0942-.92814-.2397.25325.7987.75628.2398-.25324zm-.362.80588.1153.34463 1.0432-.34898-.1153-.34463zm.8938-.31619-.321-.16957-.5138.97266.3211.16957z" fill="#ffd100" mask="url(#g)"/><path clip-rule="evenodd" d="m13.7008 9.14881-.2861.16957.0817-.34463-.2741-.25325h.358l.12-.32612.1408.32612h.3052l-.2398.25325.1153.34463z" fill="#059334" fill-rule="evenodd"/><path d="m13.7008 9.14881.2568-.48633-.2723-.14384-.2649.15702zm-.2861.16957-.5352-.1269-.2989 1.26052 1.1145-.66047zm.0817-.34463.5351.1269.0742-.31274-.2361-.21811zm-.2741-.25325v-.55h-1.4057l1.0324.95396zm.358 0v.55h.3836l.1325-.35998zm.12-.32612.505-.21799-.5456-1.26374-.4755 1.29171zm.1408.32612-.5049.21799.1433.33201h.3616zm.3052 0 .3994.37815.8788-.92815h-1.2782zm-.2398.25325-.3994-.37814-.2269.23965.1047.31298zm.1153.34463-.2569.48633 1.2141.64129-.4356-1.30211zm-.6014-.64272-.2862.16957.5609.9463.2861-.16957zm.5294.76961.0817-.34462-1.0703-.25379-.0817.34462zm-.0802-.87547-.2741-.25325-.7465.80791.2741.25325zm-.6473.7007h.358v-1.1h-.358zm.8741-.35998.1201-.32612-1.0323-.38004-.1201.32613zm-.901-.29816.1408.32613 1.0099-.43597-.1408-.32613zm.6457.65814h.3052v-1.1h-.3052zm-.0942-.92814-.2398.25325.7988.75628.2398-.25324zm-.362.80588.1153.34463 1.0432-.34898-.1153-.34463zm.8938-.31619-.3211-.16957-.5137.97266.321.16957z" fill="#ffd100" mask="url(#h)"/></g></g><g fill="#ffd100"><path d="m10.5238 10.3896c.046.1311.3751.3031.7579.0819.2603-.1557.4287-.3768.5895-.77005.0459-.09831.0689-.22119-.0383-.29492-.0842-.06554-.222-.13926-.2832-.2048-.0307-.03277-.0613-.05735-.0842-.08192.0153.01638.0306.03277.0459.05734.1531.19661-.0077.48333-.1761.65537-.1225.12288-.3445.42598-.666.13926-.0689-.06553-.2297.20482-.1455.41782z"/><path d="m15.1783 10.3896c-.0536.1311-.3827.3031-.7579.0819-.2602-.1557-.4287-.3768-.5971-.77005-.0383-.09831-.0612-.22119.0459-.29492.0843-.06554.2221-.13926.2833-.2048.0306-.03277.0536-.05735.0842-.08192-.0153.01638-.0306.03277-.0459.05734-.1531.19661.0076.48333.1684.65537.1225.12288.3521.42598.6737.13926.0689-.06553.222.20482.1454.41782z"/><path d="m12.8511 11.0941c.6125 0 1.5541-.2949 2.0594-1.32711.0842-.17203 0-.26214-.0996-.31949-.1071-.04915-.2373-.16384-.3062-.23757.1225.13108.0995.22119.0153.36865-.3904.69632-.9263 1.04862-1.6689 1.04862s-1.2784-.3523-1.6689-1.04862c-.0842-.14746-.1072-.23757.0077-.36865-.0613.07373-.1991.18842-.3062.23757-.0996.05735-.1838.14746-.0996.31949.5053 1.03221 1.4546 1.32711 2.067 1.32711z"/></g><path d="m11.4348 9.70965c-.0153-.08192-.1149-.04916-.1455.04915-.0383-.05735-.0765-.11469-.1072-.18023-.0918-.14745-.1071-.24576.023-.38502.0613-.06554.1837-.13927.268-.05735.176.15565.0842.40961-.0383.57345z" fill="#f50100"/><path d="m14.2597 9.70965c.0153-.08192.1225-.04916.1531.04915.0383-.05735.0765-.11469.1072-.18023.0918-.14745.1071-.24576-.0307-.38502-.0536-.06554-.176-.13927-.2679-.05735-.1684.15565-.0842.40961.0383.57345z" fill="#f50100"/><path clip-rule="evenodd" d="m12.4917 4.27203c-.2267-.32614-.5127-.5517-.6815-.68485-.0874-.06898-.1435-.11315-.1435-.13365 0-.0576.4553.09637.9205.48854.0103-.02344.0211-.04599.0324-.06758-.1366-.27379-.3715-.51628-.505-.65417v-.00001c-.0634-.06538-.1039-.10726-.1004-.1178.0101-.03035.393.21711.7319.59315.0329-.0335.0679-.06068.1045-.0807l-.2239-.37313h.8l-.2384.3974c.052.0368.1002.08842.143.1521.356-.42897.8038-.72168.8147-.68882l-.2703.61375c-.1273.08354-.2638.18662-.3985.30991l-.0238.02198.008.02483c.0015-.00195.0026-.00403.0033-.00627.0038-.01355.008-.02707.0125-.04054l.0546.47112c.001.0241.0015.04844.0016.07299.2292-.2549.4724-.35612.4724-.32205 0 .01122-.0256.03539-.0656.07314-.1036.09785-.3039.28692-.4053.57802-.004.01175-.0159.01109-.0309.00394-.0724.3911-.2707.67184-.5039.67184-.2909 0-.5274-.43656-.5332-.97928-.0891-.12545-.1852-.21619-.247-.27452-.0399-.03775-.0656-.06192-.0656-.07314 0-.02641.1462.02848.3187.17326.0042-.0512.0105-.10113.0187-.14946zm1.0401.22526c.2344-.44976.6129-.74823.8181-.91011.0875-.06898.1435-.11315.1435-.13365 0-.04484-.2759.03855-.6177.26273z" fill="#ffd100" fill-rule="evenodd"/><path d="m11.8928 5.15142c-.0641-.10952-.2383-.1582-.3116-.06084-.0275.02433-.0642.02433-.0917.0365-.0458 0-.1044.03065-.086.15233.0493 0 .0493.03021.0768.03021.0184-.01217.066.21105.1577.19888.1008 0 .1907.05666.209.081.0275.03651.0642.13386.0183.18253-.0641.07302-.11.24338 0 .37724.1192.12169.4217.30422.7609-.04868.33-.34073.8434-.14602.88-.02433.0459.12168.0642.1947.0734.25554.0091.04868.2566.12169.2933.1582.0459.03651.11.02434.0917-.08518-.0367-.34073-.1925-.38941-.2109-.5476.0917.01217.1559.01217.1926-.03651.0275-.04868.0641-.13386.1008-.1582.0275-.02433.0275-.04867-.0092-.0365-.0458.01217-.0733.0365-.1558.02434-.1952-.02817-.1469-.95125-.7924-1.13082-.3989-.11096-.8962.64998-1.0326.72532-.003.00163-.0058.00295-.0084.00392-.0642 0-.1192-.03651-.1559-.09735z" fill="#059334"/><g clip-path="url(#d)"><path d="m0 0h9v7h-9z" fill="#2e42a5"/><path d="m-1.00208 6.49991 1.98048.8686 8.0666-6.424138 1.0447-1.290766-2.11788-.290311-3.29017 2.768345-2.64825 1.86522z" fill="#f7fcff"/><path d="m-.730957 7.10847 1.008961.50407 9.436506-8.07886h-1.41669z" fill="#f50100"/><path d="m10.0022 6.49991-1.98048.8686-8.0665961-6.424138-1.0446539-1.290766 2.11783-.290311 3.29017 2.768345 2.64826 1.86522z" fill="#f7fcff"/><path d="m9.93457 6.93667-1.00896.50406-4.01816-3.45897-1.1913-.38647-4.90625-3.937263h1.416697l4.903493 3.843813 1.30247.46341z" fill="#f50100"/><g clip-rule="evenodd" fill-rule="evenodd"><path d="m4.99226 0h-1v3h-3.99226v1h3.99226v3h1v-3h4.00774v-1h-4.00774z" fill="#f50100"/><path d="m3.24226-.75h2.5v3h4.00774v2.5h-4.00774v3h-2.5v-3h-3.99226v-2.5h3.99226zm.75 3.75h-3.99226v1h3.99226v3h1v-3h4.00774v-1h-4.00774v-3h-1z" fill="#f7fcff"/></g></g></g></g></svg>