<svg fill="none" height="12" viewBox="0 0 16 12" width="16" xmlns="http://www.w3.org/2000/svg" xmlns:xlink="http://www.w3.org/1999/xlink"><clipPath id="a"><path d="m0 0h16v12h-16z"/></clipPath><mask id="b" height="12" maskUnits="userSpaceOnUse" width="16" x="0" y="0"><path clip-rule="evenodd" d="m0 0v12h16v-12z" fill="#fff" fill-rule="evenodd"/></mask><g clip-path="url(#a)"><path d="m0 0h16v12h-16z" fill="#fff"/><path clip-rule="evenodd" d="m0 0v12h16v-12z" fill="#4ec7ee" fill-rule="evenodd"/><g mask="url(#b)"><path d="m2.04504 11.6185c-.03173.235.1188.4024.37131.5101.33946.1448.68198.0092.99704-.3399l-.4083-.3685c-.13996.1551-.24109.2148-.31916.2138.15286-.1092.34872-.244.58728-.4042l.11451-.1659c.09196-.3945-.194-.6082-.63012-.6082-.25688 0-.46225.0508-.59255.16-.21407.1795-.17742.466.04785.6151.01787.0118.03601.0225.05439.032-.12638.1067-.2035.2169-.22225.3557z" fill="#ffe402"/><path d="m2.28247 11.2477s.06239-.1383.0312-.2102" stroke="#ffe402" stroke-width=".55"/><g fill="#ffe402"><path d="m4.28479 11.6185c.03173.235-.11879.4024-.3713.5101-.33946.1448-.68198.0092-.99705-.3399l.4083-.3685c.13996.1551.2411.2148.31917.2138-.15287-.1092-.34872-.244-.58729-.4042l-.1145-.1659c-.09197-.3945.194-.6082.63012-.6082.25688 0 .46225.0508.59255.16.21406.1795.17742.466-.04786.6151-.01787.0118-.036.0225-.05438.032.12637.1067.2035.2169.22224.3557z"/><path d="m4.29797 11.1346-.50133.2262c-.07037-.1559-.09139-.2976-.03283-.4327l.50461.2188c.01696-.0391.01674-.0407.02955-.0123z"/><path d="m2.04504.381509c-.03173-.235.1188-.4023836.37131-.510112.33946-.144821.68198-.00921.99704.339896l-.4083.368495c-.13996-.155078-.24109-.214826-.31916-.21381.15286.10921.34872.24403.58728.404241l.11451.165863c.09196.394498-.194.608258-.63012.608258-.25688 0-.46225-.05083-.59255-.16008-.21407-.17949-.17742-.466011.04785-.615079.01787-.011824.03601-.022465.05439-.031946-.12638-.106721-.2035-.216898-.22225-.355726z"/><path d="m4.28479.381509c.03173-.235-.11879-.4023836-.3713-.510112-.33946-.144821-.68198-.00921-.99705.339896l.4083.368495c.13996-.155078.2411-.214826.31917-.21381-.15287.10921-.34872.24403-.58729.404241l-.1145.165863c-.09197.394498.194.608258.63012.608258.25688 0 .46225-.05083.59255-.16008.21406-.17949.17742-.466011-.04786-.615079-.01787-.011824-.036-.022465-.05438-.031946.12637-.106721.2035-.216898.22224-.355726z"/><path clip-rule="evenodd" d="m2.54692 10.0315c-.31551.0091-.51182.0742-.51182.3783 0 .3354.32582.4403.67247.4403.31401 0 .66776-.1949.66776-.5439 0-.2124-.26997-.64084-.94979-1.56969-.02356-.02194-.03654-.03312-.04693-.0332.04123-.02295.11383-.04983.20963-.04983.03326 0 .07648.01682.11933.03837v.36428h.71973v-.275c0-.31069-.45928-.67765-.83906-.67765-.33168 0-.59795.15777-.73282.38476-.13329.22432-.03137.43965.16005.61093.28484.39285.506.71804.64471.93173-.05096-.0005-.07894-.0004-.11326.0006zm.0338.2536c-.00998-.0022-.01958-.0047-.02855-.0073.00668.007.03293.0383.03293.132 0 .051-.00245.0869-.00575.1121-.09279-.0819-.11873-.2246-.05083-.3344l.00168-.0028-.01035-.0205c.00137-.0007.00275-.0014.0041-.0021.01599-.0083.02913-.015.00625.0226zm-.02855-.0073-.00953-.0029c.00103.0004.00237.001.00394.002zm.27317.0284c0-.0094-.0032-.015-.00871-.018l.0032.0035c.00365.0075.00551.0124.00551.0145z" fill-rule="evenodd"/><path clip-rule="evenodd" d="m3.78279 10.0315c.31551.0091.51182.0742.51182.3783 0 .3354-.32582.4403-.67247.4403-.31401 0-.66776-.1949-.66776-.5439 0-.2124.26998-.64084.94979-1.56969.02357-.02194.03654-.03312.04693-.0332-.04122-.02295-.11383-.04983-.20963-.04983-.03326 0-.07648.01682-.11933.03837v.36428h-.71973v-.275c0-.31069.45928-.67765.83906-.67765.33168 0 .59795.15777.73282.38476.13329.22432.03137.43965-.16005.61093-.28484.39285-.506.71804-.6447.93173.05096-.0005.07894-.0004.11325.0006zm-.0338.2536c.00998-.0022.01958-.0047.02855-.0073-.00668.007-.03293.0383-.03293.132 0 .051.00246.0869.00575.1121.09279-.0819.11873-.2246.05083-.3344l-.00168-.0028.01035-.0205c-.00137-.0007-.00274-.0014-.0041-.0021-.01599-.0083-.02912-.015-.00625.0226zm.02855-.0073.00954-.0029c-.00103.0004-.00238.001-.00395.002zm-.27316.0284c0-.0094.00319-.015.00871-.018l-.0032.0035c-.00366.0075-.00551.0124-.00551.0145z" fill-rule="evenodd"/><path clip-rule="evenodd" d="m2.54692 6.67736c-.31551-.00908-.51182-.07417-.51182-.3783 0-.33538.32582-.4403.67247-.4403.31401 0 .66776.19489.66776.54392 0 .21234-.26997.64082-.94979 1.56966-.02356.02195-.03654.03313-.04693.0332.04123.02296.11383.04984.20963.04984.03326 0 .07648-.01682.11933-.03837v-.36429h.71973v.275c0 .3107-.45928.67766-.83906.67766-.33168 0-.59795-.15778-.73282-.38476-.13329-.22432-.03137-.43966.16005-.61093.28484-.39286.506-.71804.64471-.9317-.05096.00042-.07894.00036-.11326-.00063zm.0338-.25359c-.00998.00222-.01958.00464-.02855.00725.00668-.00701.03293-.0383.03293-.13196 0-.051-.00245-.08687-.00575-.1121-.09279.08186-.11873.22457-.05083.33441l.00168.00275-.01035.02056c.00137.0007.00275.0014.0041.0021.01599.00823.02913.015.00625-.02266zm-.02855.00725-.00953.00291c.00103-.00033.00237-.00096.00394-.00198zm.27317-.02834c0 .00939-.0032.01497-.00871.01796l.0032-.0035c.00365-.00752.00551-.01238.00551-.01446z" fill-rule="evenodd"/><path clip-rule="evenodd" d="m3.78279 6.67736c.31551-.00908.51182-.07417.51182-.3783 0-.33538-.32582-.4403-.67247-.4403-.31401 0-.66776.19489-.66776.54392 0 .21234.26998.64082.94979 1.56966.02357.02195.03654.03313.04693.0332-.04122.02296-.11383.04984-.20963.04984-.03326 0-.07648-.01682-.11933-.03837v-.36429h-.71973v.275c0 .3107.45928.67766.83906.67766.33168 0 .59795-.15778.73282-.38476.13329-.22432.03137-.43966-.16005-.61093-.28484-.39286-.506-.71804-.6447-.9317.05096.00042.07894.00036.11325-.00063zm-.0338-.25359c.00998.00222.01958.00464.02855.00725-.00668-.00701-.03293-.0383-.03293-.13196 0-.051.00246-.08687.00575-.1121.09279.08186.11873.22457.05083.33441l-.00168.00275.01035.02056c-.00137.0007-.00274.0014-.0041.0021-.01599.00823-.02912.015-.00625-.02266zm.02855.00725.00954.00291c-.00103-.00033-.00238-.00096-.00395-.00198zm-.27316-.02834c0 .00939.00319.01497.00871.01796l-.0032-.0035c-.00366-.00752-.00551-.01238-.00551-.01446z" fill-rule="evenodd"/><path clip-rule="evenodd" d="m2.54692 5.32264c-.31551.00908-.51182.07416-.51182.3783 0 .33537.32582.4403.67247.4403.31401 0 .66776-.19489.66776-.54392 0-.21234-.26997-.64082-.94979-1.56966-.02356-.02195-.03654-.03313-.04693-.0332.04123-.02296.11383-.04984.20963-.04984.03326 0 .07648.01682.11933.03837v.36428h.71973v-.275c0-.31069-.45928-.67765-.83906-.67765-.33168 0-.59795.15778-.73282.38476-.13329.22432-.03137.43966.16005.61093.28484.39285.506.71804.64471.9317-.05096-.00043-.07894-.00036-.11326.00063zm.0338.25359c-.00998-.00222-.01958-.00465-.02855-.00725.00668.007.03293.0383.03293.13196 0 .051-.00245.08687-.00575.11209-.09279-.08185-.11873-.22456-.05083-.33441l.00168-.00274-.01035-.02057c.00137-.00069.00275-.0014.0041-.00209.01599-.00823.02913-.015.00625.02266zm-.02855-.00725-.00953-.00291c.00103.00033.00237.00096.00394.00198zm.27317.02834c0-.00939-.0032-.01497-.00871-.01797l.0032.00351c.00365.00752.00551.01238.00551.01446z" fill-rule="evenodd"/><path clip-rule="evenodd" d="m3.78279 5.32264c.31551.00908.51182.07416.51182.3783 0 .33537-.32582.4403-.67247.4403-.31401 0-.66776-.19489-.66776-.54392 0-.21234.26998-.64082.94979-1.56966.02357-.02195.03654-.03313.04693-.0332-.04122-.02296-.11383-.04984-.20963-.04984-.03326 0-.07648.01682-.11933.03837v.36428h-.71973v-.275c0-.31069.45928-.67765.83906-.67765.33168 0 .59795.15778.73282.38476.13329.22432.03137.43966-.16005.61093-.28484.39285-.506.71804-.6447.9317.05096-.00043.07894-.00036.11325.00063zm-.0338.25359c.00998-.00222.01958-.00465.02855-.00725-.00668.007-.03293.0383-.03293.13196 0 .051.00246.08687.00575.11209.09279-.08185.11873-.22456.05083-.33441l-.00168-.00274.01035-.02057c-.00137-.00069-.00274-.0014-.0041-.00209-.01599-.00823-.02912-.015-.00625.02266zm.02855-.00725.00954-.00291c-.00103.00033-.00238.00096-.00395.00198zm-.27316.02834c0-.00939.00319-.01497.00871-.01797l-.0032.00351c-.00366.00752-.00551.01238-.00551.01446z" fill-rule="evenodd"/><path clip-rule="evenodd" d="m2.54692 1.9685c-.31551-.00908-.51182-.07417-.51182-.3783 0-.33538.32582-.4403.67247-.4403.31401 0 .66776.19489.66776.54392 0 .21234-.26997.64082-.94979 1.56966-.02356.02195-.03654.03313-.04693.0332.04123.02296.11383.04984.20963.04984.03326 0 .07648-.01682.11933-.03837v-.36429h.71973v.275c0 .3107-.45928.67766-.83906.67766-.33168 0-.59795-.15778-.73282-.38476-.13329-.22432-.03137-.43966.16005-.61093.28484-.39286.506-.71804.64471-.9317-.05096.00042-.07894.00036-.11326-.00063zm.0338-.2536c-.00998.00223-.01958.00465-.02855.00726.00668-.00701.03293-.0383.03293-.13196 0-.051-.00245-.08687-.00575-.1121-.09279.08186-.11873.22457-.05083.33441l.00168.00275-.01035.02056c.00137.0007.00275.0014.0041.0021.01599.00823.02913.015.00625-.02266zm-.02855.00726-.00953.00291c.00103-.00033.00237-.00096.00394-.00198zm.27317-.02834c0 .00939-.0032.01497-.00871.01796l.0032-.0035c.00365-.00752.00551-.01238.00551-.01446z" fill-rule="evenodd"/><path clip-rule="evenodd" d="m3.78279 1.9685c.31551-.00908.51182-.07417.51182-.3783 0-.33538-.32582-.4403-.67247-.4403-.31401 0-.66776.19489-.66776.54392 0 .21234.26998.64082.94979 1.56966.02357.02195.03654.03313.04693.0332-.04122.02296-.11383.04984-.20963.04984-.03326 0-.07648-.01682-.11933-.03837v-.36429h-.71973v.275c0 .3107.45928.67766.83906.67766.33168 0 .59795-.15778.73282-.38476.13329-.22432.03137-.43966-.16005-.61093-.28484-.39286-.506-.71804-.6447-.9317.05096.00042.07894.00036.11325-.00063zm-.0338-.2536c.00998.00223.01958.00465.02855.00726-.00668-.00701-.03293-.0383-.03293-.13196 0-.051.00246-.08687.00575-.1121.09279.08186.11873.22457.05083.33441l-.00168.00275.01035.02056c-.00137.0007-.00274.0014-.0041.0021-.01599.00823-.02912.015-.00625-.02266zm.02855.00726.00954.00291c-.00103-.00033-.00238-.00096-.00395-.00198zm-.27316-.02834c0 .00939.00319.01497.00871.01796l-.0032-.0035c-.00366-.00752-.00551-.01238-.00551-.01446z" fill-rule="evenodd"/><path clip-rule="evenodd" d="m9.49342 1.3924.20472.76386s.00241.17354-.19364.17354c-.19606 0-.20595-.17354-.20595-.17354zm1.73178 2.91759c0 .99412-.7588 1.8-1.69497 1.8-.93612 0-1.695-.80588-1.695-1.8 0-.99411.75888-1.8 1.695-1.8.93617 0 1.69497.80589 1.69497 1.8zm-.9345-1.99969.0275-.79034-.40965.67351s-.04129.16885.14625.22617c.1874.05732.2359-.10934.2359-.10934zm.7797-.41609-.2574.74775s-.0951.14522-.2576.03559c-.1626-.10963-.0737-.25904-.0737-.25904zm.148 1.2276.4648-.63981-.7162.32927s-.1287.1169-.0053.26926.2567.04128.2567.04128zm.8872.11699-.6398.46487s-.1612.06444-.2314-.1186c-.0703-.18303.0882-.25445.0882-.25445zm-.5616 1.10234.7477-.25751-.7756-.14111s-.1724.02197-.1588.21755c.0137.19557.1867.18107.1867.18107zm.6863.60682-.7903.02765s-.1697-.03669-.1255-.22772c.0441-.19103.2154-.16163.2154-.16163zm-1.0673.60262.7639.20463-.5641-.55068s-.1553-.07821-.2533.09157c-.098.16979.0535.25448.0535.25448zm.2452.88325-.6706-.41903s-.1202-.12528.0232-.25898c.1434-.13371.269-.01354.269-.01354zm-1.2067-.10695.5189.5968-.1597-.77197s-.085-.15164-.2612-.0657c-.1762.08595-.098.24087-.098.24087zm-.27727.85448-.3217-.72242s-.02952-.17103.16412-.2017.23055.13919.23055.13919zm-.92468-.78493.08272.78648.31195-.72397s.01739-.17295-.17625-.20362c-.19365-.03067-.21842.14111-.21842.14111zm-.7143.53159.15085-.7763s.07391-.15703.25012-.07108c.17621.08594.10902.24625.10902.24625zm-.3183-1.18572-.37122.69828.66346-.42576s.11113-.13366-.03226-.26737c-.14338-.13371-.25998-.00515-.25998-.00515zm-.89214.02148.55915-.55923s.14909-.08886.24712.08093-.04732.26512-.04732.26512zm.39205-1.17749-.69822.37131.78811.01804s.16687-.04867.12277-.2397c-.04411-.19103-.21266-.14965-.21266-.14965zm-.76251-.4928.77627-.15094s.17329.0097.15961.20528c-.01367.19558-.18748.19334-.18748.19334zm.96977-.76284-.78649-.08262.64329.45566s.16556.05297.23582-.13007c.07026-.18303-.09262-.24297-.09262-.24297zm-.36685-.84097.72247.32161s.13638.10735.013.25971-.26447.05083-.26447.05083zm1.20775-.07115-.59687-.51878.26559.74223s.10524.13834.26778.02871.0635-.25216.0635-.25216zm.15402-.89568.41911.67063s.05304.16525-.13444.22257c-.18749.05732-.24769-.10575-.24769-.10575z" fill-rule="evenodd"/><path d="m5.77388 4 .72159.07298c-.34629 2.34703.58763 3.40447 3.01821 3.40447 2.46032 0 3.59972-1.10541 3.59972-3.47745 0 0 .5122-.02905.5081.07298-.1105 2.72915-1.2819 4.48098-4.17947 4.48098-3.0357 0-4.10433-1.59772-3.66815-4.55396z"/><path d="m5.98927 5.4.6815.07298c-.32705 2.34703.555 3.40447 2.85057 3.40447 2.32366 0 3.39976-1.10541 3.39976-3.47745 0 0 .4838-.02905.4799.07298-.1044 2.72915-1.2107 4.48098-3.94733 4.48098-2.86708 0-3.87635-1.59772-3.4644-4.55396z"/></g></g></g></svg>