<svg fill="none" height="12" viewBox="0 0 16 12" width="16" xmlns="http://www.w3.org/2000/svg" xmlns:xlink="http://www.w3.org/1999/xlink"><clipPath id="a"><path d="m0 0h16v12h-16z"/></clipPath><g clip-path="url(#a)"><path d="m0 0h16v12h-16z" fill="#fff"/><g clip-rule="evenodd" fill-rule="evenodd"><path d="m16 0h-16v3h16zm0 9h-16v3h16z" fill="#f50101"/><path d="m0 3h16v6h-16z" fill="#f7fcff"/><path d="m10.7574 6.25661c.0373.43367-1.56308-.17993-1.56308-.00629s1.71448.47852 1.71158.86723-2.03288-.11091-1.57765.06389c.45522.17479 1.43265.59327 1.32155.85397-.2373.55677-1.81305-.38626-1.94411-.20034-.21152.29986 1.16281.99934 1.1512 1.06618-.02241.12817-.93866-.20146-1.1512.0647-.17207-.04853-.2516-.28024-.30504-.31097l-.33816-4.36169s.30363 4.10671-.08433 4.22482c-.38797.11811-1.46569.47721-1.49705.29786-.01168-.06684 1.29765-.68104 1.08614-.9809-.15578-.22099-1.73587.56266-1.83669.10889-.44908-.32373 1.45437-.60386 1.45437-.93491 0-.3311-1.74129.39184-1.53298-.06902.20831-.46087 1.60235-.62588 1.62836-.68971.04755-.11673-1.54975.18172-1.54975 0 0-.34385.95609-.41151 1.54975-.72094.03508-.35311-1.44016.34763-1.54975.06457-.10958-.28306 1.88558-1.01638 1.83669-1.07351-.07721-.09022-1.68517.31687-1.41999.10309.51465-.4149 1.51922-.97909 1.75036-1.12958 0 0 .02784-.05678.0576-.03751.02982-.01927.0626-.04038.0626-.04038s0 .35502-.00494.07789 2.35482.9355 2.38162 1.2429c.0312.35912-1.45808-.27073-1.42306.08238.30273.18756 1.16376.55054 1.51956.71015.1613.07239-1.18891-.15323-1.1604-.04246.07268.28233 1.388.31739 1.4268.76969z" fill="#52ab0b"/></g></g></svg>