<svg fill="none" height="12" viewBox="0 0 16 12" width="16" xmlns="http://www.w3.org/2000/svg" xmlns:xlink="http://www.w3.org/1999/xlink"><clipPath id="a"><path d="m0 0h16v12h-16z"/></clipPath><mask id="b" height="12" maskUnits="userSpaceOnUse" width="16" x="0" y="0"><path clip-rule="evenodd" d="m0 0v12h16v-12z" fill="#fff" fill-rule="evenodd"/></mask><mask id="c" fill="#000" height="3" maskUnits="userSpaceOnUse" width="3" x="3.05878" y="-1"><path d="m3.05878-1h3v3h-3z" fill="#fff"/><path clip-rule="evenodd" d="m4.56298 0h-.2521l.03245.461361-.28455-.038719v.316981l.28892-.039797-.03682.726594h.2521l-.03732-.727817.28942.04102v-.316981l-.28418.040791z" fill="#000" fill-rule="evenodd"/></mask><g clip-path="url(#a)"><path d="m0 0h16v12h-16z" fill="#fff"/><path clip-rule="evenodd" d="m0 0v12h16v-12z" fill="#e31d1c" fill-rule="evenodd"/><g mask="url(#b)"><path clip-rule="evenodd" d="m0 0v6h16v-6z" fill="#2e42a5" fill-rule="evenodd"/><path clip-rule="evenodd" d="m2.39923 5.52659s.60333.37554 2.00142.37554c1.39808 0 2.14018-.37554 2.14018-.37554s-1.09641-.63737-2.07676-.63737c-.98034 0-2.06484.63737-2.06484.63737z" fill="#000" fill-rule="evenodd"/><g fill="#ffd83d"><path d="m2.43528 3.3711-.10804.06287.03615.06213h.07189 4.16262.09159l.0276-.08733-.11919-.03767.11921.03758.00004-.0001.00009-.00029.00026-.00084.00086-.0028.00295-.00987c.00248-.00844.00594-.02053.01007-.03589.00827-.0307.01929-.07458.0307-.12852.02274-.10757.04735-.25682.05421-.42242.01341-.32411-.04009-.74668-.35468-1.02016-.29608-.25739-.70896-.38541-1.0989-.45102-.39268-.06607-.77945-.07151-1.03569-.07151-.52941 0-1.01528.06272-1.8017.5081-.21949.12431-.34499.29736-.40441.487-.05826.18592-.05095.38058-.01994.55123.03115.17137.08763.32629.13555.43736.02409.05584.04634.10135.06274.13319.0082.01593.01497.02849.01979.03726l.00573.01027.00166.00291.00051.00089.00017.0003.00007.00011c.00002.00005.00005.00009.10809-.06278z" stroke="#000" stroke-width=".25"/><path d="m1.94307 3.453.05827.11058c-.05827-.11058-.05823-.11061-.05817-.11063l.00012-.00007.00029-.00015.00082-.00043.00253-.0013.00868-.00435c.00739-.00364.018-.00875.03183-.01511.02766-.01271.06821-.03043.12173-.05146.10705-.04205.26595-.09734.47729-.15236.42279-.11007 1.05493-.21893 1.90112-.21893s1.47833.10886 1.90111.21893c.21135.05502.37025.11031.4773.15236.05352.02103.09407.03875.12173.05146.01383.00636.02444.01147.03183.01511l.00868.00435.00253.0013.00082.00043.00029.00015.00012.00007c.00005.00002.0001.00005-.05818.11063l.05828-.11058.09735.0513-.03855.10307-.59245 1.58418-.04129.11042zm0 0-.09649.05084.0373.10249.57648 1.58418.04025.11062.11281-.03354zm4.40144 1.81421h.00002l-3.73108.00037.00004-.00001.00039-.00012.00181-.00053.00765-.00221.0308-.00869c.0272-.00754.06741-.0184.11878-.03147.10278-.02616.25005-.06112.42712-.0961.35494-.07012.82601-.13957 1.29701-.13957.47088 0 .93309.06942 1.27897.13945.17259.03495.31538.06987.41477.09598.04968.01305.08847.02388.11467.0314l.02962.00866.00732.00219.00171.00053.00037.00011z" stroke="#000" stroke-width=".25"/><path clip-rule="evenodd" d="m4.56298 0h-.2521l.03245.461361-.28455-.038719v.316981l.28892-.039797-.03682.726594h.2521l-.03732-.727817.28942.04102v-.316981l-.28418.040791z" fill-rule="evenodd"/></g><path d="m4.31088 0v-.25h-.2682l.01881.2675417zm.2521 0 .2494.0172624.0185-.2672624h-.2679zm-.21965.461361-.03371.247717.30467.041456-.02158-.306715zm-.28455-.038719.0337-.247718-.2837-.038604v.286322zm0 .316981h-.25v.286797l.28411-.039136zm.28892-.039797.24968.012653.01528-.30151-.29907.041195zm-.03682.726594-.24968-.01266-.01331.26266h.26299zm.2521 0v.25h.26315l-.01348-.26281zm-.03732-.727817.03508-.247526-.30029-.042559.01553.302888zm.28942.04102-.03508.247526.28508.040401v-.287927zm0-.316981h.25v-.288448l-.28552.040984zm-.28418.040791-.2494-.017262-.02137.308691.30629-.043965zm-.22002-.213433h.2521v-.5h-.2521zm.28183.193819-.03245-.4613607-.49877.0350834.03246.4613603zm-.56764.22654.28455.038719.06742-.495435-.28456-.038719zm.28371.069264v-.316981h-.5v.316981zm.00481-.287459-.28893.039797.06823.495323.28892-.039797zm.24697.986906.03682-.726591-.49936-.025307-.03682.726588zm.00242-.26265h-.2521v.5h.2521zm-.287-.465014.03733.727814.49934-.02561-.03732-.72781zm.57418-.21931-.28942-.041019-.07016.495053.28942.041019zm-.28508-.069454v.316981h.5v-.316981zm.00134.288255.28418-.040792-.07104-.494927-.28418.040791zm-.25284-.7281594-.03208.4634334.49881.034524.03207-.4634326z" fill="#000" mask="url(#c)"/></g></g></svg>