<svg fill="none" height="12" viewBox="0 0 16 12" width="16" xmlns="http://www.w3.org/2000/svg" xmlns:xlink="http://www.w3.org/1999/xlink"><clipPath id="a"><path d="m0 0h16v12h-16z"/></clipPath><g clip-path="url(#a)"><path d="m0 0h16v12h-16z" fill="#fff"/><path clip-rule="evenodd" d="m0 0h16v12h-16z" fill="#f7fcff" fill-rule="evenodd"/><g fill="#e31d1c"><path d="m.013611 2.75h16v1.5h-16z"/><path clip-rule="evenodd" d="m0 0h16v1.5h-16z" fill-rule="evenodd"/><path d="m-.029419 5.5h16v1.5h-16z"/><path d="m.055847 8.2h16v1.5h-16z"/><path d="m.050781 10.75h16v1.5h-16z"/></g><path clip-rule="evenodd" d="m0 0h8v7h-8z" fill="#3d58db" fill-rule="evenodd"/><path clip-rule="evenodd" d="m4.06624 4.60654-1.46069 1.01316.46674-1.7353-1.07229-1.10851 1.45195-.05994.61429-1.71595.61429 1.71595h1.44947l-1.06982 1.16845.53578 1.63288z" fill="#f7fcff" fill-rule="evenodd"/></g></svg>