<svg fill="none" height="12" viewBox="0 0 16 12" width="16" xmlns="http://www.w3.org/2000/svg" xmlns:xlink="http://www.w3.org/1999/xlink"><clipPath id="a"><path d="m0 0h16v12h-16z"/></clipPath><g clip-path="url(#a)"><path d="m0 0h16v12h-16z" fill="#fff"/><g clip-rule="evenodd" fill-rule="evenodd"><path d="m0 8h16v4h-16z" fill="#55ba07"/><path d="m0 4h16v4h-16z" fill="#f7fcff"/><path d="m0 0h16v4h-16z" fill="#3d58db"/><path d="m7.625 4.12015c-.26134.07017-.39934.25078-.39934.57033 0 .3652.17931.70798.39934.88476zm.625 1.44531c.21392-.17921.38588-.51561.38588-.87404 0-.31037-.13588-.49017-.38588-.56478zm-.02107-1.69932c.40921.0909.70535.36958.70535.82236 0 .32931-.15666.72965-.39954 1.00438l1.21686 1.19351.3002-.09883.4482.67983s-1.13296.53261-2.53329.53261c-1.40032 0-2.46671-.53261-2.46671-.53261l.38158-.581.30816.10102 1.12898-1.27383c-.2535-.27503-.41822-.6874-.41822-1.02508 0-.46879.31746-.75096.74919-.8313.04752-.11198.15849-.19053.28781-.19053.13273 0 .24613.08275.29143.19947z" fill="#1d1d1d"/></g></g></svg>