<svg fill="none" height="12" viewBox="0 0 16 12" width="16" xmlns="http://www.w3.org/2000/svg" xmlns:xlink="http://www.w3.org/1999/xlink"><clipPath id="a"><path d="m0 0h16v12h-16z"/></clipPath><g clip-path="url(#a)"><path d="m0 0h16v12h-16z" fill="#fff"/><g clip-rule="evenodd" fill-rule="evenodd"><path d="m0 9h16v3h-16z" fill="#55ba07"/><path d="m0 3h16v6h-16z" fill="#1d1d1d"/><path d="m0 0h16v3h-16z" fill="#e11c1b"/><path d="m7.89881 7.53296c-.89604-.1852-1.12397-.72037-1.11437-1.44359 0-.76525.39843-1.47352 1.10525-1.5582s1.28574.17898 1.58919.54691c-.25381-.99876-1.09459-1.10799-1.74014-1.10799-.9719-.0085-1.99777.66414-1.99777 2.19402 0 1.36885.9077 2.04561 2.02583 2.06812 1.39789 0 1.61665-.96532 1.65688-1.29419-.08132.05836-.15666.12811-.23396.19969-.2794.25871-.58453.54123-1.29091.39523zm2.20889-1.92601-.6381.2469.662.29253-.0239.77451.5024-.53462.7289.15008-.4424-.59336.3859-.57105-.6088.12848-.4301-.4861z" fill="#fff"/></g></g></svg>