<svg fill="none" height="12" viewBox="0 0 16 12" width="16" xmlns="http://www.w3.org/2000/svg" xmlns:xlink="http://www.w3.org/1999/xlink"><clipPath id="a"><path d="m0 0h16v12h-16z"/></clipPath><g clip-path="url(#a)"><path d="m0 0h16v12h-16z" fill="#fff"/><g clip-rule="evenodd" fill-rule="evenodd"><path d="m0 0h16v11c0 .5523-.4477 1-1 1h-14c-.552285 0-1-.4477-1-1z" fill="#c51918"/><path d="m0 0h16v12h-16z" fill="#e31d1c"/><path d="m11.241 9.81308-3.15809-8.46278h-.13703l-3.0483 8.46278 3.16569-1.90258zm-3.5077-5.70207.33856-1.31918.35134 1.35696 1.00932 2.82824.59258 1.36927-1.27935-.90133-.68321-.40906-.6722.40399-1.24967.9064.57771-1.39732z" fill="#579d20"/><path d="m6.33127 6.73656 1.74797 1.16197 1.63108-1.16197 3.09788-2.61834h-9.61557zm.03627-.99951-1.1888-.72748h1.45034 2.88187 1.27935l-1.02044.64637-1.69822 1.28848z" fill="#579d20"/></g></g></svg>