<svg fill="none" height="12" viewBox="0 0 16 12" width="16" xmlns="http://www.w3.org/2000/svg" xmlns:xlink="http://www.w3.org/1999/xlink"><clipPath id="a"><path d="m0 0h16v12h-16z"/></clipPath><mask id="b" height="6" maskUnits="userSpaceOnUse" width="6" x="5" y="3"><path clip-rule="evenodd" d="m5.52002 3.91667h5.27998v3.81945s-1.34352.40467-2.63998 1.06874c-.95702-.70995-2.64-1.06874-2.64-1.06874z" fill="#fff" fill-rule="evenodd"/></mask><g clip-path="url(#a)"><path d="m0 0h16v12h-16z" fill="#fff"/><g clip-rule="evenodd" fill-rule="evenodd"><path d="m11 0h5v12h-5z" fill="#d9071e"/><path d="m0 0h6v12h-6z" fill="#3d58db"/><path d="m5 0h6v12h-6z" fill="#fbcd17"/><path d="m10.8592 9.80708-.5265.28772-1.74527-3.19444.52653-.28767zm-5.60243.07681.52654.28771 1.74528-3.19443-.52654-.28767z" fill="#fd1900"/><path d="m5.68903 4.69451v2.77566c0 .6166-.53093 1.42016-.79869 1.7191-.26777.29895-.79958.98383-.79958.98383v-7.46894c0-.83779.79958-1.12558.79958-1.12558s.66391.13135.79869 1.12558v.96898c.20549.16182.89167.65811 1.33494.44861.52631-.24875.7081-.96223.7081-.96223s-.04921-.71995-.26524-.71995c-.21602 0-.23328-1.01413.59402-1.01413.82731 0 .92375.39091.92375.70252 0 .16335-.13093.42549-.25554.67495-.1131.22644-.22098.44243-.22098.56459 0 .25675.19345.75425.47652.75425.19853 0 1.1535-.371 1.7062-.5926v-.82499c.1347-.99423.7987-1.12558.7987-1.12558s.7995.28779.7995 1.12558v7.46894s-.5318-.68488-.7995-.98383c-.2678-.29894-.7987-1.1025-.7987-1.7191v-2.77566zm.88606 5.22158c.5408-.35212 1.33187-1.93102 1.33187-1.93102l.26265.06101s.40104 1.04583 1.58021 1.87001c-1.2569.33541-1.58021 1.00901-1.58021 1.00901 0-.5389-1.59452-1.00901-1.59452-1.00901zm-.08709-.99943c.36451 0 .66-.27982.66-.625 0-.34517-.29549-.625-.66-.625s-.66.27983-.66.625c0 .34518.29549.625.66.625zm3.872-.625c0 .34518-.2955.625-.66001.625-.3645 0-.66-.27982-.66-.625 0-.34517.2955-.625.66-.625.36451 0 .66001.27983.66001.625z" fill="#a77b3b"/></g><path d="m12.57 5.20383.459.19837-1.8698 4.32596-.4589-.19838z" fill="#fdff00"/><path clip-rule="evenodd" d="m5.52002 3.91667h5.27998v3.81945s-1.34352.40467-2.63998 1.06874c-.95702-.70995-2.64-1.06874-2.64-1.06874z" fill="#e1e5e8" fill-rule="evenodd" opacity=".3"/><g mask="url(#b)"><path d="m5.52002 6.41667h5.28v2.5h-5.28z" fill="#3d58db"/><path d="m5.52002 3.91667h5.28v2.5h-5.28z" fill="#fd1900"/><g clip-rule="evenodd" fill="#fdff00" fill-rule="evenodd"><path d="m7.89335 5.04107-.40017.03312.2308-.31133-.24596-.32242.40221.05179.15422-.35554.1714.36311.40017-.03311-.23079.31133.24595.32242-.4022-.05179-.15422.35554z"/><path d="m7.17505 4.33585s-1.07495.654-.71663 1.12346c.35831.46947.80936.52957.80936.52957s-1.0996 1.64965.83574 2.59209c2.07198-.9098.98232-2.59209.98232-2.59209s.63782-.14111.76552-.64872-.83369-1.08982-.83369-1.08982.59982.8694.46289 1.08982c-.13694.22042-.87049.44483-1.37704.44483s-1.28875-.14223-1.41499-.5274.48652-.92174.48652-.92174z"/></g></g><path clip-rule="evenodd" d="m2.36835 5.76449s.52706.62311 1.02334.41938.37596-.93414.37596-.93414l-.37596.34106h-.32003v.1737l-.24995-.1737v.1737zm.35646.95753s.64239.56027 1.07519.40194c.43279-.15832.32411-.9167.32411-.9167l-.37596.34106h-.32003v.1737l-.24995-.1737v.1737zm1.7299 1.27144c-.43279.15833-1.07518-.40194-1.07518-.40194h.45336v-.1737l.24995.1737v-.1737h.32003l.37596-.34106s.10868.75838-.32412.9167z" fill="#048f02" fill-rule="evenodd"/><path clip-rule="evenodd" d="m6.98967 1.12424h-.5v.2978h-.23534v.5h.23534v.87231h.5v-.87231h.28608v-.5h-.28608z" fill="#fdff00" fill-rule="evenodd"/><path clip-rule="evenodd" d="m7.57909 1.69228-1.15807.29832 1.15807.36594z" fill="#db4400" fill-rule="evenodd"/></g></svg>