<svg fill="none" height="12" viewBox="0 0 16 12" width="16" xmlns="http://www.w3.org/2000/svg" xmlns:xlink="http://www.w3.org/1999/xlink"><clipPath id="a"><path d="m0 0h16v12h-16z"/></clipPath><mask id="b" height="8" maskUnits="userSpaceOnUse" width="12" x="2" y="2"><path clip-rule="evenodd" d="m2 2h12v8h-12z" fill="#fff" fill-rule="evenodd"/></mask><mask id="c" height="3" maskUnits="userSpaceOnUse" width="3" x="6" y="5"><path clip-rule="evenodd" d="m6.97688 5.17973s.56884-.10735.87692-.10735c.27654 0 .87692.10735.87692.10735 0 .68002.19137 1.09635 0 1.56081-.19136.46446-.65901.2412-.87068.68566-.2705-.42158-.63583-.18953-.88316-.78984-.24734-.60031.15037-.8768 0-1.45663z" fill="#fff" fill-rule="evenodd"/></mask><g clip-path="url(#a)"><path d="m0 0h16v12h-16z" fill="#fff"/><path clip-rule="evenodd" d="m0 0h16v12h-16z" fill="#e8aa00" fill-rule="evenodd"/><path clip-rule="evenodd" d="m2 2h12v8h-12z" fill="#c51918" fill-rule="evenodd"/><g mask="url(#b)"><path clip-rule="evenodd" d="m10.1154 7.87568c.2039 0 .3692-.16941.3692-.37838s-.1653-.37838-.3692-.37838c-.20393 0-.36925.16941-.36925.37838s.16532.37838.36925.37838z" fill="#1e5e91" fill-rule="evenodd"/><g fill="#f6c540"><path clip-rule="evenodd" d="m5.31378 6.16592c-.96862-1.12572.41963-3.07931.41963-3.07931s.20754 1.16677.97572 1.9519c0 .05575-.07254.13801-.14598.22129-.05129.05816-.10302.11682-.13079.16729-.06754.12276.16433.19273.27677.19273.05047 0 .07836.07319.10352.13925.03091.08112.05772.15149.11722.06235.10795-.16173-.10795-.51709-.10795-.51709l.34178-.3605.11559-.23303h-.11559v-.23993l-.08099.06651s-.08886-.21452-.26079-.21452-.22523-.0981-.22523-.0981h.22523c.11278 0-.01803-.14945-.11279-.22729-.04247-.0349-.10691-.02287-.16508-.012-.07161.01336-.13373.02496-.13373-.0549 0-.08754.06816-.09913.14691-.11253.05147-.00876.10746-.01829.1519-.05029.07351-.05293.17259-.03666.27984-.01904.05681.00933.11591.01904.17473.01904h.27848c.10056 0-.16289.16282-.16289.16282l.16289.14474.24224.24755-.12114.0719.24997.2424s-.08486.13796 0 .13796c.03497 0 .05798.02866.07296.06236.01497-.0337.03798-.06236.07296-.06236.08485 0 0-.13796 0-.13796l.24997-.2424-.12115-.0719.24224-.24755.1629-.14474s-.26346-.16282-.1629-.16282h.27848c.05882 0 .11792-.00971.17473-.01904.10726-.01762.20633-.03389.27984.01904.04444.032.10044.04153.1519.05029.07875.0134.14691.02499.14691.11253 0 .07986-.06212.06826-.13372.0549-.05818-.01087-.12261-.0229-.16509.012-.09476.07784-.22557.22729-.11278.22729h.22522s-.05329.0981-.22522.0981c-.17194 0-.2608.21452-.2608.21452l-.08099-.06651v.23993h-.11558l.11558.23303.34179.3605s-.21591.35536-.10796.51709c.0595.08914.08631.01877.11722-.06235.02517-.06606.05305-.13925.10352-.13925.11244 0 .34431-.06997.27677-.19273-.02777-.05047-.0795-.10913-.13079-.16729-.07344-.08328-.14598-.16554-.14598-.22129.76818-.78513.97572-1.9519.97572-1.9519s1.3883 1.95359.4196 3.07931c-.96859 1.12573-1.68004.78627-1.68004.78627s.85809.79833.9531.79851c.01339.00003-.01653-.07365-.04619-.1467-.02928-.0721-.05831-.14358-.04522-.14302.02762.00119.08191.06672.13639.13248.04342.05242.08696.10499.11722.12523.01948.01303.09558-.0134.16614-.0379.0596-.0207.1152-.04002.1292-.03294.0595.03.0443.09071.0298.14852-.0037.01486-.0074.02954-.0097.04344-.0022.01265.074-.03674.1541-.0887.0841-.05455.1725-.11192.1792-.10326.0015.00182.003.00367.0046.00559.0286.0344.0746.08982-.2654.35187 0 .05038.0018.09148.0033.12488.0047.10724.0059.13501-.0668.13501-.0323 0-.0776.01604-.13.03463-.13453.04767-.31615.11204-.44805-.03463-.18334-.20387-1.31002-1.02441-1.31002-1.02441l-.12109.06754s.41267 1.13885.6334 1.14677c.10969.00394-.05687.11039-.27751.2514-.22337.14275-.50216.32092-.60586.46401-.03087.04259-.05472-.02234-.07296-.16355-.01825.14121-.0421.20614-.07296.16355-.10371-.14309-.3825-.32126-.60587-.46401-.22064-.14101-.3872-.24746-.27751-.2514.22073-.00792.63341-1.14677.63341-1.14677l-.1211-.06754-.44833.51495s-.67835.30559-.86169.50946c-.13189.14667-.31352.0823-.448.03463-.05244-.01859-.09771-.03463-.13007-.03463-.11535 0-.15396-.16139 0-.35927.09033-.11611.22861-.13164.36043-.14644.09283-.01043.18247-.02049.2499-.06508.1632-.10788.43227-.38608.43227-.38608l.39716-.35614s-.71145.33946-1.68007-.78627z" fill-rule="evenodd"/><path clip-rule="evenodd" d="m6.21653 8.51517-.43756-.76711s-.57208-1.31904-.57208-1.47919-.23031-.63439-.23031-.49673-.01906 1.24155-.01906 1.24155l.9843 1.42968v.17133h.12998z" fill-rule="evenodd"/><path d="m9.72095 7.48246.06657-.22095.81298.24491-.0666.22096z"/><path d="m10.1539 7.08017.2198.07196-.2147.68901-.21985-.07196z"/><path clip-rule="evenodd" d="m8.06858 2.64626c-.03189-.01256-.06578-.02425-.10165-.03505l-.00266.00928c-.03159-.0059-.06113-.00928-.08735-.00928-.00938 0-.01919.00044-.02936.00126l-.00036-.00126c-.002.00061-.004.00121-.00599.00182-.05701.00544-.12484.02263-.19381.045-.3645.04126-.55286.20158-.53201.47746.01071.1417.0582.24273.13768.29996v.08443s.4159.27036.62385.27036.62385-.27036.62385-.27036v-.05256c.11461-.0458.18285-.15833.19596-.33183.02147-.28401-.17879-.44555-.56471-.4808l-.00106.01148c-.02089-.0071-.04177-.0138-.06238-.01991zm.43219.6545v-.36731c.04522.05056.06372.11445.05786.19193-.00611.08085-.02448.13871-.05786.17538zm-1.2477-.18172v-.04098c-.00084.0132-.00084.02686 0 .04098z" fill-rule="evenodd"/></g><path clip-rule="evenodd" d="m6.97688 5.17973s.56884-.10735.87692-.10735c.27654 0 .87692.10735.87692.10735 0 .68002.19137 1.09635 0 1.56081-.19136.46446-.65901.2412-.87068.68566-.2705-.42158-.63583-.18953-.88316-.78984-.24734-.60031.15037-.8768 0-1.45663z" fill="#1e5e91" fill-rule="evenodd"/><g mask="url(#c)"><path d="m6.97687 6.59865h1.75385v.851351h-1.75385z" fill="#5eaa22"/></g><path clip-rule="evenodd" d="m7.89996 6.4c.27615 0 .5-.22386.5-.5s-.22385-.5-.5-.5c-.27614 0-.5.22386-.5.5s.22386.5.5.5z" fill="#f6c540" fill-rule="evenodd"/></g></g></svg>