<svg fill="none" height="12" viewBox="0 0 16 12" width="16" xmlns="http://www.w3.org/2000/svg" xmlns:xlink="http://www.w3.org/1999/xlink"><clipPath id="a"><path d="m0 0h16v12h-16z"/></clipPath><mask id="b" height="12" maskUnits="userSpaceOnUse" width="16" x="0" y="0"><path clip-rule="evenodd" d="m0 0v12h16v-12z" fill="#fff" fill-rule="evenodd"/></mask><g clip-path="url(#a)"><path d="m0 0h16v12h-16z" fill="#fff"/><path clip-rule="evenodd" d="m0 0v12h16v-12z" fill="#f50100" fill-rule="evenodd"/><g fill="#ffd018" mask="url(#b)"><path clip-rule="evenodd" d="m0-.0209808v2.0419608l7 2.97562-5.37238-5.0175808zm8 6.0209808 1.5-6.00000075h-3zm0 0-1.5 6h3zm-8 3.97562v2.04198h1.62762l5.37238-5.0176zm16-7.94245v-2.04196247l-1.6276-.00000004-5.3724 5.01758251zm0 9.99663v-2.04199l-7-2.97562 5.3724 5.01761zm0-7.5298-6 1.5 6 1.5zm-10 1.5-6-1.5v3z" fill-rule="evenodd"/><path d="m8 8.5c1.38071 0 2.5-1.11929 2.5-2.5s-1.11929-2.5-2.5-2.5-2.5 1.11929-2.5 2.5 1.11929 2.5 2.5 2.5z" stroke="#f50100"/></g></g></svg>