<svg fill="none" height="12" viewBox="0 0 16 12" width="16" xmlns="http://www.w3.org/2000/svg" xmlns:xlink="http://www.w3.org/1999/xlink"><clipPath id="a"><path d="m0 0h16v12h-16z"/></clipPath><mask id="b" height="12" maskUnits="userSpaceOnUse" width="16" x="0" y="0"><path clip-rule="evenodd" d="m0 0v12h16v-12z" fill="#fff" fill-rule="evenodd"/></mask><mask id="c" height="8" maskUnits="userSpaceOnUse" width="8" x="4" y="3"><path clip-rule="evenodd" d="m8 11c2.2091 0 4-1.79086 4-4s-1.7909-4-4-4c-2.20914 0-4 1.79086-4 4s1.79086 4 4 4z" fill="#fff" fill-rule="evenodd"/></mask><g clip-path="url(#a)"><path d="m0 0h16v12h-16z" fill="#fff"/><path clip-rule="evenodd" d="m0 0v12h16v-12z" fill="#1c9975" fill-rule="evenodd"/><g mask="url(#b)"><g clip-rule="evenodd" fill-rule="evenodd"><path d="m8.01086 3.42687-.81686.49313.18632-.9623-.68025-.7202.92109-.03894.3897-.89856.38969.89856h.91952l-.67867.75914.20432.9623z" fill="#feca00"/><path d="m5.69134 3.79224-.50508.30492.11521-.59502-.42061-.44531.56953-.02408.24095-.55559.24096.55559h.56856l-.41964.46939.12634.59502z" fill="#feca00"/><path d="m10.2906 3.79224-.50509.30492.1152-.59502-.42061-.44531.5695-.02408.241-.55559.2409.55559h.5686l-.4196.46939.1263.59502z" fill="#feca00"/><path d="m4.3833 4.80531-.40531.24469.09245-.47748-.33753-.35735.45703-.01932.19336-.44585.19336.44585h.45625l-.33675.37667.10138.47748z" fill="#feca00"/><path d="m11.7804 4.80531-.4053.24469.0924-.47748-.3375-.35735.457-.01932.1934-.44585.1934.44585h.4562l-.3367.37667.1013.47748z" fill="#feca00"/></g><g mask="url(#c)"><path d="m6.31014 11.6392h-1.95235v-2.62891l1.94884.00003c.69035-.00971 1.19481-.20689 1.53139-.58624l.16772-.18903.18721.16974c.44953.40759.89855.6055 1.35279.6055h2.15216v2.62891h-2.15216c-.52185 0-1.02565-.1963-1.50739-.5807-.42664.3782-1.00594.5705-1.72821.5807z" fill="#f7fcff"/></g><path clip-rule="evenodd" d="m8.0174 3.80389s-.85438.844-.85438 2.00229c0 .24788.03913.48205.10063.69704-.27526-.61007-.29433-1.2716-.05677-1.9932l-.32335-.10646c-.24167.73408-.24271 1.42424-.00279 2.06386-.49631-.29903-1.06732-.49995-1.65342-.56474l-.0374.33837c.51221.05662 1.01214.22741 1.45107.48023-.10837-.04369-.222-.0817-.34054-.11196-1.08148-.27602-2.14249.11537-2.14249.11537s.61204 1.37311 1.79749 1.57559c.0591.0101.11753.01796.1752.02378l-.00895.00002c-.5652 0-1.09081-.23108-1.583-.70056l-.23496.24634c.55283.52732 1.16087.79465 1.81796.79465.64262 0 1.23944-.25569 1.78478-.76022.08748-.05283.13866-.09063.14686-.09677l.02146.01824c-.01125.01931-.01689.02985-.01689.02985s.05377.03254.15072.07839c.53845.41735 1.21215.73051 1.74517.73051.6571 0 1.2651-.26733 1.818-.79465l-.235-.24634c-.4922.46948-1.0178.70056-1.583.70056-.20649 0-.40883-.03317-.60731-.09993.27793.01496.5841-.01008.90101-.10697 1.1677-.35701 1.6545-1.43683 1.6545-1.43683s-.6213-.33525-1.4105-.33902c.1768-.0456.3614-.07902.5537-.10028l-.0374-.33837c-.7401.08181-1.3804.33162-1.91753.74846.31406-.69057.33837-1.44268.07339-2.24758l-.32336.10646c.21653.65772.21986 1.26553.01031 1.82996.03589-.1669.05711-.34529.05711-.5338 0-1.22107-.89032-2.00229-.89032-2.00229zm.37585 3.57382-.01267.01825.01546-.01842zm-.82578-.07973.03346-.03079c.03043.05055.06078.09814.09045.14255-.03848-.03623-.07981-.07368-.12391-.11176z" fill="#f7fcff" fill-rule="evenodd"/></g></g></svg>