<svg fill="none" height="12" viewBox="0 0 16 12" width="16" xmlns="http://www.w3.org/2000/svg" xmlns:xlink="http://www.w3.org/1999/xlink"><clipPath id="a"><path d="m0 0h16v12h-16z"/></clipPath><g clip-path="url(#a)"><path d="m0 0h16v12h-16z" fill="#fff"/><path clip-rule="evenodd" d="m0 0h17v12h-17z" fill="#2993ec" fill-rule="evenodd"/><path clip-rule="evenodd" d="m3.10638 5.79167c0 2.64636 2.19095 4.79163 4.89362 4.79163 2.7027 0 4.8936-2.14527 4.8936-4.79163 0-2.64637-2.1909-4.79167-4.8936-4.79167-2.70267 0-4.89362 2.1453-4.89362 4.79167zm8.72342 0c0 2.07106-1.7147 3.75-3.8298 3.75-2.11513 0-3.82979-1.67894-3.82979-3.75 0-2.07107 1.71466-3.75 3.82979-3.75 2.1151 0 3.8298 1.67893 3.8298 3.75z" fill="#f1f9ff" fill-rule="evenodd"/><path clip-rule="evenodd" d="m3.53192 5.79167c0 2.41625 2.00043 4.37503 4.46809 4.37503 2.46769 0 4.46809-1.95878 4.46809-4.37503 0-2.41624-2.0004-4.375-4.46809-4.375-2.46766 0-4.46809 1.95876-4.46809 4.375zm8.72338 0c0 2.30119-1.9051 4.16667-4.25529 4.16667-2.35015 0-4.25532-1.86548-4.25532-4.16667s1.90517-4.16666 4.25532-4.16666c2.35019 0 4.25529 1.86547 4.25529 4.16666z" fill="#e31d1c" fill-rule="evenodd"/><path d="m8.00001 10.0917c-2.42773 0-4.39309-1.92668-4.39309-4.30003h-.15c0 2.45915 2.03551 4.45003 4.54309 4.45003zm4.39309-4.30003c0 2.37335-1.9654 4.30003-4.39309 4.30003v.15c2.50759 0 4.54309-1.99088 4.54309-4.45003zm-4.39309-4.3c2.42769 0 4.39309 1.92666 4.39309 4.3h.15c0-2.45915-2.0355-4.45-4.54309-4.45zm-4.39309 4.3c0-2.37334 1.96536-4.3 4.39309-4.3v-.15c-2.50758 0-4.54309 1.99085-4.54309 4.45zm4.39309 4.24163c2.39009 0 4.33029-1.89754 4.33029-4.24163h-.15c0 2.25829-1.8701 4.09167-4.18029 4.09167zm-4.33032-4.24163c0 2.34409 1.94024 4.24163 4.33032 4.24163v-.14996c-2.31023 0-4.18032-1.83338-4.18032-4.09167zm4.33032-4.24166c-2.39008 0-4.33032 1.89757-4.33032 4.24166h.15c0-2.25828 1.87009-4.09166 4.18032-4.09166zm4.33029 4.24166c0-2.34409-1.9402-4.24166-4.33029-4.24166v.15c2.31019 0 4.18029 1.83338 4.18029 4.09166z" fill="#e31d1c"/><path clip-rule="evenodd" d="m7.29308 2.875c-.18338 0-.3198.1695-.2806.34864l.19343.88387c.017.07765.06448.14216.12822.18208-.05878.04571-.09957.11395-.10897.19283l-.69378 5.82278c-.01273.1068.03507.2115.12847.2649.26111.1493.82723.4299 1.39336.4299.56612 0 1.13224-.2806 1.39336-.4299.0934-.0534.14119-.1581.12846-.2649l-.69378-5.82278c-.00939-.07888-.05018-.14712-.10897-.19283.06374-.03992.11123-.10443.12822-.18208l.19343-.88387c.0392-.17914-.09721-.34864-.28059-.34864z" fill="#a7a7a7" fill-rule="evenodd"/><path d="m3.25964 6.0064c.02579-.08252.11501-.12894.19928-.10369.08428.02525.13169.11261.1059.19513-.04462.14277-.04462.35365.00461.62954.01888.10583.04132.18753.06893.25971.01099.02876.02237.05508.03756.08774-.00676-.01455.03033.06423.03935.08465.04769.10794.06878.20255.06878.34114 0 .0863-.07144.15625-.15957.15625s-.15958-.06995-.15958-.15625c0-.09471-.01172-.14729-.04255-.21706-.00726-.01644-.0419-.09003-.03686-.07918-.01801-.03871-.03211-.07134-.04601-.10769-.03464-.09057-.06222-.19096-.08444-.31554-.05711-.32007-.05711-.57729.0046-.77475z" fill="#73be4a"/><path clip-rule="evenodd" d="m8.10638 8.08959-2.05724 1.40173.72577-2.34895-1.99722-1.48264 2.50579-.05.8229-2.31806.8229 2.31806 2.50582.05-1.99724 1.48264.72574 2.34895z" fill="#f7fcff" fill-rule="evenodd"/><path d="m12.7797 6.21474c-.0258-.08251-.115-.12894-.1993-.10369-.0842.02525-.1316.11262-.1059.19513.0447.14277.0447.35365-.0046.62954-.0188.10583-.0413.18754-.0689.25972-.011.02875-.0224.05507-.0376.08773.0068-.01454-.0303.06423-.0393.08465-.0477.10795-.0688.20255-.0688.34115 0 .08629.0715.15625.1596.15625s.1596-.06996.1596-.15625c0-.09472.0117-.1473.0425-.21707.0073-.01644.0419-.09002.0369-.07918.018-.0387.0321-.07134.046-.10769.0346-.09057.0622-.19096.0844-.31553.0571-.32008.0571-.5773-.0046-.77476z" fill="#73be4a"/><path d="m8.0304 1.57381s.58219.25936.33075.66774" stroke="#73be4a" stroke-linecap="round" stroke-linejoin="round" stroke-width=".5"/><path d="m8.45593 1.57381s.58219.25936.33076.66774" stroke="#73be4a" stroke-linecap="round" stroke-linejoin="round" stroke-width=".5"/><g fill="#73be4a"><path d="m4.6299 3.17838c.04221-.07307.13087-.09506.19802-.04914s.08737.14238.04516.21544c-.08098.14017-.12314.33249-.12314.57909 0 .0863-.0643.15625-.14362.15625-.07931 0-.14361-.06995-.14361-.15625 0-.30137.05462-.55055.16719-.74539z"/><path d="m4.40424 4.60627c0 .0863-.0643.15625-.14362.15625s-.14362-.06995-.14362-.15625v-.44508c0-.31493.0494-.56295.15357-.74406.04207-.07316.13068-.09536.19792-.04958.06724.04577.08765.14218.04557.21534-.07143.12419-.10982.31697-.10982.5783z"/><path d="m11.7421 4.39793c0 .0863.0643.15625.1436.15625s.1436-.06995.1436-.15625v-.44508c0-.31494-.0494-.56295-.1536-.74407-.042-.07315-.1307-.09535-.1979-.04958-.0672.04578-.0876.14219-.0456.21534.0715.1242.1099.31697.1099.57831z"/><path d="m12.1676 5.1271c0 .0863.0643.15625.1436.15625s.1436-.06995.1436-.15625v-.44508c0-.31493-.0494-.56295-.1535-.74407-.0421-.07315-.1307-.09535-.198-.04957-.0672.04577-.0876.14218-.0455.21533.0714.1242.1098.31697.1098.57831z"/></g></g></svg>