<svg fill="none" height="12" viewBox="0 0 16 12" width="16" xmlns="http://www.w3.org/2000/svg" xmlns:xlink="http://www.w3.org/1999/xlink"><clipPath id="a"><path d="m0 0h16v12h-16z"/></clipPath><g clip-path="url(#a)"><path d="m0 0h16v12h-16z" fill="#fff"/><g clip-rule="evenodd" fill-rule="evenodd"><path d="m11 0h5v12h-5z" fill="#d9071e"/><path d="m0 0h6v12h-6z" fill="#006923"/><path d="m5 0h6v12h-6z" fill="#fff"/><path d="m7.19213 3.9567s-.3434.26632-.27918.55026.74097 0 .65916-.27513-.37998-.27513-.37998-.27513z" fill="#fcca3d"/><path d="m6.66779 4.63405c-.25694 0-.36406-.21412-.31091-.4417.0284-.12162.10217-.27591.22253-.47638l.42867.25739c-.04589.07643-.08247.14277-.1096.19754.08987.02654.17846.06598.25056.11346.23346.15373.31939.42765.0691.63066-.04844.03929-.12704.17325-.17043.3019.11942.00665.20478.02461.28347.07116.22099.13072.2002.36913.03191.55323-.11928.13049-.27855.23634-.42859.29056-.24963.09021-.51671.05566-.51671-.26392l-.00006-.00234c-.00049-.01301-.00133-.03526.11015-.03778l.02171-.00023-.0076-.00005-.01411.00028c-.19022-.0027-.23093-.1034-.25465-.28271-.00601-.04542-.00843-.08865-.01177-.18194l-.00223-.06071-.00267-.05912-.00081-.01315c-.00376-.05772-.00636-.09769.12303-.09769h-.29003v-.5h.29003c.1645 0 .25541.05555.3075.1704.029-.05208.06055-.10111.09375-.14507-.04182-.01447-.08424-.02379-.11224-.02379zm.31847.87824.00778-.00832c-.00085.00093-.00169.00212-.0025.00354zm-.21833.14824c-.00055.00012-.00084.00018-.00073.00014l.00083-.00016zm-.00005-.18848.00103.00749-.00162-.01447z" fill="#a8ac71"/><path d="m9.63328 6.20145s.46252-1.37068-.27269-2.08019c-.73519-.70952-1.58474-.66204-1.58474-.66204s-.24465.18177 0 .3204.14215.27155.14215.27155-.40972-.41602-.68171-.17297c-.27199.24306.2539.20606.19823.38907s-.29152.99554.05311 1.40576c.34464.41023-.32584.3212-.18947.3212.13636 0 .61984.09549.61984 0s.16808.37124.31193.37124c.14384 0 .25487-.16402.25487-.16402s.20164.16402.3245.16402.55129-.10734.55129-.10734l-.80974-.68226s.04882-.30093-.06605-.36607c-.11487-.06513.92089.57722 1.002.78443.08111.20722.14648.20722.14648.20722z" fill="#8f4620"/></g><path d="m5.53329 5.86329s.07507-.23928.15545-.25589c.06964-.01439.21607.11467.21607.11467.26012 1.44493.88908 2.00929 1.93271 2.00929 1.05591 0 1.69587-.42884 2.06933-1.76147 0 0 .19855-.20275.26855-.18021.0763.02454.1719.29278.1719.29278-.0956 1.55831-1.22065 2.48202-2.49248 2.48202-1.2841 0-2.33256-1.03501-2.32153-2.70119z" fill="#9fab2f"/><path clip-rule="evenodd" d="m6.66711 6.82822s1.50218.31867 2.0951.31867-.52023.4839-.95456.4839c-.43434 0-1.14054-.80257-1.14054-.80257z" fill="#2fc2dc" fill-rule="evenodd"/><rect fill="#f9aa51" height=".535714" rx=".083333" width="1" x="7.33337" y="7.05"/><path d="m6.08777 6.06794.40931-.28716c.53272.75931 1.32937 1.00911 2.44358.74839l.11392.48685c-1.30251.30478-2.30932-.01092-2.96681-.94808z" fill="#259485"/><path clip-rule="evenodd" d="m8.2957 6.17513s-.60683.31943-.40455.31943c.20227 0 .99392.15972.83988 0s-.43533-.31943-.43533-.31943z" fill="#fcca3d" fill-rule="evenodd"/><path clip-rule="evenodd" d="m7.57826 5.79412s-.1153-.33303-.35524-.33303c-.23995 0-.17222.27319-.2876.27319-.11539 0 .10751.19224.20686.19224s.43598-.1324.43598-.1324z" fill="#fcca3d" fill-rule="evenodd"/></g></svg>