<svg fill="none" height="12" viewBox="0 0 16 12" width="16" xmlns="http://www.w3.org/2000/svg" xmlns:xlink="http://www.w3.org/1999/xlink"><clipPath id="a"><path d="m0 0h16v12h-16z"/></clipPath><g clip-path="url(#a)"><path d="m0 0h16v12h-16z" fill="#fff"/><path clip-rule="evenodd" d="m0 0h16v12h-16z" fill="#f7fcff" fill-rule="evenodd"/><g fill="#e31d1c"><path d="m.01355 2.5h16v1.45h-16z"/><path d="m.01355 5.10001h16v1.45h-16z"/><path d="m.055847 7.60001h16v1.25h-16z"/><path d="m.055847 10.1h16v1.35h-16z"/><path clip-rule="evenodd" d="m0 0h16v1.25h-16z" fill-rule="evenodd"/></g><path clip-rule="evenodd" d="m0 0h8v6h-8z" fill="#3d58db" fill-rule="evenodd"/><path clip-rule="evenodd" d="m1.79675 3.10111c0 .68811.32412 1.33882.98349 1.33882.98929 0 1.18175-.21091 1.64338-.5019.10914.24514-.25899 1.29419-1.65688 1.29419-1.11813-.02251-2.021745-.92078-2.021745-2.13111 0-1.38926 1.021785-2.139531 1.993685-2.131037.85801 0 1.76803.486877 1.74014 1.107987-.40427-.39492-.84324-.39492-1.57399-.39492-.73074 0-1.10808.72977-1.10808 1.41797z" fill="#feca00" fill-rule="evenodd"/><path clip-rule="evenodd" d="m5.5 3.64999-.46353.67659.02269-.81982-.77269.27491.50024-.64991-.78671-.23177.78671-.23176-.50024-.64991.77269.27491-.02269-.81982.46353.67658.46353-.67658-.02269.81982.77269-.27491-.50024.64991.78671.23176-.78671.23177.50024.64991-.77269-.27491.02269.81982z" fill="#feca00" fill-rule="evenodd"/></g></svg>