<svg fill="none" height="12" viewBox="0 0 16 12" width="16" xmlns="http://www.w3.org/2000/svg" xmlns:xlink="http://www.w3.org/1999/xlink"><clipPath id="a"><path d="m0 0h16v12h-16z"/></clipPath><mask id="b" height="12" maskUnits="userSpaceOnUse" width="16" x="0" y="0"><path clip-rule="evenodd" d="m0 0v12h16v-12z" fill="#fff" fill-rule="evenodd"/></mask><g clip-path="url(#a)"><path d="m0 0h16v12h-16z" fill="#fff"/><g clip-rule="evenodd" fill-rule="evenodd"><path d="m0 0v12h16v-12z" fill="#f7fcff"/><g mask="url(#b)"><path d="m8 0v6h8v-6z" fill="#e31d1c"/><path d="m11.5105 9.57486-1.1513.71234.447-1.19585-.97856-.90534h1.18686l.496-1.29355.3784 1.29355h1.1887l-.8567.90534.4195 1.19585z" fill="#e31d1c"/><g fill="#2e42a5"><path d="m4.51046 4.1824-1.15122.71236.44693-1.19587-.97853-.90534h1.18689l.49593-1.29355.37845 1.29355h1.18873l-.85669.90534.41944 1.19587z"/><path d="m0 6v6h8v-6z"/></g></g></g></g></svg>