<svg fill="none" height="12" viewBox="0 0 16 12" width="16" xmlns="http://www.w3.org/2000/svg" xmlns:xlink="http://www.w3.org/1999/xlink"><clipPath id="a"><path d="m0 0h16v12h-16z"/></clipPath><mask id="b" fill="#000" height="6" maskUnits="userSpaceOnUse" width="5" x="5.5885" y="3.44073"><path d="m5.5885 3.44073h5v6h-5z" fill="#fff"/><path clip-rule="evenodd" d="m8.0434 4.45271c.01331-.00755.02074-.01198.02074-.01198v.02357c.09626.05311.33862.17755.49622.17755.20034 0 .47265-.20112.47265-.20112l.45565.64337s-.30686.64315-.07206 1.42906c.2348.7859-.01243 1.39189-1.05659 1.45918 0 0-.20573.03909-.29587.10139v.05756c0-.01432-.00769-.02794-.02074-.04074-.01305.0128-.02074.02642-.02074.04074v-.05756c-.09013-.0623-.29587-.10139-.29587-.10139-1.04416-.06729-1.29139-.67328-1.05659-1.45918.2348-.78591-.07206-1.42906-.07206-1.42906l.45565-.64337s.27231.20112.47265.20112c.1576 0 .39996-.12444.49622-.17755v-.02357s.00743.00443.02074.01198z" fill="#000" fill-rule="evenodd"/></mask><mask id="c" height="6" maskUnits="userSpaceOnUse" width="5" x="6" y="3"><path clip-rule="evenodd" d="m8.0434 4.45271c.01331-.00755.02074-.01198.02074-.01198v.02357c.09626.05311.33862.17755.49622.17755.20034 0 .47265-.20112.47265-.20112l.45565.64337s-.30686.64315-.07206 1.42906c.2348.7859-.01243 1.39189-1.05659 1.45918 0 0-.20573.03909-.29587.10139v.05756c0-.01432-.00769-.02794-.02074-.04074-.01305.0128-.02074.02642-.02074.04074v-.05756c-.09013-.0623-.29587-.10139-.29587-.10139-1.04416-.06729-1.29139-.67328-1.05659-1.45918.2348-.78591-.07206-1.42906-.07206-1.42906l.45565-.64337s.27231.20112.47265.20112c.1576 0 .39996-.12444.49622-.17755v-.02357s.00743.00443.02074.01198z" fill="#fff" fill-rule="evenodd"/><path d="m8.06414 4.44073h.5v-.88017l-.75603.4507zm-.02074.01198-.24656.43498.24656.13975.24656-.13975zm.02074.01159h-.5v.29519l.25846.1426zm.96887-.02357.40804-.28897-.29479-.41624-.41028.30301zm.45565.64337.45126.21531.12638-.26483-.16961-.23945zm-.07206 1.42906-.47908.14313zm-1.05659 1.45918-.03215-.49897-.03083.00199-.03035.00576zm-.29587.10139-.28429-.41131-.21571.14909v.26222zm-.02074.01682.35011-.35696-.35011-.34339-.35011.34339zm-.02074-.01682h.5v-.26222l-.21571-.14909zm-.29587-.10139.09334-.49122-.03036-.00576-.03083-.00199zm-1.12865-2.88824-.40803-.28897-.16959.23945.12636.26483zm.45565-.64337.29704-.4022-.41029-.30301-.29479.41624zm.96887.02357.24154.43779.25846-.1426v-.29519zm0-.02357.25603-.42947-.75603-.4507v.88017zm.04148 0c-.25603-.42947-.25602-.42947-.25602-.42948.00001 0 .00001-.00001.00002-.00001.00001-.00001.00002-.00001.00003-.00002.00002-.00001.00004-.00002.00006-.00003.00004-.00003.00008-.00005.00012-.00007.00007-.00005.00014-.00009.00019-.00012.00012-.00007.00021-.00012.00028-.00016.00013-.00008.00015-.00009.00006-.00004-.00016.0001-.00075.00044-.00172.00101-.00195.00113-.00545.00316-.01032.00591l.49312.86997c.00844-.00479.01531-.00875.0204-.01171.00254-.00148.00465-.00272.00629-.00369.00082-.00048.00153-.0009.00212-.00125.00029-.00017.00055-.00033.00079-.00047.00011-.00007.00022-.00013.00032-.00019l.00015-.00009c.00002-.00001.00005-.00003.00007-.00004.00001-.00001.00002-.00001.00003-.00002.00001 0 .00002-.00001.00002-.00001.00001-.00001.00002-.00001-.25601-.42949zm.5.02357v-.02357h-1v.02357zm-.74154.43779c.05674.0313.16014.08575.27742.13371.10135.04144.278.10605.46034.10605v-1c.02093 0 .02303.00325-.00043-.00307-.0204-.00549-.048-.01492-.08145-.0286-.06737-.02755-.13329-.06187-.17281-.08367zm.73776.23976c.23394 0 .44706-.10555.549-.16059.06237-.03368.11535-.06677.15277-.09139.01895-.01246.03451-.02315.04598-.0312.00574-.00403.0105-.00742.01417-.01007.00184-.00133.00342-.00247.00472-.00342.00064-.00047.00122-.0009.00173-.00127.00026-.00019.0005-.00036.00072-.00052.00011-.00008.00021-.00016.00031-.00024.00005-.00003.00012-.00009.00015-.00011.00007-.00005.00014-.0001-.2969-.40231-.29703-.4022-.29697-.40225-.2969-.4023.00002-.00002.00009-.00006.00013-.0001.00008-.00006.00016-.00012.00024-.00017.00015-.00012.00029-.00022.00042-.00031.00024-.00018.00043-.00032.00056-.00041.00025-.00018.00027-.0002.00007-.00005-.00041.00029-.0017.00122-.00379.00269-.00422.00295-.01149.00797-.0212.01436-.0199.01309-.04753.03028-.07827.04688-.03174.01714-.05976.02982-.08117.03733-.02502.00879-.02024.0032.00726.0032zm.06462-.41214.45564.64337.81607-.57795-.45564-.64337zm.86368.35439c-.45127-.21531-.45135-.21513-.45143-.21496-.00003.00006-.00012.00024-.00018.00036-.00012.00025-.00024.00051-.00036.00078-.00026.00054-.00053.00111-.00082.00173-.00058.00124-.00124.00265-.00196.00421-.00145.00314-.00318.00692-.00515.01135-.00396.00884-.00892.02026-.01467.03412-.01148.02768-.02617.06528-.04225.11176-.03206.0927-.07018.22236-.09911.38053-.05764.31525-.08069.75537.06479 1.24231l.95815-.28627c-.08932-.29897-.07633-.57337-.03925-.77617.01845-.10086.04236-.1811.0605-.23355.00902-.02609.01647-.04488.02085-.05544.00218-.00526.00358-.00843.00401-.00939.00022-.00048.00018-.0004-.00012.00025-.00015.00033-.00037.0008-.00065.00141-.00015.00031-.00031.00065-.00049.00103-.00009.00019-.00018.00039-.00028.0006-.00005.0001-.00013.00027-.00016.00032-.00007.00016-.00016.00033-.45142-.21498zm-.55114 1.57219c.09878.3306.05935.50705.0076.58901-.04315.06835-.17777.19975-.61726.22807l.06431.99793c.60466-.03897 1.11573-.24421 1.39854-.69215.27419-.43433.24099-.95382.10496-1.40913zm-.57751 1.31605c-.09333-.49122-.09339-.49121-.09344-.4912-.00002.00001-.00007.00002-.00011.00003-.00007.00001-.00015.00002-.00023.00004-.00016.00003-.00034.00006-.00053.0001-.00037.00007-.0008.00016-.00128.00025-.00096.00018-.00213.00041-.00349.00068-.00272.00054-.00623.00124-.01045.0021-.00842.00173-.01977.00413-.03337.00718-.02685.00602-.06421.01495-.10608.02668-.06271.01756-.21038.06072-.33118.14422l.56858.82262c-.02381.01646-.03518.01893-.01886.01259.01192-.00464.02951-.01042.05116-.01649.02083-.00583.04054-.01057.05508-.01383.00709-.00159.01252-.00273.01571-.00338.00158-.00033.00258-.00052.00291-.00059.00017-.00003.00017-.00003 0 0-.00009.00002-.00023.00004-.0004.00008-.00009.00001-.00019.00003-.00031.00006-.00005.00001-.00011.00002-.00017.00003-.00003.00001-.00008.00001-.0001.00002-.00005.00001-.0001.00002-.09344-.49119zm.20413.15895v-.05756h-1v.05756zm-.87085.31623c-.03499-.03432-.12915-.14149-.12915-.31623h1c0-.20338-.10954-.33778-.17063-.3977zm0-.71393c-.06109.05992-.17063.19432-.17063.3977h1c0 .17474-.09416.28191-.12915.31623zm.82937.3977v-.05756h-1v.05756zm-.79587-.15895c-.09334.49121-.09339.4912-.09344.49119-.00002-.00001-.00007-.00001-.0001-.00002-.00006-.00001-.00012-.00002-.00017-.00003-.00012-.00003-.00022-.00005-.00031-.00006-.00017-.00004-.00031-.00006-.00039-.00008-.00018-.00003-.00018-.00003-.00001 0 .00034.00007.00133.00026.00292.00059.00318.00065.00861.00179.0157.00338.01455.00326.03425.008.05509.01383.02164.00607.03923.01185.05116.01649.01631.00634.00494.00387-.01887-.01259l.56858-.82262c-.1208-.0835-.26847-.12666-.33118-.14422-.04187-.01173-.07923-.02066-.10608-.02668-.0136-.00305-.02495-.00545-.03337-.00718-.00422-.00086-.00773-.00156-.01045-.0021-.00136-.00027-.00253-.0005-.00349-.00068-.00048-.00009-.00091-.00018-.00128-.00025-.00019-.00004-.00037-.00007-.00053-.0001-.00008-.00002-.00016-.00003-.00023-.00004-.00004-.00001-.00009-.00002-.00011-.00003-.00005-.00001-.0001-.00002-.09344.4912zm-1.53566-1.60232c-.13603.45531-.16924.9748.10497 1.40913.2828.44794.79387.65318 1.39853.69215l.06431-.99793c-.43949-.02832-.57411-.15972-.61726-.22807-.05175-.08196-.09117-.25841.0076-.58901zm.40701-1.28592c-.45126.21531-.45134.21514-.45142.21498-.00003-.00005-.00011-.00022-.00016-.00032-.00009-.00021-.00019-.00041-.00028-.0006-.00018-.00038-.00034-.00072-.00049-.00103-.00028-.00061-.0005-.00108-.00065-.00141-.0003-.00065-.00034-.00073-.00012-.00025.00043.00096.00183.00413.00401.00939.00438.01056.01183.02935.02085.05544.01814.05245.04206.13269.0605.23355.03708.2028.05007.4772-.03925.77617l.95815.28627c.14548-.48694.12243-.92706.06479-1.24231-.02892-.15817-.06705-.28783-.09911-.38053-.01608-.04648-.03077-.08408-.04225-.11176-.00575-.01386-.01071-.02528-.01467-.03412-.00197-.00443-.0037-.00821-.00515-.01135-.00072-.00156-.00137-.00297-.00196-.00421-.00029-.00062-.00056-.00119-.00081-.00173-.00013-.00027-.00025-.00053-.00037-.00078-.00006-.00012-.00015-.0003-.00017-.00036-.00009-.00017-.00017-.00035-.45144.21496zm.04761-.93234-.45564.64337.81607.57795.45564-.64337zm.88069-.00991c.02751 0 .03229.00559.00726-.0032-.02141-.00751-.04943-.02019-.08117-.03733-.03074-.0166-.05837-.03379-.07826-.04688-.00972-.00639-.01699-.01141-.02121-.01436-.00209-.00147-.00338-.0024-.00379-.00269-.0002-.00015-.00018-.00013.00007.00005.00013.0001.00032.00023.00056.00041.00013.00009.00027.00019.00042.00031.00008.00005.00016.00011.00024.00018.00004.00003.00011.00008.00013.00009.00007.00005.00014.0001-.2969.4023-.29704.40221-.29697.40226-.2969.40231.00003.00002.0001.00008.00015.00011.0001.00008.00021.00016.00032.00024.00022.00016.00045.00033.00071.00052.00051.00037.00109.0008.00174.00127.00129.00095.00287.00209.00471.00342.00367.00265.00843.00604.01418.01007.01146.00805.02702.01874.04597.0312.03742.02462.0904.05771.15277.09139.10194.05504.31506.16059.549.16059zm.25469-.11534c-.03952.0218-.10544.05612-.17281.08367-.03345.01368-.06105.02311-.08145.0286-.02346.00632-.02136.00307-.00043.00307v1c.18234 0 .35899-.06461.46034-.10605.11728-.04796.22068-.10241.27742-.13371zm.74153.43779v-.02357h-1v.02357zm-.5-.02357c-.25603.42948-.25602.42948-.25601.42949 0 0 .00001.00001.00002.00001.00001.00001.00002.00001.00003.00002.00002.00001.00005.00003.00007.00004.00005.00003.0001.00006.00015.00009.0001.00006.00021.00012.00032.00019.00024.00014.0005.0003.0008.00047.00058.00035.00129.00077.00211.00125.00164.00097.00375.00221.00629.00369.00509.00296.01196.00692.0204.01171l.49312-.86997c-.00487-.00275-.00837-.00478-.01032-.00591-.00097-.00057-.00156-.00091-.00172-.00101-.00009-.00005-.00007-.00004.00006.00004.00007.00004.00016.00009.00028.00016.00006.00003.00012.00007.00019.00012.00004.00002.00008.00004.00012.00007l.00006.00003c.00001.00001.00002.00001.00003.00002.00001 0 .00001.00001.00002.00001.00001.00001.00001.00001-.25602.42948z" fill="#fff" mask="url(#d)"/></mask><mask id="d" fill="#000" height="6" maskUnits="userSpaceOnUse" width="5" x="5.5885" y="3.44073"><path d="m5.5885 3.44073h5v6h-5z" fill="#fff"/><path clip-rule="evenodd" d="m8.0434 4.45271c.01331-.00755.02074-.01198.02074-.01198v.02357c.09626.05311.33862.17755.49622.17755.20034 0 .47265-.20112.47265-.20112l.45565.64337s-.30686.64315-.07206 1.42906c.2348.7859-.01243 1.39189-1.05659 1.45918 0 0-.20573.03909-.29587.10139v.05756c0-.01432-.00769-.02794-.02074-.04074-.01305.0128-.02074.02642-.02074.04074v-.05756c-.09013-.0623-.29587-.10139-.29587-.10139-1.04416-.06729-1.29139-.67328-1.05659-1.45918.2348-.78591-.07206-1.42906-.07206-1.42906l.45565-.64337s.27231.20112.47265.20112c.1576 0 .39996-.12444.49622-.17755v-.02357s.00743.00443.02074.01198z" fill="#000" fill-rule="evenodd"/></mask><g clip-path="url(#a)"><path d="m0 0h16v12h-16z" fill="#fff"/><g clip-rule="evenodd" fill-rule="evenodd"><path d="m4 0h8.5v12h-8.5z" fill="#f7fcff"/><path d="m12 0h4v12h-4z" fill="#f50101"/><path d="m0 0h4v12h-4z" fill="#f50101"/></g><path d="m7.87071 4.37257.01675.18098c-.49922.05049-.76893-.19344-.76893-.69971 0-.50236.26388-.76938.76003-.77254l.00106.18181c-.40199.00256-.58718.18996-.58718.59073 0 .39686.17936.55908.57827.51873z" fill="#a2bb6a"/><path d="m8.09181 4.37257-.01674.18098c.49922.05049.76892-.19344.76892-.69971 0-.50236-.26387-.76938-.76002-.77254l-.00106.18181c.40198.00256.58717.18996.58717.59073 0 .39686-.17936.55908-.57827.51873z" fill="#a2bb6a"/><path clip-rule="evenodd" d="m8.0434 4.45271c.01331-.00755.02074-.01198.02074-.01198v.02357c.09626.05311.33862.17755.49622.17755.20034 0 .47265-.20112.47265-.20112l.45565.64337s-.30686.64315-.07206 1.42906c.2348.7859-.01243 1.39189-1.05659 1.45918 0 0-.20573.03909-.29587.10139v.05756c0-.01432-.00769-.02794-.02074-.04074-.01305.0128-.02074.02642-.02074.04074v-.05756c-.09013-.0623-.29587-.10139-.29587-.10139-1.04416-.06729-1.29139-.67328-1.05659-1.45918.2348-.78591-.07206-1.42906-.07206-1.42906l.45565-.64337s.27231.20112.47265.20112c.1576 0 .39996-.12444.49622-.17755v-.02357s.00743.00443.02074.01198z" fill="#e8aa00" fill-rule="evenodd"/><path d="m8.06414 4.44073h.5v-.88017l-.75603.4507zm-.02074.01198-.24656.43498.24656.13975.24656-.13975zm.02074.01159h-.5v.29519l.25846.1426zm.96887-.02357.40804-.28897-.29479-.41624-.41028.30301zm.45565.64337.45126.21531.12638-.26483-.16961-.23945zm-.07206 1.42906-.47908.14313zm-1.05659 1.45918-.03215-.49897-.03083.00199-.03035.00576zm-.29587.10139-.28429-.41131-.21571.14909v.26222zm-.02074.01682.35011-.35696-.35011-.34339-.35011.34339zm-.02074-.01682h.5v-.26222l-.21571-.14909zm-.29587-.10139.09334-.49122-.03036-.00576-.03083-.00199zm-1.12865-2.88824-.40803-.28897-.16959.23945.12636.26483zm.45565-.64337.29704-.4022-.41029-.30301-.29479.41624zm.96887.02357.24154.43779.25846-.1426v-.29519zm0-.02357.25603-.42947-.75603-.4507v.88017zm.04148 0c-.25603-.42947-.25602-.42947-.25602-.42948.00001 0 .00001-.00001.00002-.00001.00001-.00001.00002-.00001.00003-.00002.00002-.00001.00004-.00002.00006-.00003.00004-.00003.00008-.00005.00012-.00007.00007-.00005.00014-.00009.00019-.00012.00012-.00007.00021-.00012.00028-.00016.00013-.00008.00015-.00009.00006-.00004-.00016.0001-.00075.00044-.00172.00101-.00195.00113-.00545.00316-.01032.00591l.49312.86997c.00844-.00479.01531-.00875.0204-.01171.00254-.00148.00465-.00272.00629-.00369.00082-.00048.00153-.0009.00212-.00125.00029-.00017.00055-.00033.00079-.00047.00011-.00007.00022-.00013.00032-.00019l.00015-.00009c.00002-.00001.00005-.00003.00007-.00004.00001-.00001.00002-.00001.00003-.00002.00001 0 .00002-.00001.00002-.00001.00001-.00001.00002-.00001-.25601-.42949zm.5.02357v-.02357h-1v.02357zm-.74154.43779c.05674.0313.16014.08575.27742.13371.10135.04144.278.10605.46034.10605v-1c.02093 0 .02303.00325-.00043-.00307-.0204-.00549-.048-.01492-.08145-.0286-.06737-.02755-.13329-.06187-.17281-.08367zm.73776.23976c.23394 0 .44706-.10555.549-.16059.06237-.03368.11535-.06677.15277-.09139.01895-.01246.03451-.02315.04598-.0312.00574-.00403.0105-.00742.01417-.01007.00184-.00133.00342-.00247.00472-.00342.00064-.00047.00122-.0009.00173-.00127.00026-.00019.0005-.00036.00072-.00052.00011-.00008.00021-.00016.00031-.00024.00005-.00003.00012-.00009.00015-.00011.00007-.00005.00014-.0001-.2969-.40231-.29703-.4022-.29697-.40225-.2969-.4023.00002-.00002.00009-.00006.00013-.0001.00008-.00006.00016-.00012.00024-.00017.00015-.00012.00029-.00022.00042-.00031.00024-.00018.00043-.00032.00056-.00041.00025-.00018.00027-.0002.00007-.00005-.00041.00029-.0017.00122-.00379.00269-.00422.00295-.01149.00797-.0212.01436-.0199.01309-.04753.03028-.07827.04688-.03174.01714-.05976.02982-.08117.03733-.02502.00879-.02024.0032.00726.0032zm.06462-.41214.45564.64337.81607-.57795-.45564-.64337zm.86368.35439c-.45127-.21531-.45135-.21513-.45143-.21496-.00003.00006-.00012.00024-.00018.00036-.00012.00025-.00024.00051-.00036.00078-.00026.00054-.00053.00111-.00082.00173-.00058.00124-.00124.00265-.00196.00421-.00145.00314-.00318.00692-.00515.01135-.00396.00884-.00892.02026-.01467.03412-.01148.02768-.02617.06528-.04225.11176-.03206.0927-.07018.22236-.09911.38053-.05764.31525-.08069.75537.06479 1.24231l.95815-.28627c-.08932-.29897-.07633-.57337-.03925-.77617.01845-.10086.04236-.1811.0605-.23355.00902-.02609.01647-.04488.02085-.05544.00218-.00526.00358-.00843.00401-.00939.00022-.00048.00018-.0004-.00012.00025-.00015.00033-.00037.0008-.00065.00141-.00015.00031-.00031.00065-.00049.00103-.00009.00019-.00018.00039-.00028.0006-.00005.0001-.00013.00027-.00016.00032-.00007.00016-.00016.00033-.45142-.21498zm-.55114 1.57219c.09878.3306.05935.50705.0076.58901-.04315.06835-.17777.19975-.61726.22807l.06431.99793c.60466-.03897 1.11573-.24421 1.39854-.69215.27419-.43433.24099-.95382.10496-1.40913zm-.57751 1.31605c-.09333-.49122-.09339-.49121-.09344-.4912-.00002.00001-.00007.00002-.00011.00003-.00007.00001-.00015.00002-.00023.00004-.00016.00003-.00034.00006-.00053.0001-.00037.00007-.0008.00016-.00128.00025-.00096.00018-.00213.00041-.00349.00068-.00272.00054-.00623.00124-.01045.0021-.00842.00173-.01977.00413-.03337.00718-.02685.00602-.06421.01495-.10608.02668-.06271.01756-.21038.06072-.33118.14422l.56858.82262c-.02381.01646-.03518.01893-.01886.01259.01192-.00464.02951-.01042.05116-.01649.02083-.00583.04054-.01057.05508-.01383.00709-.00159.01252-.00273.01571-.00338.00158-.00033.00258-.00052.00291-.00059.00017-.00003.00017-.00003 0 0-.00009.00002-.00023.00004-.0004.00008-.00009.00001-.00019.00003-.00031.00006-.00005.00001-.00011.00002-.00017.00003-.00003.00001-.00008.00001-.0001.00002-.00005.00001-.0001.00002-.09344-.49119zm.20413.15895v-.05756h-1v.05756zm-.87085.31623c-.03499-.03432-.12915-.14149-.12915-.31623h1c0-.20338-.10954-.33778-.17063-.3977zm0-.71393c-.06109.05992-.17063.19432-.17063.3977h1c0 .17474-.09416.28191-.12915.31623zm.82937.3977v-.05756h-1v.05756zm-.79587-.15895c-.09334.49121-.09339.4912-.09344.49119-.00002-.00001-.00007-.00001-.0001-.00002-.00006-.00001-.00012-.00002-.00017-.00003-.00012-.00003-.00022-.00005-.00031-.00006-.00017-.00004-.00031-.00006-.00039-.00008-.00018-.00003-.00018-.00003-.00001 0 .00034.00007.00133.00026.00292.00059.00318.00065.00861.00179.0157.00338.01455.00326.03425.008.05509.01383.02164.00607.03923.01185.05116.01649.01631.00634.00494.00387-.01887-.01259l.56858-.82262c-.1208-.0835-.26847-.12666-.33118-.14422-.04187-.01173-.07923-.02066-.10608-.02668-.0136-.00305-.02495-.00545-.03337-.00718-.00422-.00086-.00773-.00156-.01045-.0021-.00136-.00027-.00253-.0005-.00349-.00068-.00048-.00009-.00091-.00018-.00128-.00025-.00019-.00004-.00037-.00007-.00053-.0001-.00008-.00002-.00016-.00003-.00023-.00004-.00004-.00001-.00009-.00002-.00011-.00003-.00005-.00001-.0001-.00002-.09344.4912zm-1.53566-1.60232c-.13603.45531-.16924.9748.10497 1.40913.2828.44794.79387.65318 1.39853.69215l.06431-.99793c-.43949-.02832-.57411-.15972-.61726-.22807-.05175-.08196-.09117-.25841.0076-.58901zm.40701-1.28592c-.45126.21531-.45134.21514-.45142.21498-.00003-.00005-.00011-.00022-.00016-.00032-.00009-.00021-.00019-.00041-.00028-.0006-.00018-.00038-.00034-.00072-.00049-.00103-.00028-.00061-.0005-.00108-.00065-.00141-.0003-.00065-.00034-.00073-.00012-.00025.00043.00096.00183.00413.00401.00939.00438.01056.01183.02935.02085.05544.01814.05245.04206.13269.0605.23355.03708.2028.05007.4772-.03925.77617l.95815.28627c.14548-.48694.12243-.92706.06479-1.24231-.02892-.15817-.06705-.28783-.09911-.38053-.01608-.04648-.03077-.08408-.04225-.11176-.00575-.01386-.01071-.02528-.01467-.03412-.00197-.00443-.0037-.00821-.00515-.01135-.00072-.00156-.00137-.00297-.00196-.00421-.00029-.00062-.00056-.00119-.00081-.00173-.00013-.00027-.00025-.00053-.00037-.00078-.00006-.00012-.00015-.0003-.00017-.00036-.00009-.00017-.00017-.00035-.45144.21496zm.04761-.93234-.45564.64337.81607.57795.45564-.64337zm.88069-.00991c.02751 0 .03229.00559.00726-.0032-.02141-.00751-.04943-.02019-.08117-.03733-.03074-.0166-.05837-.03379-.07826-.04688-.00972-.00639-.01699-.01141-.02121-.01436-.00209-.00147-.00338-.0024-.00379-.00269-.0002-.00015-.00018-.00013.00007.00005.00013.0001.00032.00023.00056.00041.00013.00009.00027.00019.00042.00031.00008.00005.00016.00011.00024.00018.00004.00003.00011.00008.00013.00009.00007.00005.00014.0001-.2969.4023-.29704.40221-.29697.40226-.2969.40231.00003.00002.0001.00008.00015.00011.0001.00008.00021.00016.00032.00024.00022.00016.00045.00033.00071.00052.00051.00037.00109.0008.00174.00127.00129.00095.00287.00209.00471.00342.00367.00265.00843.00604.01418.01007.01146.00805.02702.01874.04597.0312.03742.02462.0904.05771.15277.09139.10194.05504.31506.16059.549.16059zm.25469-.11534c-.03952.0218-.10544.05612-.17281.08367-.03345.01368-.06105.02311-.08145.0286-.02346.00632-.02136.00307-.00043.00307v1c.18234 0 .35899-.06461.46034-.10605.11728-.04796.22068-.10241.27742-.13371zm.74153.43779v-.02357h-1v.02357zm-.5-.02357c-.25603.42948-.25602.42948-.25601.42949 0 0 .00001.00001.00002.00001.00001.00001.00002.00001.00003.00002.00002.00001.00005.00003.00007.00004.00005.00003.0001.00006.00015.00009.0001.00006.00021.00012.00032.00019.00024.00014.0005.0003.0008.00047.00058.00035.00129.00077.00211.00125.00164.00097.00375.00221.00629.00369.00509.00296.01196.00692.0204.01171l.49312-.86997c-.00487-.00275-.00837-.00478-.01032-.00591-.00097-.00057-.00156-.00091-.00172-.00101-.00009-.00005-.00007-.00004.00006.00004.00007.00004.00016.00009.00028.00016.00006.00003.00012.00007.00019.00012.00004.00002.00008.00004.00012.00007l.00006.00003c.00001.00001.00002.00001.00003.00002.00001 0 .00001.00001.00002.00001.00001.00001.00001.00001-.25602.42948z" fill="#e8aa00" mask="url(#b)"/><g mask="url(#c)"><path d="m6.65222 4.36362h1.3913v1.90909h-1.3913z" fill="#67baff"/><path d="m8.04346 4.36362h1.3913v1.90909h-1.3913z" fill="#fff"/><path d="m6.47827 6.45453h3.47826v2.18182h-3.47826z" fill="#c51918"/><g fill="#c9a951"><path d="m8.71737 6.13749h-.17391v-1.30735h.17391z"/><path d="m8.64693 5.54276-.08478.15185-.30019-.16761.08479-.15185z"/><path d="m8.64693 5.17915-.08478.15184-.30019-.16761.08479-.15184z"/><path d="m8.60978 5.54276.08478.15185.30019-.16761-.08478-.15185z"/><path d="m8.60978 5.17915.08478.15184.30019-.16761-.08478-.15184z"/></g><path clip-rule="evenodd" d="m7.68805 4.78494c-.10483.09169-.0372.42678-.20898.42678-.17177 0-.41351-.25092-.47438-.08535s0 .10994 0 .25096c0 .14101-.1458.53287-.0729.59911s.1476.24079.13466.15908c-.01295-.08171-.06806-.2017-.0451-.33205-.0222-.13466.12286-.26418.12286-.26418s-.01574.13981-.02716.19193c0 0-.04783.10522-.02841.1751 0 0 .04911.19695.06936.21056 0 0 .01315-.46635.02811-.54321.01495-.07685.12156.0867.15703.06816 0 0 .01217.31889-.00627.35689 0 0-.03739.07543-.02348.09952 0 0 .03468.0873.06427.06188 0 0 .00104-.00182.01604-.08679 0 0-.01743-.05132.00985-.16815 0 0 .02872-.25726.04061-.20144 0 0-.00534.12146.00836.18406 0 0 .02188.15543.02627.1725 0 0 .10495.14949.10774.08635 0 0-.1006-.11997-.07905-.21125 0 0-.0576-.25862.0228-.31629 0 0 .21331-.09866.22614-.26755 0 0 .0309-.19248.03645-.28071 0 0-.04679-.02594.04993-.0715 0 0 .1557-.05976.05868-.14286" fill="#d18219" fill-rule="evenodd"/></g><path d="m6.09998 3.8432.38666.30984c-.50365.82876-.38666 1.60857-.38666 2.11002 0 .92469.69484 1.99191 1.90529 1.99191.89967 0 1.87753-.70035 2.10833-1.55607.1817-.67379-.23526-2.25709-.54992-2.67031l.37217-.18539c.48835.64134 1.41435 2.11098 1.14325 3.11612-.3521 1.30538-1.73474 2.29565-3.07383 2.29565-1.87522 0-2.90529-1.58209-2.90529-2.99191 0-.71598.40977-1.44864 1-2.41986z" fill="#00a854"/><path clip-rule="evenodd" d="m8 7.60001c.55228 0 1-.22386 1-.5 0-.27615-.44772-.5-1-.5s-1 .22385-1 .5c0 .27614.44772.5 1 .5z" fill="#fdd200" fill-rule="evenodd"/><path d="m6.5 8h3v1h-3z" fill="#ca0000"/></g></svg>