<svg fill="none" height="12" viewBox="0 0 16 12" width="16" xmlns="http://www.w3.org/2000/svg" xmlns:xlink="http://www.w3.org/1999/xlink"><clipPath id="a"><path d="m0 0h16v12h-16z"/></clipPath><g clip-path="url(#a)"><path d="m0 0h16v12h-16z" fill="#fff"/><g clip-rule="evenodd" fill-rule="evenodd"><path d="m4 0h12v12h-12z" fill="#2f8d00"/><path d="m0 0h4v12h-4z" fill="#f7fcff"/><path d="m11.2147 7.65309s-2.23288.58215-4.00521-.60532c-1.77233-1.18748-.88141-3.92391-.88141-3.92391-.92447.13453-2.3763 3.50745-.03609 5.19918 2.3402 1.69176 4.58211.06555 4.92271-.66995zm-2.47781-3.21987-1.18576.57982 1.25091.2228.16886 1.22276.70854-1.0414 1.39426.09401-1.09206-.81445.58136-1.08818-1.08718.49793-.80761-.75934z" fill="#f1f9ff"/></g></g></svg>