<svg fill="none" height="12" viewBox="0 0 16 12" width="16" xmlns="http://www.w3.org/2000/svg" xmlns:xlink="http://www.w3.org/1999/xlink"><clipPath id="a"><path d="m0 0h16v12h-16z"/></clipPath><clipPath id="b"><path d="m0 0h9v7h-9z"/></clipPath><mask id="c" height="5" maskUnits="userSpaceOnUse" width="3" x="11" y="7"><path clip-rule="evenodd" d="m11.0934 7.9425h2.5923v1.50464s-.2113 1.22946-1.3403 1.83516c0 0-1.0935-.6141-1.252-1.83516z" fill="#fff" fill-rule="evenodd"/></mask><g clip-path="url(#a)"><path d="m0 0h16v12h-16z" fill="#fff"/><path clip-rule="evenodd" d="m0 0v12h16v-12z" fill="#2e42a5" fill-rule="evenodd"/><g clip-path="url(#b)"><path d="m0 0h9v7h-9z" fill="#2e42a5"/><path d="m-1.00214 6.4999 1.980479.8686 8.066601-6.424139 1.04466-1.290766-2.11784-.290312-3.29017 2.768347-2.64825 1.86522z" fill="#f7fcff"/><path d="m-.731018 7.10849 1.008961.50406 9.436507-8.078859h-1.4167z" fill="#f50100"/><path d="m10.0021 6.4999-1.98044.8686-8.0665971-6.424139-1.0446529-1.290766 2.11783-.290312 3.29017 2.768347 2.64825 1.86522z" fill="#f7fcff"/><path d="m9.93457 6.93667-1.00896.50406-4.01816-3.45897-1.1913-.38647-4.90625-3.937263h1.416697l4.903493 3.843813 1.30247.46341z" fill="#f50100"/><g clip-rule="evenodd" fill-rule="evenodd"><path d="m4.99226 0h-1v3h-3.99226v1h3.99226v3h1v-3h4.00774v-1h-4.00774z" fill="#f50100"/><path d="m3.24226-.75h2.5v3h4.00774v2.5h-4.00774v3h-2.5v-3h-3.99226v-2.5h3.99226zm.75 3.75h-3.99226v1h3.99226v3h1v-3h4.00774v-1h-4.00774v-3h-1z" fill="#f7fcff"/></g></g><path clip-rule="evenodd" d="m10.308 5.83454s.0494.51998-.0588.81462c-.1083.29464-.1633.46567-.1633.27733 0-.18833-.076-.33758-.13713-.33758-.06114 0-.01288.18676-.07432.18676s-.27312.03211-.27312-.07733c0-.10943-.02785.29359.1095.32963.13736.03604-.06669.14788-.15779.11324 0 0 .37472.11571.52166.21431 0 0 .4405.52243.8525.4587 0 0-.561-.18399-.4622-.53552.0989-.35153.4622-.40238.4622-.40238s.1705.05417.1654.19607.1247-.04442.1247-.04442.0209-.17928-.0021-.22303c-.0231-.04375.3905-.12844.4166-.31306 0 0-.4226.01835-.4516-.02907-.029-.04743.1308-.12179.0808-.21424-.05-.09246-.796.5271-.796.5271s.2576-.4217.2576-.64815c0-.22646-.0654-.38121-.2576-.38121-.1921 0-.157.08823-.157.08823z" fill="#5eaa22" fill-rule="evenodd"/><path clip-rule="evenodd" d="m14.1917 5.95814c-.0005.00078.0005.00149.0012.00087.0275-.02577.1989-.1757.3424-.05731.1566.12914-.0789.25499-.0789.25499s.1101.10144.236.10144.1568-.10144.1568-.10144.0096.22575.4202.31123c0 0 .1465-.19983 0-.30923 0 0 .1731-.03411.1605-.16728 0 0-.1422.04605-.2437-.05977-.1015-.10583-.2992-.15463-.443-.13023-.365-.12506-.5293.11999-.5515.15673z" fill="#5eaa22" fill-rule="evenodd"/><path clip-rule="evenodd" d="m11.7018 7.09713s.4246.75874.1593.91596c-.2654.15722 1.2618.04538 1.4057 0s-.029-.28461-.1886-.35102c-.1596-.06642-.8157-.28738-.9902-.45403s-.068-.22579.0726-.3903.661-.23029.661-.38405c0-.15377.3301-.78791.5608-.83576.2307-.04784.1061-.12319.053-.12319-.053 0-.372.31233-.4929.25598s-.1357-.05239 0-.18859c.1357-.13621.2379-.29298.0585-.18018-.1794.11279-.4752.29131-.6173.29131-.1422 0-.6483-.06089-.5855.07746.0629.13835.0895.37849.3624.54073s.1543.28096-.0726.43729c-.2269.15634-.3862.38839-.3862.38839z" fill="#96877d" fill-rule="evenodd"/><path d="m14.5193 6.09378-.8091 1.54154s-.0236.43545.5549.14529c.5784-.29016.5556-.49596.7224-.49596s.2197-.08798.2197-.08798l-.1111-.08299s-.0128-.15137.0575-.18536c0 0-.138-.07225-.1577-.01193s-.1171-.12616-.062-.12616c0 0-.1217.18721-.1474.26026 0 0-.1761-.06803-.1677-.3832.0085-.31517-.0995-.57351-.0995-.57351z" fill="#ffd018"/><path d="m10.6682 5.84967s-.412.09111-.3676.18593c.0445.09482.1099-.00256-.0918.11171 0 0-.35433.26029-.43156.23209-.07724-.02821.0547.06556.0547-.23209 0-.29764-.20578-.05536 0-.25405.20576-.1987.27796-.04359.37686-.15793.099-.11433.01-.05353.2785-.05353.2684 0 .1809.16787.1809.16787z" fill="#ffd018"/><path d="m11.9253 7.38171s-1.1535.86118-1.3841.92546c-.2305.06429.4742-.01768.6464-.13137.1721-.11369.7377-.79409.7377-.79409z" fill="#ffd018"/><path clip-rule="evenodd" d="m14.2123 8.89243s.1107.67851-.1783.61173c-.2891-.06677-.409-.10131-.409-.10131s.106.31603.2575.31603c0 0 .2581.47782.1588.62872 0 0 .4446-.3426.3727-.61509-.0719-.27245.1149.04483.1149.04483s.1637.07506.2819-.00876c.1183-.08382-.0015-.04656-.1197-.20615-.1183-.15958-.0891-.60776-.4489-.84004-.3597-.23227-.4435-.22485-.4435-.22485s-.2649-.41153-.1062-.38432c0 0 1.1376.37047 1.1672.46542.0295.09495.3312.07755.1804-.19393-.1509-.27149-.964-.4351-1.0608-.51166-.0968-.07657-.0068-.36695-.1806-.43021-.1737-.06326-.6485-.51214-.6482-.72846s-.2232-.31814-.4175-.31814c-.1942 0-.56-.05331-.7145-.05331-.1546 0-.2986.24558-.1493.24558s.0218.45978-.2282.56027c-.25.10048-.4432.24491-.7287.24491-.2854 0 .4041.23381.514.14148s.0738-.22991.4429-.38639.7213-.24913.6767-.12457c-.0446.12457.0692.33292.2431.25751.1738-.07541.2296-.26589.2296-.13294 0 .13294.2666.81576.4703 1.08226.2036.2665.7234.66139.7234.66139z" fill="#5eaa22" fill-rule="evenodd"/><g fill="#ffd018"><path d="m11.7856 6.39914s-.1353.20471 0 .20471c.1352 0 .3528 0 .2202-.10235-.1325-.10236-.2202-.10236-.2202-.10236z"/><path d="m12.2375 6.39421s.0006.13611.0944.13611c.0937 0 .1771.1361.1771 0 0-.13611.1303-.09097-.0706-.13611s-.2009 0-.2009 0z"/><path d="m12.8148 6.42538s-.0904.06464-.0452.17993.1474.34344 0 .34344-.2686.08225-.1535.08225.32.08226.32 0c0-.08225.0833.13564.0833 0 0-.13563 0-.20044 0-.27998s.0833-.10241 0-.21402c-.0833-.11162-.2046-.11162-.2046-.11162z"/><path d="m13.0236 7.21909s.1883.56308.2907.63568c.1024.07259.1484.6841.1933.75059s.6573.40206.6573.58214c0 .18009.1886-.13838.0943-.3167-.0943-.17833-.3911-.558-.6046-.6408s-.1864-.28329-.2313-.42419c-.0449-.14091.2656.11385 0-.20577s-.2586-.1481-.1838-.1481.1496-.03777.0748-.08744c-.0748-.04966-.2907-.14541-.2907-.14541z"/><path d="m11.0271 8.38031s-.6118 1.0263-.7209 1.07932c-.1092.05302-.1905.0638-.2463 0s-.06153.17122 0 .23557c.0615.06435.2463.06435.3488-.04992 0 0 .0163.28872.176.50642.1598.2176.2263.1575.2263.2806s.0378.2861.0866.2861c.0487 0 .0865.3874 0 .3874-.0866 0 .2005.0318.3256-.0651s.1786-.1707.1518-.1707c-.0267 0-.3479-.1606-.3479-.2743 0-.1136-.2161-.2026-.2161-.3714 0-.1687-.1122-.36932-.1122-.44921s.096.03083.1988-.04482.1295-.27064.1295-.27064-.1619.10317-.2161.05158c-.0541-.05158-.2244-.15341-.1122-.32812s.3283-.80278.3283-.80278z"/></g><path clip-rule="evenodd" d="m12.0871 5.14355s-.219.09256-.146.23007c.073.13752.0993.19841.146.16797.0468-.03045.375-.08801.3015-.24302-.0736-.15502-.2276-.15502-.2276-.15502z" fill="#5eaa22" fill-rule="evenodd"/><path d="m12.847 5.0692s-.2893-.12162-.1929 0 .2198.18574.3086.18574c.0887 0 .2732-.02514.181-.07421-.0923-.04907-.2967-.11153-.2967-.11153z" fill="#ffd018"/><path clip-rule="evenodd" d="m9.99069 8.23029c.00146-.00752-.00742-.01294-.0131-.0078-.05996.05425-.24142.23667-.16456.39531.09149.18881.18297.25437.18297.25437s.0557.28908.1709.36775c0 0 .1546-.00752.1623-.23253 0 0 .2627-.07321.3399.0826 0 0-.0509.01753-.0509.14993s.1188.27583.1188.27583.0544-.45665.299-.75107c.2446-.29441.3146-.35252.3146-.35252v-.33129s-.5061.39173-.6136.71744c0 0-.2548.00808-.3584-.03363-.1035-.0417.1293-.11011 0-.25834s-.07.20871-.2117.11146c-.22163-.05855-.19155-.3088-.17621-.38751z" fill="#5eaa22" fill-rule="evenodd"/><path clip-rule="evenodd" d="m11.0934 7.9425h2.5923v1.50464s-.2113 1.22946-1.3403 1.83516c0 0-1.0935-.6141-1.252-1.83516z" fill="#5eaa22" fill-rule="evenodd"/><g mask="url(#c)"><path clip-rule="evenodd" d="m12.3258 7.86121-1.1326 2.23279 1.536-1.32505 1.0571 1.66455v-2.57229l-1.0571.82325z" fill="#58a5ff" fill-rule="evenodd"/><g fill="#ffd018"><path d="m12.2901 9.47571c0-.04667.0378-.08451.0845-.08451s.0845.03784.0845.08451v1.42529c0 .0466-.0378.0845-.0845.0845s-.0845-.0379-.0845-.0845z"/><path d="m11.9921 9.82498c-.0436 0-.0789-.03531-.0789-.07887s.0353-.07887.0789-.07887h.7719c.0436 0 .0789.03531.0789.07887s-.0353.07887-.0789.07887z"/><path d="m12.5318 10.7952-.086.0703c-.1268-.155-.2424-.2295-.3445-.2295-.1504 0-.2727-.1264-.3725-.3659l.1026-.0427c.0844.2026.1762.2974.2699.2974.142 0 .2847.0921.4305.2704z"/><path clip-rule="evenodd" d="m11.629 9.88834c-.0005-.00047-.0013-.00011-.0013.00058v.54108c0 .0006.0006.001.0011.0008l.4043-.1676c.0005-.0002.0006-.0009.0002-.0013z" fill-rule="evenodd"/><path d="m12.2542 10.7952.086.0703c.1267-.155.2423-.2295.3445-.2295.1504 0 .2727-.1264.3724-.3659l-.1025-.0427c-.0844.2026-.1762.2974-.2699.2974-.142 0-.2848.0921-.4305.2704z"/><path clip-rule="evenodd" d="m13.1569 9.88834c.0005-.00047.0014-.00011.0014.00058v.54108c0 .0006-.0006.001-.0011.0008l-.4043-.1676c-.0005-.0002-.0007-.0009-.0002-.0013z" fill-rule="evenodd"/></g><path d="m12.2042 8.82785h.338028v.478481h-.338028z" fill="#fff"/></g></g></svg>