<svg fill="none" height="12" viewBox="0 0 16 12" width="16" xmlns="http://www.w3.org/2000/svg" xmlns:xlink="http://www.w3.org/1999/xlink"><clipPath id="a"><path d="m0 0h16v12h-16z"/></clipPath><mask id="b" height="8" maskUnits="userSpaceOnUse" width="8" x="2" y="2"><path clip-rule="evenodd" d="m5.95236 9.9036c-2.13024 0-3.85715-1.7477-3.85715-3.90361s1.72691-3.90362 3.85715-3.90362 3.85714 1.74771 3.85714 3.90362-1.7269 3.90361-3.85714 3.90361z" fill="#fff" fill-rule="evenodd"/></mask><g clip-path="url(#a)"><path d="m0 0h16v12h-16z" fill="#fff"/><path clip-rule="evenodd" d="m4 0h12v12h-12z" fill="#ef0000" fill-rule="evenodd"/><path clip-rule="evenodd" d="m0 0h6v12h-6z" fill="#2f8d00" fill-rule="evenodd"/><g fill="#ffe017" mask="url(#b)"><path clip-rule="evenodd" d="m5.71423 2h.5v1.3494h-.5z" fill-rule="evenodd"/><path clip-rule="evenodd" d="m5.71423 8.74698h.5v1.25301h-.5z" fill-rule="evenodd"/><path d="m2.15725 6.20189-.13979-.35865c1.54259-.61584 2.70687-1.01299 3.49686-1.19198 1.15906-.2626 2.4326-.45689 3.8207-.58302l.03407.38399c-1.37218.12469-2.62939.31649-3.77154.57526-.76648.17366-1.91459.5653-3.4403 1.1744z"/><path d="m9.57042 3.83192-.11344.36805c-1.16586-.36805-2.11557-.52626-2.84559-.47726l-.02521-.3847c.7838-.05261 1.77736.1129 2.98424.49391z"/><path d="m9.9738 5.88988-.2155.31793c-.59434-.41264-1.32656-.61991-2.20166-.61991v-.38554c.94869 0 1.75607.22854 2.41716.68752z"/><path d="m9.65101 6.00528.09849.37243c-1.28132.34707-2.48429.54398-3.60901.59035-1.13248.04669-2.45241-.15092-3.96092-.59135l.10559-.37043c1.47185.42972 2.75217.6214 3.83982.57656 1.09541-.04516 2.27079-.23755 3.52603-.57756z"/><path d="m9.50578 7.81793-.60217.61734c-1.14435-1.14328-2.15181-1.96077-3.01619-2.45195-.87916-.49958-2.02565-1.00687-3.43771-1.51982l.28957-.81647c1.4537.52808 2.64237 1.05403 3.56778 1.57989.94018.53426 2.00436 1.39776 3.19872 2.59101z"/><path d="m2.72915 8.16763-.22793-.30892c.03183-.02405.08862-.06417.16687-.115.1292-.08394.27267-.16774.42703-.24604.42516-.21567.85163-.35033 1.25838-.3627.0199-.0006.03971-.00091.05943-.00091v.38555c-.01589 0-.03188.00024-.04798.00073-.34279.01042-.71922.12928-1.09912.322-.1416.07183-.27354.14889-.39194.22581-.04122.02678-.07769.05154-.10893.07361-.01822.01287-.03031.02172-.03581.02587z"/><path d="m2.90601 8.30127.09593-.37311c1.27006.33447 2.2492.50114 2.93255.50114.68079 0 1.69408-.1966 3.0333-.59117l.10648.37018c-1.37089.4039-2.41529.60654-3.13978.60654-.72194 0-1.72981-.17157-3.02848-.51358z"/><path d="m2.41125 4.8472.60354-.61597.88366.88682-.60353.61597z"/><path d="m7.41797 7.92385.44892-.73897 1.40181.87222-.44892.73898z"/></g><path clip-rule="evenodd" d="m2.09521 5.99999c0 2.15591 1.72691 3.90361 3.85715 3.90361s3.85714-1.7477 3.85714-3.90361-1.7269-3.90362-3.85714-3.90362-3.85715 1.74771-3.85715 3.90362zm7.2381.04819c0 1.86313-1.49238 3.3735-3.33333 3.3735s-3.33334-1.51037-3.33334-3.3735 1.49239-3.37349 3.33334-3.37349 3.33333 1.51036 3.33333 3.37349z" fill="#f9e813" fill-rule="evenodd"/><path d="m3.82837 3.59262v3.13036c.20607 1.23904.9003 1.85855 2.08269 1.85855 1.1824 0 1.87663-.61951 2.0827-1.85855v-3.13036z" fill="#fff"/><path d="m3.0426 3h5.53682v3.71137l-.00463.02569c-.26747 1.48278-1.21565 2.26294-2.76378 2.26294s-2.49631-.78016-2.76377-2.26294l-.00464-.02569z" fill="#c51918"/><path clip-rule="evenodd" d="m4.52378 3.953h-.9v.9h.9zm3.5 0h-.9v.9h.9z" fill="#f9e813" fill-rule="evenodd"/><path clip-rule="evenodd" d="m3.62378 5.953h.9v.9h-.9zm3.54979.01417h.9v.9h-.9zm.01362 1.45746h-.9v.9h.9z" fill="#f9e813" fill-rule="evenodd"/><path clip-rule="evenodd" d="m4.32422 7.42062h.9v.9h-.9z" fill="#f9e813" fill-rule="evenodd"/><path d="m4.42603 4.35535h2.96986v2.22045s-.22039 1.14665-1.48493 1.14665c-1.26455 0-1.48493-1.14665-1.48493-1.14665z" fill="#f7fcff"/><g fill="#013399"><path d="m5.61902 4.60242h.66016v.48073s-.04898.24826-.33008.24826c-.28109 0-.33008-.24826-.33008-.24826z"/><path d="m5.61902 5.66266h.66016v.48074s-.04898.24825-.33008.24825c-.28109 0-.33008-.24825-.33008-.24825z"/><path d="m6.4762 5.66266h.66016v.48074s-.04899.24825-.33008.24825-.33008-.24825-.33008-.24825z"/><path d="m4.76184 5.66266h.66017v.48074s-.04899.24825-.33009.24825c-.28109 0-.33008-.24825-.33008-.24825z"/><path d="m5.61902 6.7229h.66016v.48074s-.04898.24825-.33008.24825c-.28109 0-.33008-.24825-.33008-.24825z"/></g></g></svg>