<svg fill="none" height="12" viewBox="0 0 16 12" width="16" xmlns="http://www.w3.org/2000/svg" xmlns:xlink="http://www.w3.org/1999/xlink"><clipPath id="a"><path d="m0 0h16v12h-16z"/></clipPath><mask id="b" height="12" maskUnits="userSpaceOnUse" width="16" x="0" y="0"><path clip-rule="evenodd" d="m0 0v12h16v-12z" fill="#fff" fill-rule="evenodd"/></mask><g clip-path="url(#a)"><path d="m0 0h16v12h-16z" fill="#fff"/><g clip-rule="evenodd" fill-rule="evenodd"><path d="m0 0v12h16v-12z" fill="#4857a1"/><g mask="url(#b)"><path d="m0 0v4h16v-4z" fill="#c51918"/><path d="m0 8v4h16v-4z" fill="#f7fcff"/><path d="m5.26042 1.34787-.06466-.24417c.05312.01537.11064.03113.17129.04732l-.00188-.0093c.75415.06979 1.92189.44619 2.14165.83884.08495.15177.00255.28007-.10544.44819l-.00004.00006c-.01612.02511-.03282.0511-.04961.0782-.05427.08755-.10344.17128-.14978.25018-.16918.28804-.30062.51184-.50474.62363l.00396.63947-3.36887-.02729-.00431-.64428c-.17485-.11969-.29761-.32872-.45166-.59101-.04634-.0789-.09551-.16262-.14978-.25018-.01681-.02711-.03352-.05313-.04965-.07825-.10799-.16813-.19039-.29642-.10545-.44819.16591-.29642.91213-.58876 1.59239-.74428.12835-.04263.26197-.0826.39449-.12095l.05462.03725c.05896-.00822.11596-.01491.17044-.01995l.08027.17108h.26349s.16563.46337.16563.72071c0 .25733-.16563.47013-.16563.47013v.17764c.02892.00227.05927.00504.09081.00825.00001-.01569.00143-.03221.00441-.04913.01497-.08488.06362-.14726.10866-.13932.04505.00794.06943.0832.05446.16809-.00239.01353-.00563.0265-.00958.0387.17756.02276.37646.05452.56488.08719.07184-.13122.15943-.26086.24306-.38464v-.00001c.21618-.31995.4059-.60076.22883-.76838-.03379-.032-.09514-.06175-.17427-.08929-.26048-.06312-.54428-.11239-.81986-.13789l-.00723-.03582c-.05282-.00807-.10354-.0156-.1509-.0226zm1.28172 1.55081c.09482.01883.15226.03079.15226.03079l.00062.09872c.33411-.23867.56811-.77872.58817-.95548.01191-.10501-.16361-.22723-.43918-.33915.12597.23464-.05029.46804-.271.76031-.08368.1108-.17374.23006-.25615.36107l.08306.0159c-.00125-.02477.00169-.05267.00936-.0813.02231-.08326.07621-.14116.12039-.12932.04418.01183.06191.08893.0396.17219-.00662.02471-.01602.04719-.02713.06627zm-1.72302-.22476v-.19783s-.1434-.15103-.16563-.46557c-.01618-.22888.03504-.49864.06414-.62859-.20048.02555-.41109.06355-.61642.10971-.16491.0411-.29844.08832-.35495.14183-.17707.16762.01265.44843.22883.76838.08078.11957.16525.2446.23566.37124.12163-.02482.24386-.04779.35799-.06608-.00478-.01653-.00818-.03457-.00984-.05357-.00751-.08587.02334-.15871.0689-.1627.04556-.00398.08859.0624.0961.14827.00138.01572.00147.031.00042.04551.0329-.00416.06459-.00772.0948-.0106zm-.97782.17977c-.0822-.13051-.17196-.24937-.25537-.35982-.22584-.29906-.40513-.53648-.26172-.77667-.3235.12105-.54102.25117-.52912.35603.01888.16641.22735.65474.53046.91053l-.00002-.00355s.12387-.03276.30699-.07714c-.01213-.01851-.02273-.04051-.03066-.06491-.02664-.08198-.01297-.15989.03053-.17403.0435-.01413.10036.04087.127.12285.00939.02891.01377.05731.0136.08259z" fill="#f6c540"/><path d="m4.29655 1.34203c.02309.01585.05153.02519.08229.02519.07729 0 .13995-.05904.13995-.13188s-.06266-.13189-.13995-.13189c-.05482 0-.10228.0297-.12524.07295-.0231-.01584-.05154-.02519-.08229-.02519-.04931 0-.09267.02403-.1176.06034-.02418-.01878-.05517-.03006-.08895-.03006-.0773 0-.13996.05905-.13996.13189 0 .00406.00019.00807.00057.01204-.02565-.03002-.06497-.04922-.10906-.04922-.07006 0-.12809.0485-.13835.11182-.02562-.03072-.06542-.05045-.1101-.05045-.06717 0-.12328.04458-.13684.10406-.02298-.01559-.05118-.02477-.08166-.02477-.06202 0-.11462.03802-.13299.09067-.01883-.00888-.04009-.01389-.06259-.01389-.06905 0-.12643.04713-.13788.10912-.00897-.0017-.01825-.00259-.02775-.00259-.07656 0-.13876.05793-.13994.1298-.00833-.00145-.01691-.00221-.02569-.00221-.0773 0-.13996.05904-.13996.13188 0 .00924.00101.01825.00293.02695-.00924-.00181-.0188-.00276-.0286-.00276-.0773 0-.13996.05905-.13996.13189 0 .05534.03617.10272.08745.12229-.00302.01078-.00463.0221-.00463.03378 0 .05534.03617.10272.08745.12229-.00303.01079-.00464.02211-.00464.03379 0 .07111.05972.12907.13448.13178-.03153.02419-.05166.06104-.05166.10233 0 .07284.06266.13189.13996.13189.07729 0 .13996-.05905.13996-.13189 0-.0711-.05972-.12907-.13448-.13178.03152-.02418.05166-.06104.05166-.10233 0-.05534-.03617-.10272-.08745-.12229.00302-.01078.00463-.02211.00463-.03379 0-.05534-.03617-.10272-.08745-.12229.00303-.01078.00464-.0221.00464-.03378 0-.00924-.00101-.01825-.00293-.02695.00924.00181.0188.00276.0286.00276.07656 0 .13876-.05793.13994-.12981.00833.00146.01692.00222.02569.00222.06906 0 .12644-.04713.13788-.10912.00897.0017.01825.00259.02775.00259.06203 0 .11463-.03801.13299-.09067.01884.00889.04009.01389.06259.01389.0307 0 .0591-.00932.08218-.02512.00435.01764.01246.03392.02348.04806-.01704.02185-.02712.04883-.02712.07803 0 .07111.05972.12907.13448.13179-.03152.02418-.05166.06104-.05166.10233 0 .05534.03617.10272.08745.12229-.00302.01078-.00463.0221-.00463.03378 0 .05534.03617.10272.08745.12229-.00303.01079-.00464.02211-.00464.03379 0 .07284.06266.13188.13996.13188s.13996-.05904.13996-.13188c0-.05534-.03617-.10272-.08745-.12229.00302-.01078.00463-.02211.00463-.03379 0-.05534-.03617-.10272-.08745-.12229.00303-.01078.00464-.0221.00464-.03378 0-.07111-.05972-.12907-.13448-.13179.03153-.02418.05166-.06104.05166-.10233 0-.0292-.01007-.05618-.02712-.07803.01705-.02186.02712-.04884.02712-.07804s-.01007-.05619-.02712-.07804c.01307-.01675.02204-.03651.02551-.05798.02563.03072.06542.05045.1101.05045.0773 0 .13996-.05904.13996-.13188 0-.00406-.0002-.00808-.00058-.01204.02566.03001.06498.04922.10907.04922.04931 0 .09266-.02403.11759-.06034.02419.01878.05517.03006.08896.03006.05482 0 .10227-.0297.12524-.07295zm-.82869.25931c.04631 0 .08737-.0212.11284-.05385-.02547-.03265-.06653-.05385-.11284-.05385.01418 0 .02568-.01083.02568-.02419s-.0115-.02419-.02568-.02419-.02567.01083-.02567.02419.01149.02419.02567.02419c-.0307 0-.0591.00932-.08218.02512-.00779-.03157-.02761-.05878-.05466-.07713-.00204.00897-.00312.01828-.00312.02782 0 .0292.01008.05619.02712.07804-.01704.02185-.02712.04884-.02712.07804 0 .01031.00126.02035.00364.02998.0274-.01876.0473-.04665.05466-.07894.02298.01559.05118.02477.08166.02477zm0 .04838c-.04631 0-.08736.02119-.11284.05385.02548.03265.06653.05384.11284.05384s.08737-.02119.11284-.05384c-.02547-.03266-.06653-.05385-.11284-.05385zm0 0c.01418 0 .02568-.01083.02568-.02419s-.0115-.02419-.02568-.02419-.02567.01083-.02567.02419.01149.02419.02567.02419zm-.08166-.07315c-.01194-.0081-.02247-.01792-.03118-.02908.00859-.011.01894-.0207.03066-.02873.00238.00963.00364.01967.00364.02999 0 .00954-.00108.01885-.00312.02782zm.38262.62901c-.01622-.00619-.03394-.00959-.05251-.00959-.0649 0-.11949.04162-.13532.09809.01621.00619.03394.0096.0525.0096.06491 0 .11949-.04163.13533-.0981zm-.08282-.15608c-.01621-.00618-.03394-.00959-.05251-.00959-.0649 0-.11948.04163-.13532.0981.01621.00618.03394.00959.05251.00959.0649 0 .11949-.04163.13532-.0981zm-.12984-.16557-.00548-.0001c-.03348 0-.06422.01108-.0883.02956l.00548.0001c.03348 0 .06422-.01108.0883-.02956zm-.74534.54627-.00548-.0001c-.03348 0-.06422.01108-.0883.02955l.00548.0001c.03348 0 .06422-.01107.0883-.02955zm-.03579-.22462c-.01584.05647-.07042.0981-.13532.0981-.01857 0-.0363-.00341-.05251-.0096.01583-.05647.07042-.09809.13532-.09809.01857 0 .03629.0034.05251.00959zm-.08282-.15608c-.01583.05647-.07042.0981-.13532.0981-.01857 0-.03629-.00341-.05251-.00959.01584-.05647.07042-.0981.13533-.0981.01856 0 .03629.00341.0525.00959zm-.10672-.16291c.01128.05121.05408.09155.10843.10218-.01128-.05121-.05408-.09155-.10843-.10218zm.27697-.02487c-.06502-.01137-.11427-.0651-.11427-.12966l.00002-.00209c.06503.01137.11427.0651.11427.12967zm.16357-.1069c-.064-.01213-.1122-.06541-.1122-.12929 0-.00776.00071-.01537.00207-.02277.06401.01214.11221.06541.11221.1293 0 .00776-.00071.01537-.00208.02276zm.16074-.08808c-.04588-.02164-.07737-.06635-.07737-.11799 0-.0144.00245-.02825.00697-.04122.04588.02165.07737.06636.07737.118 0 .01439-.00244.02825-.00697.04121zm.41944-.17723c-.0187-.02242-.02986-.0507-.02986-.08143 0-.00682.00055-.01352.00161-.02006.01871.02242.02986.0507.02986.08143 0 .00682-.00055.01352-.00161.02006zm.21916-.16409c.00256.02661.0135.05094.03032.07062-.00255-.02661-.0135-.05094-.03032-.07062zm.25698.0595c-.03114-.02419-.051-.06082-.051-.10183 0-.02637.00821-.05093.02236-.07154.03115.02419.05101.06082.05101.10183 0 .02637-.00822.05093-.02237.07154zm.2142-.04289c-.03495-.02398-.05767-.06283-.05767-.10669 0-.02118.0053-.0412.01472-.05894.03495.02398.05767.06284.05767.10669 0 .02119-.0053.0412-.01472.05894zm-1.4084.41422c.01418 0 .02568-.01083.02568-.02419 0-.01337-.0115-.0242-.02568-.0242s-.02567.01083-.02567.0242c0 .01336.01149.02419.02567.02419zm-.16563.12758c.01418 0 .02567-.01083.02567-.02419s-.01149-.02419-.02567-.02419-.02567.01083-.02567.02419.01149.02419.02567.02419zm-.16563.15608c.01418 0 .02567-.01083.02567-.02419s-.01149-.02419-.02567-.02419-.02567.01083-.02567.02419.01149.02419.02567.02419zm.08282.15608c.01417 0 .02567-.01084.02567-.0242s-.0115-.02419-.02567-.02419c-.01418 0-.02568.01083-.02568.02419s.0115.0242.02568.0242zm.08281.15607c.01418 0 .02567-.01083.02567-.02419s-.01149-.02419-.02567-.02419-.02567.01083-.02567.02419.01149.02419.02567.02419zm.10849.20992c0 .01336-.01149.02419-.02567.02419s-.02568-.01083-.02568-.02419.0115-.02419.02568-.02419.02567.01083.02567.02419zm.22277-.91226c.01418 0 .02568-.01083.02568-.02419s-.0115-.02419-.02568-.02419c-.01417 0-.02567.01083-.02567.02419s.0115.02419.02567.02419zm.19558-.07678c.01418 0 .02567-.01083.02567-.02419s-.01149-.02419-.02567-.02419-.02568.01083-.02568.02419.0115.02419.02568.02419zm.46695-.14067c.01418 0 .02567-.01083.02567-.02419s-.01149-.02419-.02567-.02419-.02567.01083-.02567.02419.01149.02419.02567.02419zm.24845-.0947c.01418 0 .02567-.01083.02567-.02419s-.01149-.0242-.02567-.0242-.02568.01084-.02568.0242.0115.02419.02568.02419zm.20655-.03028c.01418 0 .02567-.01084.02567-.0242s-.01149-.02419-.02567-.02419-.02567.01083-.02567.02419.01149.0242.02567.0242zm.20753-.04776c.01417 0 .02567-.01083.02567-.02419s-.0115-.02419-.02567-.02419c-.01418 0-.02568.01083-.02568.02419s.0115.02419.02568.02419zm-.91098.54627c.01418 0 .02568-.01084.02568-.0242s-.0115-.02419-.02568-.02419-.02567.01083-.02567.02419.01149.0242.02567.0242zm.08282.23411c.01418 0 .02567-.01083.02567-.02419s-.01149-.02419-.02567-.02419-.02567.01083-.02567.02419.01149.02419.02567.02419zm.08281.15608c.01418 0 .02568-.01084.02568-.0242s-.0115-.02419-.02568-.02419c-.01417 0-.02567.01083-.02567.02419s.0115.0242.02567.0242zm.08282.15607c.01418 0 .02567-.01083.02567-.02419s-.01149-.02419-.02567-.02419-.02567.01083-.02567.02419.01149.02419.02567.02419zm3.64389.23411c.01418 0 .02568-.01083.02568-.02419s-.0115-.02419-.02568-.02419-.02567.01083-.02567.02419.01149.02419.02567.02419zm-.13996-.02419c0 .07284.06267.13189.13996.13189.0773 0 .13996-.05905.13996-.13189 0-.04129-.02013-.07814-.05166-.10233.07476-.00271.13448-.06067.13448-.13178 0-.01168-.00161-.023-.00464-.03379.05128-.01957.08745-.06695.08745-.12229 0-.01168-.00161-.023-.00463-.03378.05128-.01957.08745-.06695.08745-.12229 0-.07284-.06266-.13189-.13996-.13189-.0098 0-.01937.00095-.0286.00276.00192-.0087.00293-.01771.00293-.02695 0-.07284-.06266-.13188-.13996-.13188-.00878 0-.01736.00076-.02569.00221-.00118-.07187-.06338-.1298-.13994-.1298-.0095 0-.01878.00089-.02775.00259-.01145-.06199-.06883-.10912-.13789-.10912-.02249 0-.04375.00501-.06258.01389-.01837-.05265-.07097-.09067-.13299-.09067-.03048 0-.05868.00918-.08166.02477-.01356-.05948-.06968-.10406-.13684-.10406-.04469 0-.08448.01973-.1101.05045-.01026-.06332-.06829-.11182-.13835-.11182-.04409 0-.08341.0192-.10907.04922.00039-.00397.00058-.00798.00058-.01204 0-.07284-.06266-.13189-.13996-.13189-.03378 0-.06477.01128-.08895.03006-.02493-.03631-.06829-.06034-.1176-.06034-.03075 0-.05919.00935-.08229.02519-.02296-.04325-.07042-.07295-.12524-.07295-.07729 0-.13996.05905-.13996.13189s.06267.13188.13996.13188c.03076 0 .05919-.00934.08229-.02519.02297.04325.07042.07295.12524.07295.03378 0 .06477-.01128.08896-.03006.02493.03631.06828.06034.11759.06034.04409 0 .08341-.01921.10907-.04922-.00038.00396-.00058.00798-.00058.01204 0 .07284.06266.13188.13996.13188.04468 0 .08447-.01973.1101-.05045.00347.02147.01244.04123.02551.05798-.01705.02185-.02712.04884-.02712.07804s.01007.05618.02712.07804c-.01705.02185-.02712.04883-.02712.07803 0 .04129.02013.07815.05166.10233-.07476.00272-.13448.06068-.13448.13179 0 .01168.00161.023.00464.03378-.05128.01957-.08745.06695-.08745.12229 0 .01168.00161.02301.00463.03379-.05128.01957-.08745.06695-.08745.12229 0 .07284.06266.13188.13996.13188s.13996-.05904.13996-.13188c0-.01168-.00161-.023-.00464-.03379.05128-.01957.08745-.06695.08745-.12229 0-.01168-.00161-.023-.00463-.03378.05128-.01957.08745-.06695.08745-.12229 0-.04129-.02014-.07815-.05166-.10233.07476-.00272.13448-.06068.13448-.13179 0-.0292-.01008-.05618-.02713-.07803.01103-.01414.01914-.03042.02349-.04806.02308.0158.05147.02512.08218.02512.0225 0 .04375-.005.06259-.01389.01836.05266.07096.09067.13298.09067.00951 0 .01879-.00089.02776-.00259.01144.06199.06882.10912.13788.10912.00877 0 .01736-.00076.02569-.00222.00118.07188.06338.12981.13994.12981.0098 0 .01936-.00095.02859-.00276-.00191.0087-.00292.01771-.00292.02695 0 .01168.00161.023.00464.03378-.05128.01957-.08745.06695-.08745.12229 0 .01168.00161.02301.00463.03379-.05128.01957-.08745.06695-.08745.12229 0 .04129.02013.07815.05166.10233-.07476.00271-.13448.06068-.13448.13178zm-.4409-.98541c-.02298.01559-.05118.02477-.08166.02477-.04631 0-.08737-.0212-.11284-.05385.02547-.03265.06653-.05385.11284-.05385.0307 0 .0591.00932.08218.02512-.00238.00963-.00364.01967-.00364.02999 0 .00954.00108.01885.00312.02782zm.03117-.02908c.01705.02185.02713.04884.02713.07804 0 .01031-.00126.02035-.00364.02998-.0274-.01876-.0473-.04665-.05466-.07894.01194-.0081.02247-.01792.03117-.02908zm0 0c-.00858-.011-.01893-.0207-.03065-.02873.00779-.03157.02761-.05878.05466-.07713.00204.00897.00312.01828.00312.02782 0 .0292-.01008.05619-.02713.07804zm-.22596.74659c-.01583-.05647-.07042-.09809-.13532-.09809-.01857 0-.03629.0034-.05251.00959.01584.05647.07042.0981.13532.0981.01857 0 .0363-.00341.05251-.0096zm.08282-.15607c-.01584-.05647-.07042-.0981-.13533-.0981-.01856 0-.03629.00341-.0525.00959.01583.05647.07042.0981.13532.0981.01857 0 .03629-.00341.05251-.00959zm.03579-.22462c-.02408-.01848-.05482-.02956-.0883-.02956l-.00548.0001c.02408.01848.05482.02956.0883.02956zm.10735-.20982c-.02547-.03266-.06653-.05385-.11283-.05385-.04631 0-.08737.02119-.11284.05385.02547.03265.06653.05384.11284.05384.0463 0 .08736-.02119.11283-.05384zm-.94152-.36154c.03495-.02398.05767-.06283.05767-.10669 0-.02118-.0053-.0412-.01472-.05894-.03495.02398-.05767.06284-.05767.10669 0 .02119.0053.0412.01472.05894zm.2142.04289c.03114-.02419.051-.06082.051-.10183 0-.02637-.00821-.05093-.02236-.07154-.03115.02419-.05101.06082-.05101.10183 0 .02637.00822.05093.02237.07154zm.25697-.0595c-.00255.02661-.01349.05094-.03031.07062.00255-.02661.0135-.05094.03031-.07062zm.21917.16409c.0187-.02242.02986-.0507.02986-.08143 0-.00682-.00055-.01352-.00161-.02006-.01871.02242-.02986.0507-.02986.08143 0 .00682.00055.01352.00161.02006zm.41944.17723c.04587-.02164.07737-.06635.07737-.11799 0-.0144-.00245-.02825-.00697-.04122-.04588.02165-.07737.06636-.07737.118 0 .01439.00244.02825.00697.04121zm.16074.08808c.064-.01213.1122-.06541.1122-.12929 0-.00776-.00071-.01537-.00207-.02277-.06401.01214-.11221.06541-.11221.1293 0 .00776.00071.01536.00208.02276zm.3321.23395c.05436-.01063.09716-.05097.10844-.10218-.05435.01063-.09715.05097-.10844.10218zm-.05428-.2588.00002.00209c0 .06456-.04925.11829-.11427.12966l-.00002-.00208c0-.06457.04924-.1183.11427-.12967zm.056.31953c.01621-.00618.03393-.00959.0525-.00959.06491 0 .11949.04163.13533.0981-.01622.00618-.03394.00959-.05251.00959-.0649 0-.11949-.04163-.13532-.0981zm-.08282.15608c.01621-.00619.03394-.00959.05251-.00959.0649 0 .11949.04162.13532.09809-.01621.00619-.03394.0096-.05251.0096-.0649 0-.11948-.04163-.13532-.0981zm.05251.25417c-.03348 0-.06422-.01107-.0883-.02955l.00548-.0001c.03348 0 .06422.01108.0883.02955zm0-.10769c.01418 0 .02567-.01083.02567-.02419s-.01149-.02419-.02567-.02419-.02567.01083-.02567.02419.01149.02419.02567.02419zm.08281-.15607c.01418 0 .02568-.01084.02568-.0242s-.0115-.02419-.02568-.02419c-.01417 0-.02567.01083-.02567.02419s.0115.0242.02567.0242zm.08282-.15608c.01418 0 .02567-.01083.02567-.02419s-.01149-.02419-.02567-.02419-.02567.01083-.02567.02419.01149.02419.02567.02419zm-.16563-.15608c.01418 0 .02567-.01083.02567-.02419s-.01149-.02419-.02567-.02419-.02567.01083-.02567.02419.01149.02419.02567.02419zm-.16563-.12758c.01418 0 .02567-.01083.02567-.02419 0-.01337-.01149-.0242-.02567-.0242s-.02568.01083-.02568.0242c0 .01336.0115.02419.02568.02419zm-.16563-.10653c.01417 0 .02567-.01083.02567-.02419s-.0115-.02419-.02567-.02419c-.01418 0-.02568.01083-.02568.02419s.0115.02419.02568.02419zm-.19558-.07678c.01418 0 .02567-.01083.02567-.02419s-.01149-.02419-.02567-.02419-.02567.01083-.02567.02419.01149.02419.02567.02419zm-.2185-.0793c.01418 0 .02567-.01083.02567-.02419s-.01149-.02419-.02567-.02419-.02568.01083-.02568.02419.0115.02419.02568.02419zm-.24845-.06137c.01418 0 .02567-.01083.02567-.02419s-.01149-.02419-.02567-.02419-.02567.01083-.02567.02419.01149.02419.02567.02419zm-.24845-.0947c.01418 0 .02567-.01083.02567-.02419s-.01149-.0242-.02567-.0242-.02567.01084-.02567.0242.01149.02419.02567.02419zm-.20655-.03028c.01418 0 .02567-.01084.02567-.0242s-.01149-.02419-.02567-.02419-.02567.01083-.02567.02419.01149.0242.02567.0242zm-.20753-.04776c.01418 0 .02568-.01083.02568-.02419s-.0115-.02419-.02568-.02419-.02567.01083-.02567.02419.01149.02419.02567.02419zm.91098.39019c.01418 0 .02567-.01083.02567-.02419s-.01149-.02419-.02567-.02419-.02568.01083-.02568.02419.0115.02419.02568.02419zm0 .15608c.01418 0 .02567-.01084.02567-.0242s-.01149-.02419-.02567-.02419-.02568.01083-.02568.02419.0115.0242.02568.0242zm-.08282.23411c.01418 0 .02567-.01083.02567-.02419s-.01149-.02419-.02567-.02419-.02567.01083-.02567.02419.01149.02419.02567.02419zm-.08282.15608c.01418 0 .02568-.01084.02568-.0242s-.0115-.02419-.02568-.02419c-.01417 0-.02567.01083-.02567.02419s.0115.0242.02567.0242zm-.08281.15607c.01418 0 .02567-.01083.02567-.02419s-.01149-.02419-.02567-.02419-.02567.01083-.02567.02419.01149.02419.02567.02419z" fill="#fff"/><path d="m5.11035.460665-.21888.006373-.00452.341296-.40389.005272.00184.207134.39931-.00521-.00514.389.21888-.00637.0051-.38549.39734-.00518-.00184-.20714-.39276.005127z" fill="#f6c540"/><path d="m2.01984 4.00299h5.94285v4.75648s-.17971 2.36933-2.97142 2.36933c-2.79172 0-2.97143-2.36933-2.97143-2.36933z" fill="#c51918"/><path d="m3.81347 4.16757c-.0545 0-.13838.03688-.24958.07864-.11119.04177-.22797.13193-.11398.22224.11398.09031.27716.28852.27716.21441 0-.0741.19493-.14596.19493-.11003s-.06035.11003.09795.11003.23986.04408.07095.04408c-.1689 0-.18726.07281-.29703.07281s-.34396-.07336-.34396-.11689c0-.04352.13562.21398.27716.21398s.22193.12529.29288.06265c.07095-.06265.06256-.06265.17718-.06265.11463 0 .07279-.25299.07279-.25299s-.40196-.47628-.45645-.47628z" fill="#e8aa00"/><path d="m6.10688 4.16757c.0545 0 .13838.03688.24958.07864.11119.04177.22796.13193.11398.22224s-.27716.28852-.27716.21441c0-.0741-.19493-.14596-.19493-.11003s.06035.11003-.09795.11003-.23986.04408-.07095.04408c.1689 0 .18726.07281.29703.07281s.34396-.07336.34396-.11689c0-.04352-.13562.21398-.27716.21398s-.22193.12529-.29288.06265c-.07095-.06265-.06256-.06265-.17718-.06265-.11463 0-.0728-.25299-.0728-.25299s.40197-.47628.45646-.47628z" fill="#e8aa00"/><path d="m6.83535 4.68468c.11392.25034-.75918 1.18031-.75918 1.18031h-.09776c-.04108 0-.11749-.09525-.20975-.21026-.06323-.07883-.13391-.16693-.20576-.24002-.13517-.13749-.06353-.25299.00325-.36066.02051-.03307.04057-.06541.05403-.09742.02916-.06934.03331-.097.03805-.1286.00457-.03048.00969-.06463.03833-.14335.04208-.11569.18878-.26495.2905-.36845.03928-.03997.07186-.07311.08911-.09486.05446-.06866.01314-.06826-.10055-.06716-.0156.00015-.03256.00031-.05082.00031-.15137 0-.44052.06685-.52695.14493-.08643.07807-.17706.09472-.31023.09472s-.05103.08451.07025.14158c-.13058.02352-.2143.22864-.26348.41076-.02683-.18212-.08603-.38724-.21661-.41076.12128-.05707.20342-.14158.07025-.14158s-.2238-.01665-.31023-.09472c-.08643-.07808-.37558-.14493-.52695-.14493-.01826 0-.03522-.00016-.05082-.00031-.11369-.0011-.15501-.0015-.10055.06716.01726.02175.04983.05489.08911.09486.10172.1035.24843.25276.2905.36845.02864.07872.03376.11287.03833.14335.00474.0316.00889.05926.03805.1286.01346.03201.03352.06435.05403.09742.06678.10767.13842.22317.00325.36066-.07185.07309-.14252.16119-.20576.24002-.09226.11501-.16866.21026-.20975.21026h-.09776s-.8731-.92997-.75918-1.18031c.04404-.09676.11506-.18794.17384-.2634.09328-.11976.15571-.19991.03041-.19991-.20425 0-1.01845.4865-1.01845 1.58347 0 1.09696.07521 1.72085.24979 2.15793.11913.29828.01001.58795-.07132.80383-.03785.10047-.06968.18495-.06968.24689 0 .19503.32058.02414.32058-.09799 0-.05809.04389.02841.08993.11914.05076.10003.10413.20519.10413.12733 0-.08308.05111-.17082.09613-.24811.03545-.06086.06713-.11524.06713-.15578s.04497-.03903.09529-.03735c.06392.00213.13647.00455.13647-.07852 0-.05605.02309-.06724.05183-.08118.04739-.02298.11017-.05342.11017-.30476 0-.18629.03958-.12029.08498-.04458.04178.06967.0885.14757.11383.04458.00246-.01003.02869-.05322.06111-.10662.04719-.07771.1075-.17703.12679-.2272-.05947.21941-.20216.44804-.29277.55695-.09394.11293-.25594.35807-.25594.35807s.15108.07938.25594 0c.05857-.04434.06253-.00262.06684.04285.0034.03594.00703.07423.03803.07423.01946 0 .03778.003.0541.00566.01207.00198.02304.00377.03257.00404-.035.08402-.0664.21839.03891.12861.07521-.06411.12795-.09013.16289-.10736.04043-.01995.05702-.02814.05702-.07 0-.04178.01643-.02763.04216-.00546.02234.01924.05168.04451.08338.04451.04084 0 .04935-.0536.06172-.13155.00829-.05226.01832-.11545.04098-.18079.00528-.01522.01025-.02985.01495-.04373.0456-.13449.06687-.19721.11871-.02755.02423.07929.06703.13542.10429.18431.05071.06651.09118.1196.06076.19931-.01191.03121-.02685.06648-.04284.10423-.05489.12957-.12221.28848-.12221.4136 0 .0744-.07186.17579-.1394.27107-.07916.1117-.15238.21501-.09696.25665.1027.0771-.02158.3368-.12554.47s.76693.439.91901.439c.00216 0 .00427-.0012.00635-.0034v.0034s1.08859-.0498 1.08859-.439c-.10396-.1332-.22824-.3929-.12554-.47.05543-.04164-.0178-.14495-.09696-.25665-.06754-.09528-.1394-.19667-.1394-.27107 0-.12512-.06732-.28403-.12221-.4136-.01599-.03775-.03093-.07302-.04284-.10423-.03042-.07971.01006-.1328.06076-.19931.03726-.04889.08006-.10502.10429-.18431.05184-.16966.07311-.10694.11871.02755.0047.01388.00967.02851.01495.04373.02267.06534.03269.12853.04098.18079.01237.07795.02088.13155.06172.13155.0317 0 .06104-.02527.08338-.04451.02573-.02217.04216-.03632.04216.00546 0 .04186.01659.05005.05703.07.03493.01723.08767.04325.16288.10736.10532.08978.07392-.04459.03891-.12861.00953-.00027.0205-.00206.03257-.00404.01632-.00266.03465-.00566.05411-.00566.03099 0 .03462-.03829.03802-.07423.00431-.04547.00827-.08719.06684-.04285.10486.07938.25594 0 .25594 0s-.162-.24514-.25594-.35807c-.09061-.10891-.2333-.33754-.29277-.55694.01929.05016.0796.14948.12679.22719.03242.0534.05865.09659.06112.10662.02532.10299.07204.02509.11382-.04458.0454-.07571.08498-.14171.08498.04458 0 .25134.06278.28178.11017.30476.02874.01394.05183.02513.05183.08118 0 .08307.07255.08065.13647.07852.05032-.00168.09529-.00319.09529.03735s.03168.09492.06713.15578c.04502.07729.09613.16503.09613.24811 0 .07786.05337-.0273.10413-.12733.04604-.09073.08993-.17723.08993-.11914 0 .12213.32058.29302.32058.09799 0-.06194-.03183-.14642-.06968-.24689-.08133-.21588-.19045-.50555-.07132-.80383.17459-.43708.24979-1.06097.24979-2.15793 0-1.09697-.8142-1.58347-1.01845-1.58347-.1253 0-.06287.08015.03042.19991.05877.07546.12979.16664.17383.2634zm-.75918 3.21358c.00196.00805.00403.01612.00622.0242-.00399-.01038-.00622-.01865-.00622-.0242zm.06854 1.01724c0-.02738.01998.00333.03891.04875-.02407.00068-.03891-.00835-.03891-.04875zm-2.49268.04875c.02407.00068.03891-.00835.03891-.04875 0-.02738-.01998.00333-.03891.04875zm.10123-1.0418c.00399-.01037.00622-.01864.00622-.02419-.00196.00805-.00403.01612-.00622.02419z" fill="#f7fcff"/><path d="m3.88397 5.94156h2.21458v1.64935s-.23774.82158-1.10729.82158-1.10729-.82158-1.10729-.82158z" fill="#c51918"/><path d="m5.28983 5.9176h-.57971v.94686h-.82816v.33817h.82816v1.21739h.57971v-1.21739h.82815v-.33817h-.82815z" fill="#f7fcff"/><g fill="#e8aa00"><path d="m3.43681 9.66349c.26916-.30963.52142-.585.29698-.7801-.22443-.1951-.49238-.02597-.76155.28366-.26916.30963-.4376.64252-.21316.83765.22444.1951.40857-.03158.67773-.34121z"/><path d="m6.36788 9.66349c-.26916-.30963-.52143-.585-.29699-.7801s.49239-.02597.76155.28366.43761.64252.21317.83765c-.22444.1951-.40857-.03158-.67773-.34121z"/></g></g></g></g></svg>