<svg fill="none" height="12" viewBox="0 0 16 12" width="16" xmlns="http://www.w3.org/2000/svg" xmlns:xlink="http://www.w3.org/1999/xlink"><clipPath id="a"><path d="m0 0h16v12h-16z"/></clipPath><mask id="b" height="12" maskUnits="userSpaceOnUse" width="16" x="0" y="0"><path clip-rule="evenodd" d="m0 0v12h16v-12z" fill="#fff" fill-rule="evenodd"/></mask><g clip-path="url(#a)"><path d="m0 0h16v12h-16z" fill="#fff"/><path clip-rule="evenodd" d="m0 0v12h16v-12z" fill="#3d58db" fill-rule="evenodd"/><g mask="url(#b)"><path clip-rule="evenodd" d="m0 12h16v-12z" fill="#579d20" fill-rule="evenodd"/><path d="m-.390972 12.3726-.901878-1.248 18.13045-12.101742.9019 1.248044z" fill="#feca00"/><g clip-rule="evenodd" fill="#f7fcff" fill-rule="evenodd"><path d="m1.82659 3.27328.68179-.4729.71401.4251-.25009-.76216.49935-.54538h-.67655l-.28672-.80094-.28673.80094-.6777.02797.5005.51741zm2.82909 0 .68179-.4729.71401.4251-.25009-.76216.49935-.54538h-.67655l-.28672-.80094-.28673.80094-.67771.02797.50051.51741z"/><path d="m3.32394 4.72726.68179-.4729.71401.4251-.25008-.76216.49935-.54538h-.67656l-.28672-.80094-.28673.80094-.6777.02797.5005.51741zm-.81556 1.07312-.68179.4729.21786-.80997-.5005-.5174.6777-.02798.28673-.80093.28672.80093h.67655l-.49935.54538.25009.76216zm2.82909 0-.68179.4729.21786-.80997-.50051-.5174.67771-.02798.28673-.80093.28672.80093h.67655l-.49935.54538.25009.76216z"/></g></g></g></svg>