<svg fill="none" height="12" viewBox="0 0 16 12" width="16" xmlns="http://www.w3.org/2000/svg" xmlns:xlink="http://www.w3.org/1999/xlink"><clipPath id="a"><path d="m0 0h16v12h-16z"/></clipPath><mask id="b" height="12" maskUnits="userSpaceOnUse" width="16" x="0" y="0"><path clip-rule="evenodd" d="m0 0v12h16v-12z" fill="#fff" fill-rule="evenodd"/></mask><g clip-path="url(#a)"><path d="m0 0h16v12h-16z" fill="#fff"/><path clip-rule="evenodd" d="m0 0v12h16v-12z" fill="#2e42a5" fill-rule="evenodd"/><g mask="url(#b)"><path clip-rule="evenodd" d="m0 0v4h16v-4z" fill="#f7fcff" fill-rule="evenodd"/><path clip-rule="evenodd" d="m0 8v4h16v-4z" fill="#c51918" fill-rule="evenodd"/><path clip-rule="evenodd" d="m6.87012 2.51812s-1.05237-.49697-2.36127-.49697-2.36127.49697-2.36127.49697.11712 1.99735.30222 3.05546c.07903.45177.4589 1.11069.8028 1.42257.39198.35547 1.25625.77662 1.25625.77662.25011-.17234.71774-.24984 1.31546-.77662.59771-.52678.74628-1.42257.74628-1.42257z" fill="#2e42a5" fill-rule="evenodd"/><path d="m6.73102 2.45282.43826.21886-.30086 3.01131c-.10537.63734-.36903 1.13993-.79067 1.51153-.22873.20158-.45199.3522-.69136.47734-.13511.07065-.70028.36178-.69536.3594-.05663.0273-.09957.0512-.13445.07523l-.05466.03767-.05902-.02876c-.58538-.28524-1.13153-.66911-1.40294-.91524-.37049-.33599-.76113-1.02352-.84441-1.49959-.12453-.71183-.2362-1.69228-.31457-3.02889l.3937-.20597c.07778 1.32654.17167 2.384.29395 3.08297.07234.41355.43257 1.04754.76119 1.34556.24286.22024.63413.46446 1.1721.73006.03209-.0188.06765-.03741.10834-.05702.00114-.00055.3671-.16307.49428-.22956.22307-.11663.43042-.25651.6439-.44466.37429-.32986.60789-.7741.70237-1.33845z" fill="#c51918"/><g clip-rule="evenodd" fill-rule="evenodd"><path d="m2.77106 5.51209s.25786.78891.70946 1.22925c.45159.44033 1.00986.65616 1.00986.65616s.66494-.20121 1.04232-.62483c.37739-.42363.76374-1.26058.76374-1.26058l-.87765-.84229-.34883.37853-.57958-.82628-.48523.82628-.37207-.37853z" fill="#fff"/><path d="m3.57342 2.94308h-.35156l.27267-.25544-.27267-.26993h.35156l.14844-.26201.14904.26201h.35096l-.25903.25372.23001.27165h-.32194l-.14904.2765z" fill="#feca00"/><path d="m5.23028 2.94308h-.35156l.27267-.25544-.27267-.26993h.35156l.14844-.26201.14904.26201h.35096l-.25903.25372.23001.27165h-.32194l-.14904.2765z" fill="#feca00"/><path d="m4.29999 3.78375h-.35156l.27267-.25544-.27267-.26993h.35156l.14844-.26201.14903.26201h.35097l-.25904.25372.23001.27165h-.32194l-.14903.2765z" fill="#feca00"/></g></g></g></svg>