<svg fill="none" height="12" viewBox="0 0 16 12" width="16" xmlns="http://www.w3.org/2000/svg" xmlns:xlink="http://www.w3.org/1999/xlink"><clipPath id="a"><path d="m0 0h16v12h-16z"/></clipPath><mask id="b" height="6" maskUnits="userSpaceOnUse" width="8" x="4" y="3"><path clip-rule="evenodd" d="m4.40869 6.02639s1.42067-2.99001 3.45263-2.99001 3.50038 2.99001 3.50038 2.99001-1.79305 2.95072-3.47649 2.95072-3.47652-2.95072-3.47652-2.95072z" fill="#fff" fill-rule="evenodd"/></mask><g clip-path="url(#a)"><path d="m0 0h16v12h-16z" fill="#fff"/><path clip-rule="evenodd" d="m0 0h16v12h-16z" fill="#3d58db" fill-rule="evenodd"/><path d="m0 2.5h-.5v.5 6 .5h.5 16 .5v-.5-6-.5h-.5z" fill="#c51918" stroke="#ffd018"/><path d="m3.57466 4.66556c-.05997 0-.1086-.1356-.1086-.30287s.04863-.30288.1086-.30288h8.70534c.06 0 .1086.13561.1086.30288s-.0486.30287-.1086.30287z" fill="#ffd018"/><path clip-rule="evenodd" d="m12.0476 4.30114.5055-.64489.8945.64489-.8945.66186z" fill="#f7fcff" fill-rule="evenodd"/><path d="m3.57466 6.66556c-.05997 0-.1086-.1356-.1086-.30287s.04863-.30288.1086-.30288h8.70534c.06 0 .1086.13561.1086.30288s-.0486.30287-.1086.30287z" fill="#ffd018"/><path clip-rule="evenodd" d="m12.0476 6.30114.5055-.64489.8945.64489-.8945.66186z" fill="#f7fcff" fill-rule="evenodd"/><path d="m2.17271 7.91093c-.08042 0-.14561-.15397-.14561-.34389 0-.18993.06519-.3439.14561-.3439h11.67209c.0804 0 .1456.15397.1456.3439 0 .18992-.0652.34389-.1456.34389z" fill="#ffd018"/><g clip-rule="evenodd" fill-rule="evenodd"><path d="m4.40869 6.02639s1.42067-2.99001 3.45263-2.99001 3.50038 2.99001 3.50038 2.99001-1.79305 2.95072-3.47649 2.95072-3.47652-2.95072-3.47652-2.95072z" fill="#f7fcff"/><g mask="url(#b)"><path d="m7.96215 2.84009s-.46363.5631-.30909 1.10006c.15455.53696.51462.48024.51462.95312s-.16634.95516 0 .95516.22398.32632.07196.54755c-.15203.22123-.2865.22806-.27749.58811s.79602.7135.41477.7135-.88373.37004-.72386.37004c.15988 0 .99631.28831.99631.66669v.68119h-4.36373v-6.57542z" fill="#272727"/><path d="m5.90958 4.96155h-.2172v.88461h.2172zm.64072 0h-.21719v.88461h.21719zm-.53756 0h.2172v.88461h-.2172zm.85792 0h-.21719v.88461h.21719zm.10317 0h.2172v.88461h-.2172zm.53756 0h-.2172v.88461h.2172zm-1.81901 1.26923h.2172v.88461h-.2172zm.85792 0h-.21719v.88461h.21719zm-.53756 0h.2172v.88461h-.2172zm.85792 0h-.21719v.88461h.21719zm.10317 0h.2172v.88461h-.2172zm.53756 0h-.2172v.88461h.2172z" fill="#f7fcff"/><path d="m8.48868 4.96155h-.2172v.88461h.2172zm.64072 0h-.21719v.88461h.21719zm-.53755 0h.21719v.88461h-.21719zm.85791 0h-.21719v.88461h.21719zm.10317 0h.2172v.88461h-.2172zm.53757 0h-.21721v.88461h.21721zm-1.81902 1.26923h.2172v.88461h-.2172zm.85792 0h-.21719v.88461h.21719zm-.53755 0h.21719v.88461h-.21719zm.85791 0h-.21719v.88461h.21719zm.10317 0h.2172v.88461h-.2172zm.53757 0h-.21721v.88461h.21721z" fill="#272727"/><path d="m6.61582 3.53579c-.30425.09426-.44348.89217-.40947 1.08503s.13723-.0242.13723-.0242.21053.45755.23223.58065c.02171.1231.13258-.18608.13258-.18608s.36515.25156.41458.53187c.04943.2803.12377-.32076.12377-.32076l.08271-.01459-.05233-.2968.15775.13489-.04867-.27602s.1188.15526.08867-.01563c-.03014-.17089-.04696-.2663-.04696-.2663l-.04118-.23358.15614-.02753s-.6228-.76522-.92705-.67095z" fill="#3d58db"/></g><path d="m13.0442 6.84797c-.316.03999-.5917.8016-.5917.99744s.1394 0 .1394 0 .1278.48716.1278.61216.1629-.16024.1629-.16024.3159.31115.3159.59578.1776-.29439.1776-.29439h.084v-.30139l.1319.16024v-.28028s.0901.17353.0901 0 0-.2704 0-.2704v-.23718h.1585s-.4804-.86174-.7964-.82174z" fill="#3d58db"/><path d="m2.7964 6.73255c.31599.04.59166.80161.59166.99744 0 .19584-.13935 0-.13935 0s-.12787.48716-.12787.61216-.16287-.16023-.16287-.16023-.31593.31114-.31593.59578c0 .28463-.17759-.2944-.17759-.2944h-.08399v-.30138l-.13193.16023v-.28027s-.09004.17352-.09004 0c0-.17353 0-.27041 0-.27041v-.23718h-.15854s.48045-.86174.79645-.82174z" fill="#3d58db"/></g></g></svg>