<svg fill="none" height="12" viewBox="0 0 16 12" width="16" xmlns="http://www.w3.org/2000/svg" xmlns:xlink="http://www.w3.org/1999/xlink"><clipPath id="a"><path d="m0 0h16v12h-16z"/></clipPath><mask id="b" height="12" maskUnits="userSpaceOnUse" width="16" x="0" y="0"><path clip-rule="evenodd" d="m0 0v12h16v-12z" fill="#fff" fill-rule="evenodd"/></mask><g clip-path="url(#a)"><path d="m0 0h16v12h-16z" fill="#fff"/><g clip-rule="evenodd" fill-rule="evenodd"><path d="m0 0v12h16v-12z" fill="#2e42a5"/><g mask="url(#b)"><path d="m9.39444 3.09998h2.00416.0158 2.0042l-.3921.75201h-1.2208v.40393h.9359l-.3812.69961h-.5547v1.39914l.9136-1.43964 1.1823 2.04731h-.483l-.1687-.22416h-1.0702l-.7525 1.39046.0002.07681-.0209-.03858-.0209.03858.0002-.07681-.7525-1.39046h-1.07016l-.1687.22416h-.48303l1.18239-2.04731.9136 1.43964v-2.50268h-1.22088zm3.34836 2.65475-.2626.40386h.4971zm-2.6726 0 .2626.40386h-.4971zm-1.91337-.44813.41552-.30634.41551.30634-.14659-.51335.4034-.32402-.50612-.01093-.1662-.5066-.16621.5066-.50612.01093.4034.32402zm6.07087-.30634-.4155.30634.1466-.51335-.4034-.32402.5061-.01093.1662-.5066.1662.5066.5061.01093-.4034.32402.1466.51335zm-1.688 3.90137.4155-.30634.4156.30634-.1466-.51335.4034-.32402-.5061-.01093-.1663-.50659-.1662.50659-.5061.01093.4034.32402zm-2.6949-.30634-.41552.30634.14659-.51335-.40339-.32402.50611-.01093.16621-.50659.1662.50659.5061.01093-.4034.32402.1466.51335zm1.1397 1.50471.4155-.30636.4155.30636-.1465-.51337.4033-.32402-.5061-.01093-.1662-.5066-.1662.5066-.5061.01093.4034.32402z" fill="#f7fcff"/><path d="m4 0h2v5h-2z" fill="#f50100"/><path d="m0 0h2v5h-2z" fill="#2e42a5"/><path d="m2 0h2v5h-2z" fill="#f7fcff"/></g></g></g></svg>