<svg fill="none" height="12" viewBox="0 0 16 12" width="16" xmlns="http://www.w3.org/2000/svg" xmlns:xlink="http://www.w3.org/1999/xlink"><clipPath id="a"><path d="m0 0h16v12h-16z"/></clipPath><g clip-path="url(#a)"><path d="m0 0h16v12h-16z" fill="#fff"/><g clip-rule="evenodd" fill-rule="evenodd"><path d="m0 0h16v12h-16z" fill="#f7fcff"/><path d="m0 0v4h16v-4z" fill="#c51918"/><path d="m0 8v4h16v-4z" fill="#409100"/><path d="m7.97263 7.78867c-.20632.00591-.34375-.21204-.34375-.21204l.21153-.0545c.01316-.13948.10882-.21366.10882-.21366.06325.04064.13161.2238.13161.2238l.18123.02547s-.08312.22502-.28944.23093zm-1.0074.06233c-.20348.03456-.36991-.16214-.36991-.16214l.20189-.08341c-.00639-.13996.07802-.22672.07802-.22672.06829.03144.16148.2033.16148.2033h.18301s-.051.2344-.25449.26897zm-.72377.19809.09216.32819c.47806-.12936 1.03295-.1944 1.66456-.1944.6316 0 1.18649.06504 1.66455.1944l.09216-.32819c-.51002-.138-1.09555-.20664-1.75671-.20664-.66117 0-1.2467.06864-1.75672.20664zm3.12855-.32619s-.16643.1967-.36992.16214c-.20348-.03456-.25448-.26897-.25448-.26897h.18301s.09319-.17186.16147-.2033c0 0 .08442.08677.07803.22672z" fill="#fb0"/><path d="m7.97927 6.84931s-.2345.53665-.60382.57815c-.36933.04151-.55691-.30521-.55691-.30521s-.02419.36056-.46281.49954c-.43861.13898-.66957-.41631-.66957-.41631s.22835.20426.58252.11525c.35416-.089.49396-.41771.49396-.41771s.26211.34269.61281.17135c.35069-.17135.54471-.38076.54471-.5817v-.60091s-.09048-.15582-.24743-.15582c-.15696 0-.20076.11046-.20076.11046s-.06127-.62516.50323-.6638l-.00003-.00151.01561.0006.01561-.0006-.00002.00151c.56449.03864.50323.6638.50323.6638s-.0438-.11046-.20076-.11046c-.15695 0-.24743.15582-.24743.15582v.60091c0 .20094.19402.41035.54471.5817.3507.17134.6128-.17135.6128-.17135s.1398.32871.49397.41771c.35421.08901.58251-.11525.58251-.11525s-.231.55529-.66957.41631c-.43861-.13898-.4628-.49954-.4628-.49954s-.18758.34672-.55691.30521c-.36932-.0415-.60382-.57815-.60382-.57815l-.01152-.70831zm-.0052-1.49838c-.26041 0-.31316.22046-.31316.22046.2293 0 .31316.09995.31316.09995s.16977-.09995.3407-.09995c0 0-.08028-.22046-.3407-.22046z" fill="#fb0"/></g><path d="m5.95025 6.49922-.99635.0853c-.07292-.85174.27764-1.65752 1.01439-2.39587 1.08378-1.08615 3.27846-.98035 4.21261.01009.5338.56588.8072 1.34998.8335 2.32972l-.9997.02682c-.02013-.75049-.21163-1.29975-.56122-1.67039-.55729-.59085-2.10332-.66538-2.77732.01009-.54204.54323-.77157 1.07082-.72591 1.60424z" fill="#fb0"/></g></svg>