<svg fill="none" height="12" viewBox="0 0 16 12" width="16" xmlns="http://www.w3.org/2000/svg" xmlns:xlink="http://www.w3.org/1999/xlink"><clipPath id="a"><path d="m0 0h16v12h-16z"/></clipPath><mask id="b" height="12" maskUnits="userSpaceOnUse" width="16" x="0" y="0"><path clip-rule="evenodd" d="m0 0v12h16v-12z" fill="#fff" fill-rule="evenodd"/></mask><g clip-path="url(#a)"><path d="m0 0h16v12h-16z" fill="#fff"/><g clip-rule="evenodd" fill-rule="evenodd"><path d="m0 0v12h16v-12z" fill="#e31d1c"/><g mask="url(#b)"><path d="m8 10c2.2091 0 4-1.79086 4-4s-1.7909-4-4-4c-2.20914 0-4 1.79086-4 4s1.79086 4 4 4z" fill="#f7fcff"/><path d="m8.70138 8.8254s-2.10819-.57517-2.10819-2.83866 2.10819-2.88796 2.10819-2.88796c-.87175-.3374-3.42293.18029-3.42293 2.88796 0 2.70766 2.62235 3.19531 3.42293 2.83866zm-.11606-3.33121-1.04593.38216 1.12414.39295.03785 1.05246.68414-.81763 1.12808.08007-.81278-.66308.48948-.95755-.95613.32182-.6624-.82795z" fill="#e31d1c"/></g></g></g></svg>