<svg fill="none" height="12" viewBox="0 0 16 12" width="16" xmlns="http://www.w3.org/2000/svg" xmlns:xlink="http://www.w3.org/1999/xlink"><clipPath id="a"><path d="m0 0h16v12h-16z"/></clipPath><mask id="b" height="12" maskUnits="userSpaceOnUse" width="16" x="0" y="0"><path clip-rule="evenodd" d="m0 0v12h16v-12z" fill="#fff" fill-rule="evenodd"/></mask><g clip-path="url(#a)"><path d="m0 0h16v12h-16z" fill="#fff"/><path clip-rule="evenodd" d="m0 0v12h16v-12z" fill="#e31d1c" fill-rule="evenodd"/><g mask="url(#b)"><path clip-rule="evenodd" d="m8.01267 8.05676c-1.07066-.26376-1.90922-1.15992-1.89949-2.4736.00911-1.2297.75364-2.26913 1.93061-2.55051 1.17698-.28138 2.21321.31593 2.21321.31593-.32529-.76791-1.4554-1.30739-2.3819-1.30583-1.72461.00288-3.56305 1.40151-3.57889 3.54041-.01643 2.2175 1.96869 3.48037 3.7146 3.47745 1.39963-.00235 2.06349-.95992 2.20099-1.36727 0 0-1.12847.62718-2.19913.36342zm2.43893-2.89347-1.06673.39183 1.20363.4246-.0205 1.26869.793-.9518 1.3101.09519-1.0382-.89237.6816-.9519-1.1098.37349-.7931-.8818z" fill="#f7fcff" fill-rule="evenodd"/></g></g></svg>