<svg fill="none" height="12" viewBox="0 0 16 12" width="16" xmlns="http://www.w3.org/2000/svg" xmlns:xlink="http://www.w3.org/1999/xlink"><clipPath id="a"><path d="m0 0h16v12h-16z"/></clipPath><mask id="b" height="12" maskUnits="userSpaceOnUse" width="16" x="0" y="0"><path clip-rule="evenodd" d="m0 0v12h16v-12z" fill="#fff" fill-rule="evenodd"/></mask><g clip-path="url(#a)"><path d="m0 0h16v12h-16z" fill="#fff"/><path clip-rule="evenodd" d="m0 0v12h16v-12z" fill="#feca00" fill-rule="evenodd"/><g mask="url(#b)"><path d="m0 0h16v2h-16z" fill="#272727"/><path d="m0 4h16v2h-16z" fill="#d74800"/><path d="m0 6h16v2h-16z" fill="#272727"/><path d="m0 10h16v2h-16z" fill="#d74800"/><g clip-rule="evenodd" fill-rule="evenodd"><path d="m8 9c1.65685 0 3-1.34315 3-3s-1.34315-3-3-3-3 1.34315-3 3 1.34315 3 3 3z" fill="#f7fcff"/><path d="m6.83981 4.16432-.52899.17357.52899.04529s.08552.20918 0 .37247c-.02171.04146-.07771.09456-.14919.16235-.21011.19925-.55396.52533-.55396 1.05512 0 .71003 1.37027 1.03197 1.37027 1.03197v.33734s.15905.09879-.74836.09879c-.78692 0-.7377.29872-.71076.46225.00413.02504.00773.04691.00773.06405 0 .12911.37822-.12911.55527-.3862.0932-.13534.48348-.12819.88404-.09107.03162.00293.32368.6216.07013.9412-.10652.13426-.47436.15175-.70417.16268-.11719.00557-.19848.00944-.19094.02621.00565.01258.07496.00844.1757.00243.12573-.00751.30042-.01793.46142-.00243.02444.00235-.07032.08459-.16613.16775-.09867.08565-.19846.17227-.17034.17359.03161.00149.2164-.10087.38427-.19387.13889-.07694.2662-.14747.28562-.14747.12668 0 .24107.01563.3414.02934.1677.02291.29612.04046.37698-.02934.02489-.02149-.11946-.05607-.26663-.09133-.15162-.03633-.30625-.07337-.28188-.09756.13937-.13832.08115-.42823.03529-.65656-.02057-.10243-.03865-.19248-.03529-.25088.01193-.20739.23129-.0986.4037-.01311.0755.03744.14199.07042.17812.07042.32649 0-.07891-.41295-.30143-.63961-.0195-.01986-.0376-.0383-.05367-.0549-.11316-.11684-.03378-.10114.14563-.06566.13692.02707.33208.06566.54437.06566.49049 0 .84848-.15934.72412-.5908-.08205-.28466-.53127-.38151-1.0006-.48271-.24206-.05219-.48948-.10553-.69462-.18639-.50472-.19894-.47898-.48899-.45722-.73424.00423-.0477.00831-.09371.00831-.13702 0-.266.44891-.59133.44891-.59133s-.20487-.34328-.54461-.34328-.37148.34328-.37148.34328zm.9241 3.12392v-.25088s.20978-.00692.28335.16956-.28335.08132-.28335.08132z" fill="#272727"/><path d="m6.53845 3.35564.50678.60097.26245-.06173-.12586-.60667z" fill="#d74800"/><path d="m7.19639 3.21032.03267.90353.43274-.10648.18428-.59176z" fill="#ffd018"/><path d="m6.78849 4.71946c.09559 0 .17308-.07555.17308-.16875s-.07749-.16875-.17308-.16875c-.09558 0-.17307.07555-.17307.16875s.07749.16875.17307.16875z" fill="#d74800"/><path d="m7.88824 3.37957-.50384.60344.10637.24774.5756-.2293z" fill="#d74800"/><path d="m9.05935 7.94654s.88622-.39589.88622-.94954-1.43901-1.15673-1.43901-1.15673-.84646.19373-.46492.45298c.38153.25926.89269.35885.89269.70375s.14004.67377-.14386.67377c-.28391 0 .26888.27577.26888.27577z" fill="#d74800"/><path d="m7.78079 5.73907s-.31343.05506-.29855.10597c.04114.14074.46971.32405.6565.45097.38153.25925.74326.23013 1.01236.06141.26911-.16872-1.37031-.61835-1.37031-.61835z" fill="#fffdff"/></g></g></g></svg>