<svg fill="none" height="12" viewBox="0 0 16 12" width="16" xmlns="http://www.w3.org/2000/svg" xmlns:xlink="http://www.w3.org/1999/xlink"><clipPath id="a"><path d="m0 0h16v12h-16z"/></clipPath><g clip-path="url(#a)"><path d="m0 0h16v12h-16z" fill="#fff"/><path clip-rule="evenodd" d="m0 0h16v12h-16z" fill="#e31d1c" fill-rule="evenodd"/><path clip-rule="evenodd" d="m0 1v1h16v-1zm0 2v1h16v-1zm0 3v-1h16v1zm0 1v1h16v-1zm0 3v-1h16v1zm0 2v-1h16v1z" fill="#f7fcff" fill-rule="evenodd"/><path d="m0 0h9v7h-9z" fill="#2e42a5"/><path clip-rule="evenodd" d="m1.04005 2.17381.52992-.36913.41106.29593h-.23274l.47067.4163-.15897.5837h-.24899l-.24177-.5361-.20618.5361h-.614759l.470669.4163-.17891.6569.52992-.36913.41106.29593h-.23274l.47067.4163-.15897.5837h-.24899l-.24177-.5361-.20618.5361h-.614759l.470669.4163-.17891.6569.52992-.36913.51274.36913-.15942-.6569.41177-.4163h-.18992l.42483-.29593.41106.29593h-.23274l.47067.4163-.17891.6569.52992-.36913.51274.36913-.15942-.6569.41177-.4163h-.18992l.42483-.29593.41106.29593h-.23274l.47067.4163-.17891.6569.52992-.36913.51274.36913-.15942-.6569.41177-.4163h-.18992l.42483-.29593.41106.29593h-.23274l.47067.4163-.17891.6569.52992-.36913.51274.36913-.15942-.6569.41177-.4163h-.52406l-.24177-.5361-.20618.5361h-.29811l-.14165-.5837.41177-.4163h-.18992l.42483-.29593.51274.36913-.15942-.6569.41177-.4163h-.52406l-.24177-.5361-.20618.5361h-.29811l-.14165-.5837.41177-.4163h-.18992l.42483-.29593.51274.36913-.15942-.6569.41177-.4163h-.52406l-.24177-.536096-.20618.536096h-.61476l.47067.4163-.15897.5837h-.24899l-.24177-.5361-.20618.5361h-.29811l-.14165-.5837.41177-.4163h-.52406l-.24177-.536096-.20618.536096h-.61476l.47067.4163-.15897.5837h-.24899l-.24177-.5361-.20618.5361h-.29811l-.14165-.5837.41177-.4163h-.52406l-.24177-.536096-.20618.536096h-.61476l.47067.4163-.15897.5837h-.24899l-.24177-.5361-.20618.5361h-.29811l-.14165-.5837.41177-.4163h-.52406l-.24177-.536096-.20618.536096h-.614759l.470669.4163zm6.01994 1.9268.15897-.5837-.47067-.4163h.23274l-.41106-.29593-.42483.29593h.18992l-.41177.4163.14165.5837h.29811l.20618-.5361.24177.5361zm-1.07896 0-.41106-.29593-.42483.29593h.18992l-.41177.4163.14165.5837h.29811l.20618-.5361.24177.5361h.24899l.15897-.5837-.47067-.4163zm-1.76207.4163-.15897.5837h-.24899l-.24177-.5361-.20618.5361h-.29811l-.14165-.5837.41177-.4163h-.18992l.42483-.29593.41106.29593h-.23274zm.14409-.4163h-.29811l-.14165-.5837.41177-.4163h-.18992l.42483-.29593.41106.29593h-.23274l.47067.4163-.15897.5837h-.24899l-.24177-.5361zm-1.30306 0 .15897-.5837-.47067-.4163h.23274l-.41106-.29593-.42483.29593h.18992l-.41177.4163.14165.5837h.29811l.20618-.5361.24177.5361zm3.15897-1.5837-.15897.5837h-.24899l-.24177-.5361-.20618.5361h-.29811l-.14165-.5837.41177-.4163h-.18992l.42483-.29593.41106.29593h-.23274zm-2.23793-.4163-.41106-.29593-.42483.29593h.18992l-.41177.4163.14165.5837h.29811l.20618-.5361.24177.5361h.24899l.15897-.5837-.47067-.4163z" fill="#f7fcff" fill-rule="evenodd"/></g></svg>