<svg fill="none" height="12" viewBox="0 0 16 12" width="16" xmlns="http://www.w3.org/2000/svg" xmlns:xlink="http://www.w3.org/1999/xlink"><clipPath id="a"><path d="m0 0h16v12h-16z"/></clipPath><mask id="b" height="12" maskUnits="userSpaceOnUse" width="16" x="0" y="0"><path clip-rule="evenodd" d="m0 0v12h16v-12z" fill="#fff" fill-rule="evenodd"/></mask><g clip-path="url(#a)"><path d="m0 0h16v12h-16z" fill="#fff"/><path clip-rule="evenodd" d="m0 0v12h16v-12z" fill="#f7fcff" fill-rule="evenodd"/><g mask="url(#b)"><g fill="#2e42a5"><path d="m0 2h16v1h-16z"/><path d="m0 4h16v1h-16z"/><path d="m0 6h16v1h-16z"/><path d="m0 8h16v1h-16z"/><path d="m0 10h16v1h-16z"/></g><path d="m0 0h8v7h-8z" fill="#f7fcff"/><path d="m4.61377 5.5186s-.51094 1.05936-.96002 1.27655c.19384-.48588.26519-1.47725.26519-1.47725s-1.16596.46227-1.5752.37802c.49209-.34387 1.17514-.98078 1.17514-.98078s-1.50912-.49336-1.47209-.70334c.68123.1222 1.61809-.01101 1.61809-.01101s-1.0587-1.26962-.95133-1.36403c.16137.15685 1.43015.81962 1.43015.81962s.09205-1.12961.3651-1.51046c.03276.26884.41601 1.48602.41601 1.48602s.77044-.77088 1.19806-.77088c-.18783.23288-.63258 1.25585-.63258 1.25585s1.1084-.01744 1.52977.19001c-.51045.0726-1.40473.52156-1.40473.52156s1.16473.88351 1.05854 1.06744c-.62535-.30591-1.34832-.40836-1.34832-.40836s.19984 1.22953.0383 1.50759c-.15754-.4093-.75008-1.27655-.75008-1.27655z" style="fill-rule:evenodd;clip-rule:evenodd;fill:#ffd018;stroke:#f19900;stroke-opacity:.98;stroke-width:.25"/><path d="m4.54675 4.94592c.27615 0 .5-.22385.5-.5 0-.27614-.22385-.5-.5-.5-.27614 0-.5.22386-.5.5 0 .27615.22386.5.5.5z" style="fill-rule:evenodd;clip-rule:evenodd;fill:#ffd018;stroke:#f19900;stroke-opacity:.98;stroke-width:.25"/></g></g></svg>