<svg fill="none" height="12" viewBox="0 0 16 12" width="16" xmlns="http://www.w3.org/2000/svg" xmlns:xlink="http://www.w3.org/1999/xlink"><clipPath id="a"><path d="m0 0h16v12h-16z"/></clipPath><g clip-path="url(#a)"><path d="m0 0h16v12h-16z" fill="#fff"/><path clip-rule="evenodd" d="m0 0h16v12h-16z" fill="#f7fcff" fill-rule="evenodd"/><path clip-rule="evenodd" d="m0 0h7v12h-7z" fill="#ffdc17" fill-rule="evenodd"/><path d="m11.3909 6.37555-.1726.01124c.0412.59289.1686 1.05087.3847 1.37407.3486.52122.8087.92422 1.1165.92422.0699 0 .0862.02597.0631.09007-.0328.09115-.1365.1808-.2699.2152-.2219.05722-.7265.08684-1.5054.08684v.16744c.7945 0 1.3082-.03015 1.5499-.09248.1878-.04841.3367-.17716.3888-.32194.0602-.16743-.0307-.31257-.2265-.31257-.2286 0-.6528-.37155-.9713-.84777-.1979-.29599-.3179-.72747-.3573-1.29432z" fill="#af0100"/><path d="m10.5735 6.37555.1726.01124c-.0412.59289-.1686 1.05087-.3848 1.37407-.3486.52122-.80861.92422-1.11644.92422-.06992 0-.08618.02597-.06312.09007.03279.09115.13649.1808.2699.2152.22189.05722.72656.08684 1.50536.08684v.16744c-.7944 0-1.30819-.03015-1.54989-.09248-.18771-.04841-.33665-.17716-.38873-.32194-.06022-.16743.03067-.31257.22648-.31257.22863 0 .65276-.37155.97124-.84777.198-.29599.318-.72747.3574-1.29432z" fill="#af0100"/><g clip-rule="evenodd" fill-rule="evenodd"><path d="m14.0335 3.39905-4.57072 3.563c-.16004-.05214-.33476-.08067-.51676-.08067-.74156 0-1.36216.47367-1.36216 1.08837s.6206 1.08837 1.36216 1.08837c.08505 0 .16851-.00623.24962-.01819-.07503-.05859-.13107-.13184-.15909-.20971-.0337-.0937-.02008-.18042.03278-.23863-.04019.00399-.08135.00606-.12331.00606-.50033 0-.88648-.29473-.88648-.6279 0-.33318.38615-.62791.88648-.62791.50034 0 .88649.29473.88649.62791 0 .10193-.03614.20026-.10064.28766.01214-.01083.02432-.02194.03654-.03332.15841-.14749-.19755.46099-.50538.46099-.06992 0-.08618.02597-.06312.09007.03071.08538.12364.16944.24493.20802.50138-.15677.86336-.54397.86336-1.01342 0-.19203-.0606-.3703-.1665-.52467l2.4565-2.0848.1644.16987.1183-.10734.4104.3041-.1716.13226.3502.42569.7065-.54466.012-.00619-.0021-.00143.0438-.03376-.3502-.42569-.1693.13053-.4588-.31719.0537-.04878-.1476-.1525.222-.18839.1178.12172.1265-.11474.3978.31488-.1672.12889.3502.42568.6052-.46657.0694-.03795-.0101-.00773.0957-.07379-.3502-.42569-.1978.15249-.4357-.33427.0592-.05366-.101-.10435.4522-.38381z" fill="#f4b300"/><path d="m11.6919 7.96974c0-.27629.1254-.52409.3308-.71319l-2.62477-2.03267-.02992.02304.07651.0694-.20697.21383-.10897-.09884-.40177.30942.15363.11844-.35021.42569-.69897-.53885-.0195-.01201.00207-.00143-.04379-.03376.35021-.42569.16932.13054.4588-.3172-.05378-.04877.19832-.20491-.23109-.17896-.1594.1647-.12177-.11044-.39269.31816.15735.1213-.35021.42569-.58598-.45174-.08856-.05279.01007-.00772-.09573-.0738.35021-.42569.19781.15249.4357-.33426-.05917-.05366.11959-.12356-.47082-.3646.29716-.35957 4.54092 3.51655c.1838-.07289.3906-.11351.6078-.11351.7416 0 1.3622.47367 1.3622 1.08837s-.6206 1.08837-1.3622 1.08837c-.085 0-.1685-.00623-.2496-.01818.075-.0586.1311-.13184.1591-.20972.0337-.0937.02-.18042-.0328-.23863.0402.004.0813.00607.1233.00607.5003 0 .8865-.29473.8865-.62791 0-.33317-.3862-.62791-.8865-.62791s-.8865.29474-.8865.62791c0 .10193.0362.20026.1007.28766-.0122-.01083-.0244-.02194-.0366-.03332-.1584-.14749.1976.461.5054.461.0699 0 .0862.02596.0631.09007-.0307.08538-.1236.16944-.2449.20802-.5014-.15677-.8634-.54397-.8634-1.01343z" fill="#bfbfbf"/><path d="m10.8704 5.89764c-.0358 0-.0649.02904-.0649.06487v.27002h-.2399c-.0347 0-.0628.02811-.0628.06279s.0281.06279.0628.06279h.2399v3.57699c0 .03583.0291.06487.0649.06487h.1297c.0358 0 .0649-.02904.0649-.06487v-3.57699h.3696c.0347 0 .0628-.02811.0628-.06279s-.0281-.06279-.0628-.06279h-.3696v-.27002c0-.03582-.0291-.06487-.0649-.06487z" fill="#af0100"/><path d="m10.9352 10.0083c.1433 0 .2595-.05808.2595-.12973s-.1162-.12973-.2595-.12973-.2594.05808-.2594.12973.1161.12973.2594.12973z" fill="#af0100"/><path d="m10 2.9c0-.49706.4029-.9.9-.9s.9.40294.9.9v1.62174h-1.8z" fill="#f4b300"/><path d="m10.892 4.60971c.5015 0 .9081-.06776.9081-.15135s-.4066-.15135-.9081-.15135-.90811.06776-.90811.15135.40661.15135.90811.15135z" fill="#af0100"/></g></g></svg>