<svg fill="none" height="12" viewBox="0 0 16 12" width="16" xmlns="http://www.w3.org/2000/svg" xmlns:xlink="http://www.w3.org/1999/xlink"><clipPath id="a"><path d="m0 0h16v12h-16z"/></clipPath><mask id="b" height="12" maskUnits="userSpaceOnUse" width="16" x="0" y="0"><path clip-rule="evenodd" d="m0 0v12h16v-12z" fill="#fff" fill-rule="evenodd"/></mask><mask id="c" height="5" maskUnits="userSpaceOnUse" width="4" x="6" y="4"><path clip-rule="evenodd" d="m6.17176 4.00641s.4653.32128.93059.32128c.4653 0 .93059-.32128.93059-.32128s.46529.32128.93059.32128c.46529 0 .93059-.32128.93059-.32128v1.45044c0 1.49971-1.86118 2.66201-1.86118 2.66201s-1.95129-1.06721-1.86118-2.67982z" fill="#fff" fill-rule="evenodd"/></mask><g clip-path="url(#a)"><path d="m0 0h16v12h-16z" fill="#fff"/><path clip-rule="evenodd" d="m0 0v12h16v-12z" fill="#f7fcff" fill-rule="evenodd"/><g mask="url(#b)"><path clip-rule="evenodd" d="m8.5736 2.9635c0 .09225.42119 1.38903.42119 1.38903h-2.044l.57455-1.12112s.08392-.21392-.12153-.26791c-.20546-.054-.45302.17883-.45302.17883s.0604-.37249.14111-.45318c.08071-.08068.55245-.28754.94565-.28754s.53605.46963.53605.56189zm-7.18501-.52874c.15682-.06729 1.75047.40761 2.94425.76335h.00002l.00001.00001c.68648.20456 1.24073.36972 1.31349.36972.19929 0 1.01945.84328 1.01945.84328v1.88587s-2.5886-.53731-5.03022-3.18549c-.35809-.3546-.494-.57075-.247-.67674zm5.03328 3.98119s-.2715.18707-.57187.68801c-.14777.24642-.15966.46351-.16826.62049-.00889.16212-.01425.26013-.16216.26013-.17265 0-.29791.03734-.39986.06774-.06996.02086-.12894.03844-.18472.03844-.13707 0-.40025.51742-.26866.63716.13159.11975.68295.3106.68295 0 0-.31059.1483-.48704.41777-.48704.26946 0 .75112-.17842.75112-.5699s.52516-.36352.52516-.36352zm5.35873-3.21784c1.1938-.35574 2.7875-.83064 2.9443-.76335.247.10599.1111.32214-.247.67674-.9588 1.71571-5.03025 3.18549-5.03025 3.18549v-1.88587s.82015-.84328 1.01945-.84328c.0728 0 .627-.16514 1.3134-.3697zm-2.08901 3.21784s.2715.18707.57191.68801c.1477.24642.1596.46351.1682.62049.0089.16212.0143.26013.1622.26013.1726 0 .2979.03734.3998.06774.07.02086.129.03844.1848.03844.137 0 .4002.51742.2686.63716-.1316.11975-.6829.3106-.6829 0 0-.31059-.1483-.48704-.4178-.48704s-.75112-.17842-.75112-.5699-.52516-.36352-.52516-.36352zm-3.4374 2.08553c0-.17098.82103-1.08282.82103-1.08282l.91733-.38712s.00472.08736.01174.23243c.00703-.14507.01174-.23243.01174-.23243l.91733.38712s.82103.91184.82103 1.08282c0 .17097-1.57469 1.56422-1.73836 1.56422-.00412 0-.00803-.0019-.01174-.0056-.00371.0037-.00762.0056-.01174.0056-.16367 0-1.73836-1.39325-1.73836-1.56422z" fill="#e8aa00" fill-rule="evenodd"/><path d="m3.12323 5.49618.94882-.31582c.64128 1.92657 1.25947 3.1719 1.81508 3.71008l-.69575.71829c-.70318-.68113-1.37939-2.04333-2.06815-4.11255z" fill="#46a000"/><g clip-rule="evenodd" fill-rule="evenodd"><path d="m14.3458 5.16931h-1.0686s.2265 0 .2514.21886c0 0 .0052 1.84696 0 1.99207-.0052.14512-.2514.19449-.2514.19449s1.2964.00395 1.0686 0c-.2277-.00396-.278-.19449-.278-.19449v-1.99207c0-.16864.278-.21886.278-.21886zm-12.06313 2.25734c-.12096-.3123-.86781-2.22455-.86781-2.22455h.73936c-.12844 0-.17613.16349-.17613.16349l.51789 1.47663s.5008-1.20558.5008-1.41936c0-.21379-.21023-.22076-.21023-.22076h.96393l-.23287.07777s-.77129 1.76824-.77129 2.14678c-.03676.08391.3551.13972.3551.13972h-1.03509zm8.85063-.69831.5728-1.05545.0169 1.17432-.1775-.05758-.1258.78416.6335-1.21481-.2109-.07925.7841-.84882-.267 1.14725-.152-.13381-.8983 1.67613 1.0027-1.14884-.1933-.09653.9902-.64828-.4311 1.05643-.2405-.17312-1.0174 1.28086-.422-.16228.422-1.50038zm-.3308 2.00166h-.3167v.24094h-.2494l-.70621.81923h.38979l.13542.46123.181-.1627v.1627l.354-.1627.3385.293.2525-1.1265-.17-.12479.0873-.07635-.0873-.32406z" fill="#0093e1"/><path d="m6.17176 4.00641s.4653.32128.93059.32128c.4653 0 .93059-.32128.93059-.32128s.46529.32128.93059.32128c.46529 0 .93059-.32128.93059-.32128v1.45044c0 1.49971-1.86118 2.66201-1.86118 2.66201s-1.95129-1.06721-1.86118-2.67982z" fill="#f7fcff"/><g mask="url(#c)"><path d="m6.03998 3.91003h3.92v1.51004h-3.92z" fill="#2e42a5"/><path d="m6.79767 5.42004h-.32941v3.05221h.32941zm.56 0h-.32941v3.05221h.32941zm.23059 0h.32941v3.05221h-.32941zm.88941 0h-.32941v3.05221h.32941zm.23059 0h.32941v3.05221h-.32941zm.88941 0h-.32941v3.05221h.32941z" fill="#af0100"/></g></g></g></g></svg>