<svg fill="none" height="12" viewBox="0 0 16 12" width="16" xmlns="http://www.w3.org/2000/svg" xmlns:xlink="http://www.w3.org/1999/xlink"><clipPath id="a"><path d="m0 0h16v12h-16z"/></clipPath><mask id="b" height="12" maskUnits="userSpaceOnUse" width="16" x="0" y="0"><path clip-rule="evenodd" d="m0 0v12h16v-12z" fill="#fff" fill-rule="evenodd"/></mask><g clip-path="url(#a)"><path d="m0 0h16v12h-16z" fill="#fff"/><g clip-rule="evenodd" fill-rule="evenodd"><path d="m0 0v12h16v-12z" fill="#c51918"/><g mask="url(#b)"><path d="m0 0v7h8v-7z" fill="#2e42a5"/><g fill="#feffff"><path d="m1.78288 3.88601-.53002.31997.12089-.6244-.441377-.4673.597657-.02526.25285-.58304.25286.58304h.59663l-.44036.49256.13258.6244z"/><path d="m5.78288 3.88601-.53002.31997.12089-.6244-.44138-.4673.59766-.02526.25285-.58304.25286.58304h.59663l-.44036.49256.13258.6244z"/><path d="m3.73285 2.06899-.49884.30115.11378-.58767-.41542-.43981.5625-.02378.23798-.548738.23798.548738h.56154l-.41446.46359.12478.58767z"/><path d="m4.27313 4.2126-.31178.18822.07111-.3673-.25963-.27488.35156-.01486.14874-.34296.14873.34296h.35097l-.25904.28974.07799.3673z"/><path d="m3.70438 6.41415-.74827.45173.17068-.8815-.62313-.65972.84375-.03567.35697-.82311.35697.82311h.84231l-.62169.69539.18717.8815z"/></g></g></g></g></svg>