<svg width="24" height="24" viewBox="0 0 24 24" fill="none" xmlns="http://www.w3.org/2000/svg">
<g clip-path="url(#clip0_531_4834)">
<circle cx="12" cy="12" r="2" stroke="#B8BDCB" stroke-width="1.5" stroke-linejoin="round"/>
<path d="M5.39832 5.87909C4.46858 6.88119 3.79346 8.0704 3.40037 9.34448L4.99967 10.2678C6.33301 11.0376 6.33301 12.9621 4.99967 13.7319L3.39866 14.6563C3.59387 15.2863 3.86183 15.9046 4.20553 16.4999C4.54922 17.0952 4.95064 17.6363 5.39865 18.1204L6.9997 17.196C8.33303 16.4262 9.9997 17.3885 9.9997 18.9281L9.9997 20.7749C11.2996 21.0715 12.6671 21.0814 13.9998 20.7773L13.9998 18.9282C13.9998 17.3886 15.6665 16.4263 16.9998 17.1961L18.6012 18.1207C19.5309 17.1186 20.206 15.9294 20.5991 14.6553L18.9998 13.7319C17.6664 12.9621 17.6664 11.0376 18.9998 10.2678L20.6008 9.34342C20.4056 8.7134 20.1377 8.09517 19.794 7.49989C19.4503 6.90458 19.0488 6.3634 18.6008 5.87932L16.9998 6.80368C15.6665 7.57348 13.9998 6.61123 13.9998 5.07162L13.9998 3.22489C12.6999 2.92828 11.3324 2.91835 9.9997 3.22248L9.9997 5.0716C9.9997 6.6112 8.33303 7.57345 6.9997 6.80365L5.39832 5.87909Z" stroke="#B8BDCB" stroke-width="1.5" stroke-linejoin="round"/>
</g>
<defs>
<clipPath id="clip0_531_4834">
<rect width="24" height="24" fill="white"/>
</clipPath>
</defs>
</svg>
