<svg width="142" height="28" viewBox="0 0 142 28" fill="none" xmlns="http://www.w3.org/2000/svg">
<g clip-path="url(#clip0_531_6541)">
<mask id="mask0_531_6541" style="mask-type:luminance" maskUnits="userSpaceOnUse" x="0" y="0" width="142" height="28">
<path d="M142 0H0V28H142V0Z" fill="white"/>
</mask>
<g mask="url(#mask0_531_6541)">
<path d="M1.42493 23.1215C1.42493 23.1215 5.23037 26.2229 10.9673 25.4329C16.7043 24.6432 22.7024 18.071 22.7024 18.071H17.2879L19.0928 12.4119H33.1473L29.7296 27.0126H23.5395L24.5073 23.0599C24.5073 23.0599 18.8316 28.2916 11.8045 27.9872C4.77726 27.6828 1.42493 23.1215 1.42493 23.1215Z" fill="#F1B500"/>
<path d="M9.42372 24.5236C13.0985 24.5236 14.7114 22.8823 14.7114 22.8823C14.7114 22.8823 8.5866 21.4838 11.0365 13.4515C13.4864 5.41933 19.1619 5.60412 21.2241 6.94101C23.2861 8.27791 22.1917 11.0894 22.1917 11.0894L33.0897 11.151C33.0897 11.151 33.6695 4.44837 28.6391 1.65138C23.6087 -1.1456 13.5479 -0.113035 9.10115 2.68395C4.65058 5.48456 0.265298 9.74157 0.00801754 16.495C-0.249263 23.2483 5.745 24.5236 9.41988 24.5236H9.42372Z" fill="#C18E0C"/>
<path d="M56.9246 23.3461H52.977C52.9195 22.9223 52.954 22.1215 53.0232 21.6324C51.7713 23.0889 50.0664 23.6939 47.5512 23.6939C42.7472 23.6939 40.4087 20.426 40.4087 16.0928C40.4087 10.4373 43.9914 4.30347 51.7098 4.30347C57.0014 4.30347 59.6624 7.02437 59.7048 10.4227H54.2136C54.1751 9.38292 53.5531 8.02432 51.2759 8.02432C47.5896 8.02432 46.1495 12.9407 46.1495 15.9987C46.1495 18.3391 47.0289 19.8934 49.2216 19.8934C51.7829 19.8934 52.6046 18.3173 52.9847 16.5819L53.0117 16.4804H49.3713L50.2776 12.6799H59.171L56.9285 23.3425L56.9246 23.3461Z" fill="white"/>
<path d="M69.4315 13.5639C69.8386 11.7777 70.1266 10.3539 70.357 9.1184H75.5217C75.4949 9.49885 75.3682 10.4879 75.1377 11.5133C76.1054 9.92268 77.4033 8.81768 80.149 8.83943L79.0623 13.5422C75.9327 13.4081 74.5195 14.6363 73.859 17.571L72.5687 23.3497H67.2312L69.4355 13.5676L69.4315 13.5639Z" fill="white"/>
<path d="M95.171 15.0096C95.171 18.734 92.9054 23.6541 86.1278 23.6541C81.2548 23.6541 79.4155 20.9077 79.4155 17.6398C79.4155 13.6581 82.0957 8.80688 88.2858 8.80688C92.5868 8.80688 95.171 11.0604 95.171 15.0096ZM84.8683 18.0674C84.8683 19.5202 85.4404 20.2738 86.5579 20.2738C88.8197 20.2738 89.7375 16.0711 89.7375 14.2414C89.7375 12.8828 89.1805 12.2161 88.0285 12.2161C85.8321 12.2161 84.8683 16.2268 84.8683 18.0674Z" fill="white"/>
<path d="M99.8404 4.65109H108.346C112.724 4.65109 114.587 6.71622 114.587 9.28857C114.587 11.4587 113.253 13.1 111.111 13.792C112.567 14.3645 113.638 15.8208 113.638 17.5056C113.638 21.0418 110.692 23.3423 105.546 23.3423H95.6395L97.74 13.9949L99.8404 4.64746V4.65109ZM101.784 19.8099H104.748C106.706 19.8099 107.862 18.9621 107.862 17.4548C107.862 16.2231 107.129 15.5057 105.202 15.5057H102.736L101.784 19.8099ZM106.23 11.9696C107.92 11.9696 109.087 11.3355 109.087 9.89726C109.087 8.62918 108.085 8.19804 106.956 8.19804H104.387L103.546 11.9696H106.23Z" fill="#F1B500"/>
<path d="M120.458 17.2775C120.4 17.5203 120.361 17.7376 120.35 17.9912C120.3 19.2376 120.719 20.2737 122.081 20.2737C123.257 20.2737 123.848 19.6361 124.228 18.8028H129.6C128.713 21.2845 126.363 23.654 121.698 23.654C117.032 23.654 115.032 20.9694 115.032 17.6652C115.032 14.0276 117.22 8.80322 123.699 8.80322C128.468 8.80322 130.396 11.2596 130.396 14.5421C130.396 15.5928 130.212 16.5021 129.98 17.2739H120.453L120.458 17.2775ZM125.273 14.5023C125.341 14.2196 125.35 13.9987 125.35 13.8175C125.35 12.8755 124.95 12.0712 123.664 12.0712C122.3 12.0712 121.483 12.9624 121.065 14.5023H125.273Z" fill="#F1B500"/>
<path d="M132.093 9.11842H134.182L135.054 5.43018H140.283L139.458 9.11842H142L141.209 12.5385H138.667L137.273 18.7448C137.082 19.5889 137.208 20.0528 138.328 20.0528C138.71 20.0528 139.075 20.0346 139.466 19.9912L138.752 23.241C137.76 23.5236 136.439 23.5417 135.526 23.5417C131.863 23.5417 131.309 21.723 131.905 19.0346L133.361 12.5385H131.302L132.093 9.11842Z" fill="#F1B500"/>
<path d="M59.3745 23.3464H64.716L67.9108 9.11865H62.5693L59.3745 23.3464Z" fill="white"/>
<path d="M62.9612 7.36119H68.2988L68.9017 4.67651H63.5603L62.9612 7.36119Z" fill="white"/>
</g>
</g>
<defs>
<clipPath id="clip0_531_6541">
<rect width="142" height="28" fill="white"/>
</clipPath>
</defs>
</svg>
