<svg width="25" height="24" viewBox="0 0 25 24" fill="none" xmlns="http://www.w3.org/2000/svg">
<path d="M22.5 11.35C22.5 12.62 22.08 13.69 21.33 14.43C20.59 15.18 19.52 15.6 18.25 15.6V17.41C18.25 18.09 17.49 18.5 16.93 18.12L15.96 17.48C16.05 17.17 16.09 16.83 16.09 16.47V12.4C16.09 10.36 14.73 9 12.69 9H5.89999C5.75999 9 5.63 9.01002 5.5 9.02002V6.25C5.5 3.7 7.2 2 9.75 2H18.25C20.8 2 22.5 3.7 22.5 6.25V11.35Z" fill="white"/>
<path d="M16.09 16.47C16.09 16.83 16.05 17.17 15.96 17.48C15.59 18.95 14.37 19.87 12.69 19.87H9.97L6.95 21.88C6.5 22.19 5.89999 21.86 5.89999 21.32V19.87C4.87999 19.87 4.03 19.53 3.44 18.94C2.84 18.34 2.5 17.49 2.5 16.47V12.4C2.5 10.5 3.68 9.19002 5.5 9.02002C5.63 9.01002 5.75999 9 5.89999 9H12.69C14.73 9 16.09 10.36 16.09 12.4V16.47Z" fill="#8F8F8F"/>
</svg>
