<svg width="18" height="18" viewBox="0 0 18 18" fill="none" xmlns="http://www.w3.org/2000/svg">
<g clip-path="url(#clip0_531_3360)">
<path fill-rule="evenodd" clip-rule="evenodd" d="M9 0.75C8.17157 0.75 7.5 1.42157 7.5 2.25C7.5 2.3223 7.50512 2.3934 7.515 2.46297C5.33868 3.10356 3.75 5.11625 3.75 7.5V13.5H3C2.58579 13.5 2.25 13.8358 2.25 14.25C2.25 14.6642 2.58579 15 3 15H4.5H13.5H15C15.4142 15 15.75 14.6642 15.75 14.25C15.75 13.8358 15.4142 13.5 15 13.5H14.25V7.5C14.25 5.11625 12.6613 3.10356 10.485 2.46297C10.4949 2.3934 10.5 2.3223 10.5 2.25C10.5 1.42157 9.82843 0.75 9 0.75ZM10.5 16.5C10.5 16.9142 10.1642 17.25 9.75 17.25H8.25C7.83579 17.25 7.5 16.9142 7.5 16.5C7.5 16.0858 7.83579 15.75 8.25 15.75H9.75C10.1642 15.75 10.5 16.0858 10.5 16.5Z" fill="white"/>
</g>
<defs>
<clipPath id="clip0_531_3360">
<rect width="18" height="18" fill="white"/>
</clipPath>
</defs>
</svg>
