<svg width="178" height="63" viewBox="0 0 178 63" fill="none" xmlns="http://www.w3.org/2000/svg">
<g clip-path="url(#clip0_531_6279)">
<path d="M178 0V57.6C178 60.1 176 62.2 173.4 62.2H4.6C2 62.2 0 60.1 0 57.6V14.8C0 12.3 2 10.3 4.6 10.3H167.6L177.1 0H178Z" fill="#FF4040"/>
<path d="M34.3001 30.3998C34.3001 35.6998 30.3001 39.5998 24.9001 39.5998H21.1001V46.5998H14.1001V21.2998H24.9001C30.3001 21.2998 34.3001 25.0998 34.3001 30.3998ZM27.1001 30.3998C27.1001 28.5998 25.9001 27.3998 24.1001 27.3998H21.1001V33.4998H24.1001C25.9001 33.4998 27.1001 32.1998 27.1001 30.3998Z" fill="white"/>
<path d="M37.1001 20H43.9001V46.6H37.1001V20Z" fill="white"/>
<path d="M68.9 26.9999V46.5999H63.7L63.1 45.1999C61.5 46.4999 59.5 47.1999 57.2 47.1999C51.3 47.1999 47 42.8999 47 36.7999C47 30.6999 51.3 26.3999 57.2 26.3999C59.5 26.3999 61.6 27.1999 63.2 28.4999L63.9 26.9999H68.9ZM62.5 36.7999C62.5 34.2999 60.7 32.3999 58.2 32.3999C55.6 32.3999 53.8 34.2999 53.8 36.7999C53.8 39.3999 55.7 41.2999 58.2 41.2999C60.7 41.2999 62.5 39.3999 62.5 36.7999Z" fill="white"/>
<path d="M86.3 40.6998V46.5998H81.7C77.4 46.5998 74.8 43.9998 74.8 39.5998V32.1998H71.2V30.6998L80 21.2998H81.3V27.0998H86.2V32.1998H81.5V38.4998C81.5 39.8998 82.3 40.6998 83.8 40.6998H86.3Z" fill="white"/>
<path d="M89.5 27.0999H96.2V46.5999H89.5V27.0999ZM89.5 18.8999H96.2V24.5999H89.5V18.8999Z" fill="white"/>
<path d="M122.1 36.7999C122.1 42.8999 117.9 47.2999 111.9 47.2999C110.1 47.2999 108.5 46.7999 107.1 45.9999V53.6999H100.4V27.0999H105L105.9 28.5999C107.5 27.1999 109.5 26.3999 111.9 26.3999C117.9 26.3999 122.1 30.6999 122.1 36.7999ZM115.4 36.7999C115.4 34.2999 113.5 32.3999 111 32.3999C108.5 32.3999 106.6 34.2999 106.6 36.7999C106.6 39.3999 108.5 41.2999 111 41.2999C113.5 41.2999 115.4 39.3999 115.4 36.7999Z" fill="white"/>
<path d="M125 38.2001V27.1001H131.7V37.9001C131.7 40.0001 132.8 41.2001 134.6 41.2001C136.4 41.2001 137.5 40.0001 137.5 37.9001V27.1001H144.3V38.2001C144.3 43.7001 140.4 47.3001 134.6 47.3001C128.8 47.2001 125 43.7001 125 38.2001Z" fill="white"/>
<path d="M155.8 47.1999C150.4 47.1999 147.2 44.3999 147.1 40.1999H153.6C153.6 41.5999 154.6 42.2999 155.9 42.2999C156.9 42.2999 157.8 41.7999 157.8 40.7999C157.8 39.5999 156.3 39.2999 154.4 38.9999C151.4 38.4999 147.4 37.5999 147.4 32.8999C147.4 28.8999 150.7 26.3999 155.8 26.3999C160.7 26.3999 164 29.0999 164 32.9999H157.7C157.7 31.7999 156.9 31.1999 155.6 31.1999C154.6 31.1999 153.8 31.6999 153.8 32.5999C153.8 33.6999 155.3 33.9999 157.2 34.2999C160.3 34.8999 164.4 35.4999 164.4 40.4999C164.4 44.5999 160.9 47.1999 155.8 47.1999Z" fill="white"/>
</g>
<defs>
<clipPath id="clip0_531_6279">
<rect width="178" height="63" fill="white"/>
</clipPath>
</defs>
</svg>
