<svg width="343" height="70" viewBox="0 0 343 70" fill="none" xmlns="http://www.w3.org/2000/svg">
<path d="M4.29297 57.3129C4.29297 57.3129 13.4381 65.0005 27.225 63.0424C41.0118 61.0848 55.4264 44.7936 55.4264 44.7936H42.4144L46.7518 30.7656H80.5271L72.314 66.9581H57.4381L59.7638 57.1602C59.7638 57.1602 46.1242 70.1285 29.2368 69.374C12.3492 68.6195 4.29297 57.3129 4.29297 57.3129Z" fill="#FBB500"/>
<path d="M23.5218 60.7893C32.353 60.7893 36.2291 56.721 36.2291 56.721C36.2291 56.721 21.51 53.2544 27.3977 33.3439C33.2851 13.4335 46.9244 13.8916 51.88 17.2055C56.8354 20.5194 54.2054 27.4886 54.2054 27.4886L80.3952 27.6412C80.3952 27.6412 81.7886 11.0267 69.6996 4.09347C57.6107 -2.83973 33.4329 -0.280193 22.7466 6.65302C12.0511 13.5952 1.51256 24.1475 0.894268 40.8881C0.275979 57.6282 14.6812 60.7893 23.5126 60.7893H23.5218Z" fill="#FBB500"/>
<path d="M137.671 57.8712H128.184C128.046 56.8205 128.129 54.8355 128.295 53.6232C125.287 57.2335 121.19 58.7333 115.145 58.7333C103.6 58.7333 97.9805 50.6326 97.9805 39.8916C97.9805 25.8726 106.59 10.668 125.139 10.668C137.856 10.668 144.25 17.4126 144.352 25.8365H131.156C131.063 23.259 129.569 19.8913 124.096 19.8913C115.237 19.8913 111.777 32.0782 111.777 39.6583C111.777 45.4598 113.89 49.3124 119.159 49.3124C125.315 49.3124 127.289 45.4057 128.203 41.1039L128.268 40.8523H119.519L121.697 31.4315H143.069L137.68 57.8622L137.671 57.8712Z" fill="white"/>
<path d="M167.729 33.6229C168.707 29.1953 169.399 25.666 169.953 22.6034H182.365C182.3 23.5465 181.996 25.9982 181.442 28.5399C183.768 24.5971 186.887 21.858 193.485 21.9119L190.874 33.5691C183.353 33.2368 179.957 36.2812 178.369 43.5559L175.268 57.8803H162.441L167.739 33.6321L167.729 33.6229Z" fill="white"/>
<path d="M229.582 37.2053C229.582 46.4376 224.137 58.6335 207.849 58.6335C196.139 58.6335 191.719 51.8259 191.719 43.7252C191.719 33.8553 198.16 21.8301 213.036 21.8301C223.371 21.8301 229.582 27.4161 229.582 37.2053ZM204.823 44.7851C204.823 48.3865 206.198 50.2544 208.883 50.2544C214.318 50.2544 216.524 39.8367 216.524 35.3013C216.524 31.9336 215.186 30.2808 212.417 30.2808C207.139 30.2808 204.823 40.2228 204.823 44.7851Z" fill="white"/>
<path d="M240.81 11.5295H261.252C271.772 11.5295 276.248 16.6486 276.248 23.0249C276.248 28.4044 273.043 32.4729 267.895 34.1881C271.394 35.6071 273.968 39.2172 273.968 43.3934C273.968 52.1589 266.889 57.8616 254.523 57.8616H230.715L235.763 34.691L240.81 11.5205V11.5295ZM245.48 49.1053H252.604C257.31 49.1053 260.088 47.0037 260.088 43.2676C260.088 40.2143 258.325 38.4361 253.694 38.4361H247.77L245.48 49.1053ZM256.165 29.6708C260.227 29.6708 263.031 28.099 263.031 24.5338C263.031 21.3904 260.624 20.3217 257.911 20.3217H251.738L249.716 29.6708H256.165Z" fill="#FBB500"/>
<path d="M290.361 42.8274C290.222 43.4292 290.126 43.968 290.1 44.5967C289.982 47.6862 290.988 50.2545 294.262 50.2545C297.087 50.2545 298.507 48.674 299.421 46.6083H312.331C310.199 52.7601 304.551 58.6336 293.339 58.6336C282.127 58.6336 277.32 51.979 277.32 43.7884C277.32 34.7716 282.579 21.8213 298.149 21.8213C309.61 21.8213 314.242 27.9102 314.242 36.0469C314.242 38.6514 313.8 40.9054 313.245 42.8184H290.349L290.361 42.8274ZM301.931 35.9483C302.096 35.2476 302.116 34.6999 302.116 34.2507C302.116 31.9158 301.156 29.9221 298.065 29.9221C294.788 29.9221 292.825 32.1312 291.818 35.9483H301.931Z" fill="#FBB500"/>
<path d="M318.322 22.6024H323.342L325.439 13.46H338.004L336.024 22.6024H342.131L340.231 31.0802H334.121L330.772 46.4645C330.312 48.5568 330.616 49.7067 333.308 49.7067C334.225 49.7067 335.101 49.6616 336.041 49.554L334.326 57.6098C331.943 58.3102 328.768 58.355 326.573 58.355C317.77 58.355 316.439 53.8468 317.871 47.1829L321.37 31.0802H316.422L318.322 22.6024Z" fill="#FBB500"/>
<path d="M143.559 57.8714H156.395L164.073 22.6035H151.236L143.559 57.8714Z" fill="white"/>
<path d="M152.188 18.2486H165.015L166.464 11.5938H153.627L152.188 18.2486Z" fill="white"/>
</svg>
