<svg width="156" height="32" viewBox="0 0 156 32" fill="none" xmlns="http://www.w3.org/2000/svg">
<path d="M1.5625 26.2003C1.5625 26.2003 5.74313 29.7147 12.0457 28.8195C18.3483 27.9247 24.9378 20.4772 24.9378 20.4772H18.9894L20.9722 14.0645H36.4124L32.6578 30.6096H25.8574L26.9206 26.1305C26.9206 26.1305 20.6853 32.0589 12.9654 31.714C5.24534 31.3691 1.5625 26.2003 1.5625 26.2003Z" fill="white"/>
<path d="M10.3528 27.7894C14.3899 27.7894 16.1619 25.9296 16.1619 25.9296C16.1619 25.9296 9.43316 24.3449 12.1247 15.2429C14.816 6.14103 21.0511 6.35043 23.3166 7.86536C25.5819 9.38029 24.3796 12.5662 24.3796 12.5662L36.3521 12.636C36.3521 12.636 36.9891 5.04077 31.4627 1.8713C25.9363 -1.29816 14.8836 -0.128088 9.99845 3.04138C5.10909 6.21495 0.291454 11.0389 0.00880801 18.6917C-0.273838 26.3443 6.3114 27.7894 10.3486 27.7894H10.3528Z" fill="white"/>
<path d="M62.5349 26.4556H58.1981C58.1349 25.9753 58.1728 25.0678 58.2488 24.5136C56.8735 26.1641 55.0005 26.8497 52.2373 26.8497C46.9597 26.8497 44.3906 23.1465 44.3906 18.2363C44.3906 11.8277 48.3266 4.87695 56.806 4.87695C62.6192 4.87695 65.5426 7.9602 65.5892 11.8112H59.5566C59.5143 10.6329 58.8309 9.09332 56.3293 9.09332C52.2795 9.09332 50.6974 14.6645 50.6974 18.1297C50.6974 20.7818 51.6635 22.543 54.0724 22.543C56.8862 22.543 57.7889 20.7571 58.2065 18.7905L58.2361 18.6755H54.2369L55.2325 14.3689H65.0027L62.5391 26.4515L62.5349 26.4556Z" fill="white"/>
<path d="M76.2766 15.3705C76.7238 13.3465 77.0402 11.7331 77.2934 10.3331H82.9673C82.9378 10.7642 82.7986 11.885 82.5454 13.0469C83.6085 11.2445 85.0344 9.99232 88.0507 10.017L86.857 15.346C83.4187 15.1941 81.8663 16.5858 81.1406 19.9113L79.7231 26.4596H73.8594L76.2809 15.3748L76.2766 15.3705Z" fill="white"/>
<path d="M104.551 17.0082C104.551 21.2286 102.062 26.8039 94.6162 26.8039C89.2628 26.8039 87.2422 23.6919 87.2422 19.9887C87.2422 15.4767 90.1866 9.97949 96.987 9.97949C101.712 9.97949 104.551 12.5331 104.551 17.0082ZM93.2326 20.4732C93.2326 22.1196 93.8611 22.9735 95.0887 22.9735C97.5735 22.9735 98.5818 18.2111 98.5818 16.1378C98.5818 14.5982 97.97 13.8427 96.7044 13.8427C94.2914 13.8427 93.2326 18.3876 93.2326 20.4732Z" fill="white"/>
<path d="M109.685 5.27071H119.03C123.839 5.27071 125.885 7.61086 125.885 10.5258C125.885 12.9849 124.421 14.8448 122.067 15.6289C123.666 16.2776 124.843 17.9279 124.843 19.8371C124.843 23.8442 121.607 26.4511 115.954 26.4511H105.07L107.378 15.8588L109.685 5.2666V5.27071ZM111.82 22.4482H115.077C117.228 22.4482 118.498 21.4875 118.498 19.7796C118.498 18.3838 117.692 17.5708 115.575 17.5708H112.867L111.82 22.4482ZM116.705 13.5639C118.562 13.5639 119.844 12.8453 119.844 11.2155C119.844 9.77857 118.743 9.29001 117.503 9.29001H114.681L113.757 13.5639H116.705Z" fill="white"/>
<path d="M132.336 19.5784C132.273 19.8535 132.229 20.0998 132.217 20.3872C132.163 21.7995 132.623 22.9736 134.12 22.9736C135.411 22.9736 136.06 22.2511 136.478 21.3068H142.38C141.405 24.119 138.824 26.8041 133.698 26.8041C128.572 26.8041 126.375 23.762 126.375 20.0177C126.375 15.8957 128.779 9.97559 135.897 9.97559C141.136 9.97559 143.254 12.7591 143.254 16.4787C143.254 17.6694 143.051 18.6998 142.798 19.5743H132.331L132.336 19.5784ZM137.626 16.4337C137.701 16.1133 137.71 15.8629 137.71 15.6576C137.71 14.5902 137.271 13.6788 135.858 13.6788C134.36 13.6788 133.463 14.6887 133.003 16.4337H137.626Z" fill="white"/>
<path d="M145.119 10.3327H147.414L148.372 6.15332H154.116L153.211 10.3327H156.003L155.134 14.2083H152.341L150.81 21.2411C150.6 22.1976 150.739 22.7232 151.969 22.7232C152.388 22.7232 152.789 22.7026 153.219 22.6534L152.435 26.3361C151.345 26.6563 149.894 26.6768 148.89 26.6768C144.866 26.6768 144.258 24.6159 144.912 21.5695L146.512 14.2083H144.25L145.119 10.3327Z" fill="white"/>
<path d="M65.2266 26.4555H71.0947L74.6044 10.333H68.7363L65.2266 26.4555Z" fill="white"/>
<path d="M69.1719 8.342H75.0358L75.6981 5.2998H69.8301L69.1719 8.342Z" fill="white"/>
</svg>
