<svg width="29" height="26" viewBox="0 0 29 26" fill="none" xmlns="http://www.w3.org/2000/svg">
<path d="M1.24451 21.1081C1.24451 21.1081 4.56757 23.9016 9.57731 23.1901C14.587 22.4788 19.8249 16.559 19.8249 16.559H15.0967L16.6728 11.4617H28.9457L25.9613 24.6129H20.5558L21.4009 21.0526C21.4009 21.0526 16.4447 25.765 10.3083 25.4908C4.17189 25.2166 1.24451 21.1081 1.24451 21.1081Z" fill="#FBB500"/>
<path d="M8.22917 22.3711C11.4382 22.3711 12.8466 20.8928 12.8466 20.8928C12.8466 20.8928 7.49815 19.6331 9.63754 12.3983C11.7768 5.16344 16.733 5.32988 18.5337 6.53406C20.3343 7.73823 19.3787 10.2706 19.3787 10.2706L28.8953 10.3261C28.8953 10.3261 29.4016 4.28887 25.0088 1.76955C20.6161 -0.749768 11.8305 0.180291 7.94749 2.69961C4.06107 5.22219 0.231669 9.0566 0.00700124 15.1396C-0.217666 21.2224 5.01676 22.3711 8.22581 22.3711H8.22917Z" fill="#FBB500"/>
</svg>
