<svg xmlns="http://www.w3.org/2000/svg" viewBox="0 0 237.74 84.26"><g transform="translate(-535.59399 -20.808825)"><path d="m633.42119 99.489186v-48.3242c0-8.89177 7.20795-16.09972 16.09936-16.09972l14.2681.0215c8.86566.0176 16.04363 7.20972 16.04363 16.07573v10.28594c0 8.89176-7.20831 16.09972-16.09972 16.09972h-20.1616" style="fill:none;stroke:#939598;stroke-width:2.976386;stroke-linecap:round;stroke-linejoin:round;stroke-miterlimit:10"/><path d="m683.81948 35.058846h6.18913c3.64913 0 6.60682 2.95804 6.60682 6.60717v36.09834" style="fill:none;stroke:#939598;stroke-width:2.976386;stroke-linecap:round;stroke-linejoin:round;stroke-miterlimit:10"/><path d="m695.28853 29.466256-2.8067-2.807053c-.69674-.696383-.69674-1.825625 0-2.522008l2.80494-2.805289c.69779-.697441 1.82844-.697441 2.52553 0l2.80494 2.805289c.69673.696383.69673 1.825625 0 2.522008l-2.8067 2.807053c-.69638.69638-1.82527.69638-2.52201 0" fill="#32bcad"/><path d="m708.48944 35.026636h6.13798c3.15771 0 6.18596 1.25448 8.41834 3.48686l14.35664 14.35664c1.85949 1.85984 4.87468 1.85984 6.73453 0l14.30408-14.30408c2.23273-2.23238 5.26062-3.48686 8.41833-3.48686h4.9904" style="fill:none;stroke:#939598;stroke-width:2.976386;stroke-linecap:round;stroke-linejoin:round;stroke-miterlimit:10"/><path d="m708.48944 77.448336h6.13798c3.15771 0 6.18596-1.25448 8.41834-3.48686l14.35664-14.35664c1.85949-1.85984 4.87468-1.85984 6.73453 0l14.30408 14.30408c2.23273 2.23238 5.26062 3.48686 8.41833 3.48686h4.9904" style="fill:none;stroke:#939598;stroke-width:2.976386;stroke-linecap:round;stroke-linejoin:round;stroke-miterlimit:10"/><path d="m596.82737 86.620206c-3.08045 0-5.97782-1.19944-8.15622-3.37679l-11.77678-11.77713c-.82691-.82903-2.26801-.82656-3.09456 0l-11.81982 11.82017c-2.17841 2.17734-5.07577 3.37679-8.15623 3.37679h-2.32092l14.9158 14.915444c4.65807 4.65808 12.21069 4.65808 16.86912 0l14.95813-14.958484z" fill="#32bcad"/><path d="m553.82362 44.963326c3.08046 0 5.97782 1.19944 8.15622 3.37679l11.81982 11.82193c.85125.85161 2.2412.85479 3.09457-.001l11.77678-11.77784c2.1784-2.17735 5.07576-3.37679 8.15622-3.37679h1.41852l-14.95778-14.95813c-4.65878-4.658432-12.2114-4.658432-16.86948 0l-14.91509 14.91509z" fill="#32bcad"/><path d="m610.61844 57.378776-9.03922-9.03922c-.19897.0797-.41452.12946-.64206.12946h-4.10986c-2.12478 0-4.20476.86184-5.70618 2.36432l-11.77643 11.77678c-1.10207 1.10208-2.55022 1.65347-3.99697 1.65347-1.44815 0-2.89524-.55139-3.99697-1.65241l-11.82088-11.82088c-1.50142-1.50283-3.5814-2.36431-5.70618-2.36431h-5.05354c-.21555 0-.41698-.0508-.60713-.12242l-9.07521 9.07521c-4.65843 4.65843-4.65843 12.2107 0 16.86913l9.07486 9.07485c.1905-.0716.39193-.12241.60748-.12241h5.05354c2.12478 0 4.20476-.86148 5.70618-2.36396l11.81982-11.81982c2.13643-2.13466 5.8607-2.13537 7.995.001l11.77643 11.77573c1.50142 1.50248 3.5814 2.36431 5.70618 2.36431h4.10986c.22754 0 .44309.0497.64206.12947l9.03922-9.03922c4.65808-4.65843 4.65808-12.2107 0-16.86913" fill="#32bcad"/><g fill="#939598"><path d="m645.6909 95.381446c-.6671 0-1.44356.16051-2.21156.33761v2.94463c.53199.19438 1.13947.28787 1.72191.28787 1.47673 0 2.17699-.49812 2.17699-1.79881 0-1.22273-.57362-1.7713-1.68734-1.7713m-2.70968 5.468764v-5.823654h.40534l.0423.25364c.68333-.16051 1.62842-.37147 2.30364-.37147.54927 0 1.07209.0836 1.51059.4385.50694.41416.66711 1.08021.66711 1.80552 0 .76094-.25365 1.47778-.94545 1.87395-.48084.27023-1.13065.37994-1.71309.37994-.59937 0-1.17298-.0931-1.77235-.26987v1.713444z"/><path d="m651.61782 95.363876c-1.47708 0-2.13537.46461-2.13537 1.76424 0 1.2573.64982 1.82316 2.13537 1.82316 1.46826 0 2.12654-.45614 2.12654-1.75578 0-1.2573-.64946-1.83162-2.12654-1.83162m1.89865 3.5874c-.48966.35383-1.14759.45543-1.89865.45543-.768 0-1.42664-.10971-1.90747-.45543-.5401-.37959-.75989-1.00471-.75989-1.78894 0-.77717.21979-1.40935.75989-1.79846.48083-.34537 1.13947-.45544 1.90747-.45544.75918 0 1.40899.11007 1.89865.45544.54892.38911.75953 1.02129.75953 1.78894 0 .78563-.21943 1.41887-.75953 1.79846"/><path d="m660.50757 99.288706-1.64571-3.53554h-.0342l-1.61995 3.53554h-.44732l-1.75543-4.26226h.54857l1.46015 3.57822h.0339l1.58609-3.57822h.45579l1.62912 3.57822h.0339l1.42628-3.57822h.53129l-1.75507 4.26226z"/><path d="m665.8936 95.355586c-1.36701 0-1.83126.60748-1.91593 1.4859h3.83187c-.042-.97049-.54045-1.4859-1.91594-1.4859m-.0166 4.05095c-.81915 0-1.35043-.11783-1.77235-.47273-.49812-.43038-.6671-1.05445-.6671-1.77165 0-.68368.22824-1.40934.79375-1.82315.47237-.32879 1.0548-.43039 1.66229-.43039.54892 0 1.1818.0589 1.70462.41381.6163.4131.73483 1.13947.73483 1.96603h-4.37197c.0166.87736.30374 1.65453 1.95756 1.65453.78529 0 1.51942-.127 2.2031-.24518v.44697c-.70908.12735-1.49401.26176-2.24473.26176"/><path d="m669.76178 99.288706v-4.26226h.40499l.0427.25365c.90276-.22755 1.32468-.37148 2.11808-.37148h.0593v.47272h-.11854c-.66639 0-1.07138.0924-2.00801.33761v3.56976z"/><path d="m675.27876 95.355586c-1.36701 0-1.83127.60748-1.91593 1.4859h3.83187c-.042-.97049-.54046-1.4859-1.91594-1.4859m-.0166 4.05095c-.81915 0-1.35043-.11783-1.77235-.47273-.49848-.43038-.66711-1.05445-.66711-1.77165 0-.68368.22825-1.40934.79375-1.82315.47237-.32879 1.05481-.43039 1.66229-.43039.54892 0 1.18181.0589 1.70462.41381.61631.4131.73484 1.13947.73484 1.96603h-4.37197c.0166.87736.30374 1.65453 1.95756 1.65453.78493 0 1.51906-.127 2.2031-.24518v.44697c-.70909.12735-1.49402.26176-2.24473.26176"/><path d="m683.17284 95.651526c-.53164-.19438-1.13912-.28751-1.72156-.28751-1.47673 0-2.1777.49882-2.1777 1.7981 0 1.23155.57397 1.77165 1.68769 1.77165.6671 0 1.44357-.16051 2.21157-.32914zm.0931 3.63714-.0423-.25365c-.68369.16052-1.62913.37183-2.30435.37183-.54786 0-1.07174-.0759-1.51059-.43886-.50624-.4138-.66675-1.08055-.66675-1.80587 0-.75953.25329-1.47743.94509-1.86548.48119-.27835 1.131-.38806 1.72191-.38806.5909 0 1.16487.1016 1.76389.27023v-1.94945h.49812v6.05931z"/><path d="m690.97215 95.381446c-.6671 0-1.44356.16051-2.21156.33761v2.93652c.54046.20249 1.13947.29598 1.72191.29598 1.47673 0 2.17699-.49812 2.17699-1.79881 0-1.22273-.57362-1.7713-1.68734-1.7713m1.27424 3.64525c-.48119.27023-1.13101.37994-1.71344.37994-.63289 0-1.26577-.10971-1.90712-.32067l-.0254.20285h-.33796v-6.05967h.49812v2.03341c.68368-.15098 1.60337-.35383 2.25319-.35383.54928 0 1.07209.0836 1.5106.4385.50694.41416.6671 1.08021.6671 1.80552 0 .76094-.25365 1.47778-.94509 1.87395"/><path d="m693.85227 100.92563v-.46355c.24447.0247.47307.0423.63323.0423.61631 0 .98707-.1778 1.33315-.878414l.16051-.33726-2.22779-4.26226h.57397l1.90747 3.67947h.0335l1.81434-3.67947h.5655l-2.39677 4.78578c-.43886.869254-.91158 1.155704-1.78082 1.155704-.19439 0-.40499-.0166-.61631-.0423"/><path d="m705.5091 96.857996h-1.65382v1.49437h1.66194c1.13947 0 1.57021-.12736 1.57021-.75142 0-.66746-.59055-.74295-1.57833-.74295m-.30339-2.42217h-1.35043v1.51871h1.35855c1.12254 0 1.56951-.13441 1.56951-.76765 0-.67451-.56515-.75106-1.57763-.75106m2.5654 4.44817c-.60819.38806-1.34232.40464-2.68393.40464h-2.52342v-5.78097h2.46451c1.15605 0 1.86478.0166 2.45568.37147.42228.2533.59055.64135.59055 1.14759 0 .60713-.25259 1.01283-.91158 1.28305v.0332c.74331.16969 1.22414.54928 1.22414 1.36772 0 .55669-.20249.9197-.61595 1.17334"/><path d="m713.43591 97.499666c-.49847-.0427-1.00436-.0674-1.53599-.0674-.86925 0-1.17369.17709-1.17369.57326 0 .37148.25364.57433.92004.57433.55704 0 1.22379-.1263 1.78964-.25365zm.25294 1.78894-.0339-.2533c-.72601.1778-1.5695.37148-2.31245.37148-.45615 0-.9451-.0593-1.29152-.31256-.31997-.22755-.47237-.59902-.47237-1.02941 0-.48154.21131-.92851.71719-1.15605.44733-.21096 1.0467-.22754 1.59562-.22754.44697 0 1.04598.0247 1.54446.0589v-.0765c0-.6664-.43921-.88583-1.63759-.88583-.46426 0-1.02976.0247-1.56987.0755v-.86082c.59902-.0497 1.27459-.084 1.83163-.084.74224 0 1.51094.0593 1.98331.39652.48895.34643.58244.82762.58244 1.45979v2.52378z"/><path d="m720.19002 99.288706v-2.35514c0-.77576-.39617-1.05446-1.10561-1.05446-.52281 0-1.1811.13476-1.73848.27023v3.13937h-1.18992v-4.26226h.97049l.0423.27023c.75071-.19368 1.58679-.38806 2.27894-.38806.52282 0 1.05481.0755 1.4598.43886.33725.30409.46425.72531.46425 1.3335v2.60773z"/><path d="m724.73376 99.406676c-.54857 0-1.14829-.0755-1.58679-.44697-.52317-.42227-.67522-1.08867-.67522-1.80693 0-.67451.21943-1.40899.86924-1.82209.53199-.34643 1.18992-.42193 1.87361-.42193.48965 0 .97084.0339 1.50213.0836v.91158c-.43075-.0413-.94545-.0755-1.35855-.0755-1.13136 0-1.66264.35489-1.66264 1.33385 0 .92004.39652 1.31621 1.32468 1.31621.5401 0 1.17369-.10125 1.78964-.21943v.87736c-.6671.13582-1.39277.27023-2.0761.27023"/><path d="m730.3248 95.802586c-1.13101 0-1.62913.35489-1.62913 1.32539 0 .97084.48965 1.38465 1.62913 1.38465 1.12218 0 1.61148-.34678 1.61148-1.31727 0-.9705-.48048-1.39277-1.61148-1.39277m2.04223 3.15701c-.52317.35383-1.20686.44697-2.04223.44697-.85267 0-1.536-.10125-2.0507-.44697-.5909-.38806-.80222-1.02941-.80222-1.7974 0-.76871.21132-1.41852.80222-1.80658.5147-.34572 1.19803-.44697 2.0507-.44697.84419 0 1.51906.10125 2.04223.44697.5909.38806.79339 1.03787.79339 1.7974 0 .76871-.21096 1.41852-.79339 1.80658"/><path d="m740.03066 99.406676c-.71684 0-1.4933-.11783-2.07609-.59902-.6918-.57432-.90276-1.46014-.90276-2.41441 0-.8516.26987-1.86443 1.17299-2.45498.70026-.45543 1.5695-.54857 2.44721-.54857.64206 0 1.29999.0423 2.01754.10125v1.03787c-.6163-.0508-1.37548-.0931-1.96638-.0931-1.64606 0-2.34633.62512-2.34633 1.95756 0 1.35996.64947 1.96744 1.86514 1.96744.79304 0 1.67922-.16051 2.57386-.34678v1.02941c-.89464.17815-1.83162.36336-2.78518.36336"/><path d="m746.31279 95.668076c-.98778 0-1.36772.35489-1.44357 1.00471h2.86985c-.0342-.69215-.43921-1.00471-1.42628-1.00471m-.1778 3.73874c-.70026 0-1.33315-.084-1.80587-.47308-.50624-.42121-.68368-1.05445-.68368-1.78082 0-.64982.21131-1.37513.80221-1.7974.52282-.37112 1.18992-.44697 1.86514-.44697.60748 0 1.32503.0674 1.84785.43039.68404.48119.74295 1.22414.75106 2.1015h-4.05059c.025.65016.37112 1.07209 1.56951 1.07209.7426 0 1.56951-.10972 2.27048-.21943v.83538c-.8188.13546-1.71345.27834-2.56611.27834"/><path d="m754.20619 99.288706v-2.35514c0-.77576-.39617-1.05446-1.1056-1.05446-.52317 0-1.1811.13476-1.73849.27023v3.13937h-1.18992v-4.26226h.97049l.0423.27023c.75071-.19368 1.5868-.38806 2.27895-.38806.52281 0 1.0548.0755 1.45979.43886.33726.30409.46426.72531.46426 1.3335v2.60773z"/><path d="m758.77509 99.406676c-.57362 0-1.09714-.16051-1.38395-.60748-.21096-.3041-.31256-.71685-.31256-1.29117v-1.59561h-.86078v-.88583h.86078l.127-1.29152h1.05481v1.29152h1.67922v.88583h-1.67922v1.36772c0 .32914.025.60748.11782.81033.12665.2868.40499.39617.77647.39617.27834 0 .6163-.0423.85231-.0836v.8516c-.38806.0766-.83573.15205-1.2319.15205"/><path d="m761.10053 99.288706v-4.26226h.97084l.0423.27023c.78493-.21943 1.36702-.38806 2.10997-.38806.0335 0 .0843 0 .15134.008v1.01317c-.13512-.008-.29528-.008-.41346-.008-.58243 0-1.02094.067-1.67111.21943v3.14748z"/><path d="m768.70144 97.499666c-.49812-.0427-1.00435-.0674-1.53599-.0674-.86925 0-1.17369.17709-1.17369.57326 0 .37148.25364.57433.92004.57433.55739 0 1.22379-.1263 1.78964-.25365zm.25295 1.78894-.0335-.2533c-.72602.1778-1.56987.37148-2.31282.37148-.45578 0-.94509-.0593-1.29152-.31256-.31996-.22755-.47236-.59902-.47236-1.02941 0-.48154.21131-.92851.71755-1.15605.44732-.21096 1.04633-.22754 1.59526-.22754.44732 0 1.04634.0247 1.54446.0589v-.0765c0-.6664-.43921-.88583-1.6376-.88583-.4639 0-1.02976.0247-1.56986.0755v-.86082c.59902-.0497 1.27459-.084 1.83198-.084.74224 0 1.51059.0593 1.98296.39652.4893.34643.58244.82762.58244 1.45979v2.52378z"/><path d="m771.42178 93.229356h1.18992v6.05931h-1.18992z"/></g></g></svg>