<svg width="102" height="36" viewBox="0 0 102 36" fill="none" xmlns="http://www.w3.org/2000/svg">
<path d="M41.2773 33.4219V13.024C41.2773 9.26856 44.316 6.22991 48.0714 6.22991L54.0864 6.2455C57.8263 6.2455 60.8493 9.28414 60.8493 13.024V17.3716C60.8493 21.1271 57.8107 24.1657 54.0552 24.1657H45.5626" stroke="white" stroke-width="2.91586" stroke-miterlimit="7.7732" stroke-linecap="round" stroke-linejoin="round"/>
<path d="M62.543 6.23537H65.1609C66.7036 6.23537 67.9502 7.48199 67.9502 9.02469V24.2646" stroke="white" stroke-width="2.91586" stroke-miterlimit="7.7732" stroke-linecap="round" stroke-linejoin="round"/>
<path d="M67.3829 3.8756L66.1986 2.69131C65.9025 2.39524 65.9025 1.92775 66.1986 1.63168L67.3829 0.447389C67.679 0.151316 68.162 0.151316 68.4425 0.447389L69.6268 1.63168C69.9229 1.92775 69.9229 2.39524 69.6268 2.69131L68.4425 3.8756C68.1465 4.17167 67.679 4.17167 67.3829 3.8756Z" fill="#32BCAD"/>
<path d="M72.9531 6.22217H75.5399C76.88 6.22217 78.1578 6.75198 79.0927 7.68695L85.1544 13.7487C85.9336 14.5278 87.2114 14.5278 87.9905 13.7487L94.021 7.71812C94.956 6.78315 96.2338 6.25333 97.5739 6.25333H99.6776" stroke="white" stroke-width="2.91586" stroke-miterlimit="7.7732" stroke-linecap="round" stroke-linejoin="round"/>
<path d="M72.9531 24.1221H75.5399C76.88 24.1221 78.1578 23.5923 79.0927 22.6573L85.1544 16.5956C85.9336 15.8164 87.2114 15.8164 87.9905 16.5956L94.021 22.6261C94.956 23.5611 96.2338 24.0909 97.5739 24.0909H99.6776" stroke="white" stroke-width="2.91586" stroke-miterlimit="7.7732" stroke-linecap="round" stroke-linejoin="round"/>
<path d="M25.8388 27.9918C24.5454 27.9918 23.3144 27.4931 22.395 26.5738L17.4241 21.6028C17.0813 21.26 16.4735 21.26 16.1151 21.6028L11.1286 26.5893C10.2093 27.5087 8.99379 28.0074 7.68484 28.0074H6.70312L12.9986 34.3028C14.962 36.2662 18.1565 36.2662 20.1199 34.3028L26.4309 27.9918H25.8388Z" fill="#32BCAD"/>
<path d="M7.69265 10.4146C8.98602 10.4146 10.2171 10.9132 11.1364 11.8326L16.1229 16.8191C16.4813 17.1775 17.0735 17.1775 17.4319 16.8191L22.4028 11.8482C23.3222 10.9288 24.5376 10.4301 25.8466 10.4301H26.4387L20.1277 4.11912C18.1643 2.15569 14.9698 2.15569 13.0064 4.11912L6.71094 10.4146H7.69265Z" fill="#32BCAD"/>
<path d="M31.6564 15.6537L27.8386 11.836C27.7607 11.8671 27.6672 11.8983 27.5737 11.8983H25.8441C24.9403 11.8983 24.0676 12.2567 23.4287 12.8956L18.4578 17.8665C17.9903 18.334 17.3826 18.5677 16.7749 18.5677C16.1671 18.5677 15.5594 18.334 15.0919 17.8665L10.1054 12.88C9.46654 12.2411 8.59391 11.8827 7.69011 11.8827H5.55527C5.46177 11.8827 5.38385 11.8671 5.30594 11.836L1.47257 15.6693C-0.490858 17.6328 -0.490858 20.8272 1.47257 22.7907L5.30594 26.624C5.38385 26.5929 5.47735 26.5773 5.55527 26.5773H7.69011C8.59391 26.5773 9.46654 26.2189 10.1054 25.58L15.0919 20.5935C15.9957 19.6897 17.5696 19.6897 18.4578 20.5935L23.4287 25.5644C24.0676 26.2033 24.9403 26.5617 25.8441 26.5617H27.5737C27.6672 26.5617 27.7607 26.5773 27.8386 26.6084L31.6564 22.7907C33.6199 20.8116 33.6199 17.6328 31.6564 15.6537Z" fill="#32BCAD"/>
<path d="M46.4578 31.6889C46.1773 31.6889 45.8501 31.7512 45.5228 31.8291V33.0757C45.741 33.1536 46.0059 33.2004 46.2552 33.2004C46.8785 33.2004 47.1746 32.9978 47.1746 32.4368C47.159 31.9226 46.9253 31.6889 46.4578 31.6889ZM45.3047 33.9951V31.533H45.4761L45.4917 31.6421C45.7878 31.5798 46.1773 31.4863 46.4578 31.4863C46.6916 31.4863 46.9097 31.5175 47.0967 31.6733C47.3149 31.8447 47.3772 32.1252 47.3772 32.4368C47.3772 32.7641 47.2681 33.0601 46.972 33.2316C46.7695 33.3406 46.489 33.3874 46.2552 33.3874C46.0059 33.3874 45.7566 33.3406 45.5073 33.2783V33.9951H45.3047Z" fill="white"/>
<path d="M48.9539 31.6814C48.3306 31.6814 48.0501 31.884 48.0501 32.4294C48.0501 32.9592 48.3306 33.1929 48.9539 33.1929C49.5773 33.1929 49.8578 33.0059 49.8578 32.445C49.8422 31.9307 49.5773 31.6814 48.9539 31.6814ZM49.7487 33.2085C49.5461 33.3643 49.2656 33.3955 48.9539 33.3955C48.6267 33.3955 48.3462 33.3488 48.1436 33.2085C47.9099 33.0527 47.8164 32.7878 47.8164 32.4605C47.8164 32.1333 47.9099 31.8684 48.1436 31.697C48.3462 31.5567 48.6267 31.51 48.9539 31.51C49.2812 31.51 49.5461 31.5567 49.7487 31.697C49.9824 31.8684 50.0759 32.1333 50.0759 32.445C50.0759 32.7722 49.9824 33.0371 49.7487 33.2085Z" fill="white"/>
<path d="M52.7085 33.3369L52.0073 31.841H51.9917L51.3061 33.3369H51.1191L50.3711 31.5449H50.6048L51.2281 33.0564H51.2437L51.9138 31.5449H52.1008L52.7864 33.0564H52.802L53.4097 31.5449H53.6279L52.8799 33.3369H52.7085Z" fill="white"/>
<path d="M54.9815 31.6775C54.405 31.6775 54.2024 31.9268 54.1712 32.3008H55.7919C55.7607 31.8957 55.5581 31.6775 54.9815 31.6775ZM54.966 33.3916C54.6231 33.3916 54.3894 33.3449 54.218 33.189C54.0154 33.002 53.9375 32.7371 53.9375 32.4411C53.9375 32.145 54.031 31.8489 54.2647 31.6775C54.4673 31.5373 54.7166 31.4905 54.966 31.4905C55.1997 31.4905 55.4646 31.5217 55.6828 31.6619C55.9477 31.8333 55.9944 32.145 55.9944 32.4878H54.1557C54.1557 32.8618 54.2803 33.189 54.9815 33.189C55.3088 33.189 55.6204 33.1423 55.9165 33.0799V33.2669C55.6204 33.3293 55.2932 33.3916 54.966 33.3916Z" fill="white"/>
<path d="M56.6133 33.337V31.5449H56.7847L56.8003 31.654C57.1743 31.5605 57.3613 31.4982 57.6885 31.4982H57.7197V31.7008H57.6729C57.3924 31.7008 57.221 31.7319 56.8314 31.841V33.3525H56.6133V33.337Z" fill="white"/>
<path d="M58.9386 31.6775C58.362 31.6775 58.1594 31.9268 58.1283 32.3008H59.7489C59.7177 31.8957 59.5151 31.6775 58.9386 31.6775ZM58.923 33.3916C58.5802 33.3916 58.3464 33.3449 58.175 33.189C57.9724 33.002 57.8945 32.7371 57.8945 32.4411C57.8945 32.145 57.988 31.8489 58.2218 31.6775C58.4243 31.5373 58.6737 31.4905 58.923 31.4905C59.1567 31.4905 59.4216 31.5217 59.6398 31.6619C59.9047 31.8333 59.9515 32.145 59.9515 32.4878H58.1127C58.1127 32.8618 58.2374 33.189 58.9386 33.189C59.2658 33.189 59.5775 33.1423 59.8735 33.0799V33.2669C59.5775 33.3293 59.2502 33.3916 58.923 33.3916Z" fill="white"/>
<path d="M62.2723 31.8031C62.0541 31.7252 61.7892 31.6785 61.5399 31.6785C60.9166 31.6785 60.6205 31.8966 60.6205 32.442C60.6205 32.9563 60.8698 33.19 61.3373 33.19C61.6178 33.19 61.945 33.1277 62.2723 33.0498V31.8031ZM62.3034 33.3458L62.2879 33.2368C61.9918 33.2991 61.6022 33.3926 61.3217 33.3926C61.088 33.3926 60.8698 33.3614 60.6828 33.2056C60.4647 33.0342 60.4023 32.7537 60.4023 32.442C60.4023 32.1148 60.5114 31.8187 60.8075 31.6473C61.0101 31.5226 61.2906 31.4759 61.5399 31.4759C61.7892 31.4759 62.0385 31.5226 62.2879 31.585V30.7591H62.4904V33.3147H62.3034V33.3458Z" fill="white"/>
<path d="M65.5633 31.6892C65.2828 31.6892 64.9556 31.7515 64.6283 31.8294V33.076C64.8621 33.154 65.1114 33.2007 65.3607 33.2007C65.984 33.2007 66.2801 32.9981 66.2801 32.4371C66.2645 31.9229 66.0308 31.6892 65.5633 31.6892ZM66.0931 33.2319C65.8905 33.3409 65.61 33.3877 65.3763 33.3877C65.1114 33.3877 64.8465 33.3409 64.566 33.2475L64.5504 33.3254H64.4102V30.7698H64.6127V31.6268C64.9088 31.5645 65.2828 31.471 65.5633 31.471C65.797 31.471 66.0152 31.5022 66.2022 31.658C66.4203 31.8294 66.4827 32.1099 66.4827 32.4216C66.4982 32.7644 66.3892 33.0605 66.0931 33.2319Z" fill="white"/>
<path d="M66.7772 34.0278V33.8252C66.8863 33.8408 66.9798 33.8408 67.0421 33.8408C67.307 33.8408 67.4629 33.7629 67.6031 33.4668L67.6654 33.3265L66.7305 31.5345H66.9798L67.7901 33.0928H67.8057L68.5692 31.5345H68.803L67.7901 33.5603C67.6031 33.9343 67.4005 34.0434 67.0421 34.0434C66.9486 34.0589 66.8551 34.0434 66.7772 34.0278Z" fill="white"/>
<path d="M71.6958 32.3114H70.9946V32.9347H71.6958C72.1789 32.9347 72.3659 32.8879 72.3659 32.623C72.3503 32.3425 72.101 32.3114 71.6958 32.3114ZM71.5556 31.2985H70.979V31.9374H71.5556C72.0231 31.9374 72.2257 31.8751 72.2257 31.6102C72.2257 31.3297 71.9919 31.2985 71.5556 31.2985ZM72.6464 33.1684C72.3971 33.3398 72.0854 33.3398 71.5088 33.3398H70.4492V30.8933H71.4933C71.9763 30.8933 72.288 30.8933 72.5373 31.0492C72.7087 31.1583 72.7866 31.3141 72.7866 31.5322C72.7866 31.7816 72.6776 31.953 72.3971 32.0776V32.0932C72.7087 32.1711 72.9113 32.327 72.9113 32.6698C72.9113 32.9191 72.8178 33.0594 72.6464 33.1684Z" fill="white"/>
<path d="M75.0385 32.5823C74.836 32.5667 74.6178 32.5511 74.3841 32.5511C74.0101 32.5511 73.8854 32.629 73.8854 32.8004C73.8854 32.9563 73.9945 33.0498 74.275 33.0498C74.5087 33.0498 74.7892 33.003 75.023 32.9407L75.0385 32.5823ZM75.1476 33.3458L75.132 33.2368C74.8204 33.3147 74.462 33.3926 74.1503 33.3926C73.9633 33.3926 73.7452 33.3614 73.6049 33.2679C73.4647 33.1744 73.4023 33.0186 73.4023 32.8316C73.4023 32.629 73.4958 32.442 73.6984 32.3485C73.8854 32.255 74.1347 32.255 74.3685 32.255C74.5555 32.255 74.8048 32.2706 75.023 32.2862V32.255C75.023 31.9745 74.836 31.881 74.3373 31.881C74.1347 31.881 73.901 31.8966 73.6673 31.9122V31.5538C73.9166 31.5382 74.2126 31.5226 74.4464 31.5226C74.758 31.5226 75.0853 31.5538 75.2879 31.6941C75.4904 31.8343 75.5372 32.0369 75.5372 32.3174V33.377L75.1476 33.3458Z" fill="white"/>
<path d="M77.8899 33.337V32.3397C77.8899 32.0124 77.7185 31.8878 77.4224 31.8878C77.2043 31.8878 76.9238 31.9501 76.6901 31.9968V33.3214H76.1914V31.5449H76.5966L76.6121 31.654C76.9238 31.5761 77.2822 31.4982 77.5783 31.4982C77.7964 31.4982 78.0302 31.5294 78.2016 31.6852C78.3418 31.8098 78.4042 31.9968 78.4042 32.2462V33.3525H77.8899V33.337Z" fill="white"/>
<path d="M79.806 33.3867C79.5723 33.3867 79.323 33.3556 79.136 33.1997C78.9178 33.0283 78.8555 32.7478 78.8555 32.4362C78.8555 32.1557 78.949 31.844 79.2295 31.6726C79.4476 31.5324 79.7281 31.5012 80.0242 31.5012C80.2268 31.5012 80.4293 31.5168 80.6631 31.5324V31.9219C80.4761 31.9064 80.2579 31.8908 80.0865 31.8908C79.6034 31.8908 79.3853 32.0466 79.3853 32.4518C79.3853 32.8413 79.5567 33.0127 79.9463 33.0127C80.18 33.0127 80.4449 32.966 80.6942 32.9192V33.2932C80.3982 33.34 80.0865 33.3867 79.806 33.3867Z" fill="white"/>
<path d="M82.1686 31.8664C81.6855 31.8664 81.4829 32.0223 81.4829 32.4274C81.4829 32.8326 81.6855 33.004 82.1686 33.004C82.6361 33.004 82.8542 32.8637 82.8542 32.443C82.8386 32.0534 82.6361 31.8664 82.1686 31.8664ZM83.0256 33.2066C82.8075 33.3624 82.5114 33.3936 82.1686 33.3936C81.8102 33.3936 81.5141 33.3468 81.2959 33.2066C81.0466 33.0351 80.9531 32.7702 80.9531 32.443C80.9531 32.1158 81.0466 31.8509 81.2959 31.6794C81.5141 31.5392 81.7946 31.4925 82.1686 31.4925C82.527 31.4925 82.8075 31.5392 83.0256 31.6794C83.275 31.8509 83.3529 32.1158 83.3529 32.443C83.3529 32.7702 83.275 33.0351 83.0256 33.2066Z" fill="white"/>
<path d="M86.2622 33.3867C85.9662 33.3867 85.6389 33.34 85.3896 33.1374C85.0935 32.8881 85.0156 32.5141 85.0156 32.1245C85.0156 31.7661 85.1247 31.3454 85.5143 31.0805C85.8103 30.8935 86.1843 30.8467 86.5427 30.8467C86.8076 30.8467 87.0881 30.8623 87.3998 30.8935V31.3298C87.1349 31.3142 86.8232 31.283 86.5739 31.283C85.8727 31.283 85.5766 31.548 85.5766 32.1089C85.5766 32.6855 85.8571 32.9348 86.3713 32.9348C86.6986 32.9348 87.0726 32.8725 87.4621 32.7946V33.2309C87.057 33.3088 86.6518 33.3867 86.2622 33.3867Z" fill="white"/>
<path d="M88.911 31.81C88.4902 31.81 88.3344 31.9658 88.3033 32.2307H89.5187C89.4875 31.9502 89.3161 31.81 88.911 31.81ZM88.8331 33.3994C88.537 33.3994 88.2721 33.3682 88.0695 33.1968C87.8514 33.0254 87.7734 32.7449 87.7734 32.4489C87.7734 32.1684 87.8669 31.8723 88.1163 31.6853C88.3344 31.5295 88.6149 31.4983 88.911 31.4983C89.1603 31.4983 89.472 31.5295 89.6901 31.6853C89.9862 31.8879 90.0018 32.1995 90.0018 32.5735H88.2877C88.3033 32.854 88.4435 33.0254 88.9577 33.0254C89.2694 33.0254 89.6278 32.9787 89.9083 32.9319V33.2903C89.5655 33.3371 89.1915 33.3994 88.8331 33.3994Z" fill="white"/>
<path d="M92.2454 33.337V32.3397C92.2454 32.0124 92.074 31.8878 91.7779 31.8878C91.5598 31.8878 91.2793 31.9501 91.0455 31.9968V33.3214H90.5469V31.5449H90.952L90.9676 31.654C91.2793 31.5761 91.6377 31.4982 91.9337 31.4982C92.1519 31.4982 92.3856 31.5294 92.5571 31.6852C92.6973 31.8098 92.7596 31.9968 92.7596 32.2462V33.3525H92.2454V33.337Z" fill="white"/>
<path d="M94.1729 33.3867C93.9236 33.3867 93.7054 33.3244 93.5963 33.1374C93.5029 33.0127 93.4717 32.8413 93.4717 32.592V31.9219H93.1133V31.5479H93.4717L93.5184 31.0026H93.9703V31.5479H94.6716V31.9219H93.9703V32.4985C93.9703 32.6387 93.9859 32.7478 94.0171 32.8413C94.0638 32.966 94.1885 33.0127 94.3443 33.0127C94.469 33.0127 94.6092 32.9971 94.7027 32.9816V33.34C94.5313 33.3556 94.3287 33.3867 94.1729 33.3867Z" fill="white"/>
<path d="M95.1523 33.3369V31.5449H95.5575L95.5731 31.654C95.9003 31.5605 96.1496 31.4981 96.4613 31.4981C96.4769 31.4981 96.4925 31.4981 96.5236 31.4981V31.9189C96.4613 31.9189 96.399 31.9189 96.3522 31.9189C96.1029 31.9189 95.9159 31.95 95.651 32.0124V33.3369H95.1523Z" fill="white"/>
<path d="M98.3588 32.5823C98.1563 32.5667 97.9381 32.5511 97.7044 32.5511C97.3304 32.5511 97.2057 32.629 97.2057 32.8004C97.2057 32.9563 97.3148 33.0498 97.5953 33.0498C97.829 33.0498 98.1095 33.003 98.3433 32.9407L98.3588 32.5823ZM98.4679 33.3458L98.4523 33.2368C98.1407 33.3147 97.7823 33.3926 97.4706 33.3926C97.2836 33.3926 97.0655 33.3614 96.9252 33.2679C96.785 33.1744 96.7227 33.0186 96.7227 32.8316C96.7227 32.629 96.8162 32.442 97.0187 32.3485C97.2057 32.255 97.455 32.255 97.6888 32.255C97.8758 32.255 98.1251 32.2706 98.3433 32.2862V32.255C98.3433 31.9745 98.1563 31.881 97.6576 31.881C97.455 31.881 97.2213 31.8966 96.9876 31.9122V31.5538C97.2369 31.5382 97.533 31.5226 97.7667 31.5226C98.0784 31.5226 98.4056 31.5538 98.6082 31.6941C98.8107 31.8343 98.8575 32.0369 98.8575 32.3174V33.377L98.4679 33.3458Z" fill="white"/>
<path d="M99.5039 30.7823H100.003V33.3379H99.5039V30.7823Z" fill="white"/>
</svg>
