<svg fill="none" height="36" viewBox="0 0 102 36" width="102" xmlns="http://www.w3.org/2000/svg"><path d="m41.2773 33.4219v-20.3979c0-3.75544 3.0387-6.79409 6.7941-6.79409l6.015.01559c3.7399 0 6.7629 3.03864 6.7629 6.7785v4.3476c0 3.7555-3.0386 6.7941-6.7941 6.7941h-8.4926" stroke="#fff" stroke-linecap="round" stroke-linejoin="round" stroke-miterlimit="7.7732" stroke-width="2.91586"/><path d="m62.543 6.23537h2.6179c1.5427 0 2.7893 1.24662 2.7893 2.78932v15.23991" stroke="#fff" stroke-linecap="round" stroke-linejoin="round" stroke-miterlimit="7.7732" stroke-width="2.91586"/><path d="m67.3829 3.8756-1.1843-1.18429c-.2961-.29607-.2961-.76356 0-1.05963l1.1843-1.184291c.2961-.296073.7791-.296073 1.0596 0l1.1843 1.184291c.2961.29607.2961.76356 0 1.05963l-1.1843 1.18429c-.296.29607-.7635.29607-1.0596 0z" fill="#32bcad"/><path d="m72.9531 6.22217h2.5868c1.3401 0 2.6179.52981 3.5528 1.46478l6.0617 6.06175c.7792.7791 2.057.7791 2.8361 0l6.0305-6.03058c.935-.93497 2.2128-1.46479 3.5529-1.46479h2.1037" stroke="#fff" stroke-linecap="round" stroke-linejoin="round" stroke-miterlimit="7.7732" stroke-width="2.91586"/><path d="m72.9531 24.1221h2.5868c1.3401 0 2.6179-.5298 3.5528-1.4648l6.0617-6.0617c.7792-.7792 2.057-.7792 2.8361 0l6.0305 6.0305c.935.935 2.2128 1.4648 3.5529 1.4648h2.1037" stroke="#fff" stroke-linecap="round" stroke-linejoin="round" stroke-miterlimit="7.7732" stroke-width="2.91586"/><g fill="#32bcad"><path d="m25.8388 27.9918c-1.2934 0-2.5244-.4987-3.4438-1.418l-4.9709-4.971c-.3428-.3428-.9506-.3428-1.309 0l-4.9865 4.9865c-.9193.9194-2.13481 1.4181-3.44376 1.4181h-.98172l6.29548 6.2954c1.9634 1.9634 5.1579 1.9634 7.1213 0l6.311-6.311z"/><path d="m7.69265 10.4146c1.29337 0 2.52445.4986 3.44375 1.418l4.9865 4.9865c.3584.3584.9506.3584 1.309 0l4.9709-4.9709c.9194-.9194 2.1348-1.4181 3.4438-1.4181h.5921l-6.311-6.31098c-1.9634-1.96343-5.1579-1.96343-7.1213 0l-6.29546 6.29548z"/><path d="m31.6564 15.6537-3.8178-3.8177c-.0779.0311-.1714.0623-.2649.0623h-1.7296c-.9038 0-1.7765.3584-2.4154.9973l-4.9709 4.9709c-.4675.4675-1.0752.7012-1.6829.7012-.6078 0-1.2155-.2337-1.683-.7012l-4.9865-4.9865c-.63886-.6389-1.51149-.9973-2.41529-.9973h-2.13484c-.0935 0-.17142-.0156-.24933-.0467l-3.83337 3.8333c-1.963428 1.9635-1.963428 5.1579 0 7.1214l3.83337 3.8333c.07791-.0311.17141-.0467.24933-.0467h2.13484c.9038 0 1.77643-.3584 2.41529-.9973l4.9865-4.9865c.9038-.9038 2.4777-.9038 3.3659 0l4.9709 4.9709c.6389.6389 1.5116.9973 2.4154.9973h1.7296c.0935 0 .187.0156.2649.0467l3.8178-3.8177c1.9635-1.9791 1.9635-5.1579 0-7.137z"/></g><g fill="#fff"><path d="m46.4578 31.6889c-.2805 0-.6077.0623-.935.1402v1.2466c.2182.0779.4831.1247.7324.1247.6233 0 .9194-.2026.9194-.7636-.0156-.5142-.2493-.7479-.7168-.7479zm-1.1531 2.3062v-2.4621h.1714l.0156.1091c.2961-.0623.6856-.1558.9661-.1558.2338 0 .4519.0312.6389.187.2182.1714.2805.4519.2805.7635 0 .3273-.1091.6233-.4052.7948-.2025.109-.483.1558-.7168.1558-.2493 0-.4986-.0468-.7479-.1091v.7168z"/><path d="m48.9539 31.6814c-.6233 0-.9038.2026-.9038.748 0 .5298.2805.7635.9038.7635.6234 0 .9039-.187.9039-.7479-.0156-.5143-.2805-.7636-.9039-.7636zm.7948 1.5271c-.2026.1558-.4831.187-.7948.187-.3272 0-.6077-.0467-.8103-.187-.2337-.1558-.3272-.4207-.3272-.748 0-.3272.0935-.5921.3272-.7635.2026-.1403.4831-.187.8103-.187.3273 0 .5922.0467.7948.187.2337.1714.3272.4363.3272.748 0 .3272-.0935.5921-.3272.7635z"/><path d="m52.7085 33.3369-.7012-1.4959h-.0156l-.6856 1.4959h-.187l-.748-1.792h.2337l.6233 1.5115h.0156l.6701-1.5115h.187l.6856 1.5115h.0156l.6077-1.5115h.2182l-.748 1.792z"/><path d="m54.9815 31.6775c-.5765 0-.7791.2493-.8103.6233h1.6207c-.0312-.4051-.2338-.6233-.8104-.6233zm-.0155 1.7141c-.3429 0-.5766-.0467-.748-.2026-.2026-.187-.2805-.4519-.2805-.7479 0-.2961.0935-.5922.3272-.7636.2026-.1402.4519-.187.7013-.187.2337 0 .4986.0312.7168.1714.2649.1714.3116.4831.3116.8259h-1.8387c0 .374.1246.7012.8258.7012.3273 0 .6389-.0467.935-.1091v.187c-.2961.0624-.6233.1247-.9505.1247z"/><path d="m56.6133 33.337v-1.7921h.1714l.0156.1091c.374-.0935.561-.1558.8882-.1558h.0312v.2026h-.0468c-.2805 0-.4519.0311-.8415.1402v1.5115h-.2181z"/><path d="m58.9386 31.6775c-.5766 0-.7792.2493-.8103.6233h1.6206c-.0312-.4051-.2338-.6233-.8103-.6233zm-.0156 1.7141c-.3428 0-.5766-.0467-.748-.2026-.2026-.187-.2805-.4519-.2805-.7479 0-.2961.0935-.5922.3273-.7636.2025-.1402.4519-.187.7012-.187.2337 0 .4986.0312.7168.1714.2649.1714.3117.4831.3117.8259h-1.8388c0 .374.1247.7012.8259.7012.3272 0 .6389-.0467.9349-.1091v.187c-.296.0624-.6233.1247-.9505.1247z"/><path d="m62.2723 31.8031c-.2182-.0779-.4831-.1246-.7324-.1246-.6233 0-.9194.2181-.9194.7635 0 .5143.2493.748.7168.748.2805 0 .6077-.0623.935-.1402zm.0311 1.5427-.0155-.109c-.2961.0623-.6857.1558-.9662.1558-.2337 0-.4519-.0312-.6389-.187-.2181-.1714-.2805-.4519-.2805-.7636 0-.3272.1091-.6233.4052-.7947.2026-.1247.4831-.1714.7324-.1714s.4986.0467.748.1091v-.8259h.2025v2.5556h-.187z"/><path d="m65.5633 31.6892c-.2805 0-.6077.0623-.935.1402v1.2466c.2338.078.4831.1247.7324.1247.6233 0 .9194-.2026.9194-.7636-.0156-.5142-.2493-.7479-.7168-.7479zm.5298 1.5427c-.2026.109-.4831.1558-.7168.1558-.2649 0-.5298-.0468-.8103-.1402l-.0156.0779h-.1402v-2.5556h.2025v.857c.2961-.0623.6701-.1558.9506-.1558.2337 0 .4519.0312.6389.187.2181.1714.2805.4519.2805.7636.0155.3428-.0935.6389-.3896.8103z"/><path d="m66.7772 34.0278v-.2026c.1091.0156.2026.0156.2649.0156.2649 0 .4208-.0779.561-.374l.0623-.1403-.9349-1.792h.2493l.8103 1.5583h.0156l.7635-1.5583h.2338l-1.0129 2.0258c-.187.374-.3896.4831-.748.4831-.0935.0155-.187 0-.2649-.0156z"/><path d="m71.6958 32.3114h-.7012v.6233h.7012c.4831 0 .6701-.0468.6701-.3117-.0156-.2805-.2649-.3116-.6701-.3116zm-.1402-1.0129h-.5766v.6389h.5766c.4675 0 .6701-.0623.6701-.3272 0-.2805-.2338-.3117-.6701-.3117zm1.0908 1.8699c-.2493.1714-.561.1714-1.1376.1714h-1.0596v-2.4465h1.0441c.483 0 .7947 0 1.044.1559.1714.1091.2493.2649.2493.483 0 .2494-.109.4208-.3895.5454v.0156c.3116.0779.5142.2338.5142.5766 0 .2493-.0935.3896-.2649.4986z"/><path d="m75.0385 32.5823c-.2025-.0156-.4207-.0312-.6544-.0312-.374 0-.4987.0779-.4987.2493 0 .1559.1091.2494.3896.2494.2337 0 .5142-.0468.748-.1091zm.1091.7635-.0156-.109c-.3116.0779-.67.1558-.9817.1558-.187 0-.4051-.0312-.5454-.1247-.1402-.0935-.2026-.2493-.2026-.4363 0-.2026.0935-.3896.2961-.4831.187-.0935.4363-.0935.6701-.0935.187 0 .4363.0156.6545.0312v-.0312c0-.2805-.187-.374-.6857-.374-.2026 0-.4363.0156-.67.0312v-.3584c.2493-.0156.5453-.0312.7791-.0312.3116 0 .6389.0312.8415.1715.2025.1402.2493.3428.2493.6233v1.0596z"/><path d="m77.8899 33.337v-.9973c0-.3273-.1714-.4519-.4675-.4519-.2181 0-.4986.0623-.7323.109v1.3246h-.4987v-1.7765h.4052l.0155.1091c.3117-.0779.6701-.1558.9662-.1558.2181 0 .4519.0312.6233.187.1402.1246.2026.3116.2026.561v1.1063h-.5143z"/><path d="m79.806 33.3867c-.2337 0-.483-.0311-.67-.187-.2182-.1714-.2805-.4519-.2805-.7635 0-.2805.0935-.5922.374-.7636.2181-.1402.4986-.1714.7947-.1714.2026 0 .4051.0156.6389.0312v.3895c-.187-.0155-.4052-.0311-.5766-.0311-.4831 0-.7012.1558-.7012.561 0 .3895.1714.5609.561.5609.2337 0 .4986-.0467.7479-.0935v.374c-.296.0468-.6077.0935-.8882.0935z"/><path d="m82.1686 31.8664c-.4831 0-.6857.1559-.6857.561 0 .4052.2026.5766.6857.5766.4675 0 .6856-.1403.6856-.561-.0156-.3896-.2181-.5766-.6856-.5766zm.857 1.3402c-.2181.1558-.5142.187-.857.187-.3584 0-.6545-.0468-.8727-.187-.2493-.1715-.3428-.4364-.3428-.7636s.0935-.5921.3428-.7636c.2182-.1402.4987-.1869.8727-.1869.3584 0 .6389.0467.857.1869.2494.1715.3273.4364.3273.7636s-.0779.5921-.3273.7636z"/><path d="m86.2622 33.3867c-.296 0-.6233-.0467-.8726-.2493-.2961-.2493-.374-.6233-.374-1.0129 0-.3584.1091-.7791.4987-1.044.296-.187.67-.2338 1.0284-.2338.2649 0 .5454.0156.8571.0468v.4363c-.2649-.0156-.5766-.0468-.8259-.0468-.7012 0-.9973.265-.9973.8259 0 .5766.2805.8259.7947.8259.3273 0 .7013-.0623 1.0908-.1402v.4363c-.4051.0779-.8103.1558-1.1999.1558z"/><path d="m88.911 31.81c-.4208 0-.5766.1558-.6077.4207h1.2154c-.0312-.2805-.2026-.4207-.6077-.4207zm-.0779 1.5894c-.2961 0-.561-.0312-.7636-.2026-.2181-.1714-.2961-.4519-.2961-.7479 0-.2805.0935-.5766.3429-.7636.2181-.1558.4986-.187.7947-.187.2493 0 .561.0312.7791.187.2961.2026.3117.5142.3117.8882h-1.7141c.0156.2805.1558.4519.67.4519.3117 0 .6701-.0467.9506-.0935v.3584c-.3428.0468-.7168.1091-1.0752.1091z"/><path d="m92.2454 33.337v-.9973c0-.3273-.1714-.4519-.4675-.4519-.2181 0-.4986.0623-.7324.109v1.3246h-.4986v-1.7765h.4051l.0156.1091c.3117-.0779.6701-.1558.9661-.1558.2182 0 .4519.0312.6234.187.1402.1246.2025.3116.2025.561v1.1063h-.5142z"/><path d="m94.1729 33.3867c-.2493 0-.4675-.0623-.5766-.2493-.0934-.1247-.1246-.2961-.1246-.5454v-.6701h-.3584v-.374h.3584l.0467-.5453h.4519v.5453h.7013v.374h-.7013v.5766c0 .1402.0156.2493.0468.3428.0467.1247.1714.1714.3272.1714.1247 0 .2649-.0156.3584-.0311v.3584c-.1714.0156-.374.0467-.5298.0467z"/><path d="m95.1523 33.3369v-1.792h.4052l.0156.1091c.3272-.0935.5765-.1559.8882-.1559h.0623v.4208c-.0623 0-.1246 0-.1714 0-.2493 0-.4363.0311-.7012.0935v1.3245z"/><path d="m98.3588 32.5823c-.2025-.0156-.4207-.0312-.6544-.0312-.374 0-.4987.0779-.4987.2493 0 .1559.1091.2494.3896.2494.2337 0 .5142-.0468.748-.1091zm.1091.7635-.0156-.109c-.3116.0779-.67.1558-.9817.1558-.187 0-.4051-.0312-.5454-.1247-.1402-.0935-.2025-.2493-.2025-.4363 0-.2026.0935-.3896.296-.4831.187-.0935.4363-.0935.6701-.0935.187 0 .4363.0156.6545.0312v-.0312c0-.2805-.187-.374-.6857-.374-.2026 0-.4363.0156-.67.0312v-.3584c.2493-.0156.5454-.0312.7791-.0312.3117 0 .6389.0312.8415.1715.2025.1402.2493.3428.2493.6233v1.0596z"/><path d="m99.5039 30.7823h.4991v2.5556h-.4991z"/></g></svg>