<?xml version="1.0" encoding="UTF-8"?>
<svg id="Capa_2" data-name="Capa 2" xmlns="http://www.w3.org/2000/svg" viewBox="0 0 1479.83 223.73">
  <defs>
    <style>
      .cls-1 {
        fill: #fff;
      }
    </style>
  </defs>
  <g id="Capa_1-2" data-name="Capa 1">
    <g>
      <g>
        <path class="cls-1" d="M374.74,122.29c6.17-22.93,5.09-39.38-3.28-50.31-8.33-10.86-23.95-16.14-47.75-16.14-25.32,0-46.58,5.59-63.2,16.62-14.54,9.65-24.97,23.28-30.15,39.4-.41,1.29.55,2.61,1.9,2.61h48.05s.48-1.3.48-1.3c5.37-14.46,15.25-20.91,32.04-20.91,7.27,0,12.25,1.49,14.4,4.29,1.33,1.74,1.61,4.09.83,6.99-3.27,12.14-21.94,15.53-38.42,18.52-2.48.45-4.9.89-7.21,1.35-30.14,5.89-65.95,17.18-75.45,52.47-3.64,13.54-2.15,25.16,4.32,33.6,6.99,9.12,19.28,13.95,35.53,13.95,20.1,0,40.56-7.78,56.7-21.44.19,4.93,3.38,8.11,6.01,10.95,5.11,5.52,7.46,5.69,20.5,5.69,2.7-.1,34.33,0,34.33,0l9.32-34.63s-2.59,13.94-10.93,12.47c-8.34-1.47-4.52-12.9-4.03-14.74l15.99-59.44ZM317.01,144.6l-2.52,9.36c-4.34,16.12-18.85,32.44-38.2,32.44-6.3,0-10.74-1.45-12.85-4.2-1.8-2.35-2.1-5.84-.87-10.39,2.91-10.82,11.89-17.32,29.11-21.08,11.94-2.62,19.14-4.26,25.33-6.13Z"/>
        <path class="cls-1" d="M973.57,122.29c6.17-22.93,5.09-39.39-3.28-50.32-8.33-10.86-23.95-16.14-47.75-16.14-25.32,0-46.59,5.59-63.2,16.62-14.55,9.65-24.97,23.27-30.15,39.4-.42,1.29.55,2.61,1.9,2.61h48.05l.49-1.3c5.37-14.46,15.25-20.91,32.03-20.91,7.27,0,12.25,1.48,14.4,4.29,1.33,1.74,1.61,4.09.83,7-3.27,12.14-21.94,15.53-38.42,18.52-2.48.45-4.9.89-7.21,1.35-30.14,5.89-65.95,17.18-75.44,52.47-3.65,13.54-2.15,25.16,4.32,33.6,6.99,9.12,19.28,13.95,35.53,13.95,20.1,0,40.56-7.78,56.7-21.45.2,4.94,3.39,8.11,6.01,10.95,5.11,5.53,7.46,5.69,20.5,5.69,1.85-.06,17.21-.04,26.75-.02l5.96-22.14h0c-8.32-1.49-4.51-12.89-4.01-14.74l15.99-59.43ZM913.32,153.97c-4.33,16.12-18.85,32.44-38.2,32.44-6.3,0-10.74-1.46-12.85-4.21-1.8-2.35-2.1-5.84-.87-10.38,2.91-10.82,11.89-17.32,29.11-21.08,11.94-2.62,19.14-4.26,25.33-6.14l-2.52,9.37Z"/>
        <path class="cls-1" d="M636.75,69.53c-6.81-8.89-18.16-13.39-33.72-13.39-26.18,0-43.71,12.39-59.19,25.62-3.24-16.11-16.23-25.62-35.35-25.62-22.1,0-41.15,11.02-53.25,22.77l4.83-17.96h-53.26l-42.43,157.69h53.26l24.31-90.33c5.13-19.06,16.12-29.14,31.79-29.14,6.9,0,11.08,1.26,13.16,3.97,2.89,3.77,2.59,11.08-1,24.43l-24.5,91.07h53.26l24.31-90.33c5.2-19.33,15.9-29.14,31.79-29.14,6.9,0,11.08,1.26,13.16,3.97,2.89,3.77,2.59,11.08-1,24.43l-24.5,91.07h53.87l28.34-105.34c5.12-19.02,3.82-33.74-3.86-43.76Z"/>
        <path class="cls-1" d="M805.15,74.19c-9.06-11.82-23.75-18.06-42.49-18.06-20.8,0-38.61,9.73-48.02,17.05L734.32,0h-53.26l-58.82,218.63h53.26l3.49-12.96c2.76,3.87,6.84,7.56,11.66,10.46,7.94,4.78,17.65,7.3,28.08,7.3,21.05,0,40.8-7.75,57.12-22.43,16.31-14.67,28.5-35.66,35.24-60.7,7.61-28.27,5.56-51.12-5.92-66.1ZM697.49,140.3c7.66-28.47,22.56-44.15,41.96-44.15,7.35,0,12.8,2.24,16.2,6.67,5.34,6.96,5.76,19.56,1.21,36.44-7.66,28.47-22.56,44.15-41.96,44.15-7.35,0-12.8-2.24-16.19-6.67-5.34-6.96-5.76-19.56-1.21-36.44Z"/>
        <polyline class="cls-1" points="955.63 218.6 961.59 196.46 961.59 196.45"/>
      </g>
      <g>
        <path class="cls-1" d="M1159.35,101.67c16.34-6.18,35.06-18.91,42.11-45.12,4.47-16.61,3.09-29.79-4.09-39.16-8.85-11.54-26.67-17.39-52.99-17.39h-108.05l-58.82,218.63h112.2c50.92,0,82.61-21.81,94.18-64.82,4.09-15.21,3.15-27.67-2.8-37.03-4.54-7.14-11.98-12.29-21.74-15.11ZM1138.05,66.92c-3.79,14.09-12.9,19.83-31.43,19.83h-34.23l10.39-38.63h35.3c10.2,0,16.26,1.7,19.06,5.35,2.25,2.94,2.55,7.34.9,13.44ZM1125.24,146.47c-4.77,17.75-15.14,24.03-39.62,24.03h-35.76l12.57-46.73h36.84c13.98,0,21.73,1.97,25.12,6.4,2.61,3.4,2.89,8.73.85,16.3Z"/>
        <path class="cls-1" d="M1296.48,55.83c-49.76,0-92.21,33.53-105.64,83.43-6.87,25.52-4.32,47.08,7.38,62.34,11.1,14.48,29.82,22.13,54.16,22.13,42.34,0,76.02-18.7,94.84-52.66l1.65-2.97h-54.51l-.59.9c-6.47,9.76-16.72,14.71-30.47,14.71-8.9,0-16.05-2.9-20.14-8.17-3.96-5.09-5.04-12.28-3.16-20.85h112.92l2.34-8.68c8.35-31.02,6.64-54.5-5.07-69.77-10.37-13.53-28.44-20.4-53.71-20.4ZM1287.11,94.65c8.93,0,15.53,2.45,19.08,7.08,3.44,4.49,4.18,10.95,2.21,19.23h-58.84c6.52-16.77,20.07-26.32,37.55-26.32Z"/>
        <path class="cls-1" d="M1441.74,100.96h27.32l10.77-40.02h-27.32l11.55-42.93h-53.26l-11.55,42.93h-21.8l-10.77,40.02h21.8l-17.58,65.32c-5.55,20.62-4.93,34.4,1.93,43.37,6.18,8.06,17.6,11.99,34.9,11.99,10.39,0,19.79-1.03,30.47-3.35l1.19-.26,10.24-38.04-3.02.45c-5.97.88-8.72,1.18-13.23,1.18-4.73,0-7.97-.39-9.46-2.34-1.6-2.09-1.51-6.52.27-13.15l17.53-65.16Z"/>
      </g>
      <g>
        <path class="cls-1" d="M261.83,0h0c-6.26,26.96-20.85,51.25-41.71,69.44l-102.92,89.75,61.9-117.16v-.56h-102L86.73,0h175.09Z"/>
        <path class="cls-1" d="M194.7,177.14l-9.64,41.46H0h0c6.26-26.96,20.85-51.25,41.71-69.44l103.47-90.23-61.9,117.16-.55.48v.56h111.97Z"/>
      </g>
    </g>
  </g>
</svg>