<svg xmlns="http://www.w3.org/2000/svg" xmlns:xlink="http://www.w3.org/1999/xlink" version="1.1" id="Layer_1" x="0px" y="0px" style="enable-background:new 0 0 1000 300;" xml:space="preserve" viewBox="161.2 31.81 677.61 236.21">
<style type="text/css">
	.st0{fill:#557086;}
</style>
<g id="Layer_2_00000087375548358901469260000011635218027410206382_">
	<g id="yXywv0">
		<path class="st0" d="M229.6,238.8c-7.8,7-18.2,10.6-28.7,9.8c-21.1-1.7-36-16.4-39-38.4c-2.7-20.1,2.1-37.8,19.3-50.2    c18.7-13.2,44.5-8.8,57.7,9.9c1.1,1.6,2.2,3.3,3.1,5.1c1.8,3.6,1.6,5.5-2.4,6.5c-0.6,0-1.1,0.4-1.6,0.6c-3.2,1.1-6.3,3.8-9.6,3.2    s-3.4-5.1-5.2-7.6c-7.1-10.1-21-12.5-31.1-5.5c-2.5,1.8-4.7,4.1-6.3,6.7c-8,12.7-8.4,28.7-1,41.7c5,9.1,14.4,12.9,25.5,11.3    c8.5-1.3,15.3-7.8,17.1-16.1c1-3.7,0-4.6-3.6-4.4c-4.3,0.2-8.7,0-13,0s-5.3-1.2-5.4-5.2c0-9.8-0.2-9.8,9.3-9.8h25.6    c3,0,4.1,0.9,3.9,4.1v41c0,4.1-1.8,5.5-5.6,5.2c-0.8,0-1.5,0-2.2,0C231.8,246.6,226.8,247.5,229.6,238.8L229.6,238.8z"/>
		<path class="st0" d="M162,77.5v-41c0-2.2-0.5-4.6,3.4-4.6c13.4,0.5,26.9-0.9,40.3,0.8c11.9,1.3,21.5,10.3,23.6,22    c2.5,13.4-2.2,24-13.9,30c-2.9,1.5-2.8,2.6-1.5,5c5.4,9.8,10.7,19.6,16.4,29.3c1.8,3.3,1.8,4.5-2.5,4.5    c-18.1-0.3-13.8,1.7-21.7-12.5c-3.4-6.1-6.6-12.3-9.9-18.5c-1.4-2.6-14.2-4.4-15.9-2.2c-0.5,1.2-0.7,2.5-0.6,3.8v23.3    c0,4.4-1.8,6-6.1,6.1c-11.1,0.3-11.1,0.4-11.1-10.9L162,77.5L162,77.5z M179.1,61.2v10.7c0,1.9,0,3.4,2.6,3.3    c6.4,0.3,12.8,0.1,19.2-0.7c6.9-0.8,11.8-7,11.1-13.9c0-0.1,0-0.2,0-0.2c-0.1-6.7-5.3-12.3-12-12.7c-2.3-0.3-4.5-0.4-6.8-0.4    C183.8,47.1,179.1,51.7,179.1,61.2L179.1,61.2L179.1,61.2z"/>
		<path class="st0" d="M344.4,187.2c15.9-10.7,26.1-10.2,37.9,1.6c6.8-7.7,17.4-10.8,27.3-8.2c8.8,1.6,15.1,9.3,15,18.2    c0.3,14.2,0,28.4,0.2,42.6c0,3.5-1.3,5.1-5,5.2c-10.8,0.5-10.8,0.6-10.8-10.1v-30.1c0-7.2-2.3-10.2-7.8-11.5    c-5.6-1.1-11.2,1.5-13.9,6.5c-2.1,4.1-3.1,8.6-2.9,13.2v27.2c0,3.7-1.1,4.9-4.8,4.8c-7.2,0-10.9-3.5-10.9-10.6v-27.8    c0-8.2-3.2-12.8-9.2-13.6c-6.7-0.3-12.6,4.2-14.3,10.7c-1.5,6.9-2,13.9-1.4,20.9V241c0,4.1-1.7,5.7-5.9,5.6    c-12.3-0.3-9.8,1.4-9.9-9.7v-47.7c0-2.7-0.2-5.9,2.8-6.9c4-1.2,8.3-1.2,12.3,0C344.7,182.5,343.5,185.2,344.4,187.2L344.4,187.2z"/>
		<path class="st0" d="M576.4,236.8c-5.8,4.1-12.8,6.2-19.8,5.9c-4-0.1-7.9-1.1-11.5-2.7c-13.4-6.2-19.3-25.1-13.2-41.7    c5.2-13.7,19.9-21.4,34.1-17.7c3.8,1.3,7.2,3.3,10.2,5.9c1.6-4.1,12.8-7.1,15.9-4.4c1.2,1,0.7,2.5,0.7,3.7c0,18.9,0.2,37.9,0,56.8    c-0.3,15.2-7,22.3-22,24.6c-7.8,1.4-15.9,1-23.6-1.1c-7.1-2-12.6-7.6-14.4-14.8c-1-3.1,0-4.1,3-4.1h10.2c1.6-0.2,3.1,0.4,4.1,1.7    c4.7,6.2,13.1,8.3,20.1,4.9C575.6,251.4,577.6,246.4,576.4,236.8L576.4,236.8z M546,211.6c0,10.4,6.1,16.9,15.7,16.8    c9.6,0,15.7-6.4,15.7-17.1s-5.9-17.5-15.6-17.5s-15.8,6.6-15.7,17.5L546,211.6L546,211.6z"/>
		<path class="st0" d="M699.2,119c-1.8,3.8-11.7,6.6-15.4,4.4c-1.4-0.9-1.1-2.3-1.1-3.6V37c0-3.4,1.2-4.6,4.6-4.8    c10.8-0.6,10.8-0.7,10.8,10.5V58c0,2.9,0.4,4.5,3.8,2.6c20.5-11.2,39.6,3.3,42.6,23.4c0.8,5.6,0.6,11.3-0.6,16.9    C740.4,118,720.3,134.9,699.2,119L699.2,119z M728.7,90.3c0-2.1-0.2-4.1-0.5-6.2c-1.1-7.2-7.2-12.6-14.5-13    c-6.9-0.5-13.2,4.1-14.7,10.9c-2.1,6.8-1.5,14.1,1.6,20.5c2.5,5.1,7.9,8.1,13.5,7.6c5.3-0.1,10-3.3,11.9-8.2    c1.8-3.6,2.7-7.5,2.7-11.5L728.7,90.3L728.7,90.3z"/>
		<path class="st0" d="M392.8,63.5c11.4-9.8,28.6-8.6,38.4,2.8c2.3,2.6,4,5.6,5.1,8.9c3.8,9.6,4.2,20.2,0.9,30    c-5,15.7-24.3,27.6-44.6,13.9c0,6.7-0.3,12.8,0,18.8c0.3,4.9-1.2,6.7-6.3,6.5c-9.5-0.4-9.6,0-9.6-9.6V69.6    c0-12.3-1.6-10.5,11.6-10.8C391.7,58.7,393.1,59.8,392.8,63.5L392.8,63.5z M392.5,90.5c-0.3,11.2,5,18.9,13.6,19.8    c10.4,1,17.2-6.4,17.3-19c0-11.3-6.2-19.3-15.5-19.6C398.7,71.4,392.8,79.1,392.5,90.5L392.5,90.5z"/>
		<path class="st0" d="M317,246.5h-14.8c-0.7,0-2,0-2.2-0.3c-3-5.8-6.4-1.5-9.5-0.3c-6.5,2.5-13.8,2.8-20.5,0.7    c-8.2-2.3-14-9.5-14.4-17.9c-0.3-8.4,4.6-16.1,12.3-19.4c5.7-2.1,11.5-3.7,17.5-4.6c2.8-0.7,5.6-1.1,8.2-1.9    c1.8-0.5,4.6-0.3,4.7-3.2c0.1-2.5-1.3-4.9-3.5-6.1c-7-3.9-15.9-1.3-19.8,5.7c-0.5,1.6-2.2,2.6-3.9,2.3l-5.7-0.3    c-7.3-0.5-8.2-1.6-5.2-8.2c2.3-5.3,6.8-9.4,12.3-11c8.9-2.9,18.4-3.2,27.4-0.7c10.1,2.6,14.2,7.8,14.4,18.3    c0.2,11.7,0,23.5,0,35.2C313.8,238.8,314.8,242.9,317,246.5L317,246.5z M282.9,234.2c11.2,0,16.6-5.9,15.6-16.4    c0-1.6,0-2.9-2.5-2.3c-5.8,1.6-11.8,2.5-17.5,4.1c-3.9,0.6-6.6,4.2-6.1,8.1c0.1,1,0.5,1.9,1,2.8c2.2,2.9,5.8,4.3,9.3,3.7    L282.9,234.2L282.9,234.2z"/>
		<path class="st0" d="M277.2,94.3c-6.3,0-12.5,0.3-18.8,0c-4.6-0.2-4.5,1.6-3.1,5c4.4,9.5,15.7,13.6,25.1,9.2    c1.8-0.8,3.5-1.9,4.9-3.3c1.4-1.3,2.2-4.3,4.8-3.1c3.9,1.9,7.6,4.2,11.1,6.6c0.8,0.5-0.3,1.6-0.9,2.4    c-6.7,10.3-23.6,16.4-37.6,13.6c-13.9-2.8-22.6-12.3-25.2-27.2s3.2-29.2,13.9-36.1c14.6-9.7,34.3-5.8,44,8.8    c2.8,4.2,4.6,9,5.1,14.1c1.7,12,2.2,9.8-8.7,10C287,94.4,282.1,94.3,277.2,94.3L277.2,94.3z M269,82.8h11.3c3.7,0,4.1-1.5,3-4.5    c-2.1-5.9-7.9-9.6-14.1-8.9c-6.4,0.3-12,4.5-13.9,10.6c-0.7,2.6,0.4,2.9,2.5,2.8C261.4,82.7,265.1,82.8,269,82.8L269,82.8z"/>
		<path class="st0" d="M814.8,94.3h-19.3c-3.7,0-4.1,1.3-3.1,4.4c3.9,9.5,14.8,14,24.3,10.1c2.2-0.9,4.1-2.2,5.8-3.8    c1.9-2.7,5.5-3.3,8.2-1.5c0.3,0.2,0.5,0.4,0.8,0.6c8.9,5.5,9,5.5,0.9,12.3c-20,17.2-50.7,8.8-56.8-15.3    c-4.1-17.1,2.2-34.2,15.5-41c23.2-11.6,48,4.3,47.7,30.5c0,2.8-0.9,3.7-3.6,3.6C828.3,94.2,821.5,94.3,814.8,94.3L814.8,94.3z     M806.5,82.8h11.3c3,0,3.6-0.9,2.7-3.7c-1.7-6-7.4-10.1-13.7-9.8c-6.6,0-12.4,4.2-14.5,10.5c-0.7,2.5,0.3,3,2.5,2.9    c4-0.1,8,0,11.9,0C806.8,82.8,806.5,82.8,806.5,82.8z"/>
		<path class="st0" d="M479.6,125.3c-18.1,0.2-33-14.3-33.1-32.4c0-1.1,0-2.1,0.1-3.2c0.7-20.3,15-33.5,35.5-32.8    c18.4,0.6,31.9,15.9,31.3,35.5C512.8,112.1,498.6,125.9,479.6,125.3L479.6,125.3z M496.6,90.8c0.1-3.3-0.6-6.6-2-9.7    c-2.5-6.4-8.9-10.3-15.8-9.8c-6.6,0-12.4,4.4-14.3,10.7c-2.1,6-1.9,12.5,0.5,18.3c3.1,8,11.8,12.2,20,9.8    C492.2,108.3,496.6,101.1,496.6,90.8z"/>
		<path class="st0" d="M537.2,64.3c5.7-5.2,13.3-7.9,21-7.6c10,0,18.2,7.8,18.7,17.8c0.7,14.9,0.4,29.9,0.6,45.1    c0,2.8-1.1,4.1-4.1,4.1c-11.9,0.9-11.8,1-11.8-10.7V84.6c0-7.2-3.3-11.2-8.8-12c-6.2-1.1-12.3,2.5-14.4,8.5    c-1.2,3.4-1.7,7-1.5,10.6v26.2c0,4.1-0.9,5.8-5.4,5.8c-10.9,0-10.9,0.2-10.9-10.7V66.4c0-5.1,2.5-7.7,7.5-7.7c1,0.1,1.9,0.1,2.9,0    C534.6,58.3,537.5,58.8,537.2,64.3z"/>
		<path class="st0" d="M614.8,125.3c-9.7,0-19.2-3.2-27-9c-2.5-1.9-2.8-3.2,0-5c1.3-0.8,2.4-1.8,3.5-2.9c3.1-3.3,5.6-4.3,9.8-0.7    c5.7,4.7,13.5,6,20.5,3.6c3.2-0.9,6.2-2.6,6.2-6.5s-3.4-4.6-6.3-5.3c-7.3-1.8-15-2.3-22-5.5c-13.1-6-15.4-20.5-4.8-30.2    c1.8-1.8,3.8-3.2,6.2-4.1c12.9-5.6,27.9-3.7,39,5c3.1,2.3,4.5,4.6,0.4,7.3c-0.6,0.4-1.2,1-1.6,1.6c-3.3,3.6-5.7,6.2-10.2,0.4    c-4.1-5-10.6-5.5-16.8-4.4c-3.3,0.6-6.5,1.9-6.8,5.7s3.2,5.4,6.3,6.1c5.9,1.3,11.9,2.3,17.8,3.6c9.6,2.1,15.1,7.2,16.4,15.1    c1,8.5-3.4,16.8-11,20.8C628.1,124.1,621.5,125.6,614.8,125.3L614.8,125.3z"/>
		<path class="st0" d="M337,125.2c-8.7-0.4-17.1-3.4-24.1-8.7c-2.6-1.9-3.3-3.5,0-5.4c0.6-0.4,1.2-0.9,1.8-1.4    c3.8-3.9,6.8-6.3,12.3-1.3c5.7,4.4,13.4,5.4,20,2.6c3.1-0.5,5.4-3.3,5.4-6.5c0-3.7-3.1-4.4-5.9-5c-6.1-1.4-12.3-2.4-18.2-4.1    c-10-2.9-15.4-9.1-15.6-17.2c0.1-9,6.1-16.9,14.8-19.4c12.3-4.6,26.1-2.5,36.6,5.5c3.7,2.7,4.9,5.1,0.5,8.2    c-0.3,0.2-0.6,0.5-0.8,0.7c-3.5,4.1-6.2,6.2-11.1,0.6c-4.9-5.6-11.8-5.6-18.5-3.6c-2.7,0.5-4.6,2.8-4.7,5.6c0,2.6,1.9,4.8,4.5,5.1    c6.4,1.6,13,2.8,19.4,4.1c10,2.2,15.6,7.5,16.7,16c0.5,8.6-4.2,16.6-11.9,20.3C351.5,124.6,344.2,125.9,337,125.2L337,125.2z"/>
		<path class="st0" d="M480.1,188.3c4.3-4.3,9.8-7.2,15.7-8.2c10.7-2.7,21.6,3.9,24.2,14.6c0.4,1.4,0.6,2.9,0.6,4.4    c0.7,14.3,0.2,28.7,0.4,43.1c0,3.1-1.2,4.1-4.4,4.4c-11.4,0.7-11.4,0.7-11.4-10.5v-28.4c0-6.9-3.4-11.4-8.7-12.3    c-6.2-1.1-12.3,2.5-14.5,8.4c-1.2,3.6-1.9,7.4-1.8,11.1v26.7c0,3.7-1.3,4.9-5,5c-11,0-11,0.3-11-10.4V188c0-5.2,1.8-6.9,6.6-6.4    c1.1,0.1,2.3,0.1,3.4,0C478.4,180.9,481.2,181.9,480.1,188.3L480.1,188.3z"/>
		<path class="st0" d="M767.5,78.2V118c0,4.6-1.2,6.3-6,6.2c-10.2-0.2-10.2,0-10.2-10.1v-74c0-5.5,2.7-8.2,8.2-8.2    c1.1,0.1,2.3,0.1,3.4,0c3.6-0.5,4.5,1.2,4.4,4.6v41.4L767.5,78.2L767.5,78.2z"/>
		<path class="st0" d="M436.7,213.5v-27.8c0-3.2,0.8-4.1,4.1-4.1c11.8,0,11.8-0.4,11.8,11.4v47.7c0,4.7-1.5,6.2-6.2,6.1    c-6.5,0-9.8-3.3-9.8-9.8L436.7,213.5L436.7,213.5z"/>
		<path class="st0" d="M654.2,91V62.6c0-2.9,0.7-3.8,3.8-4.1c12-0.4,12-0.5,12,11.7v46.6c0,5-1.2,7.1-6.7,6.8    c-9.1-0.4-9.2,0-9.2-9.4L654.2,91L654.2,91z"/>
	</g>
	<path class="st0" d="M440.3,157.3h7.4c1.4,0,2.5,1.1,2.5,2.5v7.4c0,1.4-1.1,2.5-2.5,2.5h-7.4c-1.4,0-2.5-1.1-2.5-2.5v-7.4   C437.8,158.4,438.9,157.3,440.3,157.3z"/>
	<path class="st0" d="M658.4,34.4h7.4c1.4,0,2.5,1.1,2.5,2.5v7.4c0,1.4-1.1,2.5-2.5,2.5h-7.4c-1.4,0-2.5-1.1-2.5-2.5v-7.4   C655.9,35.5,657,34.4,658.4,34.4z"/>
</g>
</svg>