<svg viewBox="0 0 181.92 48.46" xmlns="http://www.w3.org/2000/svg"><circle cx="24.23" cy="24.23" fill="#a3d712" r="24.23"/><circle cx="24.21" cy="24.23" r="18.63"/><path d="m10.9 22.16v-3.65c1.95-.34 3.34-1.43 4.18-3.28h2.53v17.99h-3.41v-12.73c-.69.71-1.79 1.26-3.31 1.67z" fill="#fff"/><path d="m20.1 23.41c-.96-.89-1.45-2.13-1.45-3.72 0-1.25.38-2.35 1.14-3.31.77-.98 1.96-1.47 3.56-1.47s2.69.48 3.49 1.43c.81.93 1.21 2.05 1.21 3.34 0 1.59-.48 2.83-1.45 3.72 1.39 1 2.09 2.49 2.09 4.47 0 1.62-.49 2.97-1.47 4.06-.98 1.07-2.27 1.6-3.87 1.6s-2.92-.55-3.9-1.64c-.96-1.09-1.45-2.43-1.45-4.03 0-1.07.21-1.98.62-2.73.41-.77.9-1.35 1.47-1.74zm3.25-1.34c.4 0 .75-.15 1.06-.44.31-.32.46-.78.46-1.4s-.15-1.11-.46-1.43-.66-.48-1.06-.48-.76.16-1.08.48c-.31.32-.46.8-.46 1.43 0 .59.15 1.05.46 1.37.33.32.69.48 1.08.48zm0 7.92c.59 0 1.05-.22 1.39-.65.36-.43.54-.99.54-1.67 0-.73-.19-1.32-.57-1.77-.36-.48-.82-.72-1.37-.72s-1.03.24-1.39.72c-.36.45-.54 1.05-.54 1.77s.17 1.27.52 1.71c.36.41.84.61 1.42.61z" fill="#fff"/><path d="m34.8 20.5v-.24h-1.55v3.22h-3.19v1.53h3.19v3.19h1.55v-3.19h3.19v-1.53h-3.19v-2.97z" fill="#fff" stroke="#fff" stroke-width="2"/><g fill="#7b82c0"><path d="m54.16 18.14h4.37c2.03 0 3.14 1.37 3.14 3.01s-1.12 2.98-3.14 2.98h-2.38v3.35h-1.99zm4.1 1.71h-2.12v2.58h2.12c.79 0 1.37-.5 1.37-1.29s-.59-1.29-1.37-1.29z"/><path d="m62.9 18.14h1.99v7.59h3.95v1.75h-5.94z"/><path d="m76.17 25.87h-4.17l-.59 1.61h-2.19l3.61-9.34h2.49l3.6 9.34h-2.17l-.59-1.61zm-3.64-1.72h3.1l-1.54-4.29z"/><path d="m81.46 23.66-3.6-5.52h2.27l2.33 3.75 2.3-3.75h2.27l-3.57 5.52v3.82h-1.99v-3.82z"/><path d="m94.92 24.13h-1.46v3.35h-1.99v-9.34h4.37c1.95 0 3.14 1.27 3.14 3.01s-1.04 2.54-2.04 2.77l2.1 3.56h-2.28l-1.83-3.35zm.63-4.28h-2.09v2.58h2.09c.8 0 1.4-.5 1.4-1.29s-.6-1.29-1.4-1.29z"/><path d="m100.47 18.14h6.61v1.71h-4.62v2.03h4.52v1.71h-4.52v2.17h4.62v1.72h-6.61z"/><path d="m109.08 24.65c.66.69 1.68 1.26 2.97 1.26 1.09 0 1.62-.52 1.62-1.05 0-.7-.81-.94-1.89-1.19-1.53-.35-3.49-.77-3.49-2.86 0-1.56 1.34-2.82 3.54-2.82 1.49 0 2.72.45 3.64 1.3l-1.11 1.46c-.76-.7-1.77-1.02-2.68-1.02s-1.37.39-1.37.95c0 .63.79.83 1.86 1.08 1.54.35 3.5.81 3.5 2.89 0 1.71-1.22 3-3.74 3-1.79 0-3.08-.6-3.96-1.49l1.09-1.51z"/><path d="m117.03 18.14h4.37c2.03 0 3.14 1.37 3.14 3.01s-1.12 2.98-3.14 2.98h-2.38v3.35h-1.99zm4.11 1.71h-2.12v2.58h2.12c.79 0 1.37-.5 1.37-1.29s-.59-1.29-1.37-1.29z"/><path d="m130.2 17.98c2.83 0 4.89 2.02 4.89 4.83s-2.06 4.83-4.89 4.83-4.87-2.02-4.87-4.83 2.06-4.83 4.87-4.83zm0 1.77c-1.72 0-2.83 1.32-2.83 3.07s1.11 3.07 2.83 3.07 2.84-1.33 2.84-3.07-1.12-3.07-2.84-3.07z"/><path d="m138.47 21.21v6.28h-1.99v-9.34h2.04l4.33 6.05v-6.05h1.99v9.34h-1.92z"/><path d="m147.13 24.65c.66.69 1.68 1.26 2.97 1.26 1.09 0 1.62-.52 1.62-1.05 0-.7-.81-.94-1.89-1.19-1.53-.35-3.49-.77-3.49-2.86 0-1.56 1.34-2.82 3.54-2.82 1.49 0 2.72.45 3.64 1.3l-1.11 1.46c-.76-.7-1.77-1.02-2.68-1.02s-1.37.39-1.37.95c0 .63.79.83 1.86 1.08 1.54.35 3.5.81 3.5 2.89 0 1.71-1.22 3-3.74 3-1.79 0-3.08-.6-3.96-1.49l1.09-1.51z"/><path d="m155.08 18.14h1.99v9.34h-1.99z"/><path d="m158.92 18.14h4.92c1.78 0 2.69 1.13 2.69 2.38 0 1.18-.73 1.96-1.61 2.14.99.15 1.79 1.12 1.79 2.3 0 1.4-.94 2.52-2.72 2.52h-5.07zm4.48 3.75c.67 0 1.09-.43 1.09-1.04s-.42-1.02-1.09-1.02h-2.49v2.06zm.07 3.9c.76 0 1.21-.43 1.21-1.11 0-.59-.42-1.09-1.21-1.09h-2.56v2.2z"/><path d="m168.2 18.14h1.99v7.59h3.95v1.75h-5.94z"/><path d="m176.35 23.66-3.6-5.52h2.27l2.33 3.75 2.3-3.75h2.27l-3.57 5.52v3.82h-1.99v-3.82z"/></g></svg>
